<mxfile host="app.diagrams.net" agent="Mozilla/5.0 (Windows NT 10.0; Win64; x64) AppleWebKit/537.36 (KHTML, like Gecko) Chrome/131.0.0.0 Safari/537.36" version="25.0.1">
  <diagram id="C5RBs43oDa-KdzZeNtuy" name="Page-1">
    <mxGraphModel dx="1661" dy="1902" grid="1" gridSize="10" guides="1" tooltips="1" connect="1" arrows="1" fold="1" page="1" pageScale="1" pageWidth="827" pageHeight="1169" math="0" shadow="0">
      <root>
        <mxCell id="WIyWlLk6GJQsqaUBKTNV-0" />
        <mxCell id="WIyWlLk6GJQsqaUBKTNV-1" parent="WIyWlLk6GJQsqaUBKTNV-0" />
        <mxCell id="23GlFV0wK0m30or0m1ka-0" value="&lt;h2&gt;Refer And Earn&lt;/h2&gt;" style="rounded=1;whiteSpace=wrap;html=1;" parent="WIyWlLk6GJQsqaUBKTNV-1" vertex="1">
          <mxGeometry x="280" y="50" width="180" height="60" as="geometry" />
        </mxCell>
        <mxCell id="23GlFV0wK0m30or0m1ka-1" value="" style="shape=image;verticalLabelPosition=bottom;labelBackgroundColor=default;verticalAlign=top;aspect=fixed;imageAspect=0;image=data:image/png,iVBORw0KGgoAAAANSUhEUgAAAOQAAAFMCAYAAADbbxC6AAAAAXNSR0IArs4c6QAAAARnQU1BAACxjwv8YQUAAAAJcEhZcwAADsMAAA7DAcdvqGQAAE8MSURBVHhe7Z0LXJVF/v8/iiDgBVTEK6BoCl7STCwkTRNtbbttrn9rW9s2dTXXS2qu3TRLK8tyTfuZrVmrtuXWWlabbaJ5JVzFC3lDwwugIhcVRAHFy/8788wMcw7ncA5g9tTO+/WaM9/v9zPPPHPgfJ+Z5zkPPDV+SEu/CoPBYAtqitpgMNgAk5AGg40wCWkw2AiTkAaDjTAJaTDYCJOQBoONMAlpMNgIk5AGg40wCWkw2AiTkAaDjTAJaTDYCJOQBoONMAlpMNgIk5AGg42o4M+vruB8bh7OXfJHcLP6qC2iikvnkZt7HlcC66NJkL8IeksJzmadRbHwGDWpn0bUjzlCGP6XqeDzfwG5qSnYuet7pBeKkMaF4/uwfQfpR8+JSGU4h6M79uLIyTzkUdLn5Wbh0H83YUNKHi6JFgbD/yIeJ6RAmvwy008LT3IW6YcvoGnT+sKvCoFo2r4DOt7IShfcekcXNMrejR/OCJlx5QoulZTgkpssvXKpBBcuXhFeebheconmehdcvkQa9X1Z+AaDDfCYkMEtmsI3MxPZelKcOYHMq00RElz2aT69Zx3W7nFM3NyUBGxM1TOsAmrVQ/2ASyg4Yy1kz2fuxLpv1mHDd8nYsGYtNu7RZs8r53E0aS1Wr0nCfzduwLrv03FgUwK+zynTjyVvtPTvNmHNtztxTJvIed8Jm/Ddd1uxYfVG7Mg8LxSD4afF8ylbcAuE181BVm7ZPHP6eBZ8W4ai9rmyD3LDiDBK3BNQzS7l4PiJADRt0UAEPHClGMWUi/XqBgAXT+NY5mW07tUP/e64Df3iOyP4RCoOi6Vzfup2HPKLQt8BfdE7vi96NS7EsbOWxjibthMHakUhnul39MUd0b44sPUg8pl4KQs/fH8JrW/vi7539Ea/Pm1QO+8sTEoa7EAFF3WKcXTTZpxt3x/ti7dh3Ymm6BsbhtqUaLsS0tGwbwwCDiRgO27Cr7qEqPb5bfuha7OauJKVgtVHG1rbWB1q5OH7r1KBju3QhMQrxfnIPpaJkz5tcXtcBCglFWzZWVp8Bge27QE69ceNoWewf/UuIKYvolWun8XBb/+LEq4zexcud+qBSLWiPou0DWkIiOuJyMDT2L8mBRfa3YzolvVRu5ZoUglyc3KFZTC4p3FoY2F5j1cJeWNDloQHEXjbbWh7lhItMwR9b22Bs7QkLUtI4EI6Je7pCAy4KQTZ29ciM7QXeoS5ugLLEnI3ipo3QT0f5tdCncZN0bJJfdRic/aVEmTvS8GeTFpn1q6N2nXroFZ+HgK7soRj2x5C/b63oFUg25ahjZXrO5EbEABfoUqadL4N7elndKXwOPbsPoTcggu47BuMsM6dEd2ksleKDYZrj+clK6NWKMLDSnEyKw8nMnPQNKKZi1mPcqdFSzQ9kYXsoixk5oQiollFH3L9ok47tGomkpGRl4aduQ1w8wBryXpbjyg0VdOmH/wDzuKsfnFXLHctmB6AsJtvo+WqY2HJyKhZrwVu7EnL1YH9cPtNQShITsFR/TsYg+EnwruEJBq2aIbS43QedzYM4U3cbFarCZo1p/PNvTkoDAtDkyosBxW1fOFbwzIvnUpHhjpHrI8wWoue2JOCY4XsKup5ZO9JBZ1yCuqjaUsgM+04ikXsSuERbPk2FbnMLziCzev2iItUNWkCdp5HDYafDq8TEg2aI4yWhqUtm6Ch261qokl4GM7k5KN5s4YiVgVCWiOq1mFsWr0OG9esw6YjNRGsfcMS0Opm3NoKOLotGf/9bh9ON4lC27pCJOq37Y4OtY7w7dd9uw6rE7MQ1LEVGrPlcVAYOjQ5i5QEoW3KhN+NndBKP3E1GH4irv0/Sj6VirXf10JM37Y0V1UPfkGHlqC11VpWcgVXLtdETX7+yTiPwxu/Q3FUf3QMFSEG+66xFPD1r1X+yCM1P9K8PywZDD8q1/CjyG6Hy8KB1OOo17ZltZORUbOWv4tkBM4e/A6rN+9Dtliy5u7bg4OXWiDUeVL2qYXarpKRITWTjAYbce1myOIc7N2XhVoh4WgT0QDVOX30zCXkpx/EwfTTKLlUE/4hYWgXFYZgPyEbDD9Trv2S1WAwVBmzYDMYbIRJSIPBRpiENBhshElIg8FGmIQ0GGyESUiDwUaYhDQYbIRJSIPBRpiENBhshElIg8FGmIQ0GGyESUiDwUaYhDQYbIRJSIPBRpiENBhshElIg8FGmIQ0GGyESUiDwUaYhDQYbIRJSIPBRpiENBhshElIg8FGeJWQuTmnkLrvAAoLXTzbXMA01oa1NRgMVcOrhEzc9B1eeXEO9u85ICLl2Ucaa8PaGgyGqmGWrAaDjfAqIaOi2+E3g+9Gy7DmIlKelmHNeBvW9n+Oy6UoLiwVjsFQdVw+SoCdD65dvZ7brdu0Qm0/P6TuP8h9T7CEvHDhAo4cTud+vwF9UK9ePW57ImXBSMzZCLQd9iqm9g8WUZ1MrBg3E1/khGHIm8/hriYiXEWKD6zGu39bheTj1tNa/epF4vbHhmFIbEi5py9XRNqyyZjxVRCGzKMx6U/fMtiKdWs2oF1UW7Ro2UJE7IfLhDxx7ASefvIFbve/sy/q1A/Eyk++4r4n7h/8axTmn8PahA3cf+X159G8pfuZVUcmJJoMxIw370e4FS5j73KMmrEOxah+QmZ99SqmLUtHSP/BeGTATWheuxAp33yCFf85gMBf/QUvDm3jfVIWZiLlUC2069oM5jGT9iQz4zie+8uLqFu3Dp6aNglh4fZMSpcJeZFmuMOHjnK7QcMGSEr8Lz775N882aKj2/O4M2wGZW3YsjU27hacOX2GxyNphvWr7eoB6OXhCXmqPTrsPYW2r76EQRFC4JQi+c0xePdse4TuLcKtLCFD2FLxPFAnGAEO2UPxfIr7U9zVU9VPb8arY5fh/IPT8eI9zUTQonjHYjz1WipiXpiN3/O3Kvpy2kdpYT4u+Yr+S4tQQE0CgwN5EpcW5aPoIm/mgJ8cTwm1L3HVoA6CAvWdsH5ZOz8E1qO+1fMwy2DjKGJPhnbe1lCONd+sw7L3lyOwTgCee2GyLWdKl+eQLIGiOrTnpUnTsjVYi+bNVdy5NGte9sFm28i4t8moaNQDsR3zkLBmvwgISnYjaWsAbovrJAKEz0msen4KJnxwSAQElHCvj5qOFU5hSW7ieuxrFI9H7nJMRkZAt0G4J+osEjbuFpFULBk1BUuky6HxvTQFryTkWe7ujzBu1EfYZ3nY9/cp5Jcvsn1uwhyX+ri/p3KdUbz3Ezz92ASMm/gSpoydgOGPvooVB4uEShTtx/LJozGc3ue0adPx5GNjMH7Rblo9GNwRT6u9oX98EEXnizHz+dnISM8Uin2w4VXWIMT264rib9cjuUSEiIJNCUiufStu7SgCnDDE3x2J4k3bsJ/NEoKMtWuQ1qQPeju0LSP9CP0ioqLQ1sWMAwSjY9emwKEs5IpIZeky+h0sWV5WZj0cRtNnD9zbL4Trje95zkFf+JcetNcw/Pa+zlxH9mq88vJWNH/8VSx5bzYWLnsLswaV4osXlqifScZXH+Dri30x9e9z8ea8uVj0xiCEbF2Fdfb7jNkKPSlffuF12yWlLb/28O12C7pjF5J2yCuXeUhcexihA+PQVkQkQTFx6FC0BdvV5JKJbZvzEBF/W/lzUE4eck4I0w21fK7h0u/4Krz9jwLEjnkI3QNFTKdoB5a8tRVBDw/DPWIFlbFuA9I734fhPeWFLV80u2cQ+tcu+5lcPEdr5IA6qMM9osUATF00BXdR7hsqRiZlcVEJT8ojh44I5afHnt9D+ndD/B0BSF69GQXMT9+MdUcjcWc/F5+24FvQL7YYCRvEmvLwdmzJjkTvOGs2Kk8IQr27xlR9inZj4YzPgYcnYlQ3F9l4OQurZr6D/d3H4GntXPbMaVra7v0Xpo17FpNlmfAeNl+g5e4p/hNB27t+iy5nP8dTjz6Bp19ejBUJ+5GlrSgMFVPL98d9xndVsWdCEtHxfRCamojEbCCNlq85MX1xe0MhOuCL7r16AImb+XIubUNFbS1Cm1Gyph5ChvD5VdKk3cjip2ilSDtIy5jwZmjMxSrCk+0tJDUchLFOF44sipDyzhz883QcHnusc/mrs23iMOShQVp5CMPHjMRD3YIsvcltmDj/LcybMQz9bqD3/e/5eGrEq1hDPy9DxbCLO+//7QMEBPrjmeefROs2rYXy02PbhEREH9wZlYktW7ciZWcxuve8yf3XEF16Wsu5nbuxZZOHtkR479sRkfM1Pv9OXCSp1wjYuRRPvbEZuXtXYPm2APS/XZzPSbRzVKCYljvCdEPWl4sp2Xpg4nMDXCZ28baP8HZiEIZMfQRdnK4EN2jMZvcQ3BDbDd1V6YyOXTojuoV4Z6VFKC71RVBkZ8QPHoYpcyZhYIPD2LhVXGgyuES/0sqSMTzCXmt8lwnJvvZgN4qzkn0yR0TpdOjECRV3LlknskQr8G1knPVVNYIRExeJ9M8+RMK5vojvUUGK+USj94AQ7P38c6TAQ1tGkwF4/OEwJM97HnM+oZkx/yJaPTgYsYeW4ckZ64DewzBIXRAKQ4euQNIHy5FyuhSlJfnYv3wlNrr41kLCvjqZtbwAvf80CK0u5qMgX5QicU58fDVembsVrX83DHF1NF3c7RPebyA6/LAcbyzfjwIWulyKrPXv4qnHpmMFv9+iFMkLJmDUi6uQIZapxWk7sI9+VY1DxAxqKIfz1x52S0aG/W4MwBgsGS1mp5IdmD/sHWTc/xxmDxY/vOzVmDZ+q/U9pH5jQPpKTJ7yNQrv/AsW/rGNCFZEKXKTVmD+onVIl7OdbwACrvjitmnyO0jB6a1Y+MLfkZRN06RPADoMnoTeJ2bi67CX8OI9NJtRAv7hNWDi8mHoQs3VDQ7O9LbeW+6XM/HkP1xc3Ws1CK/PsmbU4oOr8fbcFXQQsCT4NkX/cRPw+xhxoYd97fH8fHydKaZuNq77x2Lc4Dbm5gQXsKupU6fM5DcGPP38JLQM+xndGPBT3TpXLU6vw4zRa9Ch3A0FnuFf5MP6Yr3g2zkY93EQJs6h5HK+DlNCM6S/b4XL4WuNdZOBn7rpwBmlu7lxwFAGu3UuKqodmrV0dU5vD1wmpDN8+UkJ2eOWm93OdsePHce2/+7gCcluCLhu0HKu9EopUhY9j/k5d2He9L4wizbDzxWvLurI2+KOZbr/Au9YZhZv4+1Mes1IWYrhQydgflIIhowwyWj4eWPfq6ze0u0RLFz0FpYsm4K77HsTv8HgFV4tWdm/5TiVl4cWYc3dng+y887jNIM2CglB49BGImowGCqDVwlpMBiuDz//JavB8AvCJKTBYCNMQhoMNsIkpMFgI0xCGgw2wiSkwWAjTEIaDDbCJKTBYCNMQhoMNsIkpMFgI0xCGgw2wiSkwWAjTEIaDDbCJKTBYCNMQhoMNsIkpMFgI0xCGgw2wiSkwWAjTEIaDDbCJKTBYCNMQhoMNsIkpMFgI0xCGgw2wiSkwWAjTEIaDDbCJKTBYCO8epRAZsZx7N+biqKiip/jHRgYiA6domz7MEyDwe54TMiVK77Eyn/9G1e9fAJIjRrA//vdA7jrnjtFxHvkk4fbDnsVU/uLJwU7kIkV42bii5wwDHF+gnIVKNj2CRZ+sA772JORCb96kbj9sWEYEhtyXR/Karg+sAe2totqixYt7TthVLhk3b5tB3/mo7fJyGBt//mPT7H3+30iUnnS/r0eGcJ2YG8iEnKEXU2yvpyJcW+sQ/6Ng/HU7Fcxb/YTGNIb2Pbms5jxZZZoZfilwFZ5f3/3Q7w8/Q1u25UKE3Ljt98Jy+L+wb9GWERL4Vn4+fpg/JOjEHNrNxGx+JaORlWiY3t0yN6GbdYT0TVKkbxmHdfVE8svl6I4Px/FpcJXiHiJcJ05vRlLl2ci4uGpeGVYX0SHBSMoLBrxQ6fgxT+1R/o/3sIKp/2zR4cXUJ8F+UXUuyOlhWJfpUXI2rsbGfllLUoLs7B/VyYK3IyFbcv7LSr3JiyoT7VfayI3VIGw8BYY+scHce7cebz8wmz+xG87UmFCZmQcE5ZFyxbNUadOgPAsavsH4Kabu6J5c8f14+FD5TLKOxr1QGzHPCSs2S8CgpLdSNoagNviOokA4XMSq56fggkfHBIBASXc66OmY4VTWJKbuB77Gg3E8HvKP2s+6PbBGNqvPfwKxPny5SxsfG0yhj82BVOeeQlT/jwBw0cvRYo6naaxvjQFr/xjJeaPfwaz5r6NqaPGY876LKQsmozR4+dg4TyajYdNxuId2jm47HfEM9TvdIx7bAzGz9uKAi3psr6dj/GPTsCTk2dj2kTa76OvYpV9D+62J/7Ovjwpi84XY+bzs5GRnikU++A2IS9evIgzp89wu9ftsXh62kRE0ez08B+GcDsg0ErMwsJzGD9qMj7/9GvuS9i2paVujvoVEoTYfl1R/O16JGuzSsGmBCTXvhW3dhQBThji745E8aZt2K99kDPWrkFakz7o7dC2jPQj9IuIaoNw4TvgQ32OeAT33BjI3dw1H+HDo5EY9uZbWLhgNhYunY7f1k/E2/90zPb070sQ//pcvLloARaOvxkHF8/AB6WPYN57s/Hme3/FxDhacXy8Gbm8dSlS3puDxflxmPoetV8wF0sWjUT0vsWY+an4kJTswL8W70HbEX/FokUvWX3EnsUXq3aXm6EN3qMn5csvvG67pHSbkDnZuerccdOGJLzy4hyk7j2Afyz5J7eLi4otkSgoKETr1uF47x8LEHPLTTzGts2lPqqCb7db0B27kLRDfvTykLj2MEIHxqGtiEiCYuLQoWgLtqeKADKxbXMeIuJvc51w1FfOCWFqFBzegeQkrRzO5/HGd06khHkcvZuIyzw+zdD91qYo/uGQSC6LiPh4RFs5jIDIMISWNsCtv+oM67AViC63RgFHM8F3XbITG9f6YeCj96Ot2Ab1uuGhQZHI2bTdOn8uKULR5QD41uYqQX2MfgkLR3Q2F5yqiUzK4qISnpRHDh0Ryk+P24TMPpktLO+4QLNhdlY2rly+IiLUR3YVr8D4d0P8HQFIXr0ZBcxP34x1NEvd2S+Myw4E34J+scVI2LDb8g9vx5bsSPSOC7H8coQgtLkwNU4krsA/P2LlI7z71juYv1YeOUspWTdjxaK3MWPcs5g8YjSeWn4SKHubbghAQB1hOlOQT8mch/VzqT/WpygzP6Zlfs4p8HUJva9B9wdh+5sTMGLEq5i/bDU/SJjZ8dpQy7eWsOxFBQlZfnZ7a+4ipO77QXiOnDiWhaeffAHbk1NEhM6BTlQuqXWi4/sgNDURidRFGi1fc2L64vaGQnTAF9179QASN/MlbtqGitpahIZSsqYecriSGz30Jcyex8pE/JoSNqKpdX6Z+9WrGDf1c6T5R2HgY6Pwl9mvY9bDLg4MlSYEXe8bhCEPaeWx4Rg7fgBacd0XbR98AQvem46JQ29C45yteHfqFDy52CxZq8uab9bh/b99QKdd/njm+SfRuk1rofz0uE3IkzTbVZfsk9X4jiKiD+6MysSWrVuRsrMY3Xve5H6p1qUn+temJe7O3diyyUNbIrzv7YjI+Rqff+fiRocDG7AmMwDt2rEZNg/bNmWi+eCJmDK0L7p3DUPj4EDk5+RZbatKUAga+5xH3Zbd0D1WKzdFoUuPMDqLtigtpPEFNkN07wF4cNJz+OuITshP2Iqqf6FkYMm47P3lCKwTwJMxPOJaHFyvHW4TMtfNh65tu0hEdbjBobCYK9h5aNUJRkxcJNI/+xAJ5/oivkcFKeYTjd4DQrD388+RAg9tGU0G4HGa5ZLnPY85n+xGFv9aIQ8Z65fj6ZnrgN7DMKg9axiEUJooT+xLRS6flmj5uncl/rW+7Py5StCSfGC8LxLmv42Nx635rjR/P1a8OAHD39phzYDpK/HMiOexOEksU0vp4LD9EI29ERow31Bp9GR87oXJtktGhtuE9PHxEVYZQ373AKa+OAVPT3vSobDY4AfvF63KqO2nrkhUiaBe/dH9QjHqDYxDdPnhOBAeG4N6RzNR2CvGY1tGs3um4PXxNyP/67fw1KgpGDfqWUyl5WDwvWMwa6S8GEPL4aHDEHtsOZ4cOhJ/eHAMnvwEuP1X1f9Ftn3kWYyNOYllk8ZQvyMxfNRcbAwehKkjulmze8T9mPincOx/awqGk/6Hoc9iWUZnjHr+fjcXqwwVwa6msmSsW7cOnp0+2bZ367i9de7ggTTMnjkHF0sv89vhfv/og/zqVEV8s2oNPlr2Cb/CWtvfj5J1ElpHWmdEPzqn12HG6DXo8OpLGKTuHPCSkiIUlPoiqJ77mZV9gV+EOhW2qRLs5obC8zRrBiPAX8R0hH7Rj/YdeI33/T8Gu3UuKqodmrUs//2zXajwXlZ2i9Ge3ftwY5cOXh9R2DZ7aZsuXTpdnzdOH9jSK6VIWfQ85ufchXnT+6pzMIPh54ZXf+1ha3Ysxh9e20qry0gMmTUFd5k/NDH8jPn5JyTYkg4IuNZLSYPhJ8DtRZ2fD74mGQ2/GH4BCWkw/HIwCWkw2AiTkAaDjTAJaTDYCJOQBoONMAlpMNgIk5AGg40wCWkw2AiTkAaDjTAJaTDYCJOQBoONMAlpMNgIk5AGg40wCWkw2AiTkAaDjTAJaTDYCJOQBoONMAlpMNgIk5AGg40wCWkw2AiTkAaDjTAJaTDYCJOQBoONMAlpMNgIjwlZXOz50WvsATvsQSYGg6F6VJiQu3akYNLYZ/gDdNzx0Qcf4z9frcGxjBM8ea9c8fisb4PB4Aa3CXlg/0HMn/MOzp8rwmsz5+D0qdNCKeOD95fjP/9ey+3SS6WYO/v/8LcF75ukNBiqiMuEvHzpEt6e9y4uXbrM/bNnz2HWi2+guKjsEeDnz53nT1lmT1COjIzAd5u2IHXfD0javBXvv/sBrrKHRP5SKS1CQZGbJ/3z5zm60SQVbW/4n8ZlQvrUqoXxTz4Of38/EQGys/OQoz3mvE7dOpgwZQyemPxn1Kzlg9JSK3kZG79NxOK/La10UqYsYE8pHokZCfki4kwmVoxjbWZiVbYIVQX2CLsHFyNFuA5kr8Y0vX+WYPlFKHt7Rdj4xgSMG/GR2D4Pq54aiWlfWj+btA+fwagRr2JVDnet5GPbC7f89obrBbvOcfyY+9MvO+B2ydq6TWs8NXUiAgLLHuv76T+/wOXLZYnHYEl3ufSS8MrYtO47rF29XniVI+3f65EhbAf2JiJBftCvF3nr8MqoOUhQx6JAxP7xCYyddi+6iIhO2/vHYeJTw9A3VAR2f4Rxoz7CPuF62t7w48Cug/z93Q/x8vQ3Krwm8lNT4UUdlpQzZk2lxJyAyDatsGvnbjqvXOiQlDVr1kQN9sxzF2xYlyisStCxPTpkb8O2dOErSpG8Zh3X1RPL+eyVj+Jyqz8RLxFuVVGzm9VfgViK+gZF4IbmdbhdDv9GaNUqCLWYzR6Vfu4iGRdRxLYXy1TX24t9VDDu0iJLl+MweE9YeAsM/eODOEenWi+/MNu2M2WFCcloHBqC6I5RmEJJ2bZdJHZu/x5vzXmHn2deKCnB7JffxOHD6WgZ1gINGzXALbE3Y9TYYZSoNeA6TT3QqAdiO+YhYc1+ERCU7EbS1gDcFtdJBAifk1j1/BRM+OCQCAhOb8bro6ZjhVO40rDZ7fmvcQIn8QXtZ9xL65BL4dyEOcouhzYj8nYLdpG1CwtH0fZ/T+VNym1ftB/LJ4/HqD9Px7TJtOR9dDRmfHII6guny1nY+NpkDH/sGUyZ9hKmjBqDEdNXI8txsWLwQPydfXlSFp0vxsznZyMjPVMo9sFjQkr8/f0x+elxuKFda+zYnsJnyjmvvoW0g4fRunU4np3+JF56bRoeHzcCsXE98KfH/4i+8b3E1pUhCLH9uqL42/VI1maKgk0JSK59K27tKAKcMMTfHYniTduwX/twZqxdg7QmfdDboW0V6DYMS94cRDNyGIa8+Q6WzBqAxkLyhsb3PIclf+lBVg9MXE7bj+5sCQ7QOejMuUhq+SjmLZ2LNxctwLuz70bpytfwbpI1E5ZuXYnFKZEYRtrCebOxcNEY3HxmFValmJmysuhJ+fILr9suKb1OSIZ/QACefOYJvnzduWM3Uvf/wGfNKdMmIrBOIC9y+Rrb6xZKyNu5XVl8u92C7jSrJO2QH7g8JK49jNCBcWgrIpKgmDh0KNqC7dbkQ2Ri2+Y8RMTfhnARsTWHN2Pd4U4YNKIHgnyskG/YXXjojgAkf7eTFrI0gbKbM2r70dmnILAzRr05F8O6mSdHVwWZlMVFJTwpjxw6IpSfHq8T8uKFC0jdd4AGfxRyLdqhU3tMefYJ1K5dm7SDKC29Rkds/26IZx/I1ZtRwPx0+tAejcSd/cK47EDwLegXW4yEDbst//B2bMmORO+4EMu3O/mnkIP9+PCpZzF5XFlZmEhJmJsPdr05qOd9uLfRdswfMRqjpr2N5V/uQEa+mR2rQy1ffpZvO7xKSHa++NfZ/4dXXpyDWTP+isNpR3Fj14548qlx8KNkfO9vS0l7A2++vqDcVdiqEh3fB6GpiUjMBtJo+ZoT0xe3NxSiA77o3ouWhYmb+RI3bUNFbR3Rvqkp43xR2bnbdSMCfR4ahCFaGTpiJMb+rjOCmezfBoNmv4mFs8fiDzEhyE1aiql/fgYf7DJJWRXWfLMO7//tA/4NwjPPP8kvXtoFjwkpk3HfngMiYjFoyH38+8qPP1yBTeuTeGx3yr5yV2GrTEQf3BmViS1btyJlZzG697yJUs8NXXqif21a4u7cjS2bPLRltAijFNiKpP+W3eggydi6DTk+zdDiek2wjRqBfUMS0r4buseWlS5dotDlxmbW+2BXk2moAWHRiL1nMMa+/DKGdT6LhO/UOt3gJSwZl72/nE6vAngyhke4WHX9hFSYkCyxWDKyRHMFOyH+6ovVwrNgV2EXvrWYtq3u7XPBiImLRPpnHyLhXF/E96ggxXyi0XtACPZ+/jlS4KEto8ltGNS7PpL/71UsTsqyvkrIz8P+L+fjjZV0/vngXegizucQFIzGdA6bcbioakvyYJZwWcjILHW9PR147ul4GMteX4n9YhlaenwzFk6cgGc+sS44ZHw6HaMmLkWy1LN3IOUgENqYz58GL9GT8bkXJtsuGRluE5IlFJvtXCVj5y4dEBbeEi1aNEPHzu1FtIytSdvx9vxF1b6nNahXf3S/UIx6A+MQLRPEDeGxMah3NBOFvWI8tmVfzncZ+SzG3uGLbW9Nxzj2lcSoZzHr45No+/Bf8PQ9zUQ7wr8Hfju0Gba/OQHDH12KlMpO/pED8Pt+BfjX5DEYPtXVVyXB6D3pLxgSnIhZo8bwO5WGT/oQJ2JG4rkHrA9M+ANjMCwyFfOlPv5DZHQfpnSDZ9jkwZKxbt06eHb6ZLRo2UIo9qLGD2npLu9vW7TgfWzeuEV4ZbBzxyeeHM2Xq4yLFy/ijVfm8SuuzvTt1wuPjvi98H5kTq/DjNFr0OHVlzBI3TngDewL+fO46FMHQfUqmFlp2Vh6xRe+HiZft9DsWFqTtq/oYMFuRDh/EX51ghHgaj/sRoOSCnRDhbBb56Ki2qFZS+2AazNczpAlxcUuk5FdVR036XGVjAw/Pz9Memos2rWPFJEyNqzbfO2uvLqDJQp9kJOXr0JaVDziK5WMDF8EBAdXnIwMn2okI4M2rjAZGb6BtEKuINn8PeiGCmFfw9k5GRkuE5J93/jHPznObO2i2mDC5D/T56r8p4FdaZ309Hh+g4CEfR05cvRjLttfU1KWYvjQCZifFIIhI/oiSIQNhp8jbpesDHkS3OaG1njquQk88SqiqKgIL09/nd+8O3zkI+jVN04oPya05CwEAjzNcAbDz4AKE5Jx9Eg6mjZrwm+d8wb2XwPY30na8QqWwWB3PCakwWC4fni8McBgMFw/TEIaDDbCJKTBYCNMQhoMNsIkpMFgI0xCGgw2wiSkwWAjTEIaDDbCJKTBYCNMQhoMNsIkpMFgI0xCGgw2wiSkwWAjTEIaDDbCJKTBYCNMQhoMNsIkpMFgI0xCGgw2wiSkwWAjTEIaDDbCJKTBYCNMQhoMNsIkpMFgI7z+v6xnzpxB+pFM/o+Tjx7K4DWjVesItGoTbtWtwxHcwDwizWCoKm4T8tKlS1j1xTf44eAhHD2cjrNnzwmlYoKC6qFVZATatW+LgXf3d3gwj8FgqBi3S1Y2A674+At8v2uv18nIKCgoRMrOPfhk+UrqI0NEDQaDN7hNyEull4RVdX70R9EZDL8wqnxRJzAwgJdrScqCkfwJwTMS8kXEmUysGMfazMSqbBGqCjsW8/2oMvQJTJ48B8uT8mAOIYafkgoSsoaoXXPnr/uh/8C+wru2pP17PVwudvcmIiFH2NUmEgPHj8RYVkY/ggd6+CLprWcx48ssoRsM158KEtL9xVd/fz/cObAfBv66P7evKR3bo0P2NmyzLuJqlCJ5zTquq4ckX2aPI89HcblpTcRLhOuSEETHdkN3UWIHj8WLj0YifXkCUriu9V2Sj4xdh1BwmQsW7PHipBfkF7mdVUuLmE6lyGpRWqiNlT2+XGxbejoTKQf0VYG1b7atu/eg+i50vXdPusGe+IwbN2G6sB3Iyz2FzRuShAcE0PK0Z69b0PO2W/CbwfegcWhj/nTkTp2j0bRFUzRoFIy8HFryaeeevW6PRUjjEOF5Jnvbv5EUeBfurbsFn+e2xd3dGguFKEnBirf3of19cTi1/ThaDuyNG+qdwBdTpmFBTgfcfVND0ZA4vRGzHn8HWZ1/hRtDRUwnaydWJgKxv+2GpiLE8C84gJWbjyO8F/Vddx8WP/oyks+ex4fzFuHrTRmofzuL0+bfzsdz05fhs/+sw9ovvsZn3x5Fo663IKK+6AhF2L9sJp57fSX+/W0i1v7rK6QENMO5D2ZhU+N70J09VTtlKUY+vQP5BR9j/vwEJB0Nwm3xbVCnaD+WP/MC5v5zE5LWr8a/Pv4Ke65GoUfHhuCPpL2chY2vv4gXFv4H67duwZpPPsPnu2sjplcb1GOHV0+6wdZ4/SsqLipGREQYfkWzIvvOUdK6TWs+UzZv1hRF1Kb6BCG2X1cUf7seydrsULApAcm1b8WtHUWAE4b4uyNRvGkb9muzV8baNUhr0ge9Hdp6puBUHh2iwtGiiQgQyUf8MXbhO1iy/DncRfHSXUsx628ZiH7ir1iybAEW/eOvGNspA4tnLEWKGG9p0hLM+soX/V6gNu/NpTYvIz7tI/wr09LL2IX0OqOw8B/U/6wBaIw8rJo5F0ktH8W8pXPx5qIFeHf23Shd+RreTRKz7NaVWJwSiWGkLZw3GwsXjcHNZ1ZhVYp3usHeVOqYyR5vvnLFl8Ir49OPV+KfH34qvOrj2+0WdKcPa9IO+SHKQ+LawwgdGIe2IiIJiolDh6It2J4qAsjEts15iIi/DeEi4pqLKBLLQlaydn1CSXAYwfFx6CJaMGJ/cz/a1hMOLSWT1yYiv/cjGBUTaIV8AtF95COILUzERj5eavPdLqD3fXiwvWwTjNihd6GtvuTl9MC9g9sgwEe4hzdj3eFOGDSiB4JEzDfsLjx0RwD1uZMvb4uK6aBX2w+iZyCwM0a9ORfDulmPdPekG+xNpRcx6YfLHeaRcfSYsK4R/t0Qzz6EqzejgPnp9EE9Gok7+7l4THrwLegXW4yEDbst//B2bMmORO84T0vlXVg4agrGifLUG7vgd+8YzHqkjdAFMlk4BTiTC0SEsTWnhk8zhNPQck+x0bpp0zCEZsDy+Or9559CDvbjw6eexeRxZWVhIiVZbj7YWWZQz/twb6PtmD9iNEZNexvLv9yBjPyy2c+TbrA3bhOyRg3XV1nDWrXg9e6UPbwwWoZbMWfc9eEN0fF9EJqaiMRsII2WrzkxfXG7dppYhi+69+oBJG7mS9y0DRW11emBicvZUlSUZS9hyuDOZbPVT0YE+jw0CEO0MnTESIz9XWfwmxL922DQ7DexcPZY/CEmBLlJSzH1z8/gg10i6TzpBlvjNiFbhrlOslO5pzH1qZl4/ZX5vEwj+/Rp198buuvDKyL64M6oTGzZuhUpO4vRvedN1kUNV3Tpif61aYm7cze2bPLQtlqEoAWtg9MPZ/Dlo6IkA4do4dC8BZuVRZvtu63ZXXIwFYeE6ZZGjcCuQYW0L7v6y0qXLlHocmMzcVGnlM7ngYCwaMTeMxhjX34ZwzqfRcJ3Ys3uSTfYGrcJWaduHfqAaVc3BJs3bqElatmyNZ3sRIo506Jlc95H1QlGTFwk0j/7EAnn+iK+RwUp5hON3gNCsPfzz5ECD22rSZd+fRGc9BEWrs9CKTsnLMnCxnc+QnI92q84+exy3yBE/LAc015biaRdu5GycSXmLNpKZ60eoIPQPR0PY9nrK7FfLDNLj2/GwokT8Mwn1s8849PpGDVxKZKlnr0DKQeB0MbWTf2edIO9qfAccsjDg1CzZuWXnWybhx8ZLLyqE9SrP7pfKEa9gXGI9rCUDI+NQT06OBT2ivHYtlq0fxAvTroZJxZPx/CHR+IPj07HsmM300z0INrK/bYYgKlzRiL20k58+t5yfLCmBL2ffgjRQnZPMHpP+guGBCdi1qgx/C6i4ZM+xImYkXjuAev8OfyBMRgWmYr5Uh//ITK6D/NaN9gbj39+9Z+vEvDRsn8Jzzt+/+gQ9P/VHcK7Tpxehxmj16DDqy9hUNm3Mj8i7Mv787joVwdBgS5mZDZ7OhwYdmPhg28Bf3kHo7qJUEWwGwfOX4RfnWAEuJrw2Y0JJdXQDbbE41VW9r0jSzA/h8uBrmFtrnsy0jlTKX14k5evQlpUPOKvSzIyfBEQHOwyGYt3LMX4sW9jY7Y80yxF1srPkYRItG0lQp7wDUQQ9e82mfyrqRtsidd/oJyXexp/+7/FOJCaJiKOdOjYDsNG/REhjT1e3ry2sBvFX9tKH+BIDJk1BXdV4zrSNeNyPpLemY33NuaVnTf6NkX/cRPw+xhzLmdwj9cJKdm0LhH/WPYJv3OHEVgnAA8P/X+4rU9P7l9/aOlYCATUs+FUIJaNtHZAYHDgj3Tl1/BLotIJySg8exbvvr2U28MffwT16qubOA0GQzWoUkIaDIYfB48XdQwGw/XDJKTBYCNMQhoMNsIkpMFgI0xCGgw2wiSkwWAjTEIaDDbCJKTBYCNMQhoMNsIkpMFgI0xCGgw2wiSkwWAjTEIaDDbCJKTBYCNMQhoMNsIkpMFgI0xCGgw2wiSkwWAjTEIaDDbCJKTBYCNMQhoMNsIkpMFgI0xCGgw2otL/l3VH8k6s+OeXOJZ5nPvsGZCDhtyDbt1v4r7BYKg6XifkhZISzHntLaTu+4E/bq5Zc+uR3VknsnDlylV07toBTzz5Z9SqVYvHDQZD5fE6IZe8+yG+XbMBXW7qhMf+9HsEN2jA4/lnzuBvC97H3t0HcM/9v8JvH/wNjxsMhsrj1Tlk1vGTPBnZk63GTBipkpHB7HETH0eDBkH46otv+HM/DBalx/cjOWkH9ovH0pUWFllPXTYY3OBVQu7fd4DXvfr0hJ+fH7d1/AMCEHvbLXzpmrr/BxGtPCkLRvKn/s5IyBcRZzKxYhxrMxOrskWoKrBH2NF+VBn6BCZPnoPlSXmQT3SsLllfzsTwSfPx7kcfYc3+88DBT/DkiAmY8Z88qwEfw2KkWJ7BwPEqIc8X0geKCAlpxGtXNGvWhNe5OeIDVw3S/r0eGcJ2YG8iEnKEXW0iMXD8SIxlZfQjeKCHL5LeehYzvswSenXIw87ETEQ8/CIWzpuNsX2CgTa/xqSnxuDxviGijcFQHq8SskEj6yGj2dnus0FqDbXlbJXo2B4dsrdhW7rwFaVIXrOO6+ohyZfZY8XzUVxuWhPxEuG6JATRsd3QXZTYwWPx4qORSF+eIGYtre+SfGTsOoQCfbnJnv1IekE+LUNFiMPjBSimto2DavE2vA8fXzRuFYZgDw+JLC1kfVIpulZzteHnhFcJ2T66Ha83rN3MPyzOnDl9Ghu+TUSNGtS24w0iWkUa9UBsxzwkrNkvAoKS3UjaGoDb4jqJAOFzEquen4IJHxwSAcHpzXh91HSscAp7IqgRzV6XM3CcL4dTsWTUFLz79+UYP2wKps76CIli8s/6dj7FJmDc2Gfw5KgJGD56PjZa3wIhN2EOxo16DV9kAskLppA9BUt2M8Xqz7JdcDkLG1+bjOEjnsGUZ6Zj3GNjMH7eVseDgOEXj1cJ2Tg0BP3v7IuCgkLMmjEHp/JOCwU4eeIkXn7hDRQWnsOv770TDao7QyIIsf26ovjb9UjWZriCTQlIrn0rbu0oApwwxN8dieJN27Bf++BmrF2DtCZ90NuhrWcKTlHG+YSjhbX65iQf8cfYhe9gyfLncBfFS3ctxay/ZSD6ib9iybIFWPSPv2JspwwsnrEUKTTexvc8R21fwpBWQOxf2HbvYFQ30ZlbSpHy3hwszo/D1PcWYOGCuViyaCSi9y3GzE8psw3/M3iVkIzfPnQ/2ke1xQmaPiaOeVpdEJky8XnkZOfhxq4d8cDge0Xr6uHb7RZ0xy4k7ZDLtjwkrj2M0IFxaCsikqCYOHQo2oLtqSKATGzbnIeI+NsQLiKuuYgivuS0StauTzBv6WEEx8ehi2jBiP3N/WhbTzhs2bw2Efm9H8GomEAr5BOI7iMfQWxhIjaq8VaSkp3YuNYPAx+lfYluUa8bHhoUiZxN212fTxt+kXidkP7+/nhm+mQ8Pm44mjYLFVGgdetwTHpqLJVx8LlWNwX4d0P8HQFIXk1LZOanb8a6o5G4s18Ylx0IvgX9YouRsEGsBQ9vx5bsSPSO83TxZBcW0hKSLSlZeeqNXfC7dwxmPdJG6AIfUXMKcCYXiAizbopQ+DRDOA0t9xQfbeUpyEcuHXTWz30Wk8eVlZkf04l0zimcEc0Mv3y8TkjJrT1j8PLrL+Cl2dN4mTrzaZodtfO6a0R0fB+EpiYikc7n0mj5mhPTF7c3FKIDvujeqweQuJkvcdM2VNRWpwcm0nKSLSl5WfYSpgzujACHBLyehKDrfYMw5CGtPDYcY8cPAK1+Df8jVCoh9+/ZjxeeeRl/+sMYPDv5RV6Y/cKzryB130HR6hoR0Qd3RmViy9atSNlZjO49b6LUc0OXnuhfm5a4O3djyyYPbatFCFrQOjj9cIbTldUMHKJTveYtqviVRlAIGvucR92WZVd9ebkpCl16hNFZteF/Ba8S8vLlK/j0k8/x6ktzcfhwOi5duowmTUJ4YfbhQ0cxa8Yb+GzFF7hy5YrYqroEIyYuEumffYiEc30R36OCFPOJRu8BIdj7+edIgYe21aRLv74ITvoIC9dnWXfdlGRh4zsfIbke7Vc/+awMtEQfGO+LhPlvY+NxK9VL8/djxYsTMPytHY7Jb/hF41VCfvrxSny+YhVq1/bDgw8/gHkLX8Vrb77EC7OH/O4B+Pn5YuUnX1HifiG2qj5Bvfqj+4Vi1BsYh2gPS8nw2BjUO5qJwl4xHttWi/YP4sVJN+PE4ukY/vBI/OHR6Vh27GaMfflBtK3Gfts+8izGxpzEsklj+MWy4aPmYmPwIEwd0e1Hmu0NdsTjzeU/HDyEmdNeQ6OQhnjh5adRr359oThytqAAzz/zCs6cPoOpL05BmxsihXKdOL0OM0avQYdXX8IgdefAjwm7ceA8LvrVQVDgNUwZdrMDuzPKPxgB/iJm+J/B4wz59Rff8C/8R48b7jYZGfWDgvCnx/+Aq5Te/1m1RkSvA/QBLi0tQvLyVUiLikf8dUlGhi8CgoOvbTIyfKx+TTL+b+IxIVNTf0BERBjatnP6OsAF0Z2iERbeAvt2qy8Ff3xSlmL40AmYnxSCISP6mgsghp81FSbkiWMncP5cEVpSknlLWERLnDt3HiezqvPnGJWg2yNYuOgtLFk2BXd5P0yDwZZUeA55rrAQxzJP0PljI377nDewv/Y4lXeKJ3HdunVF1GAweEOl/6eOwWD48fDqaw+DwXB9MAlpMNgIk5AGg40wCWkw2AiTkAaDjTAJaTDYCJOQBoONMAlpMNgIk5AGg40wCWkw2AiTkAaDjTAJaTDYCJOQBoONMAlpMGhc/on/o1iNf80/bv35lf5HWJqtTGGU82XAk84gu5xuVQqX/emNXOkM6XvSrcqCnHK6QwPNl7p6Eci4HmM4+ZXt16XOkL7WlsV0l+Fpf84bVHk8Arfjke2dNqjSeDTc6tLXN9BsT9uhxlX41a6Buo2uom7IVTRodhUh4VfRKBzwuQ4PB6+xQiRkuYGpgIWz7vCGiXJv1JOuXiyUqesM6Wtt9e1c6oTH8Yha6erFwuV4GdLX2rKYs14WcKS6/fJKa+O2P4Gn/TlsQLaz7jAeorr7q+54JM5xh3GSXaFOlBuHsy5qaYRGXkXzdlfQPPoqgptasR8D1zMkQ/jOAyvnqwBBdoU6Ue4HYVUKt7pT3J3uajw1mKnHCeUKw9V2HFc6UW6cTnpZBxbc1WLltreqMl9ry2IV6oTXvh7XbGddSdLX2rKY7jI87c+TznFhl9tO1EpXLxbl9mtVZb4n3aoUzu2DQ68iotsVRN58FYE/wj9wqsn+oxz7wPIXbjiiwsJQvoBvLwO6LmIOOuGgM036AufxiKoMGRBFmhJX4+HojVzgajvuipiDTjjoQtN1Z3gzTeftuWEVUYkXqlhM2OV05osiEWFFOZ353BCF4axLjdnClG0c+mO2VSmkLuOqsJhe9Limc2TN4KKTToiwMnjFAxaqvSjSlLjV+YvmCxx0Kvk5NZDyHx9s/bQmjv8I/8utJjsC8ORnL3oRKFcYvOIBC7690JTOBfZCFYvJILOFWc5nMF/EpKC2l4i40lnFXgSqvSjStF6cfCrSl9uposdc2W62c4ezzn1uWIVXwmao9qJIU/micJhtVQoHneA+N5yKQLUXhVfSF3Y5nQkCqfO4rPW4LHpc05UgUO1lYTG9sJheKorL2klnAVGJFyefirMvy/F9NbHtUx8cTGLitaOm8xFAFYFyhcErHrC4pkckMpQvDLW9RNpSZ5Wmu92fQPnCcPBZxWLCLqdLnwcseHtuiOIOd7qI80rTnfsVlYLrMuBJJ5QuDRWwUK4weMUDFrw/blhFVAqH/em6iDnohIOuF4FyhaF8gbvxyLjcn0NMj4uAqBTKF4aDL2thnz/DZstaSN0oxepTUya9yn6GrAlnXfkC/WhToc4dTRcx5QscdCq84gGBtHWdByw8jccBXXBnS9x1JGPudB1321Nx3py/D2G71bWA17oytJpw1pUvqPJ4RKy64ymHHtNsNU72ImzuC9Q4RJGmxMHXdRlUAYsL54FdtIQ9mHRtktL1OaTWtwoLQ/kC/WjjoPMXqlhM2OV03Rc4j4dXPCAQcQedikTtTxRpOjSS6DHVUKsZwlb9CpjJXWE4687wZprO23PDKqJSOPSn6yLmoBNKF7jVlaHVhGovijQlDv150gmlC0Pqwi2zWc0MhqwJ1V7XCWZyVxi84gEL1V4UaUrc6vxF8xlkKF8aKmDB+rp8ETRL1sQxp6fwV4Xy55AM7QigwsJQvsDtEYe/UMViwi6n677AeTy84gGBiDvoVCRqf6JIUzZSPoMM5QtDbS/gvqx1m9W8gVWk7g5nXfahthcxiWovijStF6pYTNgOusBBJ5QuDRWwUO1F4RV7EbjUmSBQOnc0XRhSF26ZzWoVpCJQ7WVhMb2wmF4qirMXgYzLDaRpvTj5VJz9soBVy32czamBg5troqiKz+yVVPp7yIbNgfBOQKB4zAcbQMYeIO+Y5cuG+g+BoXypqxcLZeo6Q/paW307lzpRbn/OuqiVrl4sXI6XIX2tLYs562UBR6rbL6+0Nm77E3jan8MGZDvrDuMhqru/6o5H4hx3GCfZFepEuXE466JWunoRSFvXiS4DL6NzP71h5XB9DqkhwzVrAp1uB6J6liUjg30XExUHdCSNXSFy7oa9Uf3NKl3ElC9w0KkoXyIdN7rD/oTuFQ6diFqHxdzFZe1KF3BZ01VzYShfwN+HsB10EXR4n4TSBW51ZWg1ofYndFEpHPrzpBNKF4YnnaPpDjEtrlxh8IoHLPh+uGEVUSnUOESRpsSt7xwUOOhUjiTXpNmSBaqG199DtuoK1G/MQy5p0BQI66x1I/pSa3aBg8406QucxyOqMmRAFGlKHPYndI7eyAWutuOuiDnohIMuNF13hjfTdN6eG1YRlXihisWEXU5nvigSEVaU05nPDVEYzrrUmC1M2cahP2ZblULqMq4Ki+lFj2s6R9YMLjrphAgrg1c8YKHaiyJNiVudv2i+wEGXgtaA98cNq7Cla8YerUEl8ep7SP96QFMvHvfYMgqoVVtsLvpwe0Ry9hnMFzEpqO0lIq50VrEXgWpPpSEdIDr1Adp3tHyGkJQhfbmdKnrMle1mO3c469znhlV4JWyGai+KNJUvCofZVqVw0Anuc8OpCFR7UXglfWGX05kgkDqPy1qPy6LHNV0JAtVeFhbTC4vppaK4rJ10FhCVeHHyqTj7ZQGrln3LOPOP7alZ5ZvUvTqHbNIGiLxJOB5ITaTzyUxrYDrKFzWvtDbMbH8v0Ex/BOVl4Mol4EwakJIsYgxtO9WfHiPCBgLtmlnbXzgObF4tBIFqLrdXLxYux8sQRvgAGi8dpGqxv5cpAU5sAXbSubRqqDawYO6tI4EQOmCV4wKwbwFwiEyH90G2coXh1c9Vw9P7cK6ddY/jsSqFy/1pjao9HquyIMdZ57iIO7wPotw4nHVRK129CKSt6wxh3PGnS2je3rIrg1ffQ/pU4pmktes4bM7fqP7mmcldEVO+pBjIOSxKOlBwEWhEM1x3WjJzZGOxofP2cn8hjYBLWcDav1MyJgjRGYcNRc3QbQmLyXh3Om9uC1w8CuxaQ8lICdW8Bx0EXG3nxOUz4LdcHd+vFfLZxTmHIZCjfGGX07WA17oytJpw1pUvqPJ4RKy64ymHHtNsNU72ImzuC9Q4RJGmxMHXdRlUAQsHnYr0Tx+v2rLVq+8hS2kG8JaLlFCqP1ZRzdfs3LHC3BWG8iU01e+jWXavKLs+A05Rn/Xlk5HlBnQ+24SSoinN3g1pSS0JbE6xG+ggQjYbdzNq05id+4qdBAidxevpOya7IfXVhHTWd5s4Kmyfoo3D+6BZnPV/+mtKxgPAwZPkBNJ5tN6fE1K6eo5m0m+o0IzN6h2srKNVBWlq8yaU3B2s0oRsJjCNlTo0ppZ05K1LTtNYoFtPtgEQSqcLLdh4G9LBoRPN4LRc18cjty8ztJpQ708UaUoc3r8nnVC6MKQu3DKb1cxgyJpQ7XWdYCZ3hcErHrBQ7UWRpsStzl80n0GG8qWhAha8P25YRVQ4c4JHK43P/xs4aTq3eJoLNJuZl2iWak4fYm84tINmAVomyj70oyKLKVfqVsUJoQ8ay60j9CHX9Ya073r0gb9MS8ICCjS8BYihD2PTcNqGSvNomkVpFj9xghKtF3uSM533Usb4NqAPaivalpaVmTSbRdAys0sMbdfSWoaHdSGNZresXGtHne6nGCVkBM3GoU1ptqclc/oRPgzH8dKyM7w14EeJmVuLJsyb6QdJM1/qbj7Bu4T9HFrSzOp/HkijWVH9XPR+6aUNjaHn7ZRcNL5QOmiE0xhb0H4O07KdEXEn0JViobTPNqQH04oklX7mN/2eTitozBHsQNKOtqGfZetb6TiRQ+/vtNpNmaECFu7GI3Gpa3j8PTtt4Nyfc4de789Zl76+gWZ73M6q3PplAYJsZ51X9OJDn78bYpXqNeXvZWVoyc3Mi0XASXaC44FM+qCVyhlSoI5I3LE07oqY8jWUTqUGZah/ANk0hgwWp+VrJ0rAUnKSlgLrl9CHNRsIYhdwKJkyadZa+x7NXnQQOX8QWPMutdtISUyJ2pZmkMLvgYT3gdX/pA8qzVah9KGlz74aRK26lPRJwH8W0lJ3vRqGMnhFS8wjdF5alxKiVzzNujQTH6T9nuINXaN+BnTgaEGzWUt6D6y0oFmwWZjol5KsLR1ALlDybZgLfPVXWiXQ+6xHbegYY42DQQeEmnTwWTcb+Gwx+SQwzTeE3t+3wKcU/+YLev90IAqjgxeD968bKmDh8kjPAxbq9yiKNCVK546mC8NBJ0S4zFABC96eG1YRVVlhMb3ocV0XtkTG5QbSlChfGA6+rDVbucLgFb0UF7Jg5fH6e8ijKcBZNpO44Qydr2XSDOHcDTsi6UcrpYuY8iX0ge3Avtek0qk/EPtrWnr5Uf8/WHIkfWBr0SxzgJZ5xbQh2/YILW0Lr9BKkj7orvbHCGOPO6fx7/6v5eMs2fSeLtIM15hmLtnwEs0oO+l9lIPpsrMgSkJ2Xk3b+tAsemQlHRRohlS6C6RUi2axm2iWk6Ubm/EoaXj3NNN9Q4m4hpIpnwIslkYzeyklVlA3rXua1Y/QUp61kTCzlA4SW3Za/rl99HZpTD60smAwnTdXhlYT/OfGDauISuHwc/WkE0oXhiedo+kOMS2uXGHwigcs+H64YRVRKdQ4RJGmxK3vHBQ46FSkX+WElEcRmeHOyPAV+sDv2UAzwRbHnZ2jX/o+moH2UrlCI1HdiL7UEUngoDNN+hI6+rNlKCuNQq2lZ9YmShL6gHGZkhM0Y944FOhDpS8rtMxjy1Jf2tbV/hjs65iajWg5+EegH5V4VijpWXc+tOzTt3EYl4jr/Xa+i5aGdK6Wk0yzIiVkazpoNCGt1T3Arx6l2mrmgNgUl+h8k59DisLOIXfRQYLprATRVBgzBOg/Grh7HHBfb36M4qLsg8N8LeCgEXy8wmYon71IQWug3p8o0pRtlM4dKyxdhtRlXBUW04se13SOrBlcdNIJEVYGr3jAQrUXRZoStzp/0XyBgy4FrQHvjxtWEZV6rSyV/nvI3Ez6ENHybJf4QO1eS8tDmh2lzqqaNHPUFX9N7faI5OxLaBm54SMqHwL/paXhFUrIupRIEt6WZojcdK3QLJJNy7yTx0hnfWod6v1foVkxm84JeTlslSxa1ubQ+NU2Ynu+nSublsZN6dz0LB0gkimRttD7L6ZldVc6KDSg9+xDS2UaTjnYtpxS66oquxGZlePUTxb7moikqzcBcXSeGxpMMz6N8RAdiLbQ7C+/0pJdcMR4lC1MiRy3RPnsRS8CrmtxXklf2OV0JgikzuOy1uOy6HFNV4JAtZeFxfTCYnqpKC5rJ50FRCVenHwqzn5ZwKpl3zIu+w6ox6OVplJ/D8kSIyoWuPUB+gCKJVcX+gDpRxx2MtuJjuqd7qDZTMw8lTkiMaResp1mIErQeuziBlcoRsnIOEMf1r2ssNmZ6izKggO01FT7EzCTlYt0nleTZrNDdF64h8pumu130/LuJCVkGhU1CH17ZluVMmqw7x2JUrFKqEH7Td5KRkugOUtUSi6X8E5cIPulqi2dzNai95f6Dh2M/kM1ja+Qlpx8hiQcumDbyIDYXof/HITNYDb3paECFsoVBq94wEL1xwVVKbguA7ouYg464aDrRaBcYShf4G48Mi735xDT4yIgKoXyheHgy1qzlSsM2XeA/n16JfD67yHb0XnOjZRkjeiD5/zft+TRht3v2oGSsT4tNS8U04xECSCPGBxmW5V40XwNpVNJo1nsCq0rW/ZhQZp96FzyIi1Z29KysTkdIK7S7BRG47ox3vqu0mF/hOgGaTSTXqH2N9N5aUP2wwqhg0tfOqjcTUtQdn6pbeNgS2RHlIDnaMoKpqVlBL1PFmtUV1xZJkqLrNot4qJOC3ZBhxVm38BX4Sigc2O2ZG8s3kd92sfN7fhWHIdhkeP8PnX4z0HYDGZzXxlaTTjryhc49OdO1wJKF7EKdRn3pOvoMc1W42Qvwua+QI1DFGlKHHxdl0EVsHDQqUi/XmM6x6sCXn0P2YqWaSFhlu8K1kdNmhmje9EHtQkNiEZUQOdKzeiDFnEjHfW1Qzzrj3cvDOVr6HrJLlpa0lLTnw4Ebdl3IrQ03b+HPvhstqZztn6/BW6gsRVTfC+1lUcoiegGxbS8PEjJ7EtT7c10jjbgNzTr0nng6RSaKY+LRhIXtuq3gJbrSdQfJU7HwcBdYyihKXEu0/s9QkvmRj3o4ODiNkPZpbyowy7m8PIrKnQwYV9/5lG/Wfm0ZKUDzH2T6ByZDh44UbZk1YfFHOf3qcPHK2wGs7mvDK0m1PsTRZoSpXPHg04oXRhSF26ZzWpmMGRNqPa6TjCTu8LgFQ9YqPaiSFPiVucvms8gQ/nSUAEL3h83rCIqNGC/0Crg8f+yhkTQBz5GOC4oomRh55Tsy2p2A7orkj6lDxW7uYD6VV0LQ98tQx1FdV1vpOl1KbkCKdnPHwLOyfaarlUOfkNKGMon5NN2akKTutrAosLx0AzZnA4S+XQwOK9tF0jngEXsqqtGZfoNpANMA5p1L1AysiulDLW5bK8CBNm6y/C0P+cNKhoPw6Wu4XY8sr3TBlUaj4ZbXfr6BprtcTurcuuXBQiynXVe0Uu/kVW7dc7jvaw3/xrwY+spN7CE3EnnO+xIwWZI9lcf7E2zO1guiWUcuz3sktOVCV7JfRHK1HWG9LW2+nYudaLcD95ZF7XS1YtFue2tqszX2rKYs14WcKS6/fJKa+O2P4Gn/TlsQLaz7jAeorr7q+54JM5xh3GSXaFOlBuHsy5qpasXgbR1nUFGSMRV9H/8cqVuOZVU+D0ku1paUTJK2JthX4vs38T+TZ6VnA2aWVcw07/XkpFw2J+ohMlx0KkoXyIdNzobi/7D1rUKcehE1Dos5i4ua1e6gMuarpoLQ/kC/j6E7aCLoMP7JJQucKsrQ6sJtT+hi0rh0J8nnVC6MDzpHE13iGlx5QqDVzxgwffDDauISqHGIYo0JW5956DAQafCqpadrlQpGRkVfg/p7T+C5WtygiXlvg3WDQR+/tbFH96/1q/ajTCUL3Aej6jKkAFRpClx2J/QOXojF7jajrsi5qATDrrQdN0Z3kzTeXtuWEVU4oUqFhN2OZ35okhEWFFOZz43RGE461JjtjBlG4f+mG1VCqnLuCosphc9rukcWTO46KQTIqwMXvGAhWovijQlbnX+ovkCB10KWgPeHzesEtzkKsI78RStEuXPIbW+alFSBbALKQx9H5rNlqXnTpMhYqxiiRhA50DspgF19NJ0jrPPIKec7tCAkL7U1YuF1/tz56sAQXY5Xb1YOO9P4eQ7vw+X49TaeHwfWlsW012Gp/05b1Dl8Qjcjke2d9qgSuPRcKtLX9+AbFc6y6Fycaty65cFCLKd9S53Ve9feJhne0hdvVi4HC9D+lpbFnPWywIWzrrzeFzGyVauK51wO06BW90p7k73OB6rUrjcn9ao2uOxKgtynHWOi7jD+yDKjcNZF7XS1YtA2preov1V3PL/LlfrEQNefw8pDeUL2Bvhb0YUaUqUzh1NFzHlCxx0KrziAYG0dZ0HLDyNxwFdcGdL3HUkY+50HXfbU3HenL8PYbvVtYDXujK0mnDWlS+o8nhErLrjKYce02w1TvYibO4L1DhEkabEwdd1GVQBC+nWa3wV7XpVLxkZXn0PqevKF3hck7OYsMvpui9wHg+veEAg4g46FYnanyjSdGgk0WOqoVYzhK36FTCTu8Jw1p3hzTSdt+eGVUSlcOhP10XMQSeULnCrK0OrCdVeFGlKHPrzpBNKF4bUhVtms5oZDFkTqr2uE8zkrjB4xQMWqr0o0pS41fmL5jPIUL40VMCC9cXuk47ufYXf5FFdzP9ltSplqO0F3Je1brOaN7CK1N3hrMs+1PYiJlHtRZGm9UIViwnbQRc46ITSpaECFqq9KLxiLwKXOhMESueOpgtD6sIts1mtglQEqr0sLKYXFtNLRXH2IpBxuYE0rRcnn4qzXxawar/Aq+h652W0q8LfPrrCq7+H1HXlC7w+InFH00VM+QIHnQqveEAgbV3nAQuP4xGFo+si6DBewkFnGqt4QCBtobujsv3y9tywiqjEC1UsJmwHXeCgE0qXhgpYuNwfD1io/kSRpkTp3NF0YTjohAiXGSpgwdtzwyqiKissphc9ruvClsi43ECaEuULw8GXtbDrNLqKLr+6gqje1yYZGV7/PaQ0lC9QRxzueNAJpYuY8gUOOhXlS6TjRnc1Hq9w6ETUOizmLi5rV7qAy5qumgtD+QL+PoTtoIugw/sklC5wqytDqwm1P6GLSuHQnyedULowPOkcTXeIaXHlCoNXPGDB98MNq4hKocYhijQlbn2nYIsOVxDzm2s3M0q8/ntIaShfoI443NF0EXPQCQedadIXOI9HVGXIgCjSlLgaD0dv5AJX23FXxBx0wkEXmq47w5tpOm/PDauISrxQxWLCLqczXxSJCCvK6cznhigMZ11qzBambOPQH7OtSiF1GVeFxfSixzWdI2sGF510QoSVwSsesFDtRZGmxK3OXzRf4KBTYd8zdh14GT0euDbnjM5U+D0kQ7nC4JXWRh2ddJ0hfU+6VVmQU053aEBIX+rqxcLr/bnzVYAgu5yuXiyc96dw8p3fh8txam08vg+tLYvpLsPT/pw3qPJ4BG7HI9s7bVCl8Wi41aWvb0C2K53lWLm4VZXzQ1tfQfP2V9Hix36kufkeUqu0Ni7Hy5C+1pbFnPWygIWz7jwel3GyletKJ9yOU+BWd4q70z2Ox6oULvenNar2eKzKghxnneMi7vA+iHLjEDX7e1f2nyfqNryKuiFX0aDZVYSEX0Wj8PJ/dvhjUOOHtHSnoRoMhp8K8ffvBoPBDpiENBhshElIg8FGmIQ0GGyESUiDwUaYhDQYbIRJSIPBRpiENBhshElIg8FGmIQ0GGyESUiDwUaYhDQYbIRJSIPBRpiENBhshElIg8FGmIQ0GGyESUiDwUaYhDQYbIRJSIPBRpiENBhshElIg8FGmIQ0GGyESUiDwUaYhDQYbIRJSIPBRpiENBhshElIg8FGmIQ0GGyESUiDwUaYhDQYbIRJSIPBNgD/H+RvNTga0EfCAAAAAElFTkSuQmCC;" parent="WIyWlLk6GJQsqaUBKTNV-1" vertex="1">
          <mxGeometry x="310" y="-150" width="116.75" height="170" as="geometry" />
        </mxCell>
        <mxCell id="23GlFV0wK0m30or0m1ka-2" value="1" style="ellipse;whiteSpace=wrap;html=1;aspect=fixed;" parent="WIyWlLk6GJQsqaUBKTNV-1" vertex="1">
          <mxGeometry y="140" width="30" height="30" as="geometry" />
        </mxCell>
        <mxCell id="23GlFV0wK0m30or0m1ka-6" value="" style="edgeStyle=orthogonalEdgeStyle;rounded=0;orthogonalLoop=1;jettySize=auto;html=1;" parent="WIyWlLk6GJQsqaUBKTNV-1" source="23GlFV0wK0m30or0m1ka-3" target="23GlFV0wK0m30or0m1ka-5" edge="1">
          <mxGeometry relative="1" as="geometry" />
        </mxCell>
        <mxCell id="23GlFV0wK0m30or0m1ka-3" value="&lt;h3&gt;Send inviation by entering a email&lt;/h3&gt;" style="rounded=1;whiteSpace=wrap;html=1;" parent="WIyWlLk6GJQsqaUBKTNV-1" vertex="1">
          <mxGeometry x="40" y="125" width="210" height="60" as="geometry" />
        </mxCell>
        <mxCell id="23GlFV0wK0m30or0m1ka-4" value="" style="shape=image;verticalLabelPosition=bottom;labelBackgroundColor=default;verticalAlign=top;aspect=fixed;imageAspect=0;image=data:image/png,iVBORw0KGgoAAAANSUhEUgAAAu8AAACcCAYAAADPqkUXAAAAAXNSR0IArs4c6QAAAARnQU1BAACxjwv8YQUAAAAJcEhZcwAADsMAAA7DAcdvqGQAADojSURBVHhe7d0HYBzVnQbwv7TqXVaxiiVbkm3Zslzk3g0Y01sgtAQINQkhEO7IJbkcl8IFkhBKDIkJJZRA6L249957k3uRZFm993Lvezsjr9a70kqWhNb+fmTj1ezslDezs9+8efPWIzs7u1mIiIiIiKjX8zT+JSIiIiKiXo7hnYiIiIjITTC8ExERERG5CYZ3IiIiIiI3wfBOREREROQmGN6JiIiIiNwEwzsRERERkZtgeCciIiIichMM70REREREboLhnYiIiIjITTC8ExERERG5CYZ3IiIiIiI3wfBOREREROQmGN6JiIiIiNxErwrvzc3NsmnDNvn8k7lSU1NrDCVT1skcefWlt+V/f/mULqP6+gbjFcf27zsoH733hZQUlxpDiIiIiMiduRzev/xsntxyw3363+6CkPn2Gx/Iu29/Int27dfDGhubpKy0XMrLy3W4v1AdO3pCfv/407JowXLJzDwsOdm54uVlMV49G05+PlTB/aMPvpSVy9caQ3vWkcPH5Z47HpYnfvMMT8aIiIiIukCvqnkPCw+VW26/QW657XoZkjZIDysrLZPHf/mkPP+Xl6W2tk4PuxCtW7NZStVJzPfuvEk++Ow1+dFDPxAPDw/j1bP5+fnKjd+9Wq69/jKZOn2iMZSIiIiI3FmvCu8Io1NnTJTv3nadBAYGGEMJiotK9L8JifG6nCwW57XupvQRQ+XOe26VPhHhxhAiIiIicmeWxx577HfG8zZl7j8kO3fslRGj0iR1qLVWXDdx+dfHkjIoSdas2ih/+eOL8tF7n8vunftk8JCBEhwcpJvCPPvnOTL3q0UyNG2whIQG6/cC2my/8vc35d13PpG4uBgJCwuRObNfl3lzF8voMSN1c4+/v/CGFBYWS0lRsaxavk4OHTgqo0ani5eXl25Ss2HtZnnhuVfljVfflXlfL1bjFsnAwUni6+trzKU1vOfD9z5T831L/AL8JCk50XjFasO6rfL0H2ZLXl6BDB+ZJp6eHlJYUCTvvPmhzFHL8v6/P1PjbJHgoECJi4/Vr8Px41nyx98/J7mnTsvIjHQ9DGpralutk6+fr+zasU+e/O2z4mnxlCOHjsmf1Py2b9stEyaN0etla9H8ZTL7Ly/L4cPHpKGhQfbs2ieL5i0XL2+LpAxMatkGCf3j5f13P5MXn3tFN6fBNjJfGzx0oC5bQNOj/XsPyN9n/1P++fI78sWn8+T4sZO6HILUOpnMZcR8amvq5Omn/iZvvvaurFi6Rl8h6ZcQ16rmH2X02j/eUWX0um6PX15WIdF9I2Xt6o0SHh4mU6ZN0OtmP//PPvpa7y/Yh2z3DSIiIiI62znVvJeXV8rpvEL56IMv5KP3vxB/Pz/xUaF59679OrAXqdCNoBcXH6PbP+9SIc1WXm6+bN++RyyeFuk/oJ+gRXtJaZkUFRSrkN1oHckJBNk3VJh84flX1AlCiYybkKHntWj+cvntr5+WfLVcjlhUYB6WPlQKVMhfv2az1NXVG69YTyaWL12tXxupThAw7mEVrn/9iz/IsiWrJTDQX1KHpEje6Xx5/pl/yOsqfGI5oLGhUfLyC3WZ2HK0TnV1dZKrprF29SYdsBGCQ0KC9GsdZW6Df6nprFm5UYJDQ8THx3rigtewTFg2QHD+5stF8sRvnpWjR06odRwu/RLj9AnL4798Sp8Ymcxl3Lp5lzz/9ByprKxSyxgs+Wp6c1Tw3rpphzGm6LJ+8vfPy+qV68U/wF8H8RXL1so7//pIzdMYybBm1QY9/2PHsmTs+AwZM36ULmO057edPxERERGd7ZybzVSpUFevAvCc1/4iL7z8J3nhH39U4ThVThzPkr27M/U4U6ZPkAAV6rZt2dkqLCPMoznIxEljJNSoGbY164qL5ck//1qiovrIoCED5S+zn5BHHvuhrr3eu/uArFCBetjwIfLXOU/Jf/7iQXlm9u/l9jtulFM5ufLVF/Od3uCaPLC/pKQMUCcUx3RNuQnvO3TgiH5t0OBkvayffPiVvmEW05390h/ld0/+Umar+aWmpsgyFfRxotJZOdmn5PEn/kteefN5efTnP9bt1O2hDFCuqJWHHz10t/4bw03YBv7+fvKqms6cV5+WK66+xHilNfRWg3KJjeuryuoJ+fmvHlLl+z/ys5//SGqqa/QJmO32gUMHj8gvH39UT/elfz4jt37vO1Krxlm5Yr0+GcHj04++0tOeddkM+Ztatt888XO9H2CbY9lMuAqxfOka8fL20vPGfLHe//3b/5CE/v0kKyvHGJOIiIiIHDnn8I7a6SuvmtnSRh3/jh0/Sj8vKirW/yaqYJY8cIAcOHBYhzxASESYR8AbkTFMD+uILZu2S2NTk1z/nata5o0a7BkXT5H4fnGyT4X7iooKPdwexh83MUPfALp96y5jqOgTAgxDsxeMk3+6QNcKY9lnzprR0kwENfxXXnupPjlYu2qj05OE9mSMGSGDU5ONvzoP2+Cqqy+VoOAzzV4cydx3UJ0slcpV18yUqOgIY6jIaLUcaelD5Nixk3qdbWEZUwYN0M+x/hmj0yUkOEjKyyv0lYqK8krZu+eARET2ketuuqKl2Q/K75rrL9dNeOw1NjRIaUlpS7kNUSdmCPwXXTJF/01EREREjp1zePfz95NwuxsiY2L7Gs+sUKM8fsJoqayokt079+phqPFGzXeqCm4Dklq3O28PanCzs0/p8Pf32a/JIz/6VcsDPdOcVtOura2VhnrnTW9GjR4uoaHBsn3bHt2NIR4bN2zVw8ZPGq3Hyc3N01cG4uNjJTCo9Q20WEese0FBUad7wemXENuq3XhnOdoGjuBEBNCFpG2Z/fzh/9V9wqOpTK162LJfxpDQEAkI9Df+En0/QllZua7NDw0NNYZahYepcf3PjIsrJpdefpFYPD1l9rOvyP13PSrP/OnvsnTxKn0yQERERERt67HeZoaPGCrhfcJk0/ptuv00arxRyz1uwijx8fE2xnIN6mubmpp1qByUmqxvLDUfI0YOk+kXTZbRY0dKvdEe3ZH4frG6thk3jKKJDx54jmF47XyEm3UBJ0u2ZYbH1GkTZPLkcS034HYFLy9vsXi3vgEXTaT+/PzvdLMfb7XdN67fKv/425vyyIP/rW/aJSIiIiLneiy8x8RFyzAVjLOyT+kfHEKNd9++kTJiVMebzPj6+qgTgVCxeHnJ1dddJg/85K6zHnfff7tER0ca7zgbulqcMGm0rqFH7yd44DmGmd0wooeWgMAAXbtu/yNDuIqAKwDoUcfbJqCiFt72ZluMg55YegPUjsP0iyY5LDM8OnoVBGUUhDLKK5CqqmpjqFV5RcVZwwA3MD/w4zvkH/98Rv71/hy56eZrdJv7BXOXtvursUREREQXsh4L7wjEU6aO0yENXS1mZ52SocNSJaqNgG2rqamxpY00atzHjB0pDfX1snTRqpYeXwA9n7z0wuuyctm6VsMdwckE2sfjRAIPPMcwU4wKuwn9YuXg/kO6WYkJ012ycIVenpEZw/S6+fr4iI96HDxwRAryz/R0s3dPplqm1u3Ivy24uRf3GCxZtFJf/TDh+T9feUfmfr241XBXBIcES7/EeN0LzcZ1W1u2EcoI2wYnLybc+PvqS2/r7iTNG2PRpAr3SPj6+Z114kNERERErfVYeIeBg5N1QJ7/zVIpLyuXydPGt9vm28fXR0JDQ+TwgaO6ecVXn83XtbO4qRRhdNWKdfL0ky/K6hXr9XT/7zd/kZVqWElJSUsNujPoVzwtfbDuZxwPPLftaxw3XV59w+X6+fNPv6T7kkf77Cd/95ysXbNJz9/sBSaqb6SkDBygg/vjv3hSB9Q/P/WCvPf2Jy6foHS35JT+6gRqvOzZnSl/+O2zel3wwPMFc5dJ9okcfVWjI3DV4frvXKH71X/r9ff1ei9esFyeeuKvcujg0Vb3CqBtfnFxid5ms599WdapMsT8//H3t1TIr9E3zjrqcYeIiIiIrHo0vKM7yDHjRurnSSpIDhrUfk8rCNA33XqtCoGBOuwtnL9MB38Mf/SxH8vFM6fqLidfeP5Vef3Vf0tZeaV8/66b5aprZ7V7YoDXp06fqGuj8cBz+/dMmDhaHv2vH+uuGOd9s0SfQOzfd0iPi/ljOQDt9u//0R26m8yKyirdJWJuzmn5ySP36p5YegP0BPOD+2+Xm2+9TnKyc/W64JF1IluuVuV15723tvQW0xH4QaiH/+N+fbMv+nd/5aW3dd/yD6l1x49ZmVBGP3zwLlWmY2Tr5p3y/F/+oeePWntsM2ddXBIRERGRlUd2dnbn+jn8FqDPcG8fn1ZtzAFNNNAGHcEbIR9dJ7oKPx71f799RpKS+8svfv2w05pfNAdB15PowSbIrp27PVwZqK+r0+3leyvcvFpZUanXC7XjnQnt9swygqCgoDZPnqzdTFboqyMd3WZEREREFyq3SkwIw45CM4InavXR5KUjIRABdsO6zTr4oyvLtppsIIgGBwfrHnPaCu6A13tzcAeUE8oL5dYVwR3MMsKjreAOKCOUZUe3GREREdGFzK1q3rsKaohfevEN3bQF0oYNlsd+9ZDuOYaIiIiIqLe6IKs8q6trxNvbWxIS43X771/8zyMM7kRERETU612QNe9ERERERO6IjY2JiIiIiNwEwzsRERERkZtgeCciIiIichMM70REREREboLhnYiIiIjITTC8ExERERG5CYZ3IiIiIiI3wfBOREREROQmGN6JiIiIiNwEwzsRERERkZtgeCciIiIichMM70REREREboLhnYiIiIjITTC8ExERERG5CYZ3IiIiIiI3wfBOREREROQmGN6JiIiIiNwEwzsRERERkZtgeCciIiIichMM70REREREboLhnYiIiIjITTC8ExERERG5CYZ3IiIiIiI3wfBOREREROQmGN6JiIiIiNwEwzsRERERkZvwyM7ObjaeExERUU8orZXGeQelOTdPLCMrxCOhWJrzQqVxc7B4hEWI59Wp4hHhb4xMRHQGw3s3a2xslJMnsqSmpk6SkhLF18/XeKU1jFdbWyf+/n7i4eFhDKW2NDc3S3V1jfj6+ojFYjGGUm9RU1MrXl4W9fAyhpwbbu9z09Ht4Y7HpK7e57pa8+ESaXx3ryrcJvXtWynN5tevb4N437teGt7PkObiQD3II1a95hsmUt0gltuGisewSD2ciMjy2GOP/c543qZPPvpa3v3Xx7J08apWjx3bdkv6iCHqC9VxKLWHg2tDQ2OvPbh2Jazrv//1kaxauUFOn8qXQYNTJCDQcU3KwnnL5bNP5qpxkiU4OMgY2j1WLV8nSxatlPThQ3UIwt+ffvh1h7Zjb3Ds6AmZ88I/xU+dECUkxsv+fQfl7Tc+7PL1sC8vR7pr3r1VfV29vPX6+1JRXin9ByQYQ88oyC+Ul/72hhQWFMnQtMHG0HNjv70bGhqkuqpGH0vOJVzaH5PaW7ee1hXHzM5sj646JmHe7/37U/lcTWvJwpWyYf0W8fT0kPh+serfrmu52dF1NLfz55/M08sSEdnHeOWMoqISefGvr8rGdVu75LPd+Mp2aT5eKlJepx7GQPBoFsuYLGna3k+kztjOFWqfLqkVqayX5iMl4jmzv3U4EV3wOnTkTEpJlNvvuLHV4+rrLxN/f9cv7X3z1SL9uBAUFhRLcWGJ3PfAHfKTR+6VyKizvxxMU6aPU+X5HYnu2/O1K8FhwRIaHiJ+vn7GEPeAAHfXPbfJqIx0Ywj1Fn0i+sht3/+OXDxzqjHk3Nlv70MHj8orc96SysoK/Xdn9fZjUlcsX2e2R1cck4oKi3VADg0JkUf+4wH5xa8fllmXXyQrlq6Vdas36aspXaWz+xyuMOzYuluaUBtu50DmYSkrsU3Z5yjYx3jSmkf/YuuTRONfeyGO30dEF6YOhfew8DAZNnxIq8fg1BRdI4SDcFVlla7NwMEQtVaVFVXS1GQ9OJ95vU4/ysvLdc2ZCeNhfAzHNGxhPD0tdXAtKS6VrJM5Zx30MQ7miXnbMpfFdl54jvk4Gr9lXsZyA8bBMHNcLB/WBcuTl1cgp3Pz9HCTua5VVVXi7euta5nMaZrrifmgRu3Y0eN6ejgBio6OEg+PM5vEnA6WFePasp2OuT4Y175cwCwDR+sLfk5qkzDPtqZrr61ytS+z7KzcljLGa8ePndTb1tF8zOWw3y6enhbp2zdKfHxd/2KzLdPOlheY5Y/pYL1tmfPAeuE1rBv+NrVVTmC7jPbbHdp73V5b69yR/QjrY77e1HR20LGFivCoqAgJDAzQf2Pa5vYztyemZ8LrjsrD3BZ43XZ747011TXS2NykXq9qVQ6ulo85nrNjEpjzt9/3TLb7ge36QMs6G8et48ezWtYPr+E4hs+Co+lCe8vX1rzt2W8PE6aH9zsqe/tjEuZh3fZnyte+vOzhilRAQIBcde2lEqnmHxIaLGPHj5JLZk2TI4eP62ZQJrOszWUx54dyOFMWrdcT29fcxvbriHGxjPYP+31iQHKiZGfnSmlp65CO8XZt3yMpAwcYQ1prq+yc8Zrpr/7PftwmsYw+qZ9ZMtS/FrvXPdTrl5z/V6qJyHUut3lHsxm46eZr9L/2cKB8+60PJSKij5w8ma2/rOpq6yQ6JkruuOtmfUDF60cOHTfeIXLH3TfLkKGDpEwdND94/wvJVu/DZUkc0C+5dJpMmzFRN1PAF8CXn8/XlzYz9x7UB9s7f3CLePt4G1MSKS4qlddffUemXzRZxk3IMIZaa04+/3Su3H3vrRLdN1r//cmHX6kvfusB3M/fV2665Vp9EgKY17yvFsv9D94hwcHBehiC5gf//lRu/f6NahlidDOK3bv2iZePjxw/ckIyxo5oVS5mWdiua0REuJ4mvPbSO5KYlCB7du8Xi/pivPv+7+kvAdv54ovjy8/myZ5dmeIf4KebB4wcnS7XXneZXm+Mj+kMHzlUtm7ZKXVqnlin1CED5ebbr9dNC+BUzmn58L3PpbCwWL8vPDxUEhLi1d9FLWWIdV67emPL37bzDgwO0F+aKSlJraZrzyzXZvXF3tDUKL6qbG6+7XpJTrFe6kWZ7dmdKaFhwSrMZqkTm2p9aXto+mCZ++VitZ091Xyq1Rf7SPVFP0tvd9vlQHOj6upqHQCwP4Wp9TDL4EoVDLAfOdp2tsz97KQKUUFBAVKhgs+gQckdLq+W6ahQjiDp7e0tY9Q+sGvHPj1vXMHA9kf4OaHmVV5W0bKvt1dOtp+FAPWZqVTB1LZM2nvdXnvr7Mp+hOC0cf02WTB/qVpua2gfNmyIFBeX6HWadtEkPcyW+RnAvPA6ts03Xy6UocNSZfOm7Xo6jSrUXn7lxTJ56nh1vChr9/PrH+Dfsr3zTxfIgnnLjLGk5TPY3ufGlqPPKbZTSsoAPdzZsQz7HthuC2fHLaxzsppe5v5Datlq1MlHtFysgiuWURWsw33Q5Gz5bI+Z2ActXhZdllOnTZCZl013uB/Ybw/o6LEQn2EMCw8Pk737DqiTkkbxVPNCuQ9LH6LfYw/Hlc2bdsi96hgXFGxty+1Ie587sF9+sP1esl9HLK/tPmIy9xVz/Ni4GDl08Ija70bLxEljjLFEfXaz5eMPvpQx40bKVrUOtseV9j7HTp38Rpr37ZTG1cnSnGvdjyyXHBDP1DMVQM1Hw6Vh/jD93COyQixTjojHMHUCMcBaDkRELrd537f3gDrY1Un/pH7qC76u5aG+f3TNO2qXdu7YI6dz8+W2O26UK6++VEaMGibbcTmyuUkGDkqSjDEjpLikVB0s+8pPf3afDmI4gH6kvoRCQoLkgR/fJTMumSLJAwfI/G+WSFhYqPRVX5gFBUWyZeN23eb4B/fepg6mo876gsIXH9onnlQHXFwRQFtKLNOyxaslXE1n7LgMyc3Nk/dVCJ+ivuTuuudWuUjNCxbOXyYpA5PUgTlIz+vQgSMyetyIlvaNCF97VFhPHzFUL+cJFT53qb8vuniKfO/O76ovrlQ9ngnLhnVNVV+yp3JOyU8euUevF6aHMtu6eac0q//ue+D7MuuKi/Q0befr7eUt8+cu0eHogQfvkpmzpstIVZarV67X4SQpuX/LdGpqa+Xu+27Xl6JTBg2Q1as26tCBcsO4H6uyRVvOH6qyxeXkPn3CZcWytSrIBeppYlkRRhCkcTMt2g7v3X1Atm3dqed9mVq+URnD9bzCw0P0NrOnv3jf/1wuv+Ji/QU2fcZkHfiWLlopQ9R0ccMbymyv2odmXjZDbrjxKhkxMk3Wr92sgs8pufeB78mlajguz69Ry5+sThRQJps2bJODqkzuvu82ufyqS2Ti5HF6PyxW2xkBwyyDQanJerkcbTsTagvRbr1anTTc/6M75BJVphmjh8u6NZvVuD76xNCV8vJQ/331+QJd6/vDB3+gt9+gwUmyVO1n+DBg3vg84LNQVFgid6qwdd13rtDL50o5rVFhpzC/SB786T16/mhvvHHDVumXEKfKJLjd1225ss6u7EcnT+TIF5/O00H7tu/fpMPp6dP5stOolXTULtw8HuCkFa9j22xW23OgWt47775FZlw8VX9GN6llH5qWqvbBkHY/v/X19S3bG4EqTp1IY/955LEH9D6K8dv73NgyP6f2x6T2jmWYjqvHLawzjle3fu8GmaCC4b69mfo+oe/dcZNcec2levutWbVBYtT49p8tZ8tnzhuf1R//9G69zTDvRfOXq/d4SmL/fsYUzrDfHtgXO3osxGd4h5rGpCnj5Nbbb9D7AbbZAXVigm3mqE0+poP13ayO3zhGh4YGn3US5crnDmyX34TjAaQNG3zWOuKBGn7z0Tc2Sl8Fu0IdS0JDQ1rGj42J1icLmfvOrAc+l9hvsB/i5OvIoWMt5eDK59ip0yvFwztfPIfmiWe/YvGILtfPbXmE14hHaLVY0k6LZfIx8QhWJ1dq+hI1wRiDiC50HWo2s3vnfvnzH15s9bBvizlKhYPoaGsbSRyME/rHqy/TUv23Izk5ufoLAAds86CemBivg/LePZn6AAuhYSEybnyGwy8IwBfZUBWWc0/nqdBUpIfhMujJE9m6VtFTfakhgCMgTpo8Vh2UPfQDzzEMr3VEv4R4Ga6WEdPojIlqvriE7EhJaZm+pHzxzGn6yw/6qC+k8erL/2DmkVaXmjEdc5y4uBiJUV9QperLHtCcB1/8U6dPagnmOInCSYUtlClqcfE61KogZ7F4tawbwv2DD9+jv5gcQdklqPCIgINp4H2jVejwUtvz+Anr5WCIj4+RFCNAIWiiJm6wCmJmTWai2ld8vK1XFQAh4eFHH1BBKFr/jS//lIHJuqkBaog7Ast09XWz5B51omCWO/apfgmxuvkCuFJe2DbHjp/UwcWcDpYPNe/28Fkwlx1cKScEbdSkehhlj1D+0CP36aAN7b1uy5V1NrW1Hx3Yf1D/jbbmmCb2F9SOoxldR2DeY40Tb0wHN3DjZAhXYVAe7X1+29ORz40r2jqWuXrcQi11WvogvX4BAf66zFCjjDIGNAPC8Sc/r1D/7QrM+3RevjqxvlhPE/qrwD5l6nh9jHZlPTt7LMRxD7XsWB/sB6i4QLOR+vo6Y4zW8NnGiSOuuOC74qkn/iqzn31ZLydOLsHV49S5wNWTJQtX6jLCZ8be4CGD9PY0m0CWl1eoE5ej6sQhXby8W1cUuXq8c6ip2vpPnafUBEdI3aAIqalLO+tRNyBKaiIjpKHG+L5rtL6PiAg6FN5xt/0vH3+41ePqa2cZr1pZ1IGsI/BFg5qy1197V5778xz9eP7pl2Tntj26zXij0ZbQ08NTBRb91Kl4dUBFLV3mvsP6bxxIcUDFFw6UllWoABHaquYHzzEMr3UEDtg4cHcWAowzuNRfWVktH3/wRUuZ4LF8yWrdhKWh4UxwbXM6qmy9VQgPCT1zuRrLHKWCSFuGpA3UwXr2c6/Iy39/S9cM4jK9Myi7gwePyuxnXm5Z1pfnvKlDWHk7N3vZ15Dbwpc72gmj1veF516VP/1htixesFzXcnWm5LEv4bI/LoX/VS3rH1WQsNamWkOEK+WFbYOmTsEhIcYQqygVeuzZfxZcKSe0B66sqJSnn3pB3njtPdmyaYcOt6b2XrfX3jqb2tqPHH1u/P38VDBrXQbtae8z3N7ntz0d+dy4oq1jmavHLUdQjq6cjDjjaD8F7IOurmdnj4WdOe6hYuCKqy+R//ntf8rPf/WQPsH59JOv5ZsvF+iTnM4ep1yFmv3PPvlG18RPmjrO4fLHxfeV2Ni+smvnPn18OXYEzZFQ6352M5hzOd6JWMN4Y72X5O4YImUlo50+8vamSn2FcXz0cP75JKILT4e+Qbx9fARt/mwf9u00OwOXGS++ZKpuGmE+rr/xSl2r1VaosIdlMds+ozZo1/a9kpY2qM22lr0VansmTR7Xqkyuvf7yDvfu0xnYrvc+8H356aP365q1naocX3j+FV2uzqBW3XZZr7hqptx86/WSqsq/s9at2Shvv/GBoN/mq665VB762b26mUpnICTM/WqRfPbxN7rpwfU3XiGP/vxHMmrMcGOMntFeOaGmHuWOphgJCbH60v2Lz7+qL9W78rqt3rLOrsLnd/ioYef0+e3Jz01XHbcuFAjNqIlHc6brbrhC9u8/pK+WdCecRC2Yu1TK1f7U1nbBVQRcaUFtO2rgd2zfra8EOdv3On2887M2jfIOrJOG/CzJn7/f6aP6SLb4hRs3uhvvIyKCzlf/dBH0RIDeThL7x+n2huYDbUH7D0jscA1V6tAU/cWPAIBL0bgcaopWAaaooEjXxJjwHMPwmgntWtX/WqAmCzcl9RRcCvfx9pG+sdGtyyQ1RbcxdtZ0yB7Ktq6+XtD22oRAl3uqdRtLe/jCQ1toNBmYOmOi/PAnd+n54oZTR9BeFO30U4cObFlWXCbHNjSbHXQU2vXiJj9cSr/6ustk4OAkCQoK0pezO6OyqlJ/MaP9Odr3ot0ybjatqjjTC4wr5YVtg/sV8gsKjCFWOdm5xjPnXCkn9GCBeaIZzKWXX6RC+p26iRHaHrvyui1X1tkVWO4C9VlCDakJN1ri3oOulpyc4PTz256u+ty4oquPWx2Bk2scj4qLWgdf7IOudvnq6rHwXOA4ghNHNJdBbbYtP7UfmjpynGo0mtoAxsFxoi24fycz85Dc+N2rW5qOOYNadtS279uTab2vxsm+d07Hu+AzTQ9jx58wnjkWO+akeFiM9Q1pfV8VEV3YOvQNY3ZXZvtw1oWaM6EhQfrAiMu7OLjjcmVUTJR89cVCNdzaVSBqEee8+IYsX7raeJfrIiMjJTY+Rjau36qe99HTN6WmDdRtK1FbiYM+HniOYXgNIiMj1BdEk6xasU6HFfRTjB9ZQq8CPQXNEQYPSZG5Xy3WZYEyQdm8/eYH+seU8KXlCqw7miIsXrhCN3vBdtq2dZf+MmsLbhRD/9kF+da2x3mnCyQ3J09/aTmC5lRoq7x86RpdptiuWzfvkGefnqN7bOgM1JAFq7COX6etVaECy46bV/fu3m+M0THeKtShFg093SAAYxl3bNuj26+bXCkvbBt8US9fvEa3j8W2wXJt3rjNGMO59soJ2/Wzj76Rd/71sf5cYdpZWad0O2s0Z2jvdXuurLMrsNylZWW65xBMB9tjySKU0bn1r+4IPr9ok7xafebsP7/2UPNd39igQx+Wq7OfG/tjkiu6+rjVFvvl6xujjnFxMbJowTI9b+yn6P0Ex7z04WmtmsI448qx8FzhM5ykAvGWTdvV8XS90aSnQS8rtlFiYry+gdWVzx3WKS4uVjZt3KpvOsU9L+gdCb0BOYP7Or7+coFu545erszvLCwHtpe9wKAAfYK7ctk6fdOxs33vnI53fYargrHejxEUVyZ9M7LF067rSA/PJolIOy2hKcZ9EJ6+IhFjrM+JiJQO9TaD9pxrVm5s9UAtxfCR1jv02+sNAHADGQ66875eorvXwsEyKTlRjh45Ll99Pl+WLlolW9SBEL2RXDJzmv4CaKsXEXu4kQ8H/43rt8iU6RP0D7uYAgMDdY0lvkjmfr1Yh9RKdSBHt2Hx/aw3MaF7OfRwsHL5Wt3Txb59B2XylPEqwObpG6jM3maKiopbemtxBr3UZO4/qG9sMpfb7N3D7CHFZL+OA1QZlhSXyOefztNlsmHdZvVlEiNXXTdLNy9wNB2EE9ttgJ4SMJ3duzNl7peLZNmS1fokBN0AlpWVO11+BINsFQqxPZYY2wO90cy6bIbD8e3LdfmSNfpL9ZrrLhf0xILL5fZlZr+sYLtOUdGRug0veqmYp6aJZa+oqJSkpES9zTCdBhXcbMugrf0E+2d4nzA9nYXzlqkv6LW660GEB4t6DfunS+XlZdH7VE72Kd0NILbNabVvTJwyTrJO5Oh5O/sstFdOmD+mjZ6Mvv5igd7/0J3otBmTdXeQKLe2Xsf7bbmyzq7sR1hubI/FC1boHk1Wr9qgTmAGqwCkQkZEn1braLKfhqNtY9+LE+Dzi24PEfjsP7/2y4qbUktUqP1aBWjcGzF8+FDdzWNbnxtH7I9JOHlwtP1sj2Uo684ct+yPh44+B/baPWYuXqWPU+j9avzEjLP2A3C0Tds7Ftovv6PjnqN1tBXdN0r81EnWsiWr1GONDrxoV45a6mtuuFy9x8e1z52aH3qLQW9ES1TIX7linVoHhO1EfcUA5Wm/jujlZt/eg2r5jrb6zspWn13sK2A7Po5Tfn5+sn3bLpmhyhI9/ID9OrpyvHMKN334hImU7NZ/BvStkMihpyUwplx8w6slcthpiRt/QoITbDp56HeNSvqJxh9EROpQ4mo/710NNSfe3q1/1hy1MujLG21Tz+USt1mzg24lw/ucXSOJWhf02gEIM44Othinvr5BfFyoxepOqNXBjXj4knOlRs0ZfMGhX2Zn6+sIapVqams6tD0wn8YG63xwc9u5cmVbdQRO7MweW9q6X8OV8kL5YD/uzLq2V054vUHtfziZNIOSrfZet+XqOrfHnA4+E+eyL3Y1s7bcthw687lxdExyRVcdt9rjaPmwD9bW1rW7H2A8R/2kd/XnyxlzPtiH2lpW28/dahWODx48ctZvejja3t+W9j7HTuUuEzm1xPijDRETRBKvNf4gIrL61sJ7d8BBHZf0P3jvC4mKjtA94XTXlxERkTvAcRFNp/AjSDfceKXTLl97G/zIkqPwft6oPi1SuEWkeJc6A7TppcbTXyR8hAruo0QCHV+NIaIL23kV3s1f1IuJi271S4hERBcq/EL0W6+/LwMHDZDrvnPlOV196UnnfXgnIuqk867mHU1d3OXLiYiIiIioI7qvP7NvAdpAMrgTERER0fnqvArvRERERETnM4Z3IiIiIiI3wfBOREREROQmGN6JiIiIiNwEwzsRERERkZtgeCciIiIichMM70REREREbuK8+pEmIiIiIuo5zc2OY6Sz4e7Kw8PDeNaas+HdieGdiIiIiDrEDOfWf1WAVf/ivwuBB9ZXh/bmlvDekyG+w+G9sKBIykrLpba29rw7qyIiIiI6nyBU+vr6SkhosERE9jGGnhvkP+tD/yU7Fokc2eYpxTke0tSgRzlveXqJhMc1S3JGk4ychSEqyussj397JsC7HN7r6uol+2SO+Pj6SFh4qPj7+4mnJ5vMExEREfVWTU1NUl1dIyXFpVJXWyfxCXHi4+NtvNpxZnBHJXtJfpMsfcMihSd6rta5N4lIbJZL7mmUsCiVh3swwLucvhHcQ8JCJL5frAQGBjC4ExEREfVyyGvIbchvyHHIc51lG9ybmlVwf93zgg3ugHVHGaAsUCYt5dPNXErgaCqDGveIiHBjCBERERG5E+Q45Dnkus5CNkVY3bFQ5cOTrMhFGaAsUCY9kNs1l0odbdzRVIaIiIiI3BfyHHJdR52pVW6WpqZmObqdwd2EskCZoGx6ovbdpZLHzalo405ERERE7gt5Drmuczx0MEU7+uJTDO8mlAXKxBrae0mbdywM27gTERERuTfkuU7XDKv34a0Iqud7rzIdgbKwhnf1R2fLtgOYyImIiIioXSq66+BvbSJCtlAmKBv8190Y3omIiIjIJbrWvgdql90OgnsPlQvDOxERERG1yQymF27HkO0zy6a7QzzDOxERERGRm2B4JyIiIiJyE90e3hsaGqSxscn4i3qb+voGfYc0EREREfV+lscee+x3xnOnCvILJSo60vjLdVWVVbJu7WapqqqW6L6uvb+2plbWrd4k/gH++ud8Oysvr0BWLV8vhw4e1Y8TJ7Ik91SevsciKDhIPD27t9UWAnFZWYXknS6QnOxTUldbr7tn8vbxFg+P3tFirKioRNav2SheXhb9ow3Hjh6XQweOSXRMJLsGJSIiOk91JteZ7bibm5p1peyuRT7673MxZIrIpfeLTL5ZZOy1ImOuEuk/UqS8SKQs3xipG13zM5Hpd6gw7CWSc8AY2EkjZtWLxWLR+Qk5rzuzXrcmNATwkaOGScrAAcaQnuXr5yPpw4dIxph0GZaeqk4golSQPyLbt+zUVwS6A3bu48ezZPnSNbJ7514V4Mt190HFxaWyVc137aoNUlRYYoz97QoNDZGMsSMlNj7WGEJERETU/VJVcJ94o0hQH5HcwyIHNqiTiiyRiHiRGSpQx6caI9JZujW846wjMChQvL3VKY0NBNz6unpdy95WiMaZHcapU+PawnC8H9PB+51Nx0udAUVFR0jfmGj9wEnEpCnjpLqmRtfG2zOnZU7bkbbGQW37gczDcuLoSRmjQvGUaRP0ycMw9UgfMUSmzZgoA5L6y+5d+6S0pMx41xkt61tbd1ZTFswX5YDhFeWV+qTAnD9eKy4qkerqGv23PbzPUTni6kNIcJA+U+yI9soJw5xtX/M1rCtew4kMmu6Yr1VXVet1wetERER0fopNEfH1Fzm6TeTL50SWvSny6R9FTu4TCQgRSUg3RlS8/USSRosMmiCSaDMcAsNEBo61DjefY7woB/XGLa+PEwl343pLj+zsbMcp1ca+PZkydFjHT4EQzrZv2S2R0eE6tEKtCqY7tu2RkuIS8VDhEZdf+iclyKDByfpSAwLfxvVbJSaur+Rk5eppINxF942QEaOGiZeXl24Ss3/vQd0UJ/vkKWlqbtLTSR2SoqaVqOeDcTLVOOMnjhZfP189zJSl3nP08DEZP2mM+PpaL/ucOJ4tB1XwbmpqVCFSbeBAfxmRkS7BKtyazHE8LZ7SqJbLemUhXYKCA/XrhQVFsmvnfskYnS6hYSE6aJeroN3U2CghoSEqkDbqJipovnPiRLYO+OaJTX5eoXrvXv0c62JR440YmSZ9IsL1MDRpOXUqX/+sMcItAnB0TJT07Rsl+/Ye0GWHYfH9YmRI2mBrWdqUta+vr/455MioPi3laJZ1atogiY6O1PMoyCuWUWPS9euOtFdOrm7fKLXtctX66OmocXByk511SkpLy1V5Nen1zxgzQkJDg/V0iYiIqGt0Jtch06CSrbGhUVcG/vsX1uzTWRfdJZI6UeTwVpHFrxkDHUAQH3+DSJAK3prKHiV5Ims/UkF/j/X1abeJ1FSo1zxFgvtYR2uoF9m5SGTTV9a/06ar6VynThiMxa6rEikvFgnrK7Jj4ZnxOuv7T1eKj4+3zi+ovEbm6S7d2uYdGxpBNUAFvLDwMB3Ed23fIx7qv4lTxulAFxHZRw4eOCIWFfTQ7ho7BUJcQ32jjB0/SgalYpxwFSxPqqAYqINyZWWVZJ3IkcjICMkYO1zXqKOgTp7M0cvp7e2txynML1JhNvbsIOohkpuTp2vlEWqtJwMHdA35SBVEByT3l/KKSjlx7KSusUfgxjgHMo+osJ4maemp+iQBwTxLLWtMbLSeLGrzw9U6YJ6oBd+8cZs6UchR7y1U08qSkyqwY32xnjk5p3UQR7v+8vIK2bF9ryqPFDX/YZKUjBOQZjl04KgOuVifkpJSycstkIGDk3Rtfqw6uTmulq+spEzGTRityxJlc1zNB/Pw8fFR7z+iAn2DjFMnMAMHJUmcWi4sB3YsNJkxyzoyKkIvB+ZRVVmjTpyiHe50zsrp5PEsiVHlhA+1q9sXtf7jJoyS5JQB+rfIDuw/LPHxMTqwJ/aPl+LCEqlQ2xAnJ0RERNR1ekObd98gkdhBIpEJIiljVTgPF6kqNUK4IVQF6yk3iwSqQJ651lo776kiXexgkT6xKndtVuE7RqR/ujWU5x4U2TpfpFYF84h+IiFqFXOPWKc9+bsiPmqeB9ZZg7+Xr0icmg6cPsw2706Vl1WosFclg4emtNQ4I9AlJSdIjgr5tk0sEpP6iY9RKx4cEiQhwcFSU1Ot/wY/FXz7Jca1FBKCOFKg7TTa0qBOyWpqavUJBoJ0lAqJZgi3WDx18EQNcFFhccs4sSrUIoya4/Qf0E83ccF6NdQ3SIUK4ZHG68eOHNcBecbFk9VjkgxNH9yy4+NkIkidiFRVVuq/cYITFh4icfFqL1WwPvHxsSpke7ZqXoPp9eljPfVE2fj5+kmk+vDhJADC1OsWVR5YL0wDNfBjVUD2M648YDxcAUDtdkc5K6chQwfqkwfciNuR7RufEKfLAcuJ7WtRz6PVCQBgeERUuNRWt92sioiIiNxT5hqR9Z+KFOdaa79HXS5yy/+K3PZ7642sMGCkCuAqGmTvF1n5bzXuKZF1n4iUqH9D1fABw63jQaUK/tsWihzcILJd/VtZpLKSikeoiU9IEwlQ8anopAruH4ucOiSy+gPr9NxRj4b3ehXEUAPr69P6bC1ABdkGtINuaDSGWANsW/SrRhjuDC9vbxV+fXUobaitl+Dg1j3bIJj6+/tLbW1NyzioMV65bF3LY+vmXVJTXaPXC5eQEM4RYvG8VAXZuPiYlhrs0JDglhANuBpRUWE9GamtqdNXCVav2NAy7fXrtuj235h/W7y9nbdXx3Kjtnzn9r1q2utl6eJVkpOtPiWdKDZn5YSgbQb1jmxfe3gfTjyIiIjowrBfBfiP/k89/iCy4XORfBWugyOsN7LihtbQKOQM682r9z5vfdz5R2t7dYu3tdbd1FArkmfczlh6GvcRqpCrIhLGQ1t33N5XpMJ6vRGr8G9pnvW5u7kg01JlRZUO//Zt4duDZjqpQ1NaHkPUA81cUCOOdvdNjUYqViEeQb6tG0GrKqslKMjf+EudWapwbztttN8fPjJNzbPjzZUAYRtNXHbv3CeBQQGSNnyITJ0+UTfpISIiIuotUAO+fYH1hlX0OoMbWWOSjReVoiyRozvOPA5vETm4SYX9E8YILrKvF/ZSwd4d9Wh4R81zk8q3aNZhq7y0Qtdyoy12d0Nb9MOHrG3JcbMqao59/X2lVC0DAq8Jtefonx61xqg99/b11rXcZs81eKC9GAI9poPaZl0LrtYPTUB8fbyluKTUmJp1nevqrE1AdC12U6MK99YaazRn8bR4SGRUZMu00a0lmuiYN8N2FG5eLSwo1u3TcU8AmtvgZKKurnXZu8pZOeEGVdxAi2G9YfsSERFR73fz4yL3zRYZMdMYYLAN1KX5aOZsfb76fWubdzyyM0UOqZB/TAV5V5jTQTt49FwDaE+Phzvq0fCOG05DQgL1zYkIxqidRi8r+AGlvrFROiB2JdSD19XX6R5O8INR6Cll84ZtOoz3H5BgHUmJi+srhfmFuncbhFD0boObRb1UGA8PC9Xj9+sXK6dyTusbZXX4VnvB4YPHZM2qjXpdEEy9vX10YEeTm36J8XL08HE5fvSEvlEV3UPWq+B8+lS+FBQUSlVFpYQb7dex7uXlVXLk0DE9XUwfveisWrHeYZeSrtDLo04qzG4XMc1ctfwlxa5P77Banq2bd7R05eionDL3HZLMzMN6Hj29fYmIiMg9od056jBHX2n9oaaMK0Su/KnIgAyR2mrrjaYI52gCE5koMvM+a1OaabeLTL3F2hd8dJIxsXZgOmV51j7kL/+xtecZTAdNdNxRj4Z3hNph6UN0LTbaYC+Yu0x2bt8jSUkJ3dKcA01T1qzcJMuWrJGVy9fLMRWkY+NidPeR5k2egBruNLVcBw4cloXzlsuShSulqrpaRmWk6zbsjsZZvGCl5J3Ok/QRQyUgwF8H06iYSB3wddeW0ZH6B6oKCorUePm6e8Yx40ZJcXGJDv2pQwZKUJC1Vh3/oltITA/TxfQxn6Fpg3WXk52B5Rk8OFnfDLtoPpZ3hRSpeUdEGX0otQPhvEKdYFRUVKn1sfYP76icUMuO9US7957evkREROSe0MYdvcWgTXrKGJHx14skplm7cNw613pDK4I7eoYpzBbpP0zkIhXY06apcWpFtsw/08a9PZgOuoIsKxCJH2wN7rjh9eRuYwQ30+P9vJt0DXNjk3ip0Gfe1PltQ00xeo1B/+Rt1RKbP3aE/jxtIbRv2bxDAgMCVHkN6lRNM8oF3TChXNq7adcVrq5TR7gyzd64fYmIiKh39PNuCz+whK4eq0qsTWIcwU2qkf3UOGXOx3EFbn71UfPK2nvm5tWu0JP9vHdrqkKXhOUVFbrduD2EPnR32JuCHQobNe3thVxsHPvgDqh9zhg9XLerX7d6k/7RIzTXQbMdDENPL+ixpi2YN5ahK4I7uLpOHeHKNHvj9iUiIqLe58RuaxePbYVy3NSKm1TPJbgD3n90a9cG957Wrclqx7bd+hdCzb7JLwS4eRU/PoQfcsLNnZs37pAN67bKpvXbJC+/UIVeL332SkRERETUUd3abIaIiIiIepfe1mzmfHDeNJshIiIiIqKuw/BOREREROQmGN6JiIiIiNwEwzsRERERkZtgeCciIiKiDvHsuh6o3V5Pl4VL4R13zbJ7QyIiIiL3hjzXmd+SMd9jdlEY2rfBeEZmWZhl05ny7QiXwruvr6/+kSEiIiIicl/Ic8h1naWDqXokDLf+2jyJtSxUmXR3aDe5FN5DQoOlpLjU+IuIiIiI3BHyHHJdZ6h4qgOqp6eHpF3UIGFxrH1HGaAsUCYoG/zX3VwK7xGRfaSutk4KC4uNIURERETkTpDjkOeQ6zpF1y6r8OjpqR4ik26vuqADPNYdZYCyQJnoinf9f93LpV9YBfyaVvbJHPHx9ZGw8FDx9/fTC0pEREREvRPauKOpDGrcEdzjE+L0L4F2FH5d1Xw0NjZJfX29NDQ06n/3r/SV7N2+UpZnkabGnmk68m3xtDRLSHSjxKfXypDpteLt7S1eXhb9r8WCAG/UwHdjiHc5vJsKC4qkrLRcamtr9QYkIiIiot4JIRJt3NFUptM17gbkvqYmBPgmaVTBHeG9obFRhXn1UM8xHMnwfM2H1mYx+NdTLCqwWywW8cIDz9UDw83mM92pw+GdiIiIiC48Zs07EnqTGeBVcG9qwkMNU891bjey6/kS4lvCuFodPPVUgd3aVMYa3hHcPVVwx3rrgM/wTkRERES9gX2AR008muZYHxh+nsdKFcxRu25t92+tae/J4A4M70RERETkMjPAW3P6mefm8O6Pr98OrK4Z0JHRrUH9zPOeCO7A8E5EREREHYKQfuZfFVoR3HW8Pf+pmI60rp6pExUjsPdUcAeGdyIiIiLqFDPE23M23F05C+c9GdpNDO9ERERERG6CHbUTEREREbkJhnciIiIiIjfB8E5ERERE5CYY3omIiIiI3ATDOxERERGRm2B4JyIiIiJyEwzvRERERERuguGdiIiIiMhNMLwTEREREbkJhnciIiIiIjfB8E5ERERE5CYY3omIiIiI3ATDOxERERGRm2B4JyIiIiJyEwzvRERERERuguGdiIiIiMhNMLwTEREREbkJhnciIiIiIjfB8E5ERERE5CYY3omIiIiI3ATDOxERERGRm2B4JyIiIiJyEwzvRERERERuguGdiIiIiMgtiPw/qLn8Ajlve5oAAAAASUVORK5CYII=;" parent="WIyWlLk6GJQsqaUBKTNV-1" vertex="1">
          <mxGeometry x="260" y="125" width="420" height="87.24" as="geometry" />
        </mxCell>
        <mxCell id="23GlFV0wK0m30or0m1ka-8" value="" style="edgeStyle=orthogonalEdgeStyle;rounded=0;orthogonalLoop=1;jettySize=auto;html=1;" parent="WIyWlLk6GJQsqaUBKTNV-1" source="23GlFV0wK0m30or0m1ka-5" target="23GlFV0wK0m30or0m1ka-7" edge="1">
          <mxGeometry relative="1" as="geometry" />
        </mxCell>
        <mxCell id="23GlFV0wK0m30or0m1ka-5" value="enter email &amp;amp; Click on Send button" style="whiteSpace=wrap;html=1;rounded=1;" parent="WIyWlLk6GJQsqaUBKTNV-1" vertex="1">
          <mxGeometry x="130" y="220" width="120" height="60" as="geometry" />
        </mxCell>
        <mxCell id="23GlFV0wK0m30or0m1ka-10" value="" style="edgeStyle=orthogonalEdgeStyle;rounded=0;orthogonalLoop=1;jettySize=auto;html=1;" parent="WIyWlLk6GJQsqaUBKTNV-1" source="23GlFV0wK0m30or0m1ka-7" target="23GlFV0wK0m30or0m1ka-9" edge="1">
          <mxGeometry relative="1" as="geometry" />
        </mxCell>
        <mxCell id="23GlFV0wK0m30or0m1ka-11" value="no" style="edgeLabel;html=1;align=center;verticalAlign=middle;resizable=0;points=[];" parent="23GlFV0wK0m30or0m1ka-10" vertex="1" connectable="0">
          <mxGeometry x="-0.1333" y="2" relative="1" as="geometry">
            <mxPoint as="offset" />
          </mxGeometry>
        </mxCell>
        <mxCell id="23GlFV0wK0m30or0m1ka-18" value="" style="edgeStyle=orthogonalEdgeStyle;rounded=0;orthogonalLoop=1;jettySize=auto;html=1;" parent="WIyWlLk6GJQsqaUBKTNV-1" source="23GlFV0wK0m30or0m1ka-7" target="23GlFV0wK0m30or0m1ka-17" edge="1">
          <mxGeometry relative="1" as="geometry" />
        </mxCell>
        <mxCell id="23GlFV0wK0m30or0m1ka-19" value="yes" style="edgeLabel;html=1;align=center;verticalAlign=middle;resizable=0;points=[];" parent="23GlFV0wK0m30or0m1ka-18" vertex="1" connectable="0">
          <mxGeometry x="-0.425" relative="1" as="geometry">
            <mxPoint as="offset" />
          </mxGeometry>
        </mxCell>
        <mxCell id="23GlFV0wK0m30or0m1ka-7" value="is email&lt;div&gt;valid?&lt;/div&gt;" style="rhombus;whiteSpace=wrap;html=1;rounded=1;" parent="WIyWlLk6GJQsqaUBKTNV-1" vertex="1">
          <mxGeometry x="150" y="300" width="80" height="80" as="geometry" />
        </mxCell>
        <mxCell id="23GlFV0wK0m30or0m1ka-9" value="Dsiplay error message&lt;div&gt;&quot;Please enter a valid email&quot;&lt;/div&gt;" style="whiteSpace=wrap;html=1;rounded=1;" parent="WIyWlLk6GJQsqaUBKTNV-1" vertex="1">
          <mxGeometry x="290" y="310" width="150" height="60" as="geometry" />
        </mxCell>
        <mxCell id="23GlFV0wK0m30or0m1ka-21" value="" style="edgeStyle=orthogonalEdgeStyle;rounded=0;orthogonalLoop=1;jettySize=auto;html=1;" parent="WIyWlLk6GJQsqaUBKTNV-1" source="23GlFV0wK0m30or0m1ka-17" target="23GlFV0wK0m30or0m1ka-20" edge="1">
          <mxGeometry relative="1" as="geometry" />
        </mxCell>
        <mxCell id="23GlFV0wK0m30or0m1ka-22" value="no" style="edgeLabel;html=1;align=center;verticalAlign=middle;resizable=0;points=[];" parent="23GlFV0wK0m30or0m1ka-21" vertex="1" connectable="0">
          <mxGeometry x="-0.1238" y="2" relative="1" as="geometry">
            <mxPoint as="offset" />
          </mxGeometry>
        </mxCell>
        <mxCell id="23GlFV0wK0m30or0m1ka-23" style="edgeStyle=orthogonalEdgeStyle;rounded=0;orthogonalLoop=1;jettySize=auto;html=1;" parent="WIyWlLk6GJQsqaUBKTNV-1" source="23GlFV0wK0m30or0m1ka-17" edge="1">
          <mxGeometry relative="1" as="geometry">
            <mxPoint x="190" y="589" as="targetPoint" />
          </mxGeometry>
        </mxCell>
        <mxCell id="23GlFV0wK0m30or0m1ka-24" value="yes" style="edgeLabel;html=1;align=center;verticalAlign=middle;resizable=0;points=[];" parent="23GlFV0wK0m30or0m1ka-23" vertex="1" connectable="0">
          <mxGeometry x="-0.2245" y="3" relative="1" as="geometry">
            <mxPoint as="offset" />
          </mxGeometry>
        </mxCell>
        <mxCell id="23GlFV0wK0m30or0m1ka-17" value="is email differrent from logged in user?" style="rhombus;whiteSpace=wrap;html=1;rounded=1;" parent="WIyWlLk6GJQsqaUBKTNV-1" vertex="1">
          <mxGeometry x="105" y="410" width="170" height="130" as="geometry" />
        </mxCell>
        <mxCell id="23GlFV0wK0m30or0m1ka-20" value="Erase email and Display error message&lt;div&gt;&quot;email should not be same as the your own email&quot;&lt;/div&gt;" style="whiteSpace=wrap;html=1;rounded=1;" parent="WIyWlLk6GJQsqaUBKTNV-1" vertex="1">
          <mxGeometry x="380" y="445" width="190" height="60" as="geometry" />
        </mxCell>
        <mxCell id="23GlFV0wK0m30or0m1ka-25" value="" style="edgeStyle=orthogonalEdgeStyle;rounded=0;orthogonalLoop=1;jettySize=auto;html=1;" parent="WIyWlLk6GJQsqaUBKTNV-1" source="23GlFV0wK0m30or0m1ka-27" target="23GlFV0wK0m30or0m1ka-28" edge="1">
          <mxGeometry relative="1" as="geometry" />
        </mxCell>
        <mxCell id="23GlFV0wK0m30or0m1ka-26" value="no" style="edgeLabel;html=1;align=center;verticalAlign=middle;resizable=0;points=[];" parent="23GlFV0wK0m30or0m1ka-25" vertex="1" connectable="0">
          <mxGeometry x="-0.1238" y="2" relative="1" as="geometry">
            <mxPoint as="offset" />
          </mxGeometry>
        </mxCell>
        <mxCell id="23GlFV0wK0m30or0m1ka-30" style="edgeStyle=orthogonalEdgeStyle;rounded=0;orthogonalLoop=1;jettySize=auto;html=1;entryX=0.5;entryY=0;entryDx=0;entryDy=0;" parent="WIyWlLk6GJQsqaUBKTNV-1" source="23GlFV0wK0m30or0m1ka-27" target="23GlFV0wK0m30or0m1ka-29" edge="1">
          <mxGeometry relative="1" as="geometry" />
        </mxCell>
        <mxCell id="23GlFV0wK0m30or0m1ka-31" value="yes" style="edgeLabel;html=1;align=center;verticalAlign=middle;resizable=0;points=[];" parent="23GlFV0wK0m30or0m1ka-30" vertex="1" connectable="0">
          <mxGeometry x="-0.7778" y="2" relative="1" as="geometry">
            <mxPoint as="offset" />
          </mxGeometry>
        </mxCell>
        <mxCell id="23GlFV0wK0m30or0m1ka-27" value="is user with the email&lt;div&gt;&lt;span style=&quot;background-color: initial;&quot;&gt;&amp;nbsp;already exist/created&lt;/span&gt;&lt;/div&gt;" style="rhombus;whiteSpace=wrap;html=1;rounded=1;" parent="WIyWlLk6GJQsqaUBKTNV-1" vertex="1">
          <mxGeometry x="105" y="585" width="170" height="130" as="geometry" />
        </mxCell>
        <mxCell id="23GlFV0wK0m30or0m1ka-28" value="Erase email and Display error message&lt;div&gt;&quot;user with this email already registered&quot;&lt;/div&gt;" style="whiteSpace=wrap;html=1;rounded=1;" parent="WIyWlLk6GJQsqaUBKTNV-1" vertex="1">
          <mxGeometry x="319" y="620" width="190" height="60" as="geometry" />
        </mxCell>
        <mxCell id="23GlFV0wK0m30or0m1ka-33" value="" style="edgeStyle=orthogonalEdgeStyle;rounded=0;orthogonalLoop=1;jettySize=auto;html=1;" parent="WIyWlLk6GJQsqaUBKTNV-1" source="23GlFV0wK0m30or0m1ka-29" target="23GlFV0wK0m30or0m1ka-32" edge="1">
          <mxGeometry relative="1" as="geometry" />
        </mxCell>
        <mxCell id="23GlFV0wK0m30or0m1ka-29" value="Display success message&lt;div&gt;&quot;Referral link sent successfully&quot;&lt;/div&gt;" style="whiteSpace=wrap;html=1;rounded=1;" parent="WIyWlLk6GJQsqaUBKTNV-1" vertex="1">
          <mxGeometry x="110" y="750" width="160" height="60" as="geometry" />
        </mxCell>
        <mxCell id="23GlFV0wK0m30or0m1ka-36" value="" style="edgeStyle=orthogonalEdgeStyle;rounded=0;orthogonalLoop=1;jettySize=auto;html=1;" parent="WIyWlLk6GJQsqaUBKTNV-1" source="23GlFV0wK0m30or0m1ka-32" target="23GlFV0wK0m30or0m1ka-35" edge="1">
          <mxGeometry relative="1" as="geometry" />
        </mxCell>
        <mxCell id="23GlFV0wK0m30or0m1ka-32" value="User with that email will find the invitation email" style="whiteSpace=wrap;html=1;rounded=1;" parent="WIyWlLk6GJQsqaUBKTNV-1" vertex="1">
          <mxGeometry x="130" y="840" width="120" height="60" as="geometry" />
        </mxCell>
        <mxCell id="23GlFV0wK0m30or0m1ka-34" value="" style="shape=image;verticalLabelPosition=bottom;labelBackgroundColor=default;verticalAlign=top;aspect=fixed;imageAspect=0;image=data:image/png,iVBORw0KGgoAAAANSUhEUgAAAboAAAC6CAYAAADYgIgxAAAAAXNSR0IArs4c6QAAAARnQU1BAACxjwv8YQUAAAAJcEhZcwAADsMAAA7DAcdvqGQAAC4pSURBVHhe7Z0LcFfVve+/hSYtTbQkmgdEUg/Y0uAd+MM1bUe0l3BOiRwBx4pzxHNakFLwwXgUTvlbb6UtetuGHtTp+KiiCKdniGeEOgW8GG6bMFbPdBou/GGupGkLY4mBPDShmJQ2OaF3vfZ/r73zf//z3H4/M3/Z773Wbz2+6/dba8ePtLa2/hWEEEJIQJlg/iWEEEICCYWOEEJIoKHQEUIICTQUOkIIIYGGQkcIISTQUOgIIYQEGgodIYSQQEOhI4QQEmgodIQQQgINhY4QQkigodARQggJNBQ6QgghgYZCRwghJNBQ6AghhAQaCh0hhJBAQ6EjhBASaPg/Xh01etDw6O3Y+p9mV1CweAt23V+JHLPvp/9XNVjx3cPoNfsoqMaWFx9A5SSzP8K071mPVS+eMnvAgm8fRPgLZmeM4U9rXCbkoaCoHLP+9jZ8/Y75KIlXGAGi8YeLsbne7GABthwMo9LsjR6NqFm8GYfNHhZuwcFvxEjVhSbsf24f8I9hLJ1qjg07idPmr2szvrYTTy0vMXtkNKBHN2rko+qeBzDHKoHug09j92/Njp+BU9i93RI55GHB+jWjJnKB5VIvutub8Nbux7Bq5WbUtZjjZGzR347Gn2zGnSs24Jn6FvSZw4TEgkI3mlxZjQfXzDA7kna8/GIdus2eTfeh7Xj5rNmRXH8f7rs+3+yQYaG7EU9+ZxdODZh9MmZo/9mj2Ly7Ed2XzAFCEkChG2VKlm3CyulmR3JiO57/Vb/ZMVxsxPMvHjc7gglz8MA9VcInHF1y8z4EQnv2ZexpNNtkBKlE+OBBHHR+scKWhKQIhW60mViOO/75DrgR/F4c/tF2NFlexKn/eBqH3ZglZqx5ENVXmp1RpKC8HHlmG5iGT5WZzTHPDKx50epErd++V57DtxZ651Na3m03W4Qkp2TqNLOlyc/LNVtktKDQjQU+sxLhZQVmR9C9H0+/ajrX9+qw/RWro52+EpuWxZjYHujBqUPb8dDdd2L5zYuxeLH4LVuOVQ/WYO+Rdvh8xChy4lxdq37rsdcOj0p+VWOdX4yaX5njkukVCJlNoBwlUnzf248N1vUbXosViBXi/ZNV1nMfQp3/MjkHs6cGG76yPHrdsn9Yi4eer8OpC+aaYSAnvxzz/3GpkEKXeB1Vz2lRNg+vxfJlJh83L8edSeytuHAKdc8/hLX/sCyat+Vf2YAa4Tq2x7lRLhhxrl38Q+FiOuW91rHPMiy/+yFs/2WSd6fL2b1Y77zX1I/+s43Y+8MNbr6X34kNP9yPJrtcsq4HcsGHe7/Ks8Skx7uw6BRe+Jq57r698AxLMrC1ph/tv/Tb9zHsfbvHnE/AJy+zBoBiQFhgtW0yKlDoxggVq4SXZrWHUy9tR0NPPxrFv8ej8xAlyvsrn2h2HVrqsHnV7Vj/xE9x/A/d6HWu7+9F+28O44VHVuG2f9mFphTaaFpMKsc0R3NLpqFcLoy58gZUXasPSZoa3owx53gKbx62uqMbl2Kh3Re814Ca1auw+cXDaHrPdWX7L7Tg+KtPYv2KtXjm+FBnRtP/3ins37lXpNAwYT6qb/R3VD1o+skG3Hnfk/jpsRb0Oh2mXMhi7L3ykTqciTG31/ObXdjwT+vx5KvH0XLB7Wl732vC4Rc3p7YA5kIEu8J36vJucezTj94/HMdPv7cKD+45Y44NNX1oOVSDlV/fjBfqm9x893ajqf4ZbLi7Bo1OsQxFPciSjG09cAZ1j6zEqu/57fsWXviX27H22UZrUVgMCkpQajbHV6QjuFDoxgqTKrFm/QJ3JHjpLWz/ThhP17tNqmDxfbjzM2bHoUeMfMNPovE9sx+H/rdfxob/uTdm55s5M7Bypwn77VxpvKAC3HTLfLWleLsBb/rTdvpNNFie4/wbP+d+UjHQhGfu34rDifJzqQX7H34IezNeEWl5AL7fsq+sxzO/dLrkAix45AFU+aYiuw8+hg27mxJ6Tt1HnsRDjzcKSbQQ3vljG19GU8IbG/Fk2BKMWBz5KV5+O/5DTr34zGAPeUhoQd1/HI6/AKT7MGp+0mR2sqwH2ZKFrZuEB/jkkfgGbNm3X/ibCSgpFfLmkIscRi5HHQrdGCJfraQ0O4Lut5vcMEzeAty32v+NnfD4nq3BYatNFix4AM+9sk/PN+3+PtZcZw2Rf/sCNv8khW/JsiTnuirMj9asJtTZo3bBqbcarHwtxZLr3Vy1v/o09lv5mbZsC3bvE0J6YB+ee7ga05znXhJi9ZO3EopNVhTMwcp/fR7hL/hUzr8wqKAS9z4d297d9U9j72mzI8vK450XoHL9U9h3QORt3258/2uV4ohBCMbTryYpp5wK3PGD3dhn3vtle0ETjiPSbDaHAVXHfmrK5P75njBd7/87GS3bbOpBXKbehqdEnnd+zQ4uW3OuT9+Gkmxs3V2HXfusCjhhGqoffk7fK/P74AIUJOs1J+biY9FrpqGcn9CNOsmKjIwog7+tc5i//j7M9y9y7K7HXsvjw/Wb8Hy4GuX5usPIKQjhtu/8wLOqs/2VPWgc7uXyk+ZjyWK3+zvV8KY1b3IKb/7C3ctbcD1C0VBsO95ssDqda+9FzT2iU5LZmZiD8hsfwKN3WR3cL4WXcNFsDzXdx7Hrmxuw/YhvuH+83loYlIel4S1YOt2y98MPYkE06+1oeMPkZyCCemtFUd7Nm7Dl5hnIkXnPKUBo+SN4cKFrs/ZfvOmGT2Mw/xs1WDmnQA185Hu//o8L9AlDyzmvqAwZU+/Ao7KOyTC1LJPFX8XyT+lTindaEA2cZlwPsiQLW/cfbxTDBJeKe2vwwI3l+l6Z30VhPH1vhT4Zl3JMu9psCu+u0GyS0YNCN9YY9G2dYPYDuG9BjKX8TRFPo1zwpRifHEwsR/WSOWZHcKkJJxP1oENE6MaF7kj/9H687ng2v30TDdH+rQRL/95dzoKLJ9EU9YDEWLhyjjvyNpTMrrRWqEY81w85/S346SNr8eQR12889RsnNCepxJz/ZjYdJoXwOcvc7U2/13NTp0TerJBf5Twr34ochCqtY+1N+H3c6Nl8zL/O5/1cfY1nAQ2GaTBTcuMN3veITn2GfeDSX8yGJqN6kC1Z2Pr3ok25zMfSGJOGBdfN99nATyEKnUm6vPxR/wyIUOjGJCWfr/I0pBmiUQ5ubqJ9nrUnqWbgmnKz6cO76qsdbV1mcziZU239SSbh2byl1bXpF/vdUf3UKtxgh9y6u9BmNiUtO9cNnkf755ctr6AXH/zRbKZFvM8L9uGV3c/hW4vt5eHdqHt2d3TE39Xpvh04jMeW+NK3eJnnz7rhj934QP7b1WalW9z5qP++xVhW85Y5K+lCd9x5uhzkj9JfxMnPT7PbzqQeZEsWtu7psSIk8excIjw2sxkbcd/HzebV5dbAjIwWFDoyTMzADQvcJt5+WIaHmtDwC7cjqfjysiQj4+S0nLW7tGwRHVRBOebfX4N7rRWDONuISKav+cMfPJ1u6rTgD61mc1wzMvUgO4be1uV/o3OUl+7AgAwLFLpxjPfD1FP4fZxV5d3ddgysBKUjNGkwY/FtiM5mSLE4/Gv8Otq/VaDq8z4/dZI3zCP/GO5gr8v7G54/livS8Umz6WBCgfn57tyO/gPIsdPl/swfSL7M+22V/APYsa93f2P1D2SnS9r1IFuysHVhkV2futEVK3zcLTxAsxmPkuVPqefuuSfZfB4ZCSh045mKEKzpIBz+Pw3e5ewS+U3QAWsmL+9zmBN3+NyGdl8LbnrbnpNKkytvQPVssy2EeO/zda53c/1S3OT/6y4F16DC6mdO/erXSTuUoaa/px2RPY9iux1+RCkKTV98jbC5SyMa7UnSRHg+rhd3HrHnggJOuvUgW7KwdfnV15gtyXHU/efgGnjm0H7P3DgZ+1DoxjMF81FtfY6A/9yKtTV1ONOjF0/0d0ew9zsPYZe1YGPGHbd5Vrd5vcJe7H/+ZZySKxkH+kWDfgyP7skmNFiAhUvcb6lsz3L+ghvgW04hmIEb/tZSurefQfhHb+GMWVkp87Prn5dj+YOPYddrjTj1XqYfFyT4ju72Vfjmi41egb12DkJmribn8/aSeWGvms3Ye7xbf+ZgbHbn8rV46Ed70XD8DExRCG/1BlTdaLYFva9txeY9EXSb8/0tdXjsK8ux9uEnsbc+Ei3DYJBuPUiXNvz+HTnE60eP/DA8C1t7y1cM9J65DzWHzqBfevSmfB/amWQ1V6K/JkRGBQrduCYfVV9bgxlWKXYffhLrbtd/7mjZnd/EC/aHr59Zg023+kJ9Pq8Qv92F9V8WDXTJMqx74q2sPaqc66uxwF/LJiwQAh27e5tx631YYEWyWg4+hnUyPSY/L/+2F72/eQsvP7UZ6+/3/k3Q4aEAS+9a6i4GmjQfX7U/cehuxAsP3YllslNzbNbbguMHX8DWh9bhsZ87FszB/K/YZdWNxhe/iTvNn9FatvZJvPVeL1qO1eGFH34T6x6tH3FvdjhJtx4ko+Qq7wDt8KO3Czsuw+3f3Ce8xSxsLcr36/aq50vdOPzEOiyTi46GqE2Qkcdf9ch4Y+pteOKZe1GZJPyTc+0dePx/3Tb4z4cVVONez8e3XgoWLsjuf8I5sRLV1rdUkrzF1aiM981UfiXCNWtQkaz/u7ISD9Tci4p4zxkSclCx9gfehSmC8uU/wJbFyeaVcjDt1u/jW/Z1027DDx6pTvrBcc6nvozvy+vMfiBItx4kY84NHs8rSns71KLiLGxdcmuS8hUDxpXezxbJGIdCFwByPrUUW3a+gqcevAPzP1uAPKdUc/JQ8tkFWPPoTuz915WoiLMArHz5E9j58JcxZ5rTEeUg77PzccfDO7HrG9Z3UBkSqrKfUYKli/zfNfkQndTje3diy9cWoKIkT6TGIP/v35+ag+r138fuHVtQnXiNd8bkXVmCiuvvwLee34vHb431zUY+Ku/fjVeefgBfnjsNBZaBci53731+bWjQN1T5X3gAu2ufwgO3zsG0K+0bZVlJmz+HvU9/HaEALtZLux4kQnhe4e3fwtLPWvUjrwAVn6+IfqCdua11+e7+nmhPn3Kfn3dlBRasfxyvPH6bJ4pCxj4faW1t/avZJoQQQgIHxyWEEEICDYWOEEJIoKHQEUIICTQUOkIIIYGGQkcIISTQUOgIIYQEGgodIYSQQEOhI4QQEmgodIQQQgINhY4QQkigodARQggJNBQ6QgghgYZCRwghJNBQ6AghhAQaCh0hhJBAQ6EjhBASaCh0hBBCAg2FjhBCSKCh0BFCCAk0FDpCCCGBhkJHCCEk0FDoCCGEBBoKHSGEkEBDoSOEEBJoKHSEEEICDYWOEEJIoKHQEUIICTQUOkIIIYGGQkcIISTQUOgIIYQEGgodIYSQQEOhI4QQEmgodENJ2ztYsu5t7Gwz+3E5j53fPYFNEbOrOIdN605glvP77jt415yRvPva2+65db/DG+a4nzdesJ5hft73jBQ6j0teO+/bHmXa61ATrkFdu9kfBiI7wwjvzMLoQ5bGCHaEw9gxKuWfBZEdCId3iNQnIdXrxgQdqNsaRs3rHWY/DVQ+RZ0a5nobZCh0I47s9M9g61mzq5DHOnFyWTlOPjdb/MqxCRew6IVz+nTkd1i0Lxc/Vudm48eVF3G3Twi1yJ7A3SgyzzC/716Ok88KwfNfT8YJ41SsBFkL/ocUr92EQB5qRmHVRtTUhFFdYg6TtKDQjSRKjITIlU3CEnNIMxmrvj0bB26eHN3/u+smAq1/0eIU+rQQrU/ji+oc8MXrJgFn+3Ha7KvnfvsCZt0jhG3NFHPQUHo1DhjhvHtEPSp/nj48hFbVoGZVyOxlQEk1wh/mTi20WnTqq5HUgqleFwCKSovNFsmEj7S2tv7VbGeEDJXd3Wh2pl6OQ9++GleJTXVcehem45Wht0VH8vR54aHM+hlEZ38RB85OxKb1edjzVC9mVQIHGgfU9ah07x3sBU0S3o3b8dtpWFI5STwD7nn5rmcvqnOS6cJrUp2vEodE7/TlzT5nhMURmiVCYLbK1maeuXxZLrbuM+/03HcOb2AKvlgqw5SdgHNfDDz2Mscc/Lb17Ftpk3nddE7YbYrIc1mnsINlFzsPU6XwXsTJ66RtoGy957rLMWvfBRxQ50W5rgPujl7vlrPfFm5+dZnt8TzT2N6P5xmiPnz3WqwqVTtxy0Dn+XJsar1g6oWsE/k4IOyq0uyrI1FkWPDxCEJVRahvaNbHKlZYwiRDTNtQ/77ZxUyscDpTGUKqNfegEAs3xBYjOSKvhXzmVPWsSPFMoKkZXeqseZ6TDusZ0fsWt5tzdwG73LTMXFGD1SIhHa/XYFuDfhquWIiNm6oR7QbtNFbMxEzxXvFCdZ+LzmPrIve4emZbddQOKi1NatNjHzdvel/ddyLkTYPAk0bnfpXnemOH+PbTeZDJ1naPm1/7OrM9s6IZzSbd0gsK3xRbIFJ6pty3ywlyuxVF5h1OeUSJUbfcNGibR2abfY8tBMZGXrv9PRZ2/G+3Lsa6xp/2Q7KGifS9L+z71RAi/zY4PXfhpej9iWwUJLLz6ISI3N0qOj0npFaWhtdwVgjBLfI+0akVyQMDooMqjIbbpjd2RueW3n2tVXhBopNT7xGd99SL2Oq8R6ahUXZq+tysVlfU1LzXs32i49TpO3nPJJze12nNbyV659tW3sQ7Wzvd+abnjPdk7jv5rD1nNoCt5/JjPhOlUuTMdkLO4Uf7BjD9uslekZOiLcOTjUIMlhjxFNcecPYdoTX5lSInRWJWmRCXUL4Qsz6cVvOHOg9wQqW3CLH3hFIh7NSPJSrvRVhy9gIWPSdF0uRJ7P9I5WmwLaY3dqUwR2kjykiIXPQZ94hBwre1Pb1lINIhbOmZ52vsBdbJc7pO3L2ux02zEO5oHRlEF+rb5glvQHheGxaisKk2GhrseP0l1BeLDkWeq9mIhVc0o07Nq0Swo7ZTdM7yuPitEJ3HrjrRfSWnS3SK1dbzamVYqmQuQld0IXLMeUIER2XnGbJ7zmJUb1ohOi6rUxWd2baGItER63SsKK7HtmiYS6axWV0rz20s7RRdXiyKMXd2IZojzn0dOHaiK/pu2ZHWdogOVL1DvF/YJ925peKbwlhRITaiIinSJjr2IidtVUD946nNw7n5FfaDnV8/zegslSE+ce2KmehqeCn2nFZaz/TjvsM7eHAQdetEmbadqFto2BYj7CxEb5drC10H61RavXb7H6L8ZZ3RgqTsmCzt74sSFwMYFea8Uh6w6rqyyTYhc3ep/Y1VhWL/QPIyCADZhy6jnR7wxTXphKqEF+GpKFbnXfoxzNJbiqtuvtb1iqTnYXXKbxwRwlaZb0buk7HqlklqSzMFW6WQGnF5t7VPb0SJ987z+PmRASy5xfGm9HNPHzkfnec68DMz56VCg7bnED8fqSE9IeGVCK/px35bqhCmIwZm0UukR1ybh78TeXzjgBSvsmh+v7hECI/HzgM4Ke9pO489wpNe/t/N80NFQij0psP0ZUUmT5MwS5yLiq4nTzo8GfVK26xwaqrI9NtpjIZpdRm4Yj8F9y+b6CkDVBaavE7G9DK579QDneb4iNHuYvPCkhLhC7vIjkZ3zJKzaI16dhLRaRw0lV2GzXxeTDwKq5aY8FoxSqI3aLHpOnFMi2V7OzrF6NzbJgYTicj5Gud5IhmLZSd5VHdWkaOiG56JeeZk8U3VSiRjUTw35N7XfgyR9537tOgVzp5r8hbCEtkhOunMlJhpa8bRJL2szC8q5kXtV71Iescm3YOYiWrHO5lSJko5Nuk9008hQnMTl/rMRaZelFSjWoiWO6BwkAMYSyjPtbqeXRKSp921scaq68ombvqLS+2aH2yyEzrZKQkv6YBc7DCcK/yMJ6N/XTgZ7cTO43Sr6ISn2OJmI0XDTdvdR8zhpGgxtfOlwp9qXkx27nrOa5FzbsgWesj0nsFWWKHBWChhGsCe/2t7LNKzM96bgxSeqTlC7BwmYpYUBiVIuZhuBDEbZAgxaqOf9VnvSg01+PCk0UGXgSc/I4EM/6gVbvJXJ8THHBddy2rj3UTPp+wFxEZ19u9HcEyM5DuOiWdFxSUeHWgXaiNH5dE0qPBXp9RJdLR1AleUwdX4qSiLpt+H8iiN0MiONtp5anEf6jmhwWlLBZ3fwtL07krMcDzTphBlzphcMLU0ttyqBSdOGR7qFHelwnCnPbhk79E5Xob4HRIj7gOeMN5QIDr/n11U8036PWVYbs44I/nT5+xwpUWkE1vPOmFN4W3ekmtOJEN7BHLuzcmb/jmem/Zk9DEd2st+oYcRORmiTSRyingiYITMoLzdso+pZ737WhcOOB5QqRQWJ4yZBW3vYKsMmzqh4XV55kTqXFUmysReWBNFl8HJ1mztmg72CjcZ/rnLdP4OUuzkcfHzhTwzI4R5FTJ8KcTuhNhL4inIEbz0CN30OT8916VG6O+3Cqly8HukNm74UnoJbshUi2NnW1b+2yAGpy0VdH672tK7KzHD8UybLrSaxdKSs20xfLX2OtQ1yTlKU34rvbUsPsOd9uCSldCpb7ssb0Z1WmZ0Pn3KRKCxx4ieDkNlQ1TMlHjpTYlagWi9R4qiF2teatC5eOhVj9HwpEB5Liqv+ns313PVHfJg0UmPN14wnlw0RGuhPFp3AKFEyw73KaGYgiWVA9h6wP0kQc7PLblOPE9sL9oHK6Q6Gcttj9Bn0/Qw4VCBDJ2mHbpUc4cXccCxp5xnVN8i6jJwQ5Vx5i2HgWhHEjngLgSQiwfs75hUyNM7es+EUEjOm9Sivrg6pVWW+np3XkXOp0W/JQvNU+FAPacoUOHC+OjwZS1qRafr5sMXUhVPPtDghjKVhxINlekwZ0qYtDmhyo7X6zyhzHjI/NrvkwMRN3SXGQmfqcJ7VjrFICTVsKJDNFSpBM0/7+rgCmLkoLUoJQnDYY8PA1kJnZw7kwtQoiE8ufBjnfZGrrq5UHVgd6tzrYAUpIww826NnfodR/Lx40pL+IRHqb4ri/UeE+Lb+m1z7hY5Z5WaJ+PPm1rwojytKdiqFqDo47PU5wJFcVdPpoYOO8r5zqgt1c+Im8jjoWV9Jo8ntGh913iXllB8cY1esKHuNXZS4Ve12tKdq1Q2XXc5sO+MuTZn0BxdSpRejU3OO8RzDlwnF4G4whcb6bnaAwWfPdXCFJ1Wbxl0Co+0KI054Exw5jxMeDIyTy0MUMInl/zLBSiPOyGnWnRW3ZWSOCVECUC8zlAivT7Redaaj41Dq7GxqhO1Juy1rQHCMzArBMV/V5sFEDokJp4bL3QpUeFL8e8VIcy18qEWRMhFLiafzRUroivznLk1/f6XgNky9bHRnbKw5Va5aEenrVPkY3C6E+DJ7zbUYyE2RudQMyTRM515NZPOl0QK4+cwFoXi+jp1rwwrQ3jfgxat+N5xNCQXHLnC57Wbj+Gwh0KI5tbx+b1mKmT9ecGYQ3o/P8tJPMcVMNSnCOqD8hjL6aPoTxrkR+mDxUKHTU/eEv9zBxJM5FxRXekYW2Iu50ntJf7jBefzgnifTZBRIyuhkyPw0UTOC6lO/lyh59stNc8l9kc7fSNF1A4ytBdDyJxz0e/9lOh1YZbzvZocHKjPMK5V3m+QeOa+v8GC2ZeZPeJF/tWVOpSNtY5ZCt2hMvi/zRvzUOjGLAHw6LSnoj8SFtgfM3/o8NnCIYZNHPFzcEWQfChQXpNeeDOWvDnnQ/Vx+SEzhW7MErzQJSGEEGKR/ecFhBBCyBiGQkcIISTQUOgIIYQEGgodIYSQQEOhI4QQEmgodIQQQgINhY4QQkigodARQggJNBQ6QgghgYZCRwghJNBQ6AghhAQaCh0hhJBAQ6EjhBASaCh0hBBCAg2FjhBCSKCh0BFCCAk0FDpCCCGBhkJHCCEk0EzcuHHjd8x2hnSgbusWbN/3c/z85/rXUvQlzC01pyM7EH7iGIq+NBfOIZIlw2HT9jrUPLoXvbNvwDX55tgYI7IzjCciRfhSKMNcD3kedd3f+8Ec3HBNnjk2EkSwI/wEXhZt7ei5U9i/+8TQ1YUhsFHm5aTzdUz2Hx8Z/frY8XoNtmzfb/q1Fp+N3TIYfC4Jw9F+1TNfFmk5ikujZbOU687It5ssPTqZ4G2oL16Bmpoa81sB1IaxI2IuIYQMKR2v16H5ioXYKNpbeHauOSqQHU24BnXtZp9kjhCObQ1FWGH6tRUVzajdWid6PHN6Zy2aK3S/p87tHM0OT/TDh5pRWLVRpCeM6hJzeBiQg5jwqOY1M7IUurNofR+YGQqZfUkIS6oK0RwxxgitFsZfLY6SMU1JNcLD3EhGnSDlsbgExfLfoW5fY8VGo50On11DoZnA+62ix5NEcLTJ7fdCixeisOmoODq6FJWqGjF6jOH29ZHW1ta/mu0MsDy6VXGamnSpayFGRrrSyBFBragkkpkVM9EsttU5c91MMTqSxyRyhBK+KUbh+Z6pRrKPRxDaIIx8Tp9bWNWJ+oYudfnMFTVYHSt5Sd8pwxNi5Gb2nOfIkMa2tuponlWe4NpA7teVxkq7sZcYHGhmeu0i9mc2ibSoc4VYKPNjKk1cu+lDHlT6TN4hR/6bqnWnmCi/tg3lO9V+PfRT3LQMypt85qEy9x0+7HRDjoCljcyzEbW1vx7Ftru2kbxmqro+MttNh3vOfb6xgFv+Vh5LDlrXS3z5j2tDDzrdkdkLUdRQr9PruzajslAkqHvO82T9kQEU1Rbm4Wj0elNeqi04T/DWp7jYdoDeLqqASKN5p1OGimTlFPKWi0Cl/0TIZwfzBFGvZf0XmcHqKVY6TJuOayu7vK8QzxAp6rTqhgdf3fDmJz6D65e/rVj7MVD3m7QPar+2DQRO3uQ9yduar0+R+QkdFdfJ2iHs9b5T7rHLysFOXzybeOperPd8VZT3v/ntEsvWTruJU0bDQJYeXTGqV8rRTC3CYeHSil/N645zHwNRULVNsnOX4YCNKOtwC1cjKqgoWBUCXTETXQ0vZRiGaUa9FCLznObaROGceO+UhVGLTlHp/M8pnhuyRnBidNdR6N1vKkRo7uAC7Hj9JSvMuxELr2hGnW2vpk6UbZDnZDikC/W7TKgkqd0sxLWekEtxPbZ5Qg2p2Fg0ClFBi0RjkNdtrALqH9+h8idHtl0njul0CSKRZhTOnms1PBfZMGo7dIhN5bejVtcPOfLbsBAw71Z2gbgu2ggsu4vrOhOWnx9x/y437fp+nXYbNUK3RuEdxyLouiKEubKBJrWhl66GiCk3kUeRk+i1GZdFfBsU3xQW5VGoRdMz0AlhtbhO1ES3Y6vtFNv63TUritz6lBZdIpWmLcnni7aupyWyLSeJTGOz6nTlMzaWdop3xSOBrUR5y0GTOrdIXBkdSPoZXDcKm+oSp1mUoezXakWbXrjY7vyLUOKImtgoMpsxSdh+/eUk83YgjbYm+uBNsi/RAhkVqPfFOxbJZ8q6kLis4rZTH7LurRCDHo8Q2u+5Uh/SZGDrYST7VZfKXdWZkQ2wq2Gbqhix5uhkQaFinmmcooAWic7Gw0xUOwo/pUw02UyxKmVoiagEXYgci9fE47yz/RgiYpQSFSz7Oapid6JdFpr4T2dxNaorzH7kKJqdDtOHrCjuSEmHfT1UiOeY+6aWurlPbjcX1RiqlkQ7wMFhlRRsLPMgrptnHlJ8U7UatR1VrW8eZr4fwTFVYeOLuqzox050YeYiZ/Sp0x1tuKLe3KUENCzEQHjgK811frtnGA5pPmQ6dXV/DM9X5sPJk+Bsm5vW5Db0ES03Uzbm2ozLQtnAOifyUC0GPvHrcDzEYOmgeZsMxcX0SpNhtSW7Qx+KcopZz+KRTjvVm4ORomB5MudaXW8jHiqEKfo3OVB4PF0h1yRuv2KAYtmto61Tb0hSbmuxcO2auD4laadJsd7jIQNbDyND+nmB6siN4DUPGkV3oF1YrrB0qtkfTqzRljB4Sap1w0YVjP0cmxDmmYoiPQGIPE0tFVVR7ouKGs/DcUaH+leHzrgN0iaG3eIOAvS1zmBD/VTowIhwiqjGdkUZYpeUm3cl8nFE3RHy5lonv+InwzPReQ5ZX3THVlh1l9tBJrR7KsgGZjwr573WIgIXey5ZdiJOg03fhrHLJouyUDZoRq1zn/jJsFJXm2O5VJAd6ArMtKItQ7qIIOtyilXPpqIspTZhkWY6ZIguao9Doq2a40kZNGC2ylG2A7OpwnXO88VvRyRZ+5Xelnv9SyfMYUWqbS0JCetT8naaKRnbehjITuhkxx2jEykujeXIa8FJr7Fmit2Z6IqWNqoyxu+UVFhB5OVsm9gWoywZzkTbMTE60vuDERU6ujJKesB3iWqcCjHspipuLPS17jucX3ojbVV+CSq6E1KJSJGPJ+qm03LCUu7P9a7UyrUrRPW3w6dJ7J4aejSp3yc6+/fr8VKsUIwTgpaehTXizsqG0bLJ4jnKBk6oy/pFowGpIsXO3OsJOw4BQ1BOg+tZjChHMtJJhxChOhmCdMKEK9Oxp06bWvAhVHVwD2fEVnm25vnitzqUpP1GDqBeeFtOWYcXeZ+cWltLQsL6lLydZkRWth56shM65Vr75x10h+666i7eeRFzXSaognPDTmp+RW8arJGXqkjpuPyGkrkI2SM4/3NkGmTMucOp4KLyd0RE3hKPuqIVXj1PbyZD282Nb6tQSBxUwzAxfomMv4fDg+eoEuIL66nl7HaIwpR7bYMYS8dd6VWMubNFKTkhRIEa4TkDI2feYlNYhzCd+SO/3UXKd4gRobeDNp1HNLwiPTK1IfBfrxtyzHSqd4mRrpwjseZf0rWhe6237mdcFiZd7vytzlPC+W8/yrOwQm2qcy5E2RSzny0plZMJwVttXobJoph6Fs2nCmWmScx2qjdj04XWc3orctBaKOFHRV/csvK2Ae1pOWFh9ZwY/Z1D8vbrCHWMPjGltpaEhPUpSTvNihRtPQJkGbqUI0Y9eRl1UcN6NU3M0Wdotf7mRF33khih2LHqNFAxZtfdfkmkw/ukmShqMyEjNdmd5tyBQnoFK1DkhJ78zzENrAtO6EV0qLIo4466dOwbTigpMk9N7Kbk4Qq76QUhOr91In9xwwDq2s5omELNf21Id3SmFzZ0GvsOfoZs6PLfePF5jZq8lgswTFq0sFWjWHYiyp76mcU33WUt4vDZPawn0e0VYhI13yUHWeqaoyiTCzT0GU/aZX2UC4D892t0I4c/JJSmDQurynDUeVd0UY0g47IYbAP5zVbSFWqmTsp6suOc8CzUvJJ+t7ajEyKWHV1m800uqZWTM78bu83rsoLzDLmCL93QpUzHSusZkbL4c3S+fuNoSHj7VmfsIUnZhVa5YWFVrxN524narwmJ6nPCPotEvfZ4qKm1tcQkrk9x26k660WLtsh3MiFM2dZC3LcOHiANNVl+XpAlssNLsDQ9I1QnGn/pPYmDWgqceIm0jfRO7E8syPii4/UdODZ3dQYDwLGO7Di3oXWRd/n8eIZtLXuGdDFKMlToJhrmNG668+ErGQOkOqlvVmp5/lAAGT+I8msry2xhw5jD552aKYYhC9GOOmxrQ8EIe3SyUrofLcb/EDcL6NGljRoxyg9B7e9j4qE8PzknkcK1hIwA0fpr8H8MPW5hWxsyRjd0SQghhAwzIxq6JIQQQkYaCh0hhJBAQ6EjhBASaCh0hBBCAg2FjhBCSKCh0BFCCAk0FDpCCCGBhkJHCCEk0FDoCCGEBBoKHSGEkEBDoSOEEBJoKHSEEEICDYWOEEJIoKHQEUIICTQUOkIIIYFmSP5/dK+eBP49Ahw9B/T9lzlICCGEZEjuR4F5U4B/CgG3zjIHMyRrodvSADz3a7NDCCGEDDHrPgdsrjI7GZBV6FJ6chQ5Qgghw4nUGak3mZKV0MlwJSGEEDLcZKM3WQmdnJMjhBBChpts9CYroePCE0IIISNBNnrDzwsIIYQEGgodIYSQQEOhI4QQEmgodIQQQgINhY4QQkigodARQggJNBQ6QgghgYZCRwghJNBQ6Mi456MdJ/DJ07/DR83+WGTC+bfxyXffyarBqXx2ZPnniP70uzFvK0KGGgodGeecQ27PJPTnX0Tun8yhUeEcPnH6BD4xQmlIRziHRCAJGcdQ6Mi4ZsL5LuTk5+PPuROR05WdxzTW+a/i2fhj8RSzlyGf+DT+OP3T4F/vIx8msvr/0ZXVmA1CRoXz+Ni7ZzCxcDb+lPMOLmvpRd+0a/GXHHNaID2fy7oG9E7u5fjgqqtxSe1ID6wTzqX9peIZn9Dbce+RYb824M+Fffi4Oa/v0+n4eJ865HmWg3pmT55+lnmO9EJzevT5S4Xl+GDyZOV95aHIFbR+N18D3eZcfo+4/6I+76RPXXfBFfp8/QxPXuQxdS/Q64id576J+LNjP/PegXyINFr3Zyu0hGRBa9hspAk9OjJ+6T+P3L5J6JOiknM1LuYPILf3vD4nEYJyWVeu6NSFJyR+vbkXcJkK4Ulh6hQCWa6O/3Ha5ZjY9jY+1p/oHoeLQtAK9X2lk5Cj7puMv1xVBHl7LJGLzUVMzDXvF8+Z0NWq3v9f+ZOAnp7oHNqE3l5MyM1DvyXe0iv7oHCiJcIiP+0XMCDe7eTnUk+Xet6lydeiV4hVbJESYi9Ezrnvg0Lg4y32/N2AGAiYvKpndo5YaJaQoYRCR8YtUgRQWBQNw0mRmNBzPlqpP9ojvJ78fPe8E/pTAjkRfXmT9Qkhkh9M156MvOeS/cwC2cG7wqO8ngIjGJ8owp9zfeKaMpNwUXhwipwc42UKPpEvBNOdb5zQN4D+QscLjYcUWktg+/tTa9h/6hFCZgYKgkuTCz3v9uQ152NC9ggZn1DoyDjlnAofTug6g0+elqsuxU+G8/ou4OOqoz6PiX2i884VHpIfJQS5GLC9JIW+x/NMFdbrw0Tprins+yZjINdsDhlT8GfhreX0SC9SL7RxhCgReuWp+XX1JRFGzYQ+kdlcS2QJCSgUOjI+kd6IDN3JsJr1k2E6LRJahCb0mbksG+VB2eLloO+R82X2M/9ovD2NfZ8WxqHmUl6e9iJlHi2PNC7972BSj5xfM+ktyTMnEnMpV2S2L0Xvj5BxDOs4GZeoEGP+5EHeiD3HNWi+y1mSnzMZfZ6Qo/tpgAp/dnV67/F8d2bd96dOfNwOgQ4VKn0XkdfW54YOkzIQFeCPdluLUhLhD5PKFaxWKJOQoEChI+MP48HEFBjTeU86L8RILdroQ54J6alFJmrxhl48MhANUeqFKWqOa9A9EJ6SvRx/Egb6zH1tF9Ff6nh7U9Anvck2cY98d1ZMRn++XGziW4Rioby+vgu4TIqwWoij3y3TlZsvF8a4wqcFvzPGd3dT8Ce1ECdeXgkJBvy8gJBUMZ8FRJfmE0JGFH5eQAghhMSAQkcIISTQUOgISRX++SxCxiUUOkIIIYGGQkcIISTQUOgIIYQEGgodIYSQQEOhI4QQEmgodIQQQgJNVkKX6/4BQEIIIWTYyEZvshK6ean+vVlCCCEkC7LRm6yE7p9CZoMQQggZRrLRm6yE7tZZwLrPmR1CCCFkGJA6I/UmU7L6vxc4vHoS+PcIcPQc0Me/j0QIISRL5JycDFdKTy4bkZMMidARQgghYxV+XkAIISTQUOgIIYQEGgodIYSQQEOhI4QQEmgodIQQQgINhY4QQkigodARQggJNBQ6QgghgYZCRwghJNBQ6AghhAQaCh0hhJBAQ6EjhBASaCh0hBBCAg2FjhBCSKCh0BFCCAk0FDpCCCEBBvj/3mvlADbB2AsAAAAASUVORK5CYII=;" parent="WIyWlLk6GJQsqaUBKTNV-1" vertex="1">
          <mxGeometry x="310" y="800" width="285.16" height="120" as="geometry" />
        </mxCell>
        <mxCell id="23GlFV0wK0m30or0m1ka-49" style="edgeStyle=orthogonalEdgeStyle;rounded=0;orthogonalLoop=1;jettySize=auto;html=1;entryX=0.5;entryY=0;entryDx=0;entryDy=0;" parent="WIyWlLk6GJQsqaUBKTNV-1" source="23GlFV0wK0m30or0m1ka-35" target="23GlFV0wK0m30or0m1ka-39" edge="1">
          <mxGeometry relative="1" as="geometry" />
        </mxCell>
        <mxCell id="23GlFV0wK0m30or0m1ka-35" value="click on Accept invitation" style="whiteSpace=wrap;html=1;rounded=1;" parent="WIyWlLk6GJQsqaUBKTNV-1" vertex="1">
          <mxGeometry x="130" y="920" width="120" height="60" as="geometry" />
        </mxCell>
        <mxCell id="23GlFV0wK0m30or0m1ka-42" value="" style="edgeStyle=orthogonalEdgeStyle;rounded=0;orthogonalLoop=1;jettySize=auto;html=1;" parent="WIyWlLk6GJQsqaUBKTNV-1" source="23GlFV0wK0m30or0m1ka-39" target="23GlFV0wK0m30or0m1ka-41" edge="1">
          <mxGeometry relative="1" as="geometry" />
        </mxCell>
        <mxCell id="23GlFV0wK0m30or0m1ka-43" value="no" style="edgeLabel;html=1;align=center;verticalAlign=middle;resizable=0;points=[];" parent="23GlFV0wK0m30or0m1ka-42" vertex="1" connectable="0">
          <mxGeometry x="-0.4333" y="-4" relative="1" as="geometry">
            <mxPoint as="offset" />
          </mxGeometry>
        </mxCell>
        <mxCell id="23GlFV0wK0m30or0m1ka-45" value="" style="edgeStyle=orthogonalEdgeStyle;rounded=0;orthogonalLoop=1;jettySize=auto;html=1;" parent="WIyWlLk6GJQsqaUBKTNV-1" source="23GlFV0wK0m30or0m1ka-39" target="23GlFV0wK0m30or0m1ka-44" edge="1">
          <mxGeometry relative="1" as="geometry" />
        </mxCell>
        <mxCell id="23GlFV0wK0m30or0m1ka-46" value="yes" style="edgeLabel;html=1;align=center;verticalAlign=middle;resizable=0;points=[];" parent="23GlFV0wK0m30or0m1ka-45" vertex="1" connectable="0">
          <mxGeometry x="-0.4" y="-1" relative="1" as="geometry">
            <mxPoint as="offset" />
          </mxGeometry>
        </mxCell>
        <mxCell id="23GlFV0wK0m30or0m1ka-39" value="is referral&lt;div&gt;link&lt;/div&gt;&lt;div&gt;valid?&lt;/div&gt;" style="rhombus;whiteSpace=wrap;html=1;rounded=1;" parent="WIyWlLk6GJQsqaUBKTNV-1" vertex="1">
          <mxGeometry x="150" y="1044" width="80" height="80" as="geometry" />
        </mxCell>
        <mxCell id="23GlFV0wK0m30or0m1ka-41" value="Display error message&lt;br&gt;&quot;Invalid Referral Token&quot;" style="whiteSpace=wrap;html=1;rounded=1;" parent="WIyWlLk6GJQsqaUBKTNV-1" vertex="1">
          <mxGeometry x="270" y="1054" width="140" height="60" as="geometry" />
        </mxCell>
        <mxCell id="23GlFV0wK0m30or0m1ka-51" value="" style="edgeStyle=orthogonalEdgeStyle;rounded=0;orthogonalLoop=1;jettySize=auto;html=1;" parent="WIyWlLk6GJQsqaUBKTNV-1" source="23GlFV0wK0m30or0m1ka-44" target="23GlFV0wK0m30or0m1ka-50" edge="1">
          <mxGeometry relative="1" as="geometry" />
        </mxCell>
        <mxCell id="23GlFV0wK0m30or0m1ka-44" value="redirects to signup page&amp;nbsp;&lt;b&gt;Step 1(email step)&lt;/b&gt;&amp;nbsp;with referrer details" style="whiteSpace=wrap;html=1;rounded=1;" parent="WIyWlLk6GJQsqaUBKTNV-1" vertex="1">
          <mxGeometry x="130" y="1164" width="120" height="60" as="geometry" />
        </mxCell>
        <mxCell id="23GlFV0wK0m30or0m1ka-47" value="" style="shape=image;verticalLabelPosition=bottom;labelBackgroundColor=default;verticalAlign=top;aspect=fixed;imageAspect=0;image=data:image/png,iVBORw0KGgoAAAANSUhEUgAAAowAAAIiCAYAAABCJZlIAAAAAXNSR0IArs4c6QAAAARnQU1BAACxjwv8YQUAAAAJcEhZcwAADsMAAA7DAcdvqGQAAJN+SURBVHhe7d0JYFxVvT/wb/Z935qlWZqmbbqk+wYt0LLKpoKCCvwFFFR4gloVREBAREQRQUUBEXyAj0VAWSpQaEsX2lK6p02bJs3SJM2+Nvv2P78z96aT6cydSZqWtP1+fPNm5q7nLuV+c849d7zKy8v7QURERETkgrfxTkRERETkFAMjEREREVliYCQiIiIiSwyMRERERGSJgZGIiIiILDEwEhEREZElBkYiIiIissTASERERESWGBiJiIiIyBIDIxERERFZYmAkIiIiIksMjERERERkiYGRiIiIiCwxMBIRERGRJQZGIiIiIrLEwEhERERElhgYiYiIiMgSAyMRERERWWJgJCIiIiJLDIxEREREZImBkYiIiIgsMTASERERkSUGRiIiIiKyxMBIRERERJYYGImIiIjIEgMjEREREVliYCQiIiIiSwyMRERERGSJgZGIiIiILDEwEhEREZElBkYiopNeD6q2l+KV1w4ir6XXGEZENHK8ysvL+43PRER00unEzhcO4Llc4z/lyRF44LZkhNm+KdV45Zd12CMfJ8fi/ivj9FAioqFgYCSiz0dfJ+qKGrBpayt27e1CXWs/uh3+axQU6oOUSUFYcGYCZiUFGENpsCo8c4cRCJWgWXF46Gq7UFhcgl/8pRXN6mPWlzJxy0LuRyIaOgZGIjqxuhqx8T81+O/2bjT3GMM8EJQeihv+XyqyQowBZGjD1hdL8XJuH4LGReCmbycjxe5mo6oP9uHhj6SZ2hvn/2gSLk6wDSciGgoGRiI6Qdqw/71yPLe6G+3Gf3X8IvyQPSsEC6ZGICXCF2FhttqvntZWtDe0YUduM9av70Rllx6sUqMfLr95HJYk+RgDyFon1j1diNcL1cfQENx+TxrSbSOIiIaEgZGIjr/WOrz+VBXWVdm+BqWH4CtXJmNWvK9tgJW+VuS9XYbnPulFt3wPCsLN92Ygm132PFCF5+6sw075r3x2DB67ntWLRDQ8DIxEdHy1qtDyOxVa2tRnXx8sui4FV04aartyL8reK8Cjq2w9gMPPGIP7vxitP1vq6UDZ/kbk5behrEV9D/PD7KmRmJwRBl+LwFlXWIn9DeqDtz+mzIpGmFp/T0U9Vm1usS0HPsi+IBkLBgVeNU1tIz77rBl5tbb/rIYnhWHRWXFI8CAX2+7pbMT+kg7kVch2yv2bwcjOjkJKiOsFDJQVfsiaE4MYPdTA+xeJaIQwMBLR8dPXiOW/r8CKGvU5KBBXL0vDgrDhNie3YMXjB7G8Qn30D8LNv8xAtm3E0XqasPHNSry1pXeg+XuQYD+cf20yLs4MNgbYa8Hy3x20lVl6HN8ShI3PVGF5seOCvJBzzTjckKNCWEsNlr9YixVHTaNIM/r3srDEVeWeu7IqMXNiseyr8Qgyvh9hV9aYUNz501TYr4b3LxLRSGGjDhEdJ23Y+r+HrMNiVyPyVpbguRcL8egThXjutVJsrZaeMC3Y/1klNqqXrfZMhGHRAqOGrKsDe4ptH49SW4FnflWOVz4zApivF8JDbS8/L9skaOvGimdU+DSayAdpb0GxlFmJSe7Dfx6p1GExyFhG0EBlXz92rq5FXUU5nni0RodFvyBjXfbJrr0bb71ViXbj6yAy74N2ZVXlM9djv4y6z2rx5Me6anMwu7KGZ4UMCoty/+L+YuOZjKFBmMywSETHgDWMRHRctH9WiF+81olu+5q4AUd3gDnCC5OXBKJqVTvqHGvGmsrx6ENNKFMfJ399Mm6aYRs8oOIgfvPnFlRK5gzyw/lXj8EF2WEYyHg9TVj3XAVeLzBW6uy+vp0H8MOXOvTHIBUAkRqBW65NQIq/EXZ76vHWHyqxSgc1b4RH9KG5OwBX3pSCRQOP/ulFy2cl+PVrHbag6BWIGx4ehxw9zlBRit88cRiVOih6IeOcGFxzXjxiBgrrsIyjnq+o2JV18tcnqv1hH8h5/yIRjRzWMBLRyOurwevvSFhUoWtW7OCw2NeIVX8uwZOrbGExPDkAOdMC9StLPz6wH3t0WFQca8YifBFufKyvdqhxU+t88WkjLMaF4JafZOFi+7AofCOw6NooZJk1jYVtyDM+mooLO41PSno07rkx6UhYFL7RuPyCQOOLCotdgbjux5l2YVH4IGxODBaZNxSq7XR8glBLsxei46XW0wdLvpeF2y6yD4tClhGB2aHG145eFbMHO1JWP2RPdKi9Le6A2UKeNTHS9oGIaJgYGIloxNWtqscWqRbz8sPFl9r/soitmfqtUpVkggJw5bIJuP+2TNxw7Tj9uuXHE7HsLLv/LI0NdPkYmOh4+7q2XuS9Vjuwziu/l+b6eY1BUcgZZ3zu6ndoKm7BnkIjZfkH4br/l+DkvkGlz3hXsi4cg1nu+vDE+SHZ+GgKmzQWN/0oG488NB6Xpw1Kinb60G4+UijySFi2sStrTACyHApald+hO7vIf+bTx9mHWSKioWNgJKIRVo/Vm2z3zvnlRGCRXZhq316Jl/NUyJFQ95NMLDrqsTo+SJkTPNDT96iasXbj0Trwktsij2ioxPJttvCUcv6YQes8WgCC/Y2PjuzvCZwV7vLRPcVFR2r2cmY46zijtLeiWFeTqqlU8HXZIOztUDNopz3vMPYbgTEmNWRweOX9i0R0AjEwEtHI2tuETU3ywRvzz4zXg2zqsXx5hw58KV9wF+qEk5qxkk7Y+rr4Ij1Nf9CK17SgTOdFL/QcqMFzLx6weBVihdlhJsoX9iXE/g7sNz6mZLhqxm1F0UHXNXsDBsoqwdfqEUC96Glpwv6dlVj3XpEu36MP5+EX9+3BXc+3G7WEXsieFKE/DbAsayP2HzA+WtTSEhF5ioGRiEZUcZ4tFErN1my7UDcQJL0CsWTxoK4bg1X1OL9/Uakqtt0XieRgTB8Iak3Ys89sI+5HZUEHdu6yenWi0myHTg5AivFRWN4TaGpvQl657ePRNXtHDOwHtazxGUcvq6e6Csuf34e7fr4PP3mwHE++VI/XV7Xr8pU19KPZvq3cKwAZqcZnA+9fJKITiYGRiEaQCm/7bUnFb0LwoJqtMhVwdIAaF2j5Ky0DQeiomrEW7DSCYcyE0CO9he2afuFvPJLGw1dOtn2Ysr4ncIBdzaGntZCTB1UO9qD4PRUUH63DirxetEtvGP04HW+kTAxEzhlhuPqaBNx5bxwWmR1ejtpnvH+RiE4sBkYiGjl24S091b6LRi/KqoxawCAf5x1JtDpsybUFoaNqxhoasVMe2q3+szVrpl0Cq+qG+TjFyV+cgPvvyfb4dcMcuzBleU/gEfY1h57UQvqlBQ1aVvuGIjy+ynYvpl9MIK68eSx++/BkPHTPJCy7cRxu+OJYLMiJQUJrBwoO2+bh/YtE9HljYCSikTMQ3ryQkGhfs3UY9bW2T+GhrnoEqxy0vQmbdEg6umasbmubfv4ikkIw3z4ENfYatWmKr+sOJG6dkPsXa/DW+7a4Kb/MctuPx2FRpsOjfwx1u9pQqT/x/kUi+vwxMBLRyBkIb14IGhSmfAd6NTfXdDr/1ZPWKrz47yP3Pw6qGeurwX/X2mrNshbED/695EAv+Bkfqyp1bxvXKqqxsbAFPXaPxTGdkPsXi9uwx9j4lPkxSHH1X2C77eX9i0Q0GjAwEtEJEIKMscbTsgub8OJnrbbPWi96KirwzO/qBsIUuvrQPhDq5NmNxjMW48Jw5XyHe/IS/QeCW93WRhQ7CYOaCqTPPF2LV54+iJ/84gB2ms831E7Q/Yt2taFB/i5qWnvqseIvxvYK3r9IRKMAAyMRHRc9RgWZKf2MEKNmsB97XivBT+/Lwy9+mYe77tmHnzzeiD1+IVg0UU+gAmM7XvhjoX4MzpOPFOMFeXZjUACu/tbYo2v1ImJx5njjc1MrHn/4ANbZ1SL2tDZh/ycH8OBDRiD18kLOlWOQY/8sxhN0/6J9bej+98uwrqzjyC/AdLWibFMRHv1VJZZXGIFQ4f2LRDQaMDAS0cgZ+C9KH8pKzGZTQ0Iybv9qIOTnmUV3ez+aD/frXzIJSg/FLben4eIzghBujG+v6NSPwdkvnWiCA3Dl/6RjQZRt3GABWPCNGEw2U1VTB16XWsSf7cEP79iDnzxQjif/04E6SWa+Plh0UxpucHzY9ol6/uKEcMw3axzbO/H6Hw/gJ6qMUs4f3lOCR99oRxkCcfUFZs0g718kotGBgZGIRk7akeca7s9tcLhXUX4beRweenAsbrkmGld/VV5xWHbvBDz0vVT9U35BkzJw/wNJuPmrYVgkvy99RhhukF7Ev8jEoliLDi0hCbhpWRzOz/QeqMEbxN8Hk5fE4M77J+LKzKN/meWEPX/ROwZX3hyNnEE3YRq8vJAyJxp3/nwcIiqN9nLev0hEo4RXeXn5kbYPIqJj0oIVjx/Ecv34Gy/MvmECrp1kEfSOh65WtFS3YXdlL4KjgpARH4iwsNF2L5/8usthFBW1o05lw4gxYchKCoEv/4QnolGKgZGIRlT7zgP45UsdttrFID9cfvM4LEk6waGRiIhGFP+eJaIRFZQzBl/JNm9E7MZbT+TjifeqbfcQutPTgbKSRueP3SEios8NaxiJaOT1tWLnawfx3Fa7Z9zIz9/FByAr0x/ZyfZ3GnajfG8XCgo7UdmmvoaG4PZ70thhg4hoFGFgJKLjpBcteyvw8jst2GM8BsYTQQmhuPlHqQyMRESjCAMjER13Pa2N2J+nguPebtTXd6GsyfjPjp8vUlJ8EJ0UjMkTwpA+JgRBrn85kIiIPicMjERERERkiZ1eiIiIiMgSAyMRERERWWJgJCIiIiJLDIxEREREZImBkYiIiIgsMTASERERkSUGRiIiIiKyxMBIRERERJYYGImIiIjIEgMjEREREVliYCQiIiIiSwyMRERERGSJgZGIiIiILDEwEhEREZElBkYiIiIissTASERERESWGBiJiIiIyBIDIxERERFZYmAkIiIiIksMjERERERkiYGRiIiIiCwxMBIRERGRJQZGIiIiIrLEwEhERERElhgYiYiIiMgSAyMRERERWWJgJCIiIiJLDIxEREREZImBkYiIiIgsMTASERERkSUGRqJj1duD8l1bsWn9ThS3GMOIaOha6rEzrwk9xlciGj28ysvL+43PRKeHzc/gql9tNL4IXwTHx2Hcgivw3etmId7PGOyJ3kN4+4678UKBfAnGRb/+I27M1mPotFSFZ+6ow57sGDx2fYIxzInaSjz3tApHTUDMkmTcfVGEbXhfCzb+swJv5PaiW/7L7OuNrMVxuOGiGATZplB6ULy2BK980InKLtuQ8MxQXHtNKrJCbN8H6etEXVEjtua2osz4gyY4Nhiz5kQhKzbANmBUaMOqPxfjrVIvLPh2Nq7O8nBfEtEJwRpGOm0lzFiMpRfIayEWjAPy3/oz/udn76PaGO+R/JV4XYXFCTc+jFf/zbBI7vSibkMh7vpdPfK6vTD4b5NO7HypDK/s6kPKwkhc/dVoXDwJ2L+qCk98oJKloeqDQjz+TieakkJwpZrm6gsDgQOH8eSz5agzpjG1F5biiV8W4sGn67Aqr9eouetH8aZ6PPlbVY6/lGJ/qx44CgRjwUVhWHBGFM7LNAYR0ajBwEinraxLrsd3bzFedz6IB78SCxS8g3fyjAkM3S1NaGxQr9bBDWV6eGUj2tTnqDB/NU0buntt47SONtt8MtwYZNODNnN5vT1oLMgzmrJdDTd02y3Pfj1Kd+uR9XTXlSK3SEo1BD0daGlq1a92+83s67QN77JfoQoeLWpYS6ftq/00ajlleTWokmXYDzc/q1dPn222QezWP3hdR/S0GuP1cehBu7NpLZZjm79Dh6bBy3KiyxhvTH8Uu+1xVd6BMqrXkX16GJvWdiJiYRzuuSkE4cZQra8Bm3L74Tc9Brd9MQkL5ozB+dcl4+IkoHJrE8r0RI3YtFWtLykMy76XhkVqmgVLx+Gmxeo/5eVq2XZ/7bRvP4BfPn0YdeOiceevJuOhO7Nw07XjcMO1mbjjF5Px22XRyGpQQVOFxrKjjolD2Y39OnDsjP2jv3c1Im9nHeoG9oOat6wGOwubBp9LJotj5DdGheRzIhEx1CvTwPFycX6Z56xMY563A4xtNc6rusIq5JXZHfeuFuzfWYOyo+YjOr2wSZpOP0aT9KKfP4vb5hrDhOPw1kK8/OAjeCPvyFUvcu71+MWdi5HsU4O3f3gnXigyRmhjcd1f78NlY9qQ/88/4IFXC2G0GAIxOfju/bdjaYp82YknvvQ41i1eisv3rMRbdUDGNx/Gb758yMXwODSufQY//cNGNJrXV79EXH7vXbh2WrD+uu3xb+HXqxbgosvz8N5bTWrGq/Cnxy5E1NbncesDaxF1o1rO5XF62sF6UfbxATz53260m/8l8PJCztfScMMMteyqUjz4+8OAfbMpmrD8kXKsQCju/GkqEsxppgchfHc7itTumvz1ybgp0Rg+LxTJuYex08ywwYG47sfjMEs3nzpff8YXEnHb2ZHGgDZsfaEEL6gwZeOllq/K8n+NqBool/vlbH1+D17IC8CSc3uw7qPegRA/5twk3HHBkXXt/89BPPPJkfEI9sPlN43DkiQf/bU9rwiPvtiOOrswdGQZRjPqxFCc33gYK6ps4+Hrg/NvHa/CnwrUFV5ISXKybyWEtqiFBgUizN+2Lql1XPd0IV6vCsHt96Qh3RjqqOzdvXh0jQ8uvysLS2R3tKtyPFSHoswY3HN9AoIkMFXU47OKXkQkSVO0CkndAQhDHZ75bR3Kpifg/i/H2BbWWoXnfld35Hip8lx3AfDCf7pw/o8m4eIEVfT39uLhVcCCJf7YsaoD7TKdl9rG29TIlyuObHeQ2nffU2XSLcqeHiO1vt+o88Oj5v0eFL9XiCdXG034wtcbC65NxdXZtn8b6KnH8icrsaLc9lX4xQThhlszkK3PQbtjVq+OWY2eBEFTY7BsWisefVltn7Hs8DlxuPOrcXa3BxCdPljDSGQo3ic3IgYjNFS+9WDb3/6AN/ITccUvf4+X/v0Unv7lJTqA3f/3QjU+Dhc98Hs8ffssmRjzb1efn/spLlKZrHvzS3hIhcXkr/wYT7/2LF567se4Imon/nrPS8i3r1BZuwVl596Ox577PX7xBbsw5zi88n38+tGN6up8PR57+Vm8+vKD+O68Nrx135NYOagNciM2li3Czx5XZXngXMQbQ0VDbbPxyUFTJV5Z3o2eCdF44NeT8divknH5OCBveS32G5N4qm5nJ8IuScCdd6Xh2qnGQKVuazvCr0rGA2r4sov94NfWgZffMa7KVRV46QMVzTIjdS3YY78aiysnAEXLa7DKaIWt+7hch8UxC2Jx9y8n4Lc/iUbQB43YYxtt48FybDrVPgrDbaosDyyLxQKVkSo/OjJN+/ZKHRZjZF1qOb+9MxaLQrrx1tOlyNM1VzV4/Z8qLEaoACfr+XUabp7njcq1dVhnXxuc34ryBUl6m++8PggxPb1Y8a9KtCDEFhad8VYBTi33SFhUKqqwWp1u4TlhR4dFXVPXiLyVB/DM2j4VcMKxwMj0LZ82Y0+XHy7+qoRFCdz5+MnjNXjjP/V4+vFC3PvrUtz7mjp5QhJwxWIfNG9tNravBaueVWGx3QeLrh+L3/4qE3d/yQvL3+3Qyx2sD1tKA3DLvZn47e0RyPLrxeq/HMKuiQl46JdqvisCEdTejf+u9vxYD1X79lI8uaoXQTNjjHNDHa+oPmz8xyFs1Cm2E1tfrMKKCm/M/rqxPdeHIKa+HU87NuHva0PLJWqaX47Vx7Q9tx6/WQ5c/mO1ffcmYIn6p9j8WSM2DrOsRCc7BkY6be1/93n89Unb64n77sDd/6oFxl+KS+U+xIYNeHtVGyZ8+4f42rQI+MEXkdOuwHUXBKPxvbXYpibxC4tAZKi/XpZfqPocFQw/nyasfWsj2rKvwc+uzUaknxoXlY2vfXMpghtWYuUOPblN9qX47jdykBwVIZVuRzgMz3/7HRSFLMVtP1qMZJkuMBFLb7wUE3rz8P5642KsZeKKW6/AzDRVljBfPcRv1vUqtKqwe6OLm8I6enXtUFCEH4Lkvwa+EVhyczYeuSsVWXoCz/nlROOGM2KQoEJPkG31mt+UKFyZHaHDUMrZ0ZivAnl3VZeKJkrCWNzxq4l46FtJSJB5fMOwKEf2aTeKS2SCFmzarEJGaAiu/nI8Yvx94RubgGsvCxp8/5/b5Zh8sOTLSUiRYBYfj8sXy1J6UH5IxrVi45oOdCeF4duyLrUc36h4XHmJWld7OzbmyjR9aJdqY3VgY2R/eYcg+8pJeEwFpEVhMt6QGIorzojU25yQnYRzZPfXdBnNyh5qrcIz0qQcFISvXRZtDLSTW4F7H6rA0++rMo8Lww1fijVqvnqxu1Dts+RgTJcatLwqvJzrhUW3TMAjv5SgloDpfmZ1HBCTrQJtVyeK5FSqbsSn5Sqgzo9VxywMvr4BiJmRiiuneNkmHsQL8y9IRkpIAHyTkrFAbWN3VwDOvyQGQf5qvvnRWBClhrUbbcQeHyNPGccrNAjXqmBsOzfU8fpWAm64KVZto5qkqRar8voRPjcO184wtic7DVcvVAevXJ1bZk2oyAzH5bLN/mHIXhSMGKj5ZsVgQazavpAYXH6OdBBS/16cZWei0wADI522GgrzsHu7em3YgHXba+G74Hr86dcX2mrmigoh+aD4nw/h+zffMfB6Yk2bumYUo6xSJnKmBPlS9VXwJu6xm+/7f1AhUg0uKrELeGNiYTaEDjJoeA327VNzdmzEE9+zW97P3kSxGltUpJOOIQ4JRqviIH5ydXYhIRYXZ3uh+dMq/OTneXjwiUK8/kndoOZWT4VHO+9xO3i4L4LkqwqqZotnT3Utlr9eiEcfzsMv7t+DH75mu1fMdi9aG8pll40NHFzDlh5wVI2b9XJMKuipEGMKCpLavH4jBBxGcYV6qz6MJ36plmG+Xm3XzdPlFVK1FIsvLFHzFDbi3rv24K7fF+KV96pQ5ngfY4S/ChymAARLLupS67ENcK+1Gi8+Xoc9CMTVy1KR7ey/1DPG4bFfZ+KB78dgcnMLnvxVAZbrAHQY9epvH4T7QjJs2YFOdCeH4YI04zzwjUFOpl0A1BWafaiSeSu6Iad2Sob9ieSD9Axn55CX2n/GR6e8pHV4EM+OkaeM45UchCz79UTJ9kXY/mgp6dQhPSVt8L+09DQ5IH3GHwoGfx/rpmZfZ6GZ6PTBwEinrXm3/QZ/fFq9nv8BLgpR0aS4Bm0O/yLSz7sa137zyOtbt9yKZT+5GrOcJj074xcPmu/aG29Q892K6+bapZWhiMnBFfbL++YN+L5a3rJL0owJhisYs66fgN/eHocrFwciuqcLm/5ThQd/V4LiYV3Eh2hvEe59tA6ri9S+nheFL1yVhAe+ZB8wvRGkw5atJnSAY/hyu5whiA/GF76glmG+LonWPZYvz5HqXR+kXDQRv70zATdcEIIM325sWV2HR+8vxsaR6m3cWofX/1KLLa0+OP/mNCwIs2uidiTN2CkJuPYboYjp78XWbUe3l/aofYVAFd6M70Lv00G8kSC3CarppGKuu31wBw91Why7kTxGRHTCMTAS+WSrMJYNVL6L//3IuOBmZEJuw2tCBOafOWvgNW3yWEybnW1rGnYqDRMmq7c6IGrBkfnmz8hERk4OpqZY1PY5FYeJE4OB6jb4z7Bb3oJJmJg1CbPGGzetDZfcB1fWhMqoOCy6KAO3/Cgbt52l/rPQ0I49UrMX5w/JEc31dgGirxP19vfrHYOq4k4V/Pxw+fczceXSMViQHamCjX1SDUf6WPV2oFUFKNsQ0b6nbVDzrvvleCIU6UnqrbkPMbPUMqQHsryyVTCcGIWcJBVupGNKdR0qEYOcpWm46bZJeOQranhPJ3YN9aZPZ/oasfwvVVhXa3aScQiLteV48pd5ePB1+1sRFBUKpRbUxlf6qahl2ZqdE8aoc+5gB/IGEnYL9pceaZJGQy+aVRAOly7babaa2/276uwCeRt27Duy9OEamWNkLxJZ49RbUbtx/6WhuByvvFeBYvmnnBWob63Yn29/t2Iv9hfK+eyH8Rm2IUTkHgMjkRJ57lW4YgyQ+49XsU2aJ6MW4rILIlD11p/xxH9LUd3QhOpd7+OJH92J63+1Fo222ZyIwOIvL0Zk9fv43R9Wori6CY3VeXj70fvxP9f/waGTimcmXHYpMnx24u8PqrKVyONzDmHTUw/h5pvvxgsOjwBy1L31edz8pW/hjrccAoap4BB+/cdKPPNKJcrk0SLV1dgkV18vP0RLgPAO0SGqe2cdnnmvCjt3VuD1v9Rhy7HnBy1YNwn3YOenjfqRJ1V5pXjmffuFB2DRWUEI6u/G67/bh+feO4jlL+7Dw2t7Bz2Sxv1yPBGCBecEIuhwO557/iD2V9v2x/Lny/Dwr0qxqkFN0lSLp39fhSdeKEWejG9qxLptUv3mjehhVh4PkLD4+wrdSzdjYRiiK2qw8bNK41WNMklwseHIjuhH3ae1+M1rB7EzrwY7PynBE8+3otnLB7Nmyh8QKuCO9RoIUkEzwpHj04EXHtuP5148gGceL8MKefzO3ka8+EkFXnynHd3jwzBb2mODErBklpq3sBG/fPwAlq8sxXOPl2J17bFfKo79GDVh+e/24If3HcBOnWaNc6OrHS88azteVYUH8cw/mrBxYweapRbV2J7uHXV4Uv3jq1LrLfukGM992j+okxARucfASCR8UnHldbOA1o34+79K1QBfzPzOL7DsgmB8+pQKezf8CP9zz6vYG3Mh7r1TBULbXE5JR5NH7lyKkI0v4ac3/0gFu9/hhX3huPy+W7DU2T2G7oy5EL/41VWYqkLor29Xy7vhbjy6qhvzb/mJxw8Kd9lLelIqbrnYD9176/HoQyW499FarGv1w/k3JWKBvqErDOd/NQIZQf3Ys6oOz/2zCeVTo7DESR+M4QhbHIfL04H9y6UDRwkefrUT0+Y6NFNOysA9N4dhclgfijcfxtb6QHzt1ijoJxQZPFqOB4Jy0rDsq4EILmzBk4/a9seKSm8s+GYylkggjErGLd8MQnjVYTwt4x9SAbrYCzlfTcaVx3p3QE0zthq5vuiTRrzyWv2g1059CMOw5JYxuDzbG3VbWlSwrcFz/1EhyCdAHbOx+pE3In1WMMJVkFq1qU2HphuWxeHiJLX/irrQnBSFO+4fi6tne6P4I3U8YyNw+w1jjPv3fJB9dRpuuSAAEc2d2LS+DfXp0Vh28VFt2EM2UsdI7n+tM5vI1fmrj1ex7Xg9/HQL9nsH4PKb05CjN0htz1dTcPU0LxS/X4WH1Xof/U8n/DIjcMs10oOciDzF5zASudPbg7bmVnXhdejN7AF5uHcrQgZ6LR8reUB3a5cfQqRHtjHMre4e644vmjy8uBM9vgEIC3ExbZca7x+govTIkwdpt/f4qF0c6Hz5PWobfO3GNJWrgNuE9kHPh/RgOR6TBz3L8wV9ERbmLNS4G38i2I4ZQgb3SrfpxM4XDuC53V6Y/Y2xuDbH2W8GuqK2Te/uI83hLR/vx73Leweew3gsju0Y9aiy+Q46FWw8OH/l9ovWXvg63V9E5A4DIxGNanUqrPzmvz1IvzwRN8yLhF9nIzb+85D+SUbbbw4bE9JgfS1Y93wZXt/XD7+4AMyfFYLkWD/E+HWjrqELeZ/1IvumDKMm2dSCVX8+iLdqAnDlt5OxIMUX3WXVeO5vjdiPINxyX8aQH7dERKcGBkYiGt36GrHqb5X4b2HfkY4dvt7IumAMbhn4NRhyrhctJVX44P0W7DzUi2bjWUZ+wd5IyAzGxZekItvx3suKcjz5bBP2Hza+K36hAfjCt9IHfu2GiE4/DIxEdHKQ3ws2uu4GhYUc9Yw/GklGk7v0Pvb+PJvdiWi0YGAkIiIiIkv8G52IiIiILDEwEhEREZElBkYiIiIissTASERERESWGBiJiIiIyBIDIxERERFZYmAkIiIiIksMjERERERkiYGRiIiIiCwxMBIRERGRJQZGIiIiIrLEwEhERERElhgYiYiIiMgSAyMRERERWWJgJDpG3ZVb8fc7vo9rv/QtXCWva+7Go28Woq3XmOB4625DY0Mbuo2vdHx1tzShrcP44kJ3axMaW3uMb58/T8rszohu0wies9Vv3oerfvg+qo3vjrY9rv5NWownIs8wMBIdg7bNz+PWW/+MjeFL8P3fPYynn3sQ916bjbJ/PoQf/Gkn2ozpjqvtL+HmG15CrvGVjqcavHfvj3D/f2uM787l/u1HuPlve4xvnzfPyuzOiG7TCTxnk1PHGp+I6FgwMBINV28hXn5yLXDW7fjDz6/A/PFxiIxKxNQvXIPHHrsCUauewd82GzUydjUq3XWl2JbXZBtukBqgxgaLGhw9v22aNvtqmQ41/HCX+tCFVifzu12uo94etJnrcayRst8GqW1yNo0L5vRWtUqe7wO1DBe1t1bLcFbL5lhrNjDNwH6wL68Ma0Zrn9rbrc0uyyHLaNWHxFbeQcdLL8NWRs9r/OzmkWXpsh29H51vu2dlHmB//O1WYLlNrs5NIedni5RHLbckD9tK1J9Qx3rO2h+bE1WLT0TwKi8v7zc+E9FQbH4GV/2qDd996XYsDTGGDWjCtlffxLa4C3HjkkRj2i4s/UIhVv5XhcWMq/Cnxy5EfO8hrHz4t/jr5lYEx/ijra4NkYtvwiM/WIBIH9uSyj94HPc/tRONgRGIVMtt7IjA0jsfxHfnBuvmuP/5x0HbhGLJ7Xj19hx1UXW/XEdtu17Fzx94H+UIRkJgF6pagAk33ocHL1flF3obgK/dWIM3/nEIvt5tKiD4Dp7G0UA5mlQ5IoBGFSoiF+NnT1yPmeY+s5vG388XXd09iJx7PX5x52IkG2UdKFufL/xV+OjyTsTl996Fa6cF2yZwu4wavP3DO7HurIfxmy/H6VmENFf+GsY+M6eZcRUy1ryKdR3BKmSpgBNjlncnnvjS41hnm1UZi+v+eh8uG2N81WzLeKHI+Kos+vmzuG2u+tCahxfv+gPeKulRZVRxSe275Mt/gF/dmK32uAt28wSH+KKtKw3XLZuOdQ9X4Gv/vgkzZRrLY+1JmW0G9rF/BBK8W1HVFmKcZ60ut8nq3BT6/FyTjIsCP8N7eSoAqvPzT6lvDP+cLVuLh3/xPLbW+ar9oYJj4GJcd1YxXti+0PbvyZjMnq0MrscTkWdYw0g0TOUlJSr4TcLUo8KiiMDMq663hcUBW1EUciuef/1ZvKovXj3Y9pS6QDYswoMvPYXnn/0jXn3hVkzNfQb3vFJqm6VyJZ79Rwkm3vowXnrp93j6pWfx2NfDsfIPbyJfjY7/8n149ecL1KcF+Nm/1XJ18PFguY66d+LlP6yF/xfvwvMv/xF/fEHNd+cclP39JaxsMKbRNmJT89V4+vU/4vnXnsJj30hE/j/ewCYXtWXV772E/z2Qie/+Vcrxezz/6oP4WvhaPP7PQmMKo6wF2Vj2wrN4US1Tl7Xgedz/d2Oayvdx/33vw//qB/HS60/hRfV67GpfvHXfk1hZJxNYLEOFGcdKL3eKVhdg6iNqOS/Z9tuijrX4+39kv+Xgtn8/jOsy1GH/5sN49d/OglccLnvsWfxsifooQUgdEx0WJUj+4nd4y+9yPPaalPFZvPT45fB/93e4/y1XTcU92PSkmsf7XDyotut5dSxf/etS5D/zBo5kN3fH2pMyi1K89ef30XPpXfo8k+P/2LWx2PivteoPCBfb5ObcHFCUh4bz1bEzzs/hn7OlePnB57E363r8SR3j59X6nv9xONa9ZRc+iei4YWAkGqbq8kPGJ08twBVfz0SwWVvS8RlWfuCHy799BSaYoTNsFv7fVZmoWv0ZiuX7mKW4V12Mly2Ng5+eAEheMBfJrfuxz9Vd/J4s15FfDm5UF+nfXHukfMFzZ2MW8pBvV7M0sA36sy+Sz1qIjN4aVDfqAUeJv+TH6uJ/K5aO8bUN8EnE/DMT0bavwNYJQZe1CYtuuQnzw/QUuqzfe+L3+MP1mfpr8YcrUZR6FZZ9JdHYB2q9X/kpnn76B1gao766WMZttyxA4wdrXYZZV5IvuQKLZLlCLWfxPKCqxsUGeqpgLT4oGIvrfnwJko0D6Zd2CZZdOxZF76x1fkzUdq1bDyz6xlWYYG5XzAJ86yu2/aIN51g71Y22FnXMg47UdSZ/Wf3x8JsLkWx8P4qn52baufia3TROebIdBZ9hfeVYXHn9YsQbCwvOvgJfO8v2mYiOLwZGomGKT3bRDGvB3wyLorFJhaZafPjbO/D9m4+87vlniUqjdTAr9robSrHyn8/j0Ttk/Pdx7f+8gXIZ0adHH83D5R6l4xC2vfkqnrjvbjX9j3D9VX/WTZldDveJDdoGt3rQqMLSy0/+GXdLOa77Dn74ogra5jJ1Wcciw6Ffgl9YBIKNUNBQVwukJzo0JwYjMsYIoS6WgbGpyEANGoaY9fx9jOWOpIY6VKnoleJQuxefouKYq2PiYrsiY480qQ/7WB8lE5d+KwcNr9yNa665Gw88+gbe23XI7T2CHp2b3r7WYVF4sh0u9iE7tRCdGAyMRMMUn6ACY1EB8p3WYPWgfPtWbCty1086FrOuuBrXftPu9d3vYNlPLlRhR6l8H3d/+368nBeMKZdfg2UPPoinH7/KNs6Sm+U66tiJv37vbjy6ugkZZ1+B7/z8F3jypVuxyBg9XNVvPYib73gT+YHZuOy7t+KeJx7DY9/kBX5kDfFYuxC/9HY8/dLv8ciypZiAA3j3gbtxw90rVZBzYdjnpisjsx2OouZejWXfzEGU8Z2IhoeBkWiY/OYuxqKQrXjlX07uCyx7H0/c92esrPA3BjgRGYd4nzaEps7C/DPtXrMnYdaCVESqSao3bEBRyhX4xS+vwkVn5iA9PgLBzbWosi3BOQ+We5Rdm7CyYQG+//ubcNmSWZiaptbT2ug6LHikBptWHUTy13+Ce29civmzUhEfFYyGan3joU1cIpJ9DiK/cHCP2Ma9W5FbZhuma5DyCgY3r/YeQu76UjTKDYoultFdWIAin2Sk2FXIdfXaT9OD1nbj4/GmazsLsG9Q8z5QvL8AyEh13uxrbNembYN71OfvUfOYhnOsXehubUO3XwTSZy3F15b9GH/85YWIyluDTZXGBA6GdW664sl2xMYgQfah3ebLMSwqsL6H0S8lG/NnmLczENFwMTASDVdgDr79gwXo/Nf9+OGTa1FcbXscSPnWN/DwPW+gaPxV+NoCi+bNwFm47CI/vPd7FSyNcNTdkIeX7/4+rvn9Vt1ZIypepZ2yPOyqtBv/zzWDn+8YJRfSchSV9KC7W03nwXKPYlyMd+8yltxxCCuff2dw54Uhi0J8ElCem4dqvdIeNO56Ay9/aFd6nxxcdFEENv3tqSNlLVuLZ3/zZzy1ukJ/jz/rXEyteRd/eTHPFhC7m5D7f0/hgd+/jVx5OouLZTzxt62IvGgpZuom9DhMnBaB8jdfwtsFKhh1t6F85XN4fZ/L/skuRCEqAag6cBBtal+7arKNiolVafAgymUaKfOYBbhwWi3e+PMbyG2QMtr2xV9er8XULyxw3ntXbdeV145F/t/ux8P/3IhtW3di3T8fx19W2x1Bj461B2Xu2Ion/t/3cfebpbbxvW3I37QHVT4qyBmp03GbPDo3XRnOOZtxLr4s+/CvbyC/RQb0oHrlU3h2o3x2rfjVh/D9O95FsZvmdSKyxsfqEB2jtrz38ZfH38Am48IJn2BkXHADfvbtWUceB2I8kuZn5qNQTL1NKuj8Fn/87yFI9hGRc6/Cj39woe3mfzV+3R/uxxNrjVomv0xc8b3x2PbEHiwaeDxKG7Y9eTd+/YH943rcLPcoKiD88w944NVC2/Q+EVj0g0uBR18CzMfCONuGyvdxx3c32JXFQd1GPPHTZ7DOqFT0z74EN07aib/aPwblqLLK42Zuxa++mTPQAadt7/t44revYqtZORmTgxvvvRUXpRmB3NkyvvAd/ML+GLQW4uWH/4A3dCj2RcKS7+A7qW/hgdIrBj9Wx/LRO0rZ+7j7h68iX6WYgUfmOGpV23jb47oXt/RO1stT63/7D3/GC5uNY6n28axrb8VtXzY7ETmjQtH6N/DXV7egph2ImH01fjx9C25+2O44eHKsPSjzwGN1bCkTCMnGFffcgq9NMkrnuE2X+7s9N10/0maY56zdY4aEf/ZV+P7sDXh0vavH5vRg02+/g0c3zsKyl27F/EBjMBENGQMj0UiRBxJ3+yMybBidJuRhxM2tQFAEgp1d1GTZKjCEhAfDz1WnE6n5kQ4G9uPdLdeRPIT5cDf8Q9X0I9iGpx/8jBDrfePBut0ux5PyO9tPw9Dd0QO/QOtj7XQaT46lPakZs5/O5R8f7o+1+zLLQ7Fb0eXreh8ftYyhbo+9YZ6z8sD11j435xMRjSgGRiKiUakN2564G3/p/DIe/IHxKJnuQ3jjZ3fjZb9r8PSvlw7pHkUiomPBwEhENFpJk/7Pn8M683YHxT9tKb5/7zWYbz4rkojoBGBgJCIa5XRTvGRG/xBEhrAZlohOPAZGIiIiIrLEx+oQERERkSUGRiIiIiKyxMBIRERERJYYGImIiIjIEgMjEREREVliYCQiIiIiSwyMRERERGSJgZGIiIiILDEwEhEREZGlIf3SS11tPZqbWtDZ2Yn+fv5ADBEREdHJxMvLCwEBAQiPCENMbLQx1D2PAmNXVzfKD1bAP8AfkVERCAoKhLc3KyeJiIiITiZ9fX1ob+9AY0MTujq7kDw2Cf7+fsZY1zwKjEWFJQiPDEdMTJQxhIiIiIhOZnV1DWhubEZGZpoxxDW31YTSDC01iwyLRERERKcOyXaS8STrueM2MMo9i9IMTURERESnFsl4kvXccRsYpYOL3LNIRERERKcWyXiS9dxxGxilNzQ7uBARERGdeiTjefLkGyZBIiIiIrLEwEhERERElhgYiYiIiMgSAyMRERERWWJgJCIiIiJLDIxEREREZImBkYiIiIgsMTASERERkSUGRiIiIiKyxMBIRERERJYYGImIiIjIEgMjEREREVliYCQiIiIiS6dkYOzpOIyOHuMLERERER0Tr/Ly8n7js1N5u/che8pE49sQ1G3Enx9ZiUPGV3uJF9+KW8+OML6NsNYdeOGBd7Fv3lV48MrxakABXrvjVeD6u/DVbNskg/VgxwuPIH+Oq/FEREREpy5Pst5xrmGMwPQvXoGvXzP49YXsEGP8cRAyBZfefAVuPk/CopUmbPz3apS2+iLQPwGJ8T1o2LkSq/exapKIiIjI3nEOjIFInDgJU3IGv8bF+9pG93SipaUTEtF6mqqwr7AWPb22UTKuoawAB6ps44+i5z2sX4Obn30RNiYF8UHGV1d6A5GW0ol///YJ/Ht/I9Y//Tie3uaNxFhjPBERERFpPsuWLbvP+OxUbU0d4uKHkaLay7B5fQ3GnDkLqcHGMEf73sUvnyhQH9bg5X/twJ7NG/DhZ91In1CF1x55Fav35WPbyrVYU+iHyTNTEGLE2+pPX8Wf/vIuVn66Gzs3rMWHH25DU9IMZMdJEG3CJ3/9E/7bnYN56YHqez32fLgbmLEYU+L07DbeKlhGBKG/rgi5pS3o8huDeecswZyMYPYEIiIiotOGJ1nvOGejXnQYtYBHXp1HahG13SgN/Qbuvvc23P3AzTgvZCP+9y/7MPm2n+LuO5bhvmVLEVe6Eh/nG5PXbcE7yyuResWtuO++23DHfXfhtvNDsOWV1Sg1JvFITwneeeJdHJpyNb4+KwHnXXseQrf9A0+tqjUmICIiIiJxnANjLVb/5Qn85kH714vY2GiM1qbgzIWhto++sUhMUFkucw4WxNsGIT4b08cA1dVNtu8xs3GjCopfnxMBo2Eb8VOyEd9ehtIGY4AnfNNw6U9vxpdzIoC+KjR0JmPRN2/DrWexTZqIiIjI3nEOjLE453u34Y677V/XYkGkMdoV/4CBMOhMT0sVtqx4F//35z/j0d88ivseXY1qGdGnR3vOx/Y28fLb8IVM22dzGBERERHZHOfA6IPAsFCEDXqpMHgsoaxuI5769bP4sDgIGYsvxDdu/g7u/NFSJBqjh8M3JBSBVgmViIiI6DR20vXvaMjdjUNx5+CGm5ZiQc54JEapsHe4CUNpjSYiIiIiz30OnV4Oo6PLGD0MYVGRQE0RDtTZnqXT01KCD1fsQIf+RkREREQj7XPo9PIEnt1gdGAZBt8pF+Kr0+rwziOP4O47HsJ9v1kNzJlzTE3SREREROTa8ftpwOOtqxMtnUBQ8DHeE0lERER0GhsFPw14HPkHHHsHGiIiIiJy6+QNjERERER0QjAwEhEREZElBkYiIiIissTASERERESWGBiJiIiIyBIDIxERERFZYmAkIiIiIksMjERERERkiYGRiIiIiCwxMBIRERGRJQZGIiIiIrLEwEhERERElhgYiYiIiMgSAyMRERERWXIbGL28vNDX12d8IyIiIqJThWQ8yXruuA2MAQEBaG/vML4RERER0alCMp5kPXfcBsbwiDA0NjQZ34iIiIjoVCEZT7KeO24DY0xsNLo6u1BX12AMISIiIqKTnWQ7yXiS9dzxKi8v7zc+u9TV1Y3ygxXwD/BHZFQEgoIC4e3N/jJEREREJxO5Z1GaoaVmUcJi8tgk+Pv7GWNd8ygwmupq69Hc1ILOzk7093s8GxERERGNAtLBRe5ZlGZoT2oWTUMKjERERER0+mG7MhERERFZYmAkIiIiIksMjERERERkiYGRiIiIiCwxMBIRERGRJQZGIiIiIrLEwEhERERElvjgbiIiIqLTxHF9cDd/GpCIiIjo5HdcfxqwqLAE4ZHhiImJMoYQERER0cmsrq4BzY3NyMhMM4a45raaUJqhpWaRYZGIiIjo1CHZTjKeZD133AZGuWdRmqGJiIiI6NQiGU+ynjtuA6N0cJF7FomIiIjo1CIZT7KeO24Do/SGZgcXIiIiolOPZDxPnnzDJEhERERElhgYiYiIiMgSAyMRERERWWJgJCIiIiJLDIxEREREZImBkYiIiIgsMTASERERkSUGRiIiIiKyxMBIRERERJYYGImIiIjIEgMjEREREVliYCQiIiIaZepq6/H6a+8Y3z5/DIxEREREo8x/312JV156E39/5iVjiE1XZxd2bN+Nd99eoV+7duTpcHm8eZWXl/cbn53K270P2VMmGt+IiIiI6Hjr6+vDnx77G9at3YQLL16Cb918LQ63tOLHt9+L+vpGY6ojUsYm4f/deDVmzJxqDPGcJ1nPZ9myZfcZn52qralDXHys8W0I6jbiz/f/L976cC1WymvVp9j82X4c8olDZlI4fE+Tus2Gj5/Fr97qwsz5KQgyhg1WhQ9/8woqsmchNdgYRERERKc1Ly8vzJk/A8VFpVj78Ua0tBzG/IWzMWvOdCQkxuO8C87GWecsxPisdHip/+XvK9TTdXZ2Y9r0bD2/pzzJesc5tkVg+hevwNevUa+vXYJLzxqDQ+/+A4//qwAdxhSnra4CfPjvHWjoCURgUCziIjtR+vFKbKkzxhMREdFpzcfHByGhttqk995dqZunk5LH4JLLzlfhcRZmz52OSy6/AHf94of401MPIz1jLN5687/4w++e0jWUI+k4B8ZAJE6chCk5xmvhhbjthtno3voxPmswJhG9PehQyVnSc0eXMcxBT4dtfEtrjzFkMKfjjeV22M+ih3Wip9f4Lno61bwOw7pkmCxTDTcGDZBxej1qWVUl2FfVaRsuBrbFYXmOvOMwNmQfnn7wH1hfX4J/P/In/LshBkmBxngiIiI6rUlIXLNqA6bPmIKp0ybp788+/aIe19PTgxeee0UP6+3tQ3xCHB749c+QM2MyNqzfjDdeHdkOM8evSbq9DJvX12DMmQ5Nrf212LU+F/3jF2NKHNBRuBJPPvYK/rt+O/Zs/hQfvL8eBUETMducqbcWW174G/762gZsyd2FTStWYeV+P0yemYIQibtW430O4b1fP42NoTMxM9lfL65n55t44Mm3URO/ENPG2PJyw9p/4LdvtmLK4nSEqe/Vn76KP/31Xaz8ZAs2rV6PlZ8dQsTEKUgK0ZOjYZ2a/r/laNv2Dv753x3Y2TkWS6dGqxl34IU/PY83P9iCLZvX48NNzYiIPoyC+nic4dgk7R2IyEgftBUVoqDuMLrCJ2HJ0gXIjvc1JiAiIqLTVWtrG359/+8RFxeDu+9fhiXnLkJpSTnWrN6A5uYWzJk7Q9+3+PST/8DGTz7D2UvPgL+/HxYsnIMP3/8YO3fuwdLzFiMoyH1N1ChoknaisQkNSEDiGPW5pwAfvroNPou+qXfGsnt/irv/30RUv/0+trTYJu/Z/THe3JeML8u4O27D3fdehSnN67E+31bvZz0+GZNnBODAvpKBWsLCffsQFhaK3fuKjSGHcSC/CoHZWUhU33r2vYvnXq/EuGuW4cEHf4r7HlqGr4+rxJtPv4t99rWf5SVomfMd3Pebu/Dg1ePVgCp8+Py7KEm5BMt+pcpy3124++sh2LGuyja9o6Yt+PtfdiL0kitxXvIUfP36iah98094bfdR9ZlERER0mlm7eiM6u7rxzW99DSEhwfD19cXMWbYOLe8vX6VrGmNio3Hvgz/Rge/9/67S4/wD/HH5FRehp6cXHxjDRsJxDoy9A03N8moo24LXXt2CjvFzMD1KjfYdj0t/tgy3XpSMQB/bHIGTJmIiSlBaYfve3tGhtt4XA/k4cDy++tNl+HK2rSbO3fhxE1WYyytAoW4eLsf+vFjMvygHUXmFKJVBXSXILwjAjJxk9aUHuz/dgZZZF+OrUwJkLOATgClfuRjT23Zg6x67MDdmDs6dE4GB+sCyPOyoS8A5F09HlDEwMP0cnDfd9vkoEbNx88+uwqJ0tZ7eWjR4T8Klty1T62UNIxER0enug/dWIS4+RndyMa1bs0m/z50/cyA0xsfH4oGHf4bGhiM9py+6+FxEhIdi/Vrb9CPhOAfGWqz+yxP4zYO216NPrkb1uEtw2w3TddOv1lWLfR+vxGt/exqP/uYJPHjPG9ihBvcY92qGzTgH50Tsw/898Age/PPreO/jvTjUciS4uRuPzImYggLsP6g+l+3HPqRh3MwUpHaVoVQ6mBQWYLfPeGSNlYlb0dIAJI6Jky9H+MTpGtH6plZjgOLjDT/jo9YiNaexiIsxvhvixyQYn5zQITkSC759LRaEm9+JiIjodNfR0amihveg3s5S4+jn64PbfngTZs+bPig0XvX1LxlTAX7+fggIHNlOEcc5MCbgop/ehQel2VZeDy3DrVdPx8Btel0FePORp/F/W1uQOPssfPn6G/Hj+67AoEo5/2Sc98Mf4e4fXY3LpkahYee7+POvn8Q7+4xQ6Hb8eEzO7sS+vVVoKCxEQ3YmUn3SMSG7CvmFh1G6vwCYPgUTP7ew5ovAsACo409ERESkzZ03A5WVNSgplhovm0WL56G7pxf/+9yr+NFPbsHMWdN0aJTe09JkbZKHeVdX12LewjnGkGN34u9htFe4G1tapuCrt30Ri2ZOwriEUAS2t8K+A7XuddwBBCakYfrZS/H17/8Pvjz+MDZuN+5BdDdeBbJxE9PQcLAIu0urMCU7XQ+bMm0iDhTuVK9OTJkow0QE4hKAQ2WHBveM7jqEg5VQCT7CGOBERASiUIaDZcZ3rQcVZS7uYSQiIiJy4aJLztXvTz7+rO4RLWTY+AkZWPH+alzz1e9g29Zderj5yB3Te8s/QoC/H75wyVJjyLH7fAOjEbKKDhiPpemqxZbl6233FhoOrXwKD/7uXew2mpl76vYiX00QFW1r1HY3XoRlT8W4gpV4L28iJk+yJXDfzPEYV7oNWyrVsMlHUvnE+bMRtvMDvPZZre2xOFKm1z7A7uDZmD/BNo1TSXNwzvgmrH5zNUp1y3UPGj77D97ZrccSEREReSwxKQEXX3oeiooO4rHf/hW9vb36uYz3PvATnL3kDEyeOkG/rvvmVzF7zvRBofH6b38d3/rudbpTzEg58Y/VsReWiBTk491/vY8P5ddg1uxDwDlnYkxuITDD9tidsPRxiChZh9deX6V/MWb1+iL05FyGmy/JQICKu+7GawFBaM3bjIK4Bbhs3hjo7iwybOta5CbYDROR4zE9qRHr//UO3l0hv1CzBQVe03D1dy9ElvFcnI6SbdhQ5fioHH8kTUlF16cf4M13P1ZlWY/N7dPx5XltyK128lgdIiIiIgtTc7JRkF+ErVt2Yl/efkybMUU/6WXeglk4Z+ki/ZqYPR5nLJqrgmWp7lktnYwXnbUA6RmpxlLc8yTrjY7fkpYHZ7d3wy8oFIGuOgnLw7I7LaZxN37I5AHcHej2C0TYEBcoDxFv71XzhYxIQYiIiOg0JTWLzz/7f/pexeDgIP08xhmzp8HX10c/OudQeRV27MjFlk+ly7DNFy45Fzfc9A3jm3ueZL3RERiJiIiIyKVNG7bqX3aRziyO/P18cfa5i3HBF87BB++uxIoPPsZFlyzFjTddY0xhjYGRiIiI6BTR39+Pmpo6HKqoQllpue4ZnTk+A+njxg70kpZp/vaXF3RovOprX8RXvna5Hm6FgZGIiIjoNCOh8fVX3saS8xZ51PHFk6z3+faSJiIiIqIRJQ/7lprFkewlzcBIRERERJYYGImIiIjIEgMjEREREVliYCQiIiIiSwyMRERERGSJgZGIiIiILDEwEhEREZElBkYiIiIissTASERERESWGBiJiIiIyBIDIxERERFZYmAkIiIiIktuA6P8gHVfX5/xjYiIiIhOFZLxJOu54zYwBgQEoL29w/hGRERERKcKyXiS9dxxGxjDI8LQ2NBkfCMiIiKiU4VkPMl67rgNjDGx0ejq7EJdXYMxhIiIiIhOdpLtJONJ1nPHq7y8vN/47FJXVzfKD1bAP8AfkVERCAoKhLc3+8sQERERnUzknkVphpaaRQmLyWOT4O/vZ4x1zaPAaKqrrUdzUws6OzvR3+/xbEREREQ0CkgHF7lnUZqhPalZNA0pMBIRERHR6YftykRERERkiYGRiIiIiCwxMBIRERGRJQZGIiIiIrLEwEhERERElhgYiYiIiMgSAyMRERERWWJgJCIiIiJLQ3pwd9nBCtTW1qOzoxPd3d3GUOf8/PwQEBiA2NhopIxNMoYSERER0cnG48C4Y/tutDS3GN+GJiw8DNNnTDG+EREREdHJxKPAKDWLxUWlCA0LRVpain738/M1xjrX3d2Dwy2HUVJSpt/TM1JZ03iK6enpgZeXN3x8PLuzQX7wvLe3z+25Q0RERKOLR1d6aYYWEhajoiM9uuDLNDKtzCPMZXiio6MTmzduw7tvfYC3//0+Vq/8BHVDmN+ZqqoarPxwrW5OH40kTHV1dun3k0Hr4Tas/mgdcnflGUPc25u3HytXrBl2TTURERF9PjwKjGbIkprFoTLn8TSoSa3Vti071Xs3zlpyBs694CzExkZh29ZdaGk5dYNGS/NhrFuzSb+fDIJDgjB77gxkTRhnDHEvMzMdc+bNQEhoiDGEiIiITgYeBUazg8twmhLNedx1kjFJzVV7eweyp0xEmAqbwcFBmDBpvFqOH2qq3dcydnV163AqwdMVGWc1jTleavz6+4+02MtnGSbNqjJNfV3DoGW4ms+es/LJ8jq71Dzqf/Iu09izWq5MK+NlGQ31jYPm1cs15rOquXTcLqnNNZcj49pa2/WyZbzJy8tLBz9/fz/9XcaZ5TPLa7+NwlcdQzmmMq9wLLscd1NnR5cuh+My5Lvj/rFftxjOcomIiMg1j+5hXLdmo35fdNYC/T5UQ5m/peUwNm/ahpmzpukmbSFh4JP1nyErKwPJYxP1MEcSAHZu341DFVXw9vFBX28vEpMSkDNjCnx9fXWT9O5de5EwJg4HS8rRp8JFvwpREkzHZaYNXsahagSoINTV3YOQkGDMnT9TB1cJQevXfYro6ChUHqpSc3hh4ZlzVHAKtpxv0LKdlK9OBc9PN2zV04nYuGg9r5S7pKgUeXv2w9vbGz1qnuDgYMyem6ODlyxT9pW/v78KRg0qGHVi3sJZSEiIG5jPR9altlPuM5w7fxYiIsONtRxhbpfsGylfb0+vDl/TZ05FqdpXzU3NKnz1qvL4DCzDXHd8fCwy1XHxZP+a05y5aB581LJk/qCgIDSp5UsZ5I+KKVMnqnOgFRXllXoeKccMdS6MSYzX3wv3F6G6unZg/4iRWC4RERG55rNs2bL7jM8ulZaU6fdU437EoRrK/FIjKTVaElTCwkJU2OlXwWefrpWaMClTBydHEoj25O5DQ2MzFi1egMlTJiAlJQmFB0rQ0d6hQ01raxtKiw+qMBaLeQtm2ppS1TKlbPEqYElNWYkaX1NdhwVnzEH25AnIGJeKKhUM29rUMhJidZA6WFouaQMLzpyrpslCYGCA2/nclS9jXBrGjIlHbU29DqDjVdlkO6sqq5GXtx8zZ+eoYDlZTyeBWsqQlDxGb7sEINm2eQtmYdr0yQgNDdHfd+3IwyRVPplXAltbWzsa1frj4mMGavhM5nZ5e3nr9cu+kUC1d08+UlOTdTNyutomuQ/18OFWHbJkm2TdEoyjY6I82r8yTY0Ke7JM2T6ZX7Z/3sLZmJg9Xi0rRO+n8PAwtX/nIHN8ug7B1dU1OlzLPFJjKMtJTkkcOBdGYrlERETk2qi7UsrFOy1jrA5l69d+qjuqSBgbm5oyUKPkSJocpZZpsgpIcm+dkPczVKiblD1BfxdBwUFIS0/R65DQJDVx6Ad6um3NkxLIzl5yhq69E7I+CUDSy1tq1EwZmekICgo0vrmfz9Py2ZNAVnbwkAqWiTrkCanhG5eZis7OrkH3Okr4NNctZN6+/j61nT76u2yvhEkJnVbhKFXtGym77BupRfRV4T3BqIGT4XFxMWhXwdN+X9hzt3+dkeAroVuEhgbrdUpvelmGvBIS4/T+k1A7FMdruURERKejURcYm5tasHH9Z4gfE48vXHoeLv3iBZg5Zxr25O7VNXnOSCCR2rHAwCMhTgQE+B/1yJfBdWuDSa1afX0jdm7fo3tmr3hvte7ZK8PteXkPXoq7+YZSPpOEvq6uLrXNZVi5Yu3Aa9OGrTq0ddndE+rtUB6p9ZNwtH3rTny0Yg1yd+3VNXOO2+GOBCtfH1vo9JTV/vWE7CdZ70g7XsslIiI6HYy6K2hFRSVCw4KROT5N16hJTVV8fBzGpiXr++tc1W6NhKIDpdisApm3CnFyz9tZ5yzUTczuDHc+T8g9gdlTJgy8pkydhFlzpiMi4uh7EU0SjCZlZ+H8C8/BpElZ+j6+DZ98pu/zkyBKRERENBQnVZWLqxoy+QlCqfU7fLjNGGKj73dzGOaKBFG5Z3Dc+HRMnTZJNwPLcjs6jvSwdcaT+YZTPgl90qQqTcFyn535kgAp6zCbW12RB6f7+fvpTkKz507HtJxs3Vmk26GH8clp8HnQ03X8/oggIiKiURgYpYNKU+NhFBQU68ejyKNRKsqrdM/bhDHxOkA5kvAknUvy9xXoJm0JlvK+fVsuDpZVGFNZMwNaQ0OTDoGyDOkUYesN7Zon83lSPrnHTtpzJVTKNstyU8Ym6/sY5ddypGZQlp+ffwBrVm3QHT1caWhoxKoP1+r9JuuS+aqramxN4L5Da2IebSKjItCszo/S4jK9XU2NzSgqKlGBnM3NREREx4tHV1l5BqKQWquhMucxl+GO9LidNXcaKsoO4f3lK7H87RX6cTTy6JZ06QzjwsRJ4xGnwubajzfgnf98oN+l5/H48RnGFNYkoEnvZOlN/N93PtLLOFBQgjFJtt7Irng6n7vyyX2H8vOJct/hx6vW61+7kZpEeezOvj378e5bK/TyKyuqMH3mFD29K1FRkWp9mdi1Y7del8zXerh94BFDJzN51JLU5u7dW6C3a8e23Wq/pcGXgZGIiOi48eg5jFITJj1+5f4589mInpJm1925e/UvvsyYOdUY6hmpQZLH6pgPh/aE1M71dHfrh0R7+hvHjswHQw9lvcKT+dyVz7zHUIKoveGUSddKSocbtZ6TPSg6kprTPrUvT/YaUyIiopOBR4kqNjZav0vTqARAT2oaZRqZVuYR5jKGQkLOUEObhDC5Z3C4YVHIOoe6XuHJfO7KJ0HRMSyK4ZRJluMf4H/KhUXh5eXFsEhERHSCeFTDKHZs342W5uH9lnNYeBimz5hifCMiIiKik4nHgVGUHazQv/Zh/tyaFblnUWrSpGZRnglIRERERCenIQVGIiIiIjr9DP9GPyIiIiI6LTAwEhEREZElBkYiIiIissTASERERESWGBiJiIiIyBIDIxERERFZYmAkIiIiIksMjERERERkiYGRiIiIiCwxMBIRERGRJQZGIiIiIrLEwEhERERElhgYiYiIiMgSAyMRERERWWJgJCIiIiJLDIxEREREZImBkYiIiIgseZWXl/cbn90qO1iB2tp6dHZ0oru72xjqnJ+fHwICAxAbG42UsUnGUCIiIiI62XgcGHds342W5hbj29CEhYdh+owpxjciIiIiOpl4FBilZrG4qBShYaFIS0vR735+vsZY57q7e3C45TBKSsr0e3pGKmsaiYiIiE5CHt3DKM3QQsJiVHSk27AoZBqZVuYR5jKGorq6Fu++vQK5u/YaQ47o6+tDV2eXfndFms5XfrgWVVU1xpDjz5Ny0cmpp6cHG9ZvRuH+ImOIe729tvOhv//I32XOhhEREY1mHgVGCV5CahaHypzHXMZQVJRXIiQkBA11DfoCa6+l+TDWrdmk30eT0Vou+nzU1tZh3dpNg85fZ8OIiIhGM48Co9nBxZOaRUfmPO46yThqbW1DQ30jsrIy0Nffj4aGRmOMrYams6sL/ep/8t7VNbRlS02RBFirWh5Zpp7GxbJ1GYxlmLWJQy2XrFvml+VImeyZ42SZA+saQllckWkdt9uxVlTKIuvSZTD2g2P57Jdj7k/HaUxW22kuR9bd1taOxoYmY4yNq/WbzHU7bpPJ3DaZRtbljLt1uONq/8vyugf2Y5f+7myYPVdlMfehrEvG1as/ohynISIiOl48uodx3ZqN+n3RWQv0+1ANZ/7yg4dQUFCEhWfMwZ49+ehXF+LpM6fC29tbNzF/umGrMSUQGxeNufNnwtd3cKCVC+/6dZ9iyrRJSEiI08NKikqRt2e/Xk5Pby+Cg4Mxe24Owoya0A41z9bPduiwGhDgj051kY6Ni9XTmMs3l+Hj46MDgo+Pt1r/LHR0dnpULmG/Hi9VFtm+zPHpmDBpvC6bWfak5DEoKy1X4aBPh+54tR32ZamursH2Lbk6UMjL19cHM2ZNU+uO0eMdyb7bvWsvzlw0T/diF02NzdiyeYda7nRERIbrJtfKymq1b4Jw6FC1nsbbywvZk7OQlpGqv5vLSRgTh+Kig/BRZe5V+9N+G4S5nY1qHb5qf8k2ZE3MxHj1h4B5LHft2IPIiAj1uRrRMVF6n4md23fjUEUVvGU/q2UnJiUgZ8YUve0SlvR4Vb4Afz90dfcgJCRYzyvlFvb7RtYl5ZN9MyYxXo+3X4a/nyyjG8kpiZiqzhdnx0ym37xpG+LjY5Gpyi+s9r/sxz278/V0YmxqsjrPQo4aNmPWVLdlMc+H6OgoVB6qUnN6YeGZc/TxIiIiOt58li1bdp/x2aXSkjL9nmrcjzhUQ51falH27S1EREQYElVgUlkFxcUH1YU+Af4qHISGhmDMmHjU1tTri+b4CeMGAoq93p5eHFRhKz4hVs9TpUJQXt5+zJydo4LHZGSMS0NLy2E9jQQzL7WivWq81AAtVIFqogo+0lFHOvxIEIiMjNA1n7t25GGSCk+ynHGZabaaMRWIMsalIlGV0V25JBxs27JLr2/x2QsxKXs84lQI2WsEWbn30yx7jwoOC1RolvVJUClUIVqa6cPDQ9Hc1IKtW3bqcbPmTNchpr8PyN9XiHgV5GRfOZLy11TXIlUFFTMUSRiRYCb7IFCFSAmxZWWH1DLiMXfeTExQAU/C8768AkTHRiEoKFAvp1QdEwlnZ6h9JSExMioC+eq4BQUF6fKZ2ynTLzxzrg6Ksp15ufsGppHlHFTnhxxnCd1p6bZzZI+apkHt00WLF2DylAlISUlC4YESdLR36P1QotZdU12n90325Al631epINXWpsar420LYHvU8YjH/IWz9b6RfSuBTEKuuY52dezOXDxfl1/WUVBQrPZ5r34clCP548B2m0SwDrbu9n+C2n+yTxobm7Bk6Zn6XJL5HIfJct2VxTwfVCrFArUvJbzLsSIiIjoRPGqSPtHa2lrR3NysL7giKipShRs/1BxD5xW5KJcdPKQuxIkqtNhq3yQEjstM1bWIcs+hBLhpOdk63EjIERKIovQFvll/l+X0qVTg7e2jv0sImTZ9sg6gzsKhM7IuCaoSdMwme1mHhM+K8kO6h7kpIzN9oCYwTAWscBWiO9rb9feKikpEqRArNVFCyp+alqxr5BrrBzftDpVsf3r6WL2PZLlJyYmIUOsqL6s0plB/bfj4qjKnDwRPCXJSC1iuwqaEftlOCYRZEzIHppHtlGmklkz2pQhS+1iCoqxLtKtQKDWPk1UoCg6x1RbK+xnquEzKnqC/S9g/e8kZAzXDsnypCZYe+RIW+/qkqbxX7wvTuPHpmLfAVuMr66ira9Ah1ty/so4MVY6a6ppBx8CVkdr/QymLnA/muUlERHSijMrAWFdTry/qgUH+uvarvx+IjAxTIaJOh4DhkHAi94yVFJdh5Yq1A69NG7bqmh1pAjSnk7CyfesurPpoHd5fvhIHSyvQrwKIkNolqRXavnUnPlqxRvfglho5aY70lKxLwqVjDVGoCoRyD5s0v5q8vL2MT0fraO9ETU0dVn+0fmB7pDNFW1sbOjo6jKmGR0KJGeCEfNZN9Op4mEHPP8DvqG2Q+bq6bNPIdsq+3fDJ5kH7XAKlHAtzOcJ+K3tUQPL2kv0zOBjJ+qX5X8j+rlf7XWoRV6/8BCveW61rh83jILWr6RljcaCgWI/bsS1X10ia65R1yLbIcbYv2/78oqOOgSsjtf+HUhar84GIiOh4GXWBUWqHyssrde3U6o8+wQfqYv/Be6t0aGuob0BLy/AeHm6S5sjsKRMGXlOmTtLNiRER4TpMyH15O7bmIlgFw5zpk7HkvMX6PjOTBL1J2Vk4/8JzMGlSlr7Qb/jkMz2ffQA6UaTZ3n57pNZy5qxpukn0eJDA5q4mVabxMnKN/OKP1JzZl1HuQ5Rmbk9rZJ0pOlCKzSrse6t1TZk6EWeds1Bvu7209LE478KzMX3WVP1d7tP87NMd+hwTPioES02lfdmm5mSr1yQ17uh7GJ0Zqf0/EmUhIiI6XkZdYJSm2va2Diw6az4u+9KFA6+LLjkXoWEhqK6qM6YcGrNGT2oupUnUfEmAlCZqGSf3LkqNkRloYmKj9XzSZG1Pmgj9/P2QPDZRdxSRZmx5ZqTM74nAgAAdLtuMpmVTY0OzrqGT8OAJacr19vHV9wWa2yMdOmR7zKZaV+zrQ6Us0sxuT5qS7bdbQlZraysC7ZpDZbzcv2mS5TQ3t8DfP0DvN6nl8/XzRXS0rRnafEn55F4+V4FRmmWlJu3w4TZjiI3U5LaqYVIWuR9VmpilU4gsT+ZxrNWT6WQd0uFJOkzNmTdd3+ogy5BySaelMLlP1qFssbExg2pXXTmW/W9vJMpCRER0PI26wFhVWaMuxIH6fj17cq9fXHzcwD1dcpGVdkwJFa4el2JPgkPK2GR9H6P8+oyEGwkU+fkHsGbVBh2QJKhJs2ddXb0a16unkXsKpWbTJI/3WfXhWjW8Sjd/yjKqq2pszaVqfk/KFRIagojwcOzdna/XK8uR3rbSiUQ6npj3+7mTlByva1ylN7mUQ8pbWlqumzPtH0NkLyQ4WE9XsL9I78e21nb9WRXCmMJGwuD+fYV6ubIvCgtK9LRJSWOMKVRA7O3VzcByD55sg/wiUFVlrdrPiXp/h4WFISw0FLk78vR2Cukosvbjjcjfd0B/d0bCu3Rcyd9XoKeXZcv79m25OFhWoZct0zQ0NOnymfvP1nvYRtYnx7Vwf7FxrHv1w+NlXjlGcmuBrENqhmXZ5jybN27Vzdcyjzue7H/p8SzDJVib54PjsJEoCxER0fHkUS9p6UErF61EFRbMe8g8JaGkXF3kpWnS3U8DynPm8vYU6M4u0oHCkay7+EApIqMjdOcJyTi5O/egXIU6KZtj0HLsJS0XZmlqll668licgnwVmrq6dYcVeTyJhAnp5FKgQqSMl8eiSE1iUGCgHie1R+a9fbtz9+pezbIM6QAjj0aRcVKr5q5csizp+VpX24DcXXm6R3i1CspZE8bpZlTpPOFYdiHHwL6XbkBAgG5Kl/v0du/apwLeAf0cw6k5k53uP+Gvgq2/n78Oifl7C/SjbDLGpUN+J1z2uw5i9Y06DIZHROjQIsuVziQzZk/V6xUSaCSwpaYm6aZe2RfybEDpvZtsHOejtjOvQG1TGZJSEjFhoq0HuSzHsde2iI6O1EFUHjUj+0fmk1sDZB9JbZzUNpeWlOuQJb2S5dyJVuuSd+mEItsREhasy2U71gd0DaT8prn0dj9qHaps0vNa9qc8hknOV0fD2f/yh4QEbdn+evWHh9QcynniOEz2k1VZnJ0PREREJ4pHz2GUmh0JDHK/nzzyZSgkfEi4kl98mTHTdi/ZSDJrXyR8DIV0JhDOHj0jNVYSJOX+OFe1fbJe3TnDxTSelkvXTPX26VqvoW6DPXM5EnAlcHpC5nFWdgnK0sRuPg/R2XLN5zCeuWieKrsEGlutr6ttkJo0eUSQTDuUPzrczWd1HIV5LFXhXU7j7lh6wt3+d3Y+uBp2rGUhIiIaaR5duc1n0klTrgRA+8d8uCLTyLQyjzCXMdLkYjucoCXhwVWAkAu+1MRZXbBlnVbTeFoumV+WM5xtsGcux9OwKDwJJJ4sV4Kcu22QaeQ+w6GEReFuPqvjKMxjaTWNu2PpCXf7ydn54GrYsZaFiIhopHlUwyh2bN+tmy2HIyw8TDcF0snBvobRVXCxr2E0nx1IREREpyaPA6OQTg3ScUAeJePut6HlvisJElKz6O7eRSIiIiIavYYUGImIiIjo9DO0G8qIiIiI6LTDwEhERERElhgYiYiIiMgSAyMRERERWWJgJCIiIiJLDIxEREREZImBkYiIiIgsMTASERERkSUGRiIiIiKyxMBIRERERJYYGImIiIjIEgMjEREREVliYCQiIiIiSwyMRERERGSJgZGIiIiILDEwEhEREZElBkYiIiIisuRVXl7eb3x2q+xgBWpr69HZ0Ynu7m5jqHN+fn4ICAxAbGw0UsYmGUOJiIiI6GTjcWDcsX03WppbjG9DExYehukzphjfiIiIiOhk4lFglJrF4qJShIaFIi0tRb/7+fkaY53r7u7B4ZbDKCkp0+/pGamsaSQiIiI6CXl0D6M0QwsJi1HRkW7DopBpZFqZR5jLGIrq6lq8+/YK5O7aaww5oq+vD12dXfrdFWk6X/nhWlRV1RhDjj9PyvV5kn0h+0T2DbnX09ODDes3o3B/kTHEPWfnQG+vbVh/v8d3gBAREY0aHgVGM1xIzeJQmfMMJ6BUlFciJCQEDXUN+mJrr6X5MNat2aTfR5PRWi46cZydA7W1dVi3dtNR5zEREdHJwKPAaHZw8aRm0ZE5j7tOMo5aW9vQUN+IrKwM9PX3o6Gh0Rhjq63p7OpCv/qfvHd1DW3ZUmskAdaqxkeWqadxsWxdBmMZZk3SUMsl65b5ZTlSJnvmOFnmwLqGUJahcrVPZLjjemWYY3llGvthVtsm5TXL2tbWjsaGJmOMjSzL2Xwmc3vlJZ+dcbcMd+PdcbV9umwO54CM71bveh41zHGdrspifw7IuHr1h5PjNERERCeCR/cwrluzUb8vOmuBfh+q4cxffvAQCgqKsPCMOdizJx/9KlxMnzkV3t7euln10w1bjSmB2LhozJ0/E76+gwOtXITXr/sUU6ZNQkJCnB5WUlSKvD379XJ6ensRHByM2XNzEGbUhHaoebZ+tkOH1YAAf3SqC3ZsXKyexly+uQwfHx8denx8vNX6Z6Gjs9Ojcgn79Xipssj2ZY5Px4RJ43XZzLInJY9BWWm5Cgp9OnTHq+2wL0t1dQ22b8nV4UJevr4+mDFrmlp3jB7vSPbd7l17ceaieboXuzC3p1fCplpGSGgIZs3OQXhEGEqKD6K46CAWnjkX/v5++t7UTRs+0/PNXzhH/0Eg2/KJKuvEieORPDZxYNsaG5vhq/aRlDtrYibGq/BvHr9dO/YgMiJCfa5GdEyU3k9i5/bdOFRRBW/Zt+r4JCYlIGfGlKP2vZeXl/4u2yzbOyYxXn+3X7eUV45famqyPgf0MVeBS6/jUDX8/fzQpcqWnJKIqWq8s+Mk02/etA3x8bHIVOUXVttXU1N31DkQExuNfXkFxhBgrCrPjFlT3ZbFPAeio6NQeahKzemljsMcRESG2xZERER0gvgsW7bsPuOzS6UlZfo91bgfcaiGOr/UqOzbW4gIFVgSVWCSbFCsgsuYxAQdAkJVoBkzJh61NfX6Ajp+wjgdBhz19vTioApb8Qmxep6qymrk5e3HTBWGcmZMRsa4NLS0HNbTSDCTELJXjZfaoIUqUE1U4U066kiHHwlikZERuuZz1448TJqcpZczLjPNVkumwkPGuFQkqjK6K5cEhW1bdun1LT57ISZlj0ecCiR7jSAr936aZe9RIWKBCs2yPgkthSpESzN9eHgomptasHXLTj1u1pzpOtD0q8yXv68Q8WPi9L5yJOWvqa7VIUpCieyTXTv3qv0xFbPnyPak631SdKBUh7CAAD+UqfAeo0JdUFCg7sCky6W2QcoTqEJnQ32TDjSZWek6PMu2ybQSMiVIybbl5e5Tw4J0uaUMB9U5IcdWgnZauu282KOmaVD7cdHiBZg8ZQJSUpJQeKAEHe0del2yvXt25+vjMkuVVfavhKgidXzk+EmALywoQevhVv3HyQS1bpmvpKhM71PZH7KOdnW8zlw8X4dzWUdBQbHaz736EVCO5A8C260RwTrYmsfO1fZJwHU8NyUwRkZFqHOkCUuWnqnPKVmuu7KY54CE+AVqXdnqOMv+JiIiOtE8apI+0draWtHc3IwEdeEVUVGRKtz4oeYYOq/IBVqCT0pKorrA22rfJASOy0zVtVByv5kEuGk52ToISCAQwcFBav1ysW/W32U5fSqVeXv76O8S8KZNn6wDqLNw6IysS0JZ9uQJA032sg4JnxXlh3QtnilDBTizJjBMhS2p9etob9ffKyoqEaVCrNRKCSl/alqyrp1rVCHOHXOfjEmKV4ErQQ+TfSKBrK+vF3Uq9EgIkn0hzaFCQk9kZLg+JvJZ1NXVqyAYrmtrZdskEGZNyNSBVMi2SZCSUCnrFEFqv0pQlPWJdhUKpeZxsgpFwSFBepi8n6GOxaTsCfq7bPuScxfpPzxkW4XU4PX29qKzo0N/l9o+Ca3msZCgdtaShbpWTtZRp7ZDQp65T2UdGaocNdU1g/a7K55unztDKYucA+b5SERE9HkYlYFRgopcjAOD/HWzXH+/uvBHhqlAUYeenl5jqqGRC7ncP1ZSXIaVK9YOvDZt2KpreaQ50JxOgsv2rbuw6qN1eH/5ShwsrUB/n63lXmqapIZo+9ad+GjFGt2DW5qVpWnUU7IuCTSOtUWhKhDK/WzSFGvy8rYFI2c62jt1E+jqj9YPbI90rGhra0OHEaCsmPskLDTEGGIjIU4CiixDjkN0TLQKN426dk1qzqS5W0JjQ0OTHibbHxMTqYOabJvszw2fbB60n8vLDul12Qcq+y3rUQHJ20v2yeBgJLcFyHJNErSkBnW92s4PP/hYv3d1qn1mHB8JoZ3q+4r3V2PjJ5/p2m3Zp0LWIeeTHFv7su3PLzpqv7sylO2zMpSyWJ0DREREJ8KoC4wSQMrLK3VNzuqPPsEH761Wr1U6tDXUN6ClZXgPDzcljIlD9pQJA68pUyfp5tyIiHB9sZf7+3ZszUWwCoY50ydjyXmL9T1nJgl6k7KzcP6F52DSpCx90d+ggonM52lYGEnSbG+/PVJrOXPWNN0kPVLi42N0CJUm4bbWNt00L82z0jwtwzr0fZ5H7pmUX/mRmjP7csl9iNJE7GktrDOyrnUfb9QBNWNcOhaeMRdnLJo3qOld7kU965yF+h5NqV08UFiCNavWq/PJdt74qDAstyLYl21qTrZ6TVLjjr6H0ZmR2r6RKAsREdGJMOoCozTVtrd1YNFZ83HZly4ceF10ybkIDQtBdVWdMeXQmDV6UmMmzYfmSwKkNFHLOLl3UWrszIu/3Hsm80mTtT1pLvRTIUU6eMyeO103Y8szI2V+TwQGBOhw2WY0LZsaG5p1zZ4ECU9Is663j6++h87cHrnvULbH7MRjRfaFLKNZhSn7sCvbK8dA9reQTjA+aj/INsp2h4QG68clyfxSG+unyisBW0h48/XzRXS0rZnWfEmZJGS6ClTSLCs1aYcPtxlDbCQcthrD5N7L0DDppDRdN6FLObrVHxjSJG2S+19lW6QJWoK9BMqAwEB13tTqcsl9jmFyb6xD2WJjY3TNqjvD3T5HI1EWIiKiE2XUBcaqyhoVYgL1/Xr25F6/uPi4gfu75IIrbZoSMFw9WsWeXMhTxibre/bk12ckVEhtZn7+AaxZtUHflyZBTZpA5Z48afqWaeSeQqnZNMnjfVZ9uFYNr9LN0LKMahWadNOpmt+TckkAiwgPx97d+Xq9shzp7VxafFB33pAg5omk5Hhd4yq9yaUcUt7S0nLdtGn/GCIrycmJap/X4uDBCj2/NIfu31eot0XuUxQSkqJUGCosKNa1dlI+OR4SGqVHs9QumvdihoWFISw0FLk78vS2CakZXPvxRuTvO6C/OyOBXTon5e8r0NPLPpH37dtycbCswjZNUJBaZjva1EvI8uWB2lJuIe87t+fis0+368fRCLnPUmpFZV65nUDWIbXBsmwhy9i8cSt2qPWYy7HiyfY5OwekF7QsXzpIybCRKAsREdGJ4lEvaQkFcgFLTJKeqEPLmBLuytUFX5rx3P00oFzk8/YU6M4u0rvVkay7+EApIqMjdEcDuW0wd+celKtQJ2VzDFqOvaTlIi01YdKjVR7NUpBfpGsFpcOK1EhJqJROLgUqRMp4CSNSoxYUGKjHSe2d1ABK7c/u3L26V7MsQzrAyGNSZJyEK3flkmVJL9i62gbk7srTPcKrVVDOmjAOaeljdYcOx7ILOQb2PXYDAgJ0U/oBFeR279qngt4B/UzDqTmTne4/IaHEvpe04z6RbZb9PHvOdB3cTf39ffrxL+Ozxul5zGFyq4D9sKO2La9ATVOGpJRETJho6zXuWAZTdHSkvkdRHjUj+0Tmk9sBZL/Yjk2gDmG5O23LlU4myclJONzSqoO27H/pDS37aJeaJl8to1LKPD4DqenJer8OWodahjw2SPahPHZHzlFHjvvck+1zdg7I/BJ0ZZ569QeI1CbKcqzK4uwcICIi+jx49BxGqeWR+9Xkfj+5IA+FNClKuJLaqBkzpxpDR45ZEyMX6qEwO0LIxd2R1G5JkPRWwckx7JlkvbqjhotpPC2Xrhns7dO1UkPdBnvmciTgmj2Ih8KTbR4qqUmTxwL5qvAzlD803M3nyT5zN4274+cJd+V0dg64GnasZSEiIjqePAqMZQcr9LMIJfTJb0PLu9kE6YrULErIlOZfeU/PSHVbw0hEREREo49HgVHs2L57oKfpUIWFh2H6jCnGNyIiIiI6mXgcGIXUNNbW1utHybj7bWi5B0t6vsp9WqxZJCIiIjp5DSkwEhEREdHpx3mPASIiIiIiAwMjEREREVliYCQiIiIiSwyMRERERGSJgZGIiIiILDEwEhEREZElBkYiIiIissTASERERESWGBiJiIiIyBIDIxERERFZYmAkIiIiIksMjERERERkiYGRiIiIiCwxMBIRERGRJQZGIiIiIrLEwEhERERElhgYiYiIiMiSV3l5eb/x2a2ygxWora1HZ0cnuru7jaHO+fn5ISAwALGx0UgZm2QMJSIiIqKTjceBccf23WhpbjG+DU1YeBimz5hifCMiIiKik4lHgVFqFouLShEaFoq0tBT97ufna4x1rru7B4dbDqOkpEy/p2eksqbxJCLHz8fHG97ent210NfXh97ePrfnBREREZ18PEoD0gwtJCxGRUd6FApkGplW5hHmMoaiuroW7769Arm79hpDjpCA0tXZpd9dkabzlR+uRVVVjTHk+POkXKNNT08PNqzfjML9Rfp7nTpWK95frf5IOKi/e2Jv3n6sXLFmoBZawqPsh/5+j+94ICIiolHKo8AowUtIzeJQmfOYyxiKivJKhISEoKGuQYcPey3Nh7FuzSb9PpqM1nINRURkBObNnzmkGuHMzHTMmTcDIaEh+nttbR3Wrd101HEjIiKik49HgdHs4DKc5kZzHnedZBy1trahob4RWVkZ6OvvR0NDozHGVnvV2dWFfvU/ee/qGtqypUZNAqxVDZgsU0/jYtm6DMYyzNrEoZZL1i3zy3KkTPbMcbLMgXUNoSzuDOwDJ8uUpujw8DD17mMMsTHnMcsq88q6ha+fH8LUHwdeXl56fLcap7dB7QfHbSMiIqKTi0f3MK5bs1G/LzprgX4fquHMX37wEAoKirDwjDnYsycf/SoITZ85Vd9TJ03Mn27YakwJxMZFY+78mfD1HRxoJdysX/cppkybhISEOD2spKgUeXv26+X09PYiODgYs+fm6LAjOtQ8Wz/bocNqQIA/OlUIi42L1dOYyzeXIYFKApoErLnzZ6Gjs9Ojcgn79Xipssj2ZY5Px4RJ43XZzLInJY9BWWm5Cl19OnTHq+2wL0t1dQ22b8nV4Uxevr4+mDFrmlp3jB7vjFl+CeIiMTEebW3tGDMmHpkqoDvuN9nG/L0FKCwo1tvcq76PzxqH+to6jFPTyzRyTHbv2oszF83T97zu2Z2vly3GpiarMk01vhEREdHJxmfZsmX3GZ9dKi0p0++pxv2IQzXU+aXWat/eQkREhCFRBSYvL6C4+CDGJCbA398PoaEhOtzU1tRj4ZlzMH7COKedM3p7enFQha34hFg9T1VlNfLy9mPm7BzkzJiMjHFpaGk5rKeRYCa1Y3IvntSOLVTBZ6IKb9IsKx1+JIhFRkboms9dO/IwaXKWXs64zDQdthobm9XyUlX4SnBbLqlx27Zll17f4rMXYlL2eMTFx2KvEWTl3k+z7D0qJC5QoVnWF6+mKVQhWprpw8ND0dzUgq1bdupxs+ZM12Gvvw/I31eI+DFxel85kpraHdt2I3vqRMyZO12VPx2HD7ehovyQDpnRMVFH7beK8irsV8ucPW+GDu2yzRVllfoeU9lvMo3slxr1PVWFwzg1X2RUhNonTViy9Ex2diIiIjrJedQkfaK1tbWiubkZCSoUiqioSBXY/FBzDJ1XpJas7OAhpKQkqnBmq32TEDguM1XXIso9hxLgpuVkq7A3F0FBgXqa4OAgtX4JP836uyynT6Uyb29bc60EvGnTJ+sA6iwcOiPrkqCaPXnCQJO9rEMHMRXcpIeyKUMFOnmepQhTITFcheiO9nb9vaKiElEqxCarbRJS/tS0ZHj7+KCxvkkPc1RVWaOXkWwEZNkHaekpCFLb6Yxsb+WhKiQkxuvAKqR2MzMrDX5Oak6JiIjo1DMqA2NdTb0OJYFB/rp5VFpOIyPDUFVVh56eXmOqoZHgI/fTlRSXYeWKtQOvTRu2or2tHV3GPZYynTSvbt+6C6s+Wof3l6/EwdIK9PfZmm9DQoJ1jdn2rTvx0Yo1uge3NCtLc7CnZF0SLgONIGgKVYFQ7gvs6z2yjV7eXsano3W0d6Kmpg6rP1o/sD3S0aStrQ0dHR3GVIPJPEFBQXr/miQ0mgHZkbnfwozOLCZ/P3/4DuOeViIiIjr5jLrAKM215eWVuhZu9Uef4IP3VqvXKh3aGuob0NIyvIeHmxLGxCF7yoSB15Spk3RzbkREuA5Hch/ejq25CFbBMGf6ZCw5b7G+B88kQW9SdhbOv/AcTJqUpQPthk8+0/PJ/CeaNNvbb4/UWs6cNU03SRMRERGNhFEXGKWptr2tA4vOmo/LvnThwOuiS85FaFgIqqvqjCmHxqzRk5q1xKSEgZcESGmilnFy76LU2OXMmIIJEzMRExut55Mma3vSZOzn74fksYmYPXe6bsaW+/lkfk8EBgTocNlmNC2bGhuadU2fj+/g3smuSDOyt4+vvv/R3J4xifF6e8xOPI5knsOHDw9q9pbta293XiMp+0vmqa1tGFS7K8fJcb8QERHRqWnUBUa5xy4oOFDfr2dP7vWLi49DTXWNDju6OdQLusOG+WgXKxL8UsYm6/sY5ddnJLBJbWZ+/gGsWbVBd9qQoCY9o+vq6nU4kmnknkKp2TRJp5FVH67VHUGkGVqWUV1Vo+eT+T0plzyrMCI8HHt35+v1ynKkt3Np8UHdicS+udhKUnK8rnGV3uRSDilvaWm5bpq2fwyRPZlHemgfKCzR2yjzSYcWV4FRpKePRXNTM7Zv2aU7Dkknpj25+ZbN8P5+frZQ3Nbu0fEhIiKi0cujXtKHKqr0xT8xaYx+hMxQSLgrL6tQgc/PbW9ZeY5g3p4C3dnF7GBhT9ZdfKAUkdERupOI5JXcnXtQrkKdlM0xaDn29pX7D6WpOS93n36sTEF+ka4VlA4rEZHhOlRKJ5cCFSJlvPzyidQkBgUG6nFSeyc1gHLP3+7cvbpXsyxDOsDIY2NknPRMdlcuWVZsbDTqahuQuytP9wivVkE5a8I4pKlwJp1RHMsubAFWHmYerHszBwQE6Kb0AwXF2L1rnwp+B9DY0ISpOZOd7j8h80hN7T5VdukRLvMmjEmAdK+WIOusl3Sg2i75XFtTpwO3hMvsyVn6F2HMaex7Scv2SoBua23X21evArfUfsp2ExER0cnHo+cwbt+Wq38PWu73k0e+DIV0CJFwJb/4MmPmyD+LT0KUGGoYMR9Y7ezRM1JzJkHSWwVUV7V9st4eFYZdTeNpuXTNYG+frpk8lkBlLkcCrgROdzzZRnuyPfblc/aMS2eGe3yIiIho9PDoKi61YUKaciUA2t//5opMI9PKPMJcxkiTIDKcMCJB0VlYFBK4/AP8LYOUrNNqGk/LJfPLcoazDfbM5XgSFoUn22iSGub18nOH6o8GIWFTOiFJQA0Odt672uTpfiAiIqLRy6MaRrFj+260NA+vh3JYeBimz5hifKOTjdRe7s7dp39xps94vJA0OUvTd1Jygv5OREREpy6PA6OQn3yrra3XzZHufhta7lmUB05LzSJ/6ePUIMFR7m+U2klPm76JiIjo5DekwEhEREREpx/eXEZERERElhgYiYiIiMgSAyMRERERWWJgJCIiIiJLDIxEREREZImBkYiIiIgsMTASERERkSUGRiIiIiKyxMBIRERERJYYGImIiIjIEgMjEREREVliYCQiIiIiSwyMRERERGSJgZGIiIiILDEwEhEREZElBkYiIiIissTASERERESWvMrLy/uNz26VHaxAbW09Ojs60d3dbQx1zs/PDwGBAYiNjUbK2CRjKBERERGdbDwOjDu270ZLc4vxbWjCwsMwfcYU4xsRERERnUw8CoxSs1hcVIrQsFCkpaXodz8/X2Osc93dPTjcchglJWX6PT0jlTWNNEhPTw+8vLzh48M7I4iIiEYzj67U0gwtJCxGRUe6DYtCppFpZR5hLmMoqqtr8e7bK5C7a68x5Ii+vj50dXbpd1ek6Xzlh2tRVVVjDDn+PCkXAa2H27D6o3Xq2OYZQ6xJuNywfjMK9xcZQ4ZOzgM5H+S8GI16e23nTn+/x3eJEBERnRAeBUbzAis1i0NlzjOci3RFeSVCQkLQUNegL6T2WpoPY92aTfp9NBmt5RptgkOCMHvuDGRNGGcModraOqxbu+moc52IiOjz5lFgNDu4eFKz6Micx10nGUetrW1oqG9EVlYG+vr70dDQaIyx1cR0dnWhX/1P3ru6hrZsqa2SAGtVmyPL1NO4WLYug7EMszZxqOWSdcv8shwpkz1znCxzYF1DKIs7A/vAYZmyLHO/mNM4ls3kyXpd7WsvLy+EhIbA39/PGGLjanpPWe1Te+62zdXxtz8uMm+9+mPGfhmu5jO5Kp987lbz6PHq3HEsl7lcx+HuykNERDQSPLqHcd2ajfp90VkL9PtQDWf+8oOHUFBQhIVnzMGePfnoV4Fk+syp8Pb21k2Ln27YakwJxMZFY+78mfD1HRxo5QK7ft2nmDJtEhIS4vSwkqJS5O3Zr5fT09uL4OBgzJ6bgzCjJrRDzbP1sx06rAYE+KNTXYxj42L1NObyzWX4+PjooCT34M2dPwsdnZ0elUvYr8dLlUW2L3N8OiZMGq/LZpY9KXkMykrLVQjo06E7Xm2HfVmqq2uwfUuuDg7y8vX1wYxZ09S6Y/R4RxImdm7fjUOHqvX2SRCJiYkeWKbs29279iJhTByKiw7CR5WlV+0n+7IJT9Zr7qdeCZNqGgmIs2bnIDwiTJdj86ZtiI+PRab6o2BQuVSI7OruQUhIsN5/wcFBR03vjLt9ar9tB0vK9R8iMk32lIkYl5l21DKcHX/zuERHR6HyUJWawwsLz5yjnwjg7ryxKl9RYQn27M7X04mxqclqf04dtF/8/WS/dCM5JRFT1TltVZ6IyHDbgoiIiEaAz7Jly+4zPrtUWlKm31ON+xGHaqjzS23Jvr2FiFDBIlEFJi8voLj4IMYkJugaqVAVPMaMiUdtTb2+OI6fMG4gyNjr7enFQRW24hNi9TxVldXIy9uPmSq05MyYjIxxaWhpOaynkWAmtV571Xip6Vm4aB4mqgu5dNSRDj8SiCIjI3TN564deZg0OUsvR4JGW1s7Ghub1fJSkajK6K5cEgK2bdml17f47IWYlD0ecSoI7TWCrNz7aZa9RwWEBSo0y/okLBWqEC3N9OHhoWhuasHWLTv1uFlzpusg1a+yWf6+QsSrUORYeycOVVSjvOwQzlTbJ/NJ+JBOTcHBgXofyfaVqn0tIe0MNY2EmcioCOSr4xEUFOTxemVf79q5V+3nqZg9R/ZTut7Xsi+TkhJUYPIybjkIRnRMFErUOmuq6/S2Zk+eoPdllQpAbW0d+vhJMLef3pHVPpVabvPYybZJkJu3YKatOVxNL+enBHGZzt3xN4+LBOAFZ85VZc3SAdHdfO7Kl6HOI9nPjY1NWLL0TD2/bPOe3H1oV+fXmYvn62ORkpKk/pAqVudFr35klbPyBKrwSkRENJI8apI+0draWtHc3IwEFQpFVFSkuvD6oeYYOq/Ixbfs4CF1wU1UF2pbLZhczMdlpuraILnnUC7m03KyVdibq8JRoJ5GglOUvpA36++ynD6Vjry9ffR3CXjTpk/WAdRZOHRG1iXhSYKR2WQv65DwWVF+SPcwN2WooCW1VyJMhTWpnetob9ffKyoqEaXCiIQ+IeVPTUuGt48PGuub9DBHPT3dejp5Cdm+xWcvGNjXwsfHVwc8s2ZMgmqiCnkSNCXMu1uvua/HJMWrIJ6gp5F9PWXqRB1C/VXAciTh/ewlZwzU9Mq6JdhJD3sJW+642qdnnbNQ19aZgtT2pqWn6GMl5dY1z/1qv6h9Lt/dHX+THBdzGk/m87R89trbO1BX14CsiZkD54Dc+5mhyl9TXXPUeWKum4iIaKSNysBYV1OvA0NgkL9ucutXF/TIyDBUVdWp8NBrTDU0EmLk3rCS4jKsXLF24LVpw1ZdgyNNfeZ00nS5fesurPpoHd5fvhIHSyvQ32druZcaLqn92b51Jz5asUb34JYmRmmW9ZSsSwKLY01QqAqE0kTc13tkG6UmzpWO9k7U1NRh9UfrB7ZHOk20tbWho6PDmGowqZmV9a5euU7fKnCgsEQHE3v+AX5HlU3CSFdXp94/7tZr7uuw0BBjbhs5pmZYciT7r17tx53b96iyfYIV763WtXae7ldX+1SClmOQd71H3R9/k+NxcTffUMpnkhAr578s09zP8tqfXzSk84SIiOhYjbrAKLVJ5eWVukZm9Uef4AMVHD54b5W++DbUN6ClZXgPDzfJ/WvZUyYMvKZMnaSbVSMiwvVFX+5x27E1F8EqGOZMn4wl5y0eVAMkF/dJ2Vk4/8JzMGlSlr6gb/jkMz2fzH+iSbO9/fZIDdbMWdN007AzElCk2fesJWfo5vPygxVYowKahB135F5No2JyyOt1p+hAKTar8O6t1iE1kVLzJss8kTw5/s4Mdz5P+Pj66NpX+309NSdbvSapcc7DNxER0UgbdYFRmu3a2zqw6Kz5uOxLFw68LrrkXISGhaC6qs6YcmjM2h2p5ZLmVfMlAVKaqGWc3IMmNWc5M6ZgwsRMxMRG6/mkydqeNAX6+fsheWwiZs+drpsj5ZmRMr8nAgMCdMhoM5qWTY0NzbomT0KCJ6R51dvHV98LZ27PmMR4vT1m064jWa90YpHxcu/hmWo/S+ecQ+XSYcJGtlfuyzTJPM3NLfD3t9WGuVuv7GOZRuaReU3S6UN68doPE/JHgtzzOG58uu7MIcuRYOuqltQZV/u0Vh1PxxpUVzw9/o48mW845fP189Udq8LkXl5jP8tL9k9sbIzaz56dJ0RERMdq1AXGqsoaFTYC9f169qQpMy4+buDeLbmYStvi4cNt+r46d+QCnjI2Wd9bJ78+IxdvCSr5+QewZtUG3SFCgpp0YKirq9dN3zKN3FMoNZsmebzPqg/XquFVurlUllFdVaPnk/k9KZf0Fo4ID8fe3fl6vbIc6XUsHTKk840ELk8kJcfrGlfpTS7lkPKWlpbrZkv7xxDZk+bMtWs24XBLq/7eergVTSrYScAzSVOnNAdLkJGySaeYqspatf8S9X70ZL3JyYl6noNqXhkvTah79+Rjz+59et/ak2VKYG9oaNLLM/eHrdevZ1ztU+loUl975PhZ8eT4O+PJfJ6UT3pBy7wS1uXckdsfpMOP1F5KRyMh827euBU7tuXqaYmIiE4Ej3pJH6qo0henxKQxullyKCTclZdVqMDnp+/9syLPk8vbU6A7YEhHC0ey7uIDpYiMjtAdBtQ1F7k796BcXZylbI5By7GXtFyApckwL3efftxLgQpPUjskHVbkMSQSXKSzQoEKkTJeflVEahKDAgP1OKlFkxpAqdnZnbtX93CVZUgHGHkEioyTHsLuyiXLkh6udSooyC+dSI/wahWUpdduWvpY3YnCsezCFkSO9BQOCAjQTekHCopVqNiH/fsOoFGFrqk5k53uPxGptrNJTaPXm1egewhL7/OJkzJ1uSSQSHBLTU3Cls079DZKraD0vk02jp8n63Xc13pfqjAtPcslHNpvi9TISe1xaUm5DkfS21rOhWg1XN7NzjVWvaRd7dOJ2eN107DsU9m2mupatW3JA8dEbimQ81uCuhx7d8ff2XGRce7m86R8EjrbWtv1+HoVNqU2UeaR4C6P1pHjJb3JZd/Lo6Lk35Sz8hAREY00j57DuH1bru6tKvf7ySNfhkI6hEi4kl98mTFzqjF05Ji1LHJBHgqp8RLOHj0jtT8SJOV+Ole1fbJe6ZTgahpPy6Vr6Hr7dM3kULfBnrkcCSoSPtyR6SVs+KrQYf9HgPmswjMXzdPjetV0VmVzt15P9qU9q+PiqWPdp0Mts8nT+dyVz9m54+58IyIiOp48uppKLYeQplwJgPaP83BFppFpZR5hLmOkyUV1OKFAAomrUCLBRx79YnVhlnVaTeNpuWR+Wc5wtsGeuRxPwqKQ6eU+QasaYxnnrmzu1uvJvrRndVw8daz7dKhlNnk6n7vyyXDHcfJ9OGUiIiIaCR7VMIod23ejpXl4PZTDwsMwfcYU4xuNZvY1jBIoiYiIiDwOjEI6P9TW1uv7vtz9NrTcXyWBQ2oW3d27SERERESj15ACIxERERGdfoZ3kxcRERERnTYYGImIiIjIEgMjEREREVliYCQiIiIiSwyMRERERGSJgZGIiIiILDEwEhEREZElBkYiIiIissTASERERESWGBiJiIiIyBIDIxERERFZYmAkIiIiIksMjERERERkiYGRiIiIiCwxMBIRERGRJQZGIiIiIrLkVV5e3m98JiIaNapLgKYqoOMw0NdnDDwFeas/2wNDgYgEID7NGEhENMowMBLRqNLVBpTkAm3NxoDTSHA4kDYV8A82BhARjRJskiaiUeV0DYtCtlu2n4hotGFgJKJRQ5qhT9ewaJLtl/1ARDSaMDAS0agh9ywS9wMRjT4MjEQ0akgHF+J+IKLRh4GRiEaNU7k39FBwPxDRaMPASERERESWGBiJiIiIyBIDIxERERFZYmAkIiIiIksMjERERERkiYGRiIiIiCzxt6SJaNTY8aHx4TiITwNixwJ+AeqLl3qp//J1tgNVRUDDIT3JIOExQMI4IDBM/WVt/Gnd06OmrQAq8m3fTYmZQJxavqgpAQ4V2j4fi+nnGR+IiEYB1jAS0SktMATInK1CXZYKi4FqgIRFod4Dgm1hLyzaGGZIngik5QDBEUfCovD1BWJS1DzjjQEGf7UcLzVdby/Q1mQMJCI6hTAwEtEpy8cHSFLhLzQK6FNhrq4MyFtrezXX2KbxDVCBMcb2WUgYjE5W/3FU8x5uBAq32Go+qw6oQNhjC5DhsbZlmwJVYBTdHUBTre0zEdGphIGRiE5Z8ekqLEYC/f22sFi2F+jqtL3qym21gZ2HbWFSSE1jdKItFLY0AMXbVGhU76JSBcaOVttnXz9b7aOQsCmhU7S32N6JiE41DIxEdEqSGsCwWFtTcVebCogVxghDcy2wfzOwb5MtDIqIeFv40/cqqkApTcz2zGApAVRqG0VQqK02Usa1N9uGERGdahgYieiUJDV/fkG2z61Sk2jUDmbNA6aec+SVfaatg4swaw17Oo40WZsCQtRL7oFUpIayzQiHcv+iBMbe7iPDiIhONQyMRHRKCgwFfNR/4fr7VABUAU9IMJTmZCEhz8fXVjPY2mhruvb1t43r7jq6djEs6sh4+5pEWY+QHtcMjER0qmJgJKJTkpfZG9pOcx2Qtx4o2akCoQqFQsKihENpuh7oQO0wrzRvhyeo/2CqgCnh06x9DAhSgbMb6GhRyzHudSQiOhUxMBLRKalbBTu511CCoPRqNpubpZYxaYLtXkXdq7naNlyamc17FIPCgLixts8yX9oMICxSje8D6g8BLfW2cT0qdEqtYn3FkfsgiYhORXxwNxGNGiP54G655zB9qu3B20LCozRPS1O06OkGDhWosFdu+y7k+YuxKeqDUcMoAVI/h1F9l3nlAd8H82zjxLiZtnslpQNM+V41vtIYMQL44G4iGk1Yw0hEpyTp5FKebzzqRmoaVejTvZlV8JMawqLtg8OiqFQBsrHqSE2jGS47DgNl+waHReFj3A/ZJfcv8pE6RHQKYw0jEY0ax+unAf0DgOBIW09msznZHWnG1s9jrDu6A4xJlhsQaptmpLGGkYhGE9YwEtEpT+5PlJpDT8OikOc0Nla7DotClns8wiIR0WjDwEhERERElhgYiYiIiMgSAyMRERERWWJgJCIiIiJLDIxEREREZImBkYiIiIgsMTAS0aihf1WFuB+IaNThf5aIaNQIDDU+nOa4H4hotGFgJKJRIyLB+HCa434gotGGgZGIRo34NCA43PhympLtl/1ARDSaMDAS0aiSNvX0DY2y3bL9RESjjVd5eXm/8ZmIaNSoLgGaqoCOw0BfnzHwFCQdXOSeRWmGZs0iEY1WDIxEREREZIlN0kRERERkiYGRiIiIiCwxMBIRERGRJQZGIiIiIrLEwEhERERElhgYiYiIiMgSAyMRERERWWJgJCIiIiJLDIxEREREZImBkYiIiIgsMTASERERkSUGRiIiIiKyxMBIRERERJYYGImIiIjIEgMjEREREVliYCQiIiIiSwyMRERERGSJgZGIiIiILDEwEhEREZElBkYiIiIissTASERERESWGBiJiIiIyBIDIxERERFZYmAkIiIiIksMjERERERkiYGRiIiIiCwxMBIRERGRJQZGIiIiIrLEwEhERERElhgYiYiIiMgSAyMRERERWWJgJCIiIiJLDIxEREREZImBkYiIiIgsMTASERERkSUGRiIiIqIRUrsXKG82vpxCvMrLy/uNz8dNVxvgH2x8Ga7twFNPGZ8NPpFA2Ezg3CuAWF9j4AioWg78+21gyn3AogRjoBs9ahvbe4CgcOBYirLul8Bu9f6lewDHVe/+uxq/WZXpL6psxjAiIqLPU1sBsPL/VEiqMAYEqOvXBerafKG6RvsYw4ap6zDQqd7DQm3fh+ud76nyzQW+c6Mx4HhR++JvjwK9E4HrfgAca/RxSyW4rvYRyFgeOO41jJ2twH9+D2x51xhwjPzVQRh7hu2VlAw0rgJef1y9G+M/L/teBv55h3o3vhMREZ3q2rara58KSOU1QMwSYN5XgeQkoOptNfw36r3XmHCYPn1MLUe9qozvo14GsPAiIOfSExAWlc+WA2+pjCVZ63g7roFRUu9b6kDLhkyYbww8RnHnABdfZ7z+B7hAnaCS6HOrbeNN8ldJS7Pt1WMMc9RmjG9pMwZYUX/i6GnlTx0Hsq4uY3iXk2mGtJ5hGNhW9e5Iaj7NfdCjUvXevao85g5R/5Abi4D9B9UynP2jVtPp5aqX0/FERHT6Ute6lS+oS0kosOhh4CtXATOXApf+FPjSZWq8urasXmOb1J6n10SZTl971Es+D1y7DMfl2mpe6811O2NOY1xz9TXYrgypKpdMHWt8MabVy3KYbyRMVNmqQ2UsyVqSuY6n49YkLQV/+w9qQ9SOuXwZEBZtjBguo0k6+TvqZJxhDFPkr5h/q4Q9U/0lMy9cDVAH7YNHgCL7P0cSgKXqBM4y4746YMvVNAfrjO+Kf7YKoLeqSX2cNEmr6f6t/jFURal/BHfYprGnm5HNqnglTP1D+cbF6oOb9TgzpCZp9Y9n3eNquArMAxy21ZxnkirTXrVNmvrHffadwAEpmyqjFq/mu0vNF2D72rgBePMlu38wfuoPp1tUQJ9kfCciotNal7pOPPe/6rJzvbpmOVYKqWvHp/8EapPVdUOFSH2r1hCviboZ2fgsBq7/w7i2etIkXa6u/f9Vr16L617VCpUH3jC+KHK9T96irq9qO/WyVfb4p8oOMHKAmScy1HdZvnlN9Vf762q130aiFrKlXgXGR4FAdW2/7Adq2UHGiBF2XGoY7cPil34yAmHRTo8keXWyyKtchciP3rft+KkSFpW9r6uwWKuCj9pp31HB6gYVjMLUAfz4P7bxQkLWQZX0c1Sw+tYf1Ql4jTpB8lTQfMeYwJ4KoO9IWFRHdalaprOTcd4P1SvH+KyC62Xn2j67Ws/br9rGu6ROqIG/nOxeZi2mabf6h7q7SJ2I6h/RDWr5V9+utlVt+0q13Y5N9OVqv12tjomeRn1e9xDQ9xU1nxr2BQm31cDWT2zTygm/XC27V6XSL6nx31GveeofY9Gf1H8APu+2fyIiGhVKim3vaXaVOAPUtXKetASaYVEZ6jVxqbqeZknNiXpdoD4vnWobPuxrq4UulSf+q4JdwJm2a+UND6p1j3G47u1T61Bh0Udd7y9VAe1b6pWRr3KHB+3lRTuBRfeqEKm2Y6a6tnZtUtsxQvewScaSrCWZS7LX8appHPHA2KMO4rtPqL8qSlU4D1CB7jlbVamz1yG1o4eq6iXbvYLyeucpFaySgBkq8JgpfZI6Qb+jTqalE23f/dNU+lcnW68KVipL6QO+twKI+SKwMEOdyOpMTl6kQt7/qHmMoDegRQWn+1XYUh8XqfUN1FA68Fep3t+omfNXwTVMPrtYz1x1ovWuV0HP/AvGGXXyfWBso/3rU3XCDVABMnezWt9Z6h+S+sfqr5Yfqf4KOvt8NU6a6B1O4GxVjkhVLpkmVe2z3khVFvXXlpQ7Ve0/+TfZa5xk+1eqTVfbevbNarhsi3rN/LqaV5W5QK2TiIjIDCbm9U+0qOvU8hfsXv/Rl9JhXROD1fXUXypp1Es+B0vyPJZrq4XtH9mui4uusl0r/WNUJlB5Iliue0Zlyt4Nahr1PvtGtU51jfRVr4XX266N7oz9ksoQ8SofqO2Yd5lavhrWYNcy6YkKlZmcZSl5SdbyVQuV7PWuCtGSxUbaiAfG/n6g7zj2u5Yqaak5lNd1KsxNUgfs0wdUUjcDkjpw5eqgLld/FTz3M+Bvt6mDLOPUcDmmsjPlPW6cTHxEgkr8yQ69sHar4CtNtpHq4E5xERZdcbWeMSrAyogGnV5dMP6akr9E7F9mLaam/rKTP3qixtu+mpJl+UrjIdu7yf4f9FHUP0b5d2iqUuFa7rVYd7dtH+qXWr+sr+WgnoSIiE5zPmaCkIudobNOXUP22F4Vm9Q1VAVIub3vmK6JdkZqOY5q5bqnlplh34o4Vl1j1VtLpe1rrVz/ktT/2V9PVciMUy93wmVBpkBdDzNQSTPiVAaTLDbSRjww+qkdcdntQGwq0K1Cx7k3AJf/0PkrcYIx0zAFq7S+yEj3RZ/ahn36B+Cdl9UBjgBmXKGClwo9k9QBHhY1n/T2anz1BDfFGn9NyV8i9i/L0DfSwtR+U/tvlt1rgfqraoF0MiIiotOeWUFRst/2LmLVNeKGX9te49R1RJr/hljfMmrpR9eo9OtYedfTZXw4zpJUZnKWpeQlWUvKIdnrkttsWWykHZd7GOWGS7nxUm7A/PdvVXirN0YcD+rIyV8bPd22r9UFav1LgauvA2bOBVJVqOy1670Uq3a4VAVX7rV9N+1+A9ightl3wpqiDsCl39LZCdueVH8xyYo85Go9FdJBRZ10CdIGfCwmAjHqrTbP9tVUZDTzxzv89TUUCRnq/6mAHDgFmK72oX7NAtLUfxymyDgiIjrthZ2hrhc+wMHXgHLHHszbgQPqOhI83nYNHalr4vG6tiZKxxa1zP3213m1zBr1Fmlc98YY18aCEtt3TX2usssYnwfJWJK1TspOL8IMjfL+HwmNw6wmdtSqDuCOzbbXtuXAK79Xy1bD02bbxstfAF271UGvVsOb1XTPq8/2tYMSetQJ3KgC4gfqhJZp9r4KrFuhwtbBwU2zWhLwpRsBHzXu7RfUso3BjswDVK5OuFpZn5P17FefP1UBL+wiIMs2+fAFqBB3lgrD69SJslKtUy2/XH3+aJUq63xgRrgx3TBkqcAtD1v99Am1b9R26/2otv2VXwArR+gmXSIiOsmp69AF31bXnArgnZ+ra526Fsm1eYO6pr7yN3V9UgFmrrreacO8JupaPXVNLVHXokY1zzFdW1UOMfPDwEuaopWZ56vtUMHv46eBUskPan3/fkpd89U2TFfBWKSqa2OkujbufxT413/UdqrXC8+oEVLGz4lkK8lY9pnrePFZtmyZdAA/Lnz8gPEqyB3YAvT3qQR/LCmpEtiiltOhDm7ZNturPB/ojgQm3wScnWmbLFGdTAUfA/kfAbs+BOrVXyMpKuVJhpt0tn6iDJJnqOWovwry37NNIydi2DkqGF6ue9Gjdb8KSmrZ8WpYqprBL1H9u1AnUMmn6q+NFGDCGFnTYDFq/dUb1TRrgDxV1px5al6H9RSpz/brcaZUzS9/0ZhltVejtrlU/cNMvVQ/BQcxk4EgtWF576uXWn7+LrXcKbZa0QjjTwHHeYSzdeS/C3ROBKbJMVIDM9V+K19vW66UvUxtf8JXgEvm2KYnIiLyU9fDLHXdqM5V14nPbNfmqmJ1/VfXp3N/pMbZBRjHa68n18TkdDW9umaVqOv6fi8V7LKHtxy5xrWo66WZHwZeKh/MmakmiAXGJQGFanl5kh/WqiwQptZ3mwqM5v2HgcDU+SpXqO2rVRmhtkVd61VgDlFhtSbcWE6rmne1ejeup455QnOY5ljkrgIONwCXq7AYcJyD68nz04BD0atODHnqufrrR/dYdqVTTadeASGqfPY3uh4DeVC2/LUxqKbyOKxnkB61fLVeH7Ve3YtsBI3UTx4SEdEpzrgWub1eDOOa6DRHHKdrqzzWrldtQJiz3KK2sUeNs9++D5ap0DoFx/9nB51RCU56q5+IjHVCAiMRERHRyaxrL/DKk4DPOcDFl+gO0tj/LrByBRBzDfCVRbbpTlUMjEREREQe2P8q8PEaHPk1GB8g7CzgS1d9rrcynhAMjERERESeMprexfG4FWy0Om69pImIiIhOOXJ/Y7jtdbqERcHASERERESWGBiJiIiIyBIDIxERERFZAP4/0BFA9hJRdtkAAAAASUVORK5CYII=;" parent="WIyWlLk6GJQsqaUBKTNV-1" vertex="1">
          <mxGeometry x="340" y="1169" width="238.83" height="200" as="geometry" />
        </mxCell>
        <mxCell id="23GlFV0wK0m30or0m1ka-48" value="" style="shape=image;verticalLabelPosition=bottom;labelBackgroundColor=default;verticalAlign=top;aspect=fixed;imageAspect=0;image=data:image/png,iVBORw0KGgoAAAANSUhEUgAAAXkAAAC4CAYAAAAGwJyYAAAAAXNSR0IArs4c6QAAAARnQU1BAACxjwv8YQUAAAAJcEhZcwAADsMAAA7DAcdvqGQAADsRSURBVHhe7Z0JfBTl/f8/kgDhCJdAgGgQjAZcJWgwREGJiEIBRaRAwatii1Va/LdYtB4ttVSFSq38ihZapHghoigVLMhhENQUCZCUFCKXHCEEOQ1HEjb4/zwzz2xmJ7ubTbIh7Pp98xoy+8zscz+f5/s88+w8F+Tn538HQRAEISKpp/8KgiAIEYiIvCAIQgQjIi8IghDBiMgLgiBEMCLygiAIEYyIvCAIQgQjIi8IghDBiMgLgiBEMCLygiAIEYyIvCAIQgQjIi8IghDBiMgLgiBEMCLygiAIEYyIvCAIQgQjIi8IghDBiMgLgiBEMCLygiAIEYyIvCAIQgQjIi8IghDBiMgLgiBEMCLyEYkbyP0PsGkPUKadIp2ib4Hj+jij3QRBwAX5+fnf6fPvDzsogN/oc7QG0i7V52FESQGwkSJucXlPoJU+f208sPKUeX75aODJvuZ5MOz7Lw/93WDyxut+XzQGOtOPtvxbG+xbBbz4DnCIHZuHq4BZjwAN9cewhJ1V5hZ9Ti5K4RGtP/jgyA7gq0P6Q1WoSf2vYhyFOuH7KfKv/ISVU5+D4jj3p/o8jChYAjz+vv5Axv8DYBvjBYr60xQ/w5VUMX2L+N2F9MMgiO963R+AFhSS+8cB3ZtphxBQwg5mwku04vVni44jgGdu1R/ClQ3AfS/rc3LnH4Ah7fUHH2T9HZhO46XK1KT+VzGOQp0g0zURBxvZIFqyFrfcoE/qmGO0NF98imIUyOqvIp8u9hb4S68BbmB6+3bRDoIgiMhHItc/AsyazhHL34C7z6Xg0UofTavwIXXcZ3Yw7e3Ddwr8DFqcJfpjTdnFjsOiMcN68mHgJww3PUE7fo9ozZGS6uC8DkfZt+bnCvdUd6pGCBdE5L1wlz+8cz7Asx7sFdnnfjWnbN85TiHz97DTeZ8vSuhu3eMrrGBQ4RTzu2foVyA/PPHxE5cq0wToxuF/mjooIHdTcJ//K3CbbQhf9l9a4AzTH5U+QLWVkT3azRsBJyx3P2m2562/exRltjDs5Wl93/quv7Ky0uAr/qpMrO+ELN9Jx75mB+d1OJ7FJAZxjyIUddDAno8B0mvPk0Dh+SsXrzpRk/hGJjIn7zUn6ZhjVPPccauAP70FHNNuitb8zm/4ndb685qXgH9QvAwaAxNpRbv0Rw97gAnPANazsUtHAL+1zRtvWUI/PnQ8QCQNGEgf3jvqGiBKuyn8zskTe/ouGgr8cZD+oDn4H+DPc+iHLawWtPJ+/SiQVZM5eYr5838w/nhxnHk4nnlo0YsjjbG2KSWl1sv+CbzH/Pey8jkKuJydxYN3lee1s4x8kUaL/iHml8VXHzMdC4F9jrxV1u9I5lVqG+2g8cpblabfACufA5brdFr+29Ou8vlJ+vfMX8rz1V4mKs9fYp474xDFNKbcCdzPuuD1bDoU890OP5z54sRfHBsy3GEsg36sI/Y6WFkcF/2e+bNXfyDO64f4/ZnvVHxgbIT3Y6C/Y5RRoVzo35E3gb98ApRqZ8XlrO+/ZHnU0rP+cEMs+UAUsRI+7xB4xSE2hokUdsswSU2zVX46rtuqz20UsBOw1+We/I7FR2wMz7PyOgVeUcovLWdD+j0reCiWQ+5TDeXv3gKvOMY4P0/3Yv05lDRtoU80ZTYTt+wbNtLHgbeY1xWmcRjHr9iAJzJ/PA+Sq4jqgP9IIXEKl+LQDmAGBXxRJQ+O11FILIH3y0l2JCwnZ74q1ENRlee+4qCs03WM30Ret+pTXaDi+Gs/cVQrud56AXiBnXWwdVD5Zxd41cHYBf4rlWbml68VQUZ47FRfYZ0IxF7W5WkOgVd8Rfen6X8o2ksEICIfiA9ZUYpoaXWi1Xk5TUm7FaOmHd7VYt6Q5lo389RgHTsBZwVb5xk6EPqXrleZKOtkvq0xtKeldb+e007xmK/AbnYCKzgcrREcTbxIf+xxs+Zyu7EBFjHeH1UmZtVgqzXK0cTZGvsyNvSNlroxr1Npgak5/dE3cXShncuYP6oDMjoB5ok1n2zLHjS+uNw9SV8ooAU/xxa2J285MrrUtspnIQVlkw9xM2B+LGK+KGL5nVY86psfvVBhZap0MA3qnlbajCyhUP3DVh/UKiPrucUtjLOFyvv5PoyDc4GK+wydRkUU45+q8pL51ZrpsfgfDZ53bct2/aEMCbt/HVmmY20jCLUqajrDrJAnrPOptrqRybrhtz6yU52vrHrG73L63clhth+i/6tq2l4iAxH5QBxtRCvwb8CkRzgUf55DcVZWu9DnWQ/+WNHsq1hOZdGa0OcGrKjrbJX1alrx1hrusgRWcA4vU1nRO/HvH2nxpOs57fEM11bnsTlbn1STLWu8RxOpbFhTacmqudkJHPqOZ7g1xT6nfpxWesZcWuoM1wMFOEUnqoRC8K6tgxvyO2Ac80DN6fe/C3iOeWG1XSWCxlw+88uaT040Lxm06lHu3lc9eKVoz7dZcxfZ8/ZW4LeTmX7Lc4rzkk/1uS8oxo//Gfgrjxd5/MQmWBYqnI70dzrri7rnxenmVM3J5sBI1psb2LG3YtjPMb/7qzjwuJvpTTW+bZKTo0/OJY58UhXuGcZ/nMpL5tdUxrGjvqRYRmEN9OD8lBr92gyJWKbzcea9vd18yJGRtSqqMfPSkyes8+McUzofcvTgE9aFEn7nr8xv9cB9EvPbWX+3b9cn329E5ANxw0iKgz5XKKGw5lgV+/brE9KFFcxjTFA0vrRZZUdoudinG26wVcaL2Pj7UwTGsaJPcnQi6oGU/eHdESVyNWCL3VKk2A5mPOzhpTC9jmnQqsGO7I+/YmOzDqZpDgXePpxOoxVticYWippHXJgPg+w9GlECcJ3NQsupSie3hffrU8WA27zTqgqrr60cvmIZ+ROvgfcDXW2Wv0+Ynw8wbdR0L1oxQ9NZb37CDvtFdqq25KCM5WmfHjtyXJ+cSxz5lMY6aK/zUSyTkTYDRo1g1/kZ9ZSx/J+n9W0JeJTqHB1pVr9CzLFZGumDHdfJzRzFWSiDaZc+d3Ib66v9uyn0y16F9vkbBXy/EJEPRCtniyUXOYTIIqpL+RSM4gtWTosvbedqqV93fW5HzUNmcJj7DzaSxymQj/yMwvCct+VdUwptlT6K4mO30AwY/yv9pC8UpNA6tA/bd9uH/hQble5fOo611lQOqUonV0C/PR0ImT+xot9/s48wmNFH9KmTTsEsyfSVnzbOMO6bPmb5cmQzSYU/HhjDv3VhvNtx5lOifXik6cIO2M4Rz8/FvVnEurtbnyv1nfCkd4dhwJGb5x6y8i8Vy2XSB/qigvnmr1xaOzte1t1AZfA9RUQ+lKjhpsWp/xi6ZVTS9bb13Nc5rGdl9b/xNMWPxxwOc9dwuFvA7xzzN0ccItp30CcOvOJWDVqw4dnnpC1cFPjxzB+//jO9SsSdR6CpgaqgppGcftd2HlssfwF4kOKlXr+whh3LLhW+rfM6n1Bl58RZZvuDsZCZvvn+plpslDjKxDjO07wJU0TkQ0nHNJvlwoqaQyupJNs2P88hfR/HD1SWv+S9ckM9CL2TgvjQo+Z8o20RTkixTzXZKT6pT6oDLSk1d23NSafbhD53ge70/MF0Gz+iCnCM9DEXHiz9ffjndYygwOl7Q8mWN9mJby23ltXywNsY1kOPAH9iHt1ZiyOn6qBE1ond0ld0CBDnBrYHtbvZqVW2cilV5YWv8rAdnfS9QrUQkQ8prPw3Uqwsctm4N9vmwdX6eq/hJIe9a2xWfjeK+7TfAENo8aaxM4ilWyiNGvuqFqW4FeY62cDzfDTy6jLkDpsVyIS8sUSfay5yTIN0Zf4YP6Tyc6gVQMHSlvfaLdA2XX376TmuKn8YHkrWfKJPSOtbgVf+APyQf1V46qVtNepUQ0B7loE9n3w9rHSujmrl+F2BhVpF8/IThi3jYdEs7+dRqo3Yp3BiGb7P8rAdtdH5fo8QkQ81qlJa7FYPtWzm66036xMLt7eV1MkxH3rqC3YU+jwUdLWPIijmcyi69vDXzQdsfU6NadWXFrStxe9bBmTZpkiu7GYTGAb8oTNwdgzTf8XRwXNmB7GjCh1QFP22L2td+qH3Q2zFmpeBXz4NzKC1nRHKhNuw529nlq9dUMs40lsXwk61WrDzs+dT5vveoqweps63PbuIYueUarPW7aRwpFWfov3LQdqBqOWvr9hW2yiRv9pWJzJYJ5zPm3fx/kdY7tPmAssCPBAXgkJEPtQ0v9HWaFhB11iNmBb+tc75TlpEditlMa2eTIqNWn6YxYr+G1Zy51C5JnSl6NqtKLX2/iGKnHoY+MfHvdc2h4rb7MvnKNpvLSxPU0N2iINt1vlyivkzFNxMxkM9hFYPYrOYFwXMk+UUg2OOef6AUIh+aBObQ7SoH6X/y+h3JkVrhkr3BuAIRWwdr22ppZUt9jnudf9kGXNkp8p3B+Pw5LOhfbBeLZhPI0fYyoj58Vvm+wzWCbUIQP0Qzf6gVK0Eq2zEo379a18GqdbN29fXD2R4VlGq1TqPsiwWMT9Uub/BMvoD7z/GPMqh26f8Xli/MrruEZEPOWw019lWI1iC1q23j2En773ZZvkbVg8ruVp+OJ0VvehiWk22xlJj6NdDjmWaalWPehiofnmo1jQPDGV4RK0m8vopu+NHKkMeBq6wifcOCu4rfzcfQtt/Pdrrx7QU/ViQ/lBiY39Bm3oT5lv0+xUKmP13Cy2Y7vtqMN8fiBsHeHdyC14wy/cZxqGgAUd+jmc0dUH7W4Fx9nrI8lnHOqEWAdh/hX3FaHacwaw0Iqpc7VOTHzHd1qBWLY39+U3l+VLKsljI/FDlvpxlZLWZBqz/D9k6aqFaiMjXBj19rCK57jp94qD7Tzm8ZYV3WivqXTKP/9rb8g4Faq3/VDZA5+YO7RnnSYxLjP4cSgbfVW65KRa+YeidgVqH/dif2ZgZvi+LTT2Ifogdn33pZVW45VHgT0yXr80s1HuBbuG1F3hUZZBQFZSA/o6Wq/2Xo4oGTPc4WrCpPpbp1gUpzAN/+aQeFo9mPj7KkaCzXvtDletYu0HBAldvILXK3cU68SL97GafwNeo9/moB7Iv/C709f97yPfzBWXnK2qZ31n+rUfFifXR2EKNetugeltlfYbX+ByEFwzqzZjW3HlMs9AO1dWPy6y3FJ6rPLbjSRvDbV5bvUoIONf5pN7fc8JS//M8b8IQEXlBEIQIRqZrBEEQIhgReUEQhAhGRF4QBCGCEZEXBEGIYETkBUEQIhgReUEQhAhGRF4QBCGCEZEXBEGIYETkBUEQIhgReUEQhAhGRF4QBCGCEZEXBEGIYETkBUEQIhgReUEQhAhGRF4QBCGCEZEXBEGIYETkBUEQIhgReUEQhAhGRF4QBCGCEZEXBEGIYETkBUEQIhgReUEQhAhGRF4QBCGCEZEXBEGIYETkBUEQIpjvr8i7T6Agbyty8wpRXKbdBKGKuE+WwH2e1J8axaXMjeKTbv2hjnCXoKi4juMQgVyQn5//nT6vItux4LF3kK0/+SL5x09geFfzPhjn+kJdU8w4vcC4u5uiZWw3DJ+QjgR96ZyxZRGe+idwz5QhSNJOXqhGd6oM0Y0bIjpKuwXB0dWzMS3bhQnj09BSuwm1xJ5VmDIjE01vG4dxvZtrRyfHsXb6DGQn854+/u4Jhkr8CSou/tmzeDpmrWmCAY8/gN7nrOLYtaEEWa9Ow/vbk3HPs4N8twlFZe2mAma+Lc3XH0lMi+Zo2zkNAwanIKGJ6RbJ7aYGlnw79L7rTozSx+DurFitXBhsc+vdQd96vrErF9mnXLjn6fGYUBcCHwzH1mP25DeQeUx/Fs4/4nvh3jEjMLxHTcQ7RNQwLgk3jcQ9Y4agR50pXEMkD7kLo8b2CVK8q0bL7v09ujR0UBo67F+JWS8uQl6xviGCqYHIN0X7bl3g0kdShxigURySbG7tnfVNDceKTqDI77CQ1qu6zqO4VDv5xbzXGN2VqqmXfBTZhqruk6Y/3sM/7b9ya9McjU5VjIvv7yn8hGekicNkdXq8EHlfn1A3e/D4V5WhsOFnMcr4z4iv87ulOh91uJXhLtb3Vpo/Cls6Ky0vE8N/X/cY8fSOo/9wzWvOcjf89nGvBxWGDtvyu0Ld8dzDtBXuRl5hieluoOuE83tqJKXcKgSt3dW9UVFo2aEdmkWbVzxY5RMw3/yEaycofzR+4mKWfRB+NGyBDh1i4fm6r3y1eVGtMq8kDtGx7ZDQhjrihS2fAn89IDEdEj265OqWgsHjRyLNnYsV64/rO3wRRBlZbSRA/ALVeUVl12uKs3rWHgcyMevNVTgYHY3i025Ed+qLh3+ahrbWVETxbix9ZT7WfhOF2JgyVghaF/3uwr23xMNZ7CZf48PJ78CdmoI9WVkU3DgMmMihZotDyHrjLbz/v2IOy6JQfKwEsd2H4OERLsRGmd+xpphmTf6cFlBfc4hWFuh76m4/4R1ciin/dCPlunxkfUGBt/yz0nOAFaxVFNxHKCzONPtjm/Iz1zg9+Mp0ZFh+qs/r3sGcD7ajqF40os+44W6RiKEPjEBKW+P2ihzMxMy/rEOzO0bjntSGFK/g0okBfXF0ZYDysvPVMkx5sxhDn7oLKbHajez86K949UA6HvtZCmI94Z5AdP1ouBn32CsG4f67k7Wfx5E5u+J0xI5F0/E6RmDyyETt4s3RL97gMLsTBsRvxtKsM4ipV4Lis02RZKS3te2e1khrkIfMXWxI12j/PGXE9NVnYzsTjbY3jMTYwR0RE3UYa1+Zjcwu9+Gp2+MNfwyOZ+O1ZzPQYewEDL5U55VtKrK8fBoi5mwJ6qf0RbJ5qZwg6npQ/njhiIu9nFvR1+Mn4E4IUIZGnSufBvHK143MV8ahmIZdyj0PYmhX1qNgyryKbcAM0zZlYiufmEash262uZtbGPfWmKgWaNEKyMz/hh98jH6qUkYNmiIWFOlSW/4o7H4wiNNMf6PUEXhkWKLpR6VtMTScM5HP3lyMsU89gQSmzl34OWb+eRVW5vbAqG4qCsex9u9vIrvtEDw23kygcc9Lc/F+3ER9j29y9zfE2CfprzG35kbee8y0b7th7O/TjbBwcisWvLgQs1a1xoRbEjF8ChuBmtdbHmebf+P3Pgj0vTjjLoV3eOSg+i8P+2MoBs+yAhiFQ/8+XoT10akY+1v6p+4tpn/PL8TirCsxJrWpusk/XYdg8sQ4zJiai2TVkVxoOrvzlmDOewfQ+d4JGO5Sgl2C3HdnYt6sJWg6cRCSGpj3eaDAz/jLp6g/cIwWvODTGbi8vIl29UBaozeRtfkEOzudttKt+M+6Erh+lMwGoMPd2xGjfjsELpUfOtw5HzTBBFb6GlVEGhDZicz/P6j8d+Po+kWYtWA+Vlw0Dv2sKcP83Sga/iAm/ay5Dsusc2uj0zH+j9ejLR3NOvcmZrdQ89px6HlDPDKWbcbOQfHorBtdwbpM7LkwBbddan72Yn8GXn9vLxKGjcPwVIbD8tmz/A3MygfaexQ6iLoelD+Bceeuxvt58Rj622FIMerfdiyYvgiffdWDIhRkbudvxt4bx2DyMJapqmvv/BXzPvwCaV3T0T6YMq9JG+D3c99j+USl8ft9je+7D2djwStLeM1l3lITyo7h2BHm5zVttIOdIMrocBYWf3QACXeyjHqYdergJ7MxfX4GUib1N6aAC9YsxtozPTD2GcbfuIGG7t8+w/reiegdF3xbrCnnbHVNcl+dEBId50IyjaMjR9k9KvZtxH/2JaLfsPIeLDruevyAlmdudh6L2z+Gv6oCKUrzsGFdFHoPKQ8LTbqw94/H0Q1bUKCdKlCF73mF58GFdNXD67irvjPp9vF46he2e2O64AqaSDv30qypFqz067JRdM1AU+AVUQ3h+uFAJJ/Kxob/eefSGVWhpq8C+o/B2N6mRVvldPorLydRHdHtmobYw7Iq0k7urbnIZb5c42LtNsI9geRhWuAVDHc4y7uIacr1NxQOGhf69bfyPxote/RHn04cGay3PW1r1wM368ZoYNQ5WoajTYFXqDo3un8cCj7baORF7JXd0fn0Zvzva/M6UIjcjcfRvufVaK9d7BTk5OJofC8MUMKsHFg+Cbf0QbKnXpAg6npQ/lTC6eJioEF0+Sg4hgbOxAnBC7xC5Vl3LcaqrnXn6OfwcXxrfK6kzGvaBlhncnJYD28xBV4RfWEyBtxQPfErO62nRNRxtBCZ7yxCZmlHpF3lw4oPRo/Y0Y+ZNB6jbHWqrasr2p7ehz1Hzc9nTrMMYmLKy6Ct6rDuo8DzvLpaVQ3O3RLKQCEVHcdRDjf//dIMTJtSfizYxOHd0SJPJfKJ3d+iIhxhL7z+TW9/Zi0vpELpyumLqnzPTzoqrIApc+NgXiaWznsT0+nXlEnPYt4mugfqsQJykpWTlkc7h+UR1YZuKpo2AT6Sg7dnraLFmY7hlsArQpBOfyT0SEHLXZuQfVh9YofExhCT2h1JKl+McOPQ3jml1JZuOKYu14x2cY7hf1O05BCt+Pix8uyOqof6+tTAqHOt0UaPkixatmV+WXkR60LPbiXsLLYb17BvC9MXjxS1yMAH3x4/DsS19l6docvHQxB1PSh/KiG2ezrSm+dh3jNTMXnGe1i6eisKiqpY+Zx55iBgmStq0gb81BmjfKrBwU/mYsrk6ebx/GysONQRQx8ZiRRfRRmkHrmLCpG1fAnmzVDXp2HStAxzYH/WuIyEXv2QdDID0387DdP/sQgrvtiNg5ZBU5W2WEPOnchXShx6/OBmDLAdg++8E6N+kMihX1VojqQ+3v4MuON2jLorDYEX+1T3e75QQ7GXMf31HBR16I6bfzgSD/+aw7xr9OXaprQYFw/oD9c3GZjz7nZ4LyAIZTptdLgaPeML8Z8NrKRFuRzGN0daj476Yh3BnrcKdqsPouFKS0FMtjna2LMhC0ev7IGaL6YJVV0PQIN49Pvlr/DUr0bititb4mjOEsx47mUszqu2lVGRDj3Qq5O/Mq/jNuCg/cBxmDzlCc/x1C+GICUuUO2opIwOZ2Lmc+wsvm6ETjf0x+ixD+LxX/X1HuFx5HHPxIl47OEhSGW27FkzH9OfmYtMo1NU1FJbdHB+iHzz5obV0qJj+cocdSRd3glJl7UOvqHGtkCrqGI0ivP2x9WF/rji/Deg6n7PL18jR01PjBqL4X1ccF3aGrFNig1LvPo0RxsO8wr2FXgbQqUFUKPftm1tytMuFem0sobe4wI2fIQPt9ACUYQ8nXaaI/laDjU3bkHels3YeSHTfZG+1KI1Le1C7M33Fhh3fj4KomhN256llZ09o88Ubv+rGuzQnz1e9zGs3bT6lDnvD2MUsQ979+vPmoJ9+4B4jgz0Z1zSBd0b5CFn63bkbCiBKznJb31s1opl8PU+76G2Lh8PQdT1oPypDLU6SM0WxHVEcp++GPWLn2No4glkbvLMPYWApswPP2Ve0zZg1FWW417vOmOUT20TRBkd3ZyLgjbpuP+nfZHWLRHtWzZFzAk1ArDhLkFxWTRiL0pE2i1DMGbCXegdm8/OkCO1Wm2L3pwfIk+LID0xH4tfy8BOPaR0H8zGghem4SU1fAmWBl3QK60+Mue9h6yD2p+i3Vgxk0Opt7f6HyVW93t+iUXLC9lzb9tt/ppWDVvXr8TqPebVoIiNRSscQ0F+CdxuMwZJPVMQm/MxFqw/ZC6HLD2ErAUfI7dxCnpebtziRUzXIbh/YBNkv/4G1qpxZMjT6U1sSg+4Du/AiszdSLihR7lVE5WInmlNkfuvReXhqvL9Vx5i03ro4X1zJHRuioOrl2HtPpXmEubZEqzerZ8/BCIqD0sXZOOo8lo9pFy6GBnH4tDz2gDztxdeibTE48h4z6pzbhTtyMDCT46jc9qV5VMlUR2R0qs5cpcuQx6Yz8Z8s2/ap/ZG5+OfY+HSfLPc3cfN8jEvmwRR14PypxIKVs3E5BeWINcK4/BWfMX617JVKOVDlXlPuI7lYnGGo8xr2gaMuso6s5h15rCZhuKvM/Dhau8ljwUr52LajM9RoMIIFUGUUWxLWibf7MJOHTejHS3Pto2a3cidPw2TZzJu2gAp3puHHUeAVi2b1HpbtBO0kVy7qKVH9+H0/PfwqlrWaBCNttfdibF9q/agJWHQGIw6+xYWTJuK97Vb7BV9MXZYl4CJre73fBOH3j+6HjtnvYnJX5guamlUn6vYGMyPldPAhZtvW4+X35yG7CgX7vnDECRd0h8P3wvMmTcLkxaYt0W3S6GV1h8JzmcCmrZ97sao/X/FvFmL0OZR+hHSdDpokIRu3RZhXk5HDL3fe/VExfw1y/fhQeXLExP6DUN6wdtY+n/TsJTXW15zO4becAivVmbBtkvH4I6b8NKTS8zGUb81ej9wn2dVkm981Lmopkjqfx+GO1Z+tHe50HLF5zjd60rPKhufNE/G6AcOY9acuZj8iXKIRsJtt6Pf4YU2gQ6irgflT2Da9x2JofvfwrzJU7WLys8hVW5PldIgEd1cjBfLPP1Ke77VvA0kDBqNoUffwvtTdZ1pkYx77nDhdV33lZAeOZCPo/lNcYQi3z5Q2VSJysso2tUfw696FQsYNyM99eORfgc7uV27jOvqftcwWu6vzMeMpzNMp6iG6NzvPgzVK9RCqzn+qcFrDWoJ9eOC02dQvxGHPzVJKS2H4lPsVxvSH+fSwkBU93s+UT+mKMaZ+jGIrW5iGB/3d9GI9vp6aPwNXTrL2fnBNLx6chAm3eWnogZTvhy5uC9gmoNotF4/R1c/xCkBGsU2rFojsb5XxVdI+Mcsn0rzttK8CNKfQBhpC0F7qjYhqKvVLddQUFkZBVF31A/HTp+p7/+eWmqLFuefyAthiTGldHgdZr70BTo+oH4opC/UMvKuHkEIzHm0ukYIX44j8+WpmPTnDJxIGYJ+50jgBUGoHLHkhdDAYWux+gl+nUwJCILgD7HkhdDQQAReEM5HROQFQRAiGBF5QRCECEZEXhAEIYIRkRcEQYhgROQFQRAiGBH5SET9Sq+WthILO8I5L9QvIYPZ+u/7jFttxbkVuXmF5jtyhAqcxyKvdll/FjMcLySqDdSvJp+anun9BrlwQu109dgi5BkfSpD12jRMeUa9UCtY1K75z2LBFv0xYqh6XlS6p+w5ZM+/X8bkZ+ZirVUxVYfltX/quWsjCrUXaVBvBT1XqN2unp+OGfM+xtLFW3AwZO+uqQJebe/8RCz5iKN2d70PL6qeF2pP2SmLQvk63uqTcNNI3DNmCHpY72tQ+7BOXood+uO5Re3BOx2zvzg3HUpQ7MpF9ikX7nl6PCZMSDe23BMqUvcib1gnalsuWij+hltq2Grdo52cVL7jueVHcNaIucu97zgZYfkIp+IO9oHCNK85vfG2lmz3lKphaT6KghiSeu96b/PDyutgpgCsPPebnxr1giZ1n6+yUdeMsOhX4W7kFer32jvwpJnxO7hjOw4Wm+4GQdQPs6zK42r4pyPjnRcaT30qv0/h+Z4O0zvptu84y9K430y/+3gh8r4+Ybrb0WF6+Wm4OdJl+aXcGrZAhw6x5ku5VF6akfNdLjVsI971zqR8VKPjzjiZ2+j5LwsDe/5WqPcOKsk733G25UGb5mh0iufBtjt/4QWKR1XScx5Sp681KN6xCrPmZOLg2WhWZDfc9Vqj9/33YcCl6h3iaig6A9mJfdEhexWySxrCfZoioV43+stBSLLabTA7ntt2fa+wKz8vV3jJlbEB9jo0s+34b6dg+QzM+CwRY/WGvSYnkPm36VjR7i48dUfHSsM0p0i8d/r3pDl5HMb1UZuAmPe4U1OwJyuLAh+HAbaNvT2oIaN9p32v9OhwBvTF0ZWrcDA6GsWnGSevXfOdcSlB3vyZeH1fEsaM64/ODo208OxWX4/ld4bl1yIRQx8YgRS944YZj9ZIa5CHzF1sPteMwOSRieZFDzrNcSmo/98s7DkDJOt4eOpHdFPEuNnAEI/0sT9CvwTrHfMl2Ll4Ll5bcwjuRg0RfboMHW67HZdvWIhvbjH9cJat3c+W9YpxtDhG77BfbMRjqW1bWCsele7cb+S/GynX5SPrC4pDfF8fL0zLx+JJc3Fw4HjPJtbuTe9h0rw8uEZNxKju5s+FjfhmXopxj6Wjva1c2yr3j2x7Kxh52aaKbeQE6yJbGssq9opBuP/uZF3+znpnkjf/WbwOFQ6M+pGt3dVrhH3WQ+LJX46iWjYog9oWOOE22z7DTvzlXcB2bdbX8vgQ63vVLSs/7o0qS4+tjM7XkXPd/RD9cCZmz85E1C1jMekmtduK29iHcfrsd9Hmsbs8ey8WbMhH7188gaHqs9rN/E8LsXhNDyQZu5kHs+M5K7CfXfnfalve4DwYAv8p6g8c41PgFe1T05CwIgM5Oyjy1su49q/HZ7uaI+12tf2Z/zBnt2BD6l3ekIIhd39DjH3yCR8biAdP9uZijH2KfjCPjLj8eRVW5vYwd573Qgv8zkspFP4F3p23BHPeO4DO904wNxZXu/m/OxPzZi1B04kUGOuVqfm7UTT8QUz6mW0TbR8UbDuBob+ciLEX6ruM+rEZbUaMx3hjM2ldP/62GO0nDYOL/rtzFuPVNVHo/dAEDLhExeEEst9+FQsOUKBNXxwUYu17mThz/X2YNDDeiM/B1XNZVzaiV9c09B7/BNp4hM3qjMyyDLhzv0Ee9sfch6eetW/obiceV3RviMy83ey0XUbYO/LyEBvbFLl5XwNqk2waCju/KkRM1wHe28iRln0ewOS2TkExp06CaiN7O2LUb/VG6rqNzPmgCSYMSwxCBBIxfMo4tPfREXjh3o4V72xEVG/mg97Yvjh3EV54bRmyktmm/e5X4sy7ytq1ig87YCWwy+NsHWpNy8rhzvQsrlZ6zi/qbLqm4MssFLTri9GGwCto6d50Nx57zHtz3ba9+iDZ+tykC7op6+yI3ko3mB3P/ezK/8BvxuPeFG+BP0OBnzV9FdA/gOWhaJ6ElMQSbPrvbu3A9OSqHfZTkKI2Z/QT5uj+cSj4bKP3tm5BkNyX6auBwCsMP3QeRce5kBwPHFFmiRcU+Pco8Ns6eluCFXAjd102iq4ZaAq8Qu3m/8OBSD6VjQ3/sw2d1Y7/th3t/aHKOcUSeGLUj8Q+GGoIvIL148Z+xqggx/Df3Dga1/QxBV4R1RTJg3shwe9UAofdp4CYhtZIQG2qwgY8jiMa/bkCwezcb+BCuhYCf3ROopBv2Y4dRvzysW1La/Qc0I1W5A4YGyaV7sZX2xuie7fyjVSCofI2cgLJw7TAK3jPcKaniGWo9q4NGdGJGPybCRg3oDwfYroksUPajT2ObRa9ceRdMO3aFzUuK4d7tdNzflFnIu9zR3oOiWKbe8tBVL0A+8UHs+O5n135Y2hBeb3A/0gO3p61CnsuTMfwQAJvQDHpmYTidZuQZzTYQuRuOI6Ea/W2cX7CNHaat+JVFUJRSkH4seejuXh9XTFctw8IIPCKk8Zene3btdGfNVFt6KaSaOs8Ktnx38JZzkb92LkCM2zlOu2FRdhEUTL99xMHvT+nb+LRa3AiTqychUmTZuHVeRnI3KG3UvRHkDv3KyrdcOTSJMrIdmzby/N922g3dkTnqy9CQuk+7FGbO+/YjtyoRFx2sXF30FTeRuLQ3tmLGXvcHlOXQ0vpIeStXoUF/5jFfJqOyU8vNKZV3GfNy/7wyrtg2rUvQlBWFdyrmZ7zibp/8FpjQrTjeWkxLh7QH65vMjDn3e22vRp9E+1KRjJysSGX9sHXm5B5JAk9HSODcKOoSTcM7dMEuW/rPWHrmouu9i7XH9yKoT+6Ez/oWv1hTcseI/DYpPEYNyoFCbSmP5szC5P/nlXJ8tlKdu4PlgaJuKIrR0tbC3F0xw4c7XopEqIuweVdC/HVjhPYs207h1wuvedtGFK6He9PnYV5G4rQPuVGDP3xGDw66U4/U2eVUd12HaKyUoQ0PXVHnYl823ZxwG7HjvRlh7AzpxB679zKCWbHcz+78h/cthUF9oDapSK9RwqG3uMCNnyED7f4XgnigRZXihoG/nc78nI2o7iby5gnNvATprHTfHyc99SAl0VQjOLT+rQOcPVJQ0r/kRjQvhBL52fioF8LtznasPgK9hXYhsCktAB7DzD5bf3M2VaBZq2UH82RYC/Xbom49PJEdDbmwHQctmz3stCwZ4859eEHd3EJ3FFN0T4pBf1G3YUJY9MQu2sTcpUl7Ysgdu4Pnmh0TuqIo3t3IXdPIVxdLzHcXFclYeeOHB4lcCUptxDSojXaRhVib753o3Ln56MgiqPNFtqBlJ09o88U7qqvJNmRi6wiF4aPH4LeV3dB57imiDl9spIO1AfBtGtfhLSsSKjSU8fUmci37N4DnY+pHel3m6LuPoGdyxfh1bfXYmewIh/Mjud+duVfMGchMszJUS9iug7B/QObIPv1yq3ZzuwUWm77DCu2AGlptj1N/YS58JPj6Jymp3TQjg0eyF6yDHnH3XCXMv1LVyPL3s7qAjb83j8dgeTjqwKOaJJ6piA252MsWK+nOziszVrwMXIbp6Dn5eY9NaF9am903rMMr1n1o0zt9r8IL/1uJlbozjPppr5oz3tenpuB7Dx2thsz8Pp7m707HjulW7HgmWmY+WmhGeeyEuzZvAtHo1qgpVaOZhQKFB7EQbXPrPIoiJ37q0Js1yvRefsqLN2ShCu6mDUm+lJ2XHs2IusA3a4IIEWxSsQOoaBQxc1vKr2hMdIzrSly/7WovI2o+P8rD7FpPfSogZ1p56Y4uHoZ1u5jJ+guYV4vwerd5c8ugCaIZcU9ur8AxSpvfBkAhsjuw66d2kBSdeKjzwJ2uj4Jpl37IsRlVa307Pscs6bMRQbtufOFupuuUTvS/6wvmm18E1OefBZPPTkdr26MxeBHhiA54HywN8aO51cexofTpuKpx57FpMlvIquZfcdzc+f1Ac1y8Opkdc9UTJmdg2a3jcXw7vZKXE7bPndj1FXHsHTWIuQFmre5qCuSGxei4PSV6Oa15Z2fMPvfh9Ge1Ty8ZxjTimy8/uxUTJo0ExkN+2DAZfpyXRKTiOFj09F0wzuYvfqQdnRwSX88fG8SvvlgFiY9wfJ7ehY+PJiEUb/oj4RQTDc468cTUzH9g8Nw3Xsf+lnj9bZpeHACh89nvsKKD5Zh8ecluGbMreisL1eA4jH0gTSUrZxtxvmJaZi1LgbpPxvsGYW1T++PlJMZmP7kVMz8TK1ecZYl69i0ZfjmyvKd+6tE7CW4XD1X7URht0Z+yq3RcRxNtLn54qLrMDj1JFb8mfXl5fVBW5QV2oiO/8ODyh/wJvQbhvT4A1j6fxTSJ1/C6zuSMPgGm5nP1pTcvy/a5i7EZObN+19pZzsdrsPwfk2x/h/TjHCemvQWdnbtVa3pjcrbtS9CXFbVSI/7SAH2HOEo6UiQnfA54LzY/k/94OE0YhDbJIAVUxm09Crd8TyIndWrhrk2/rNLH9DLNX0QTJiltIwaqN8KhCPqhyI13I2/EtSPcozd7n3t1q8sSq989fX7Ayc6zvX81zk3yySaZeKF+sFMoJ37zxXKkr6A9aWqdTiY+Afht8+8sRPKfAqmXfsilHE4X8q9mpwXD16jmzStmcAroqKNFTMBK0KDhohVQhECgVfD5eLclVi9Kx69UgNYCcGEGbYCrzDzvbYEXhEdQ/99CHzxliWYMpVD+sOW1aTW0q/m2CgeFwd8OqfjHKDO+RSxaFWW50FDj66GwCuCiX8QfgcUeEUo8ymYdu2LUMbhfCn3aiIbeVeHMlqLT7+D7LLowL/mE2oX9eOnd+fi/Q3Hy+dp67dG2qjRGOwK75VOghAqROSriVqlgfqhGRUINcSYElNPrP1M6QjC9xgReUEQhAgmAn4MJQiCIPhDRF4QBCGCEZEXBEGIYETkBUEQIhgReUEQhAhGRF4QBCGCEZEXBEGIYETkBUEQIhgReUEQhAhGRF4QBCGCEZEXBEGIYETkBUEQIhgReUEQhAhGRF4QBCGCEZEXBEGIYETkBUEQIhgReUEQhAhGRF4QBCGCEZEXBEGIYGSP1zDnu+98F58/d0GwuOCCC/SZN/7chfBERD5MsUTc/MtGyb/qnyBUhwtUHTLE/TuPyIvYRwYi8mGIEnbzMD4hezmwc2M9HN1/Ac66jVsEIWjqRQMtO3yHzlefRfItyoWSb2i++itCH+6IyIcZlsAro/3YN2exak4UDu+RhiiEhgsTvkPf+8vQok09pfUi9BGAPHgNI+wCf/Y7Cvyr9UTghZCi6pOqV6p+qXrmqXNC2CIiH2ao9qYaYPbHbJB7pfiE0KPqlapfqp6Jvoc/ohJhQrlF9R3Onv0OuzZJ0Qm1h6pfqp6p+ibWfHgjShFWXGA0trNnz+JogRSdUHuo+qXqmSnuMiUYzohShBOGRcVhNBufrKIRahNVv0yR5wfjPyFcEZEPIyjxhmVlDqMFoXZR9cyYquE/IXwRkQ8zjOGzWFbCuUAJvNS1sEdEPkywGpvMjgrnEqu+idiHLyLygiAIEYyIvCAIQgQjIi8ItUDstUCfEcCF+rMg1BXy7powwVqzXOYuQ2npGbw5sYm+UnO6/T/guiT9QeMuAU5sBza8A2w7qB1DQJ9JQJc4YOtDwGrtVhnx1wCN+ffABqDIdKoWI18BWuhzAzdQegLY/TGw6hPtFiJufQ7oxMAOLQfeW6gdA9ERuKwdUHwA2Ltbu9Uxd009iQYN6iMqOsp4f029emIThiNSaoKHUor5sf3mcYIi38IF3PgTWqX6el1x9V1AXx6d9OcawXRZaTymOi8m7jJa3INvNi+Hii1fUuDZSW5dqx0qow/T+GPgev4VhFAiIi94+OZTYP4f9PEYsOsYEH0xQEO6nLYU254URnV0025OlFWq77mY55VxIf3xd+/FdI/W542d91QxHAOmyZNGHu8uMwx6xNMPO7Ec2Vh++5tyUXHzhK3jEs/8UZyiwOdQ4A/YR0G2vOtkGzkZYTU0z6P49zJmuL1jVSMZIy4+8tuIg3Kn312GAKnXmu6CYCHTNWHCuZiuyX8XWLxSO5K+v6eAUOGyfw5k8vPFtHj73Qg0iDKvK0p3AyueB/bqz5fRGr2xB4XZdk9RDvDhK+ZUi3O65uI76ecttDYKgY95zfLHwjnFcuwLivNrlYfjC8MvhjOT4dhxuqdNAJITzXMD9gJ7/gX8e7n+TFEd+VN+x+p9eH3rZqare3keVkinj7w7tRX44CUKvnO67BTwBeOQw3Du4Agmrpl2J+7DwJfTeU13HkbceX6oFdCa8SnNA+b8xbxWU2S6JjKQUhM8RDeneGpLM5XC3onW4altQK662Am4/gaK1GmK/qsUxN8BG2mtNqAFmzrc+DpwM9Cb31Uqu5Hi8y6PXRSgWIrVzQPNW+zEUtwNgad1/eXLFQVe8fk/gUKKnhK+bJ5/rhQzQDi3WnEJktjbgKbqpNT4iPh7TYEv3UVxZuf17usMvxhIuJ3ir630H1B4lcAXfkJB5z2r2QN2vsq85o9UJfAlwDrer/Ium51j48uAa9kx7Po3sGqDeV8R/656k24878MOUAm8Cudd1Vnw71l2utc6p9AYr8Zf02/mTwb9EgQ7IvKChzgKrpoXVsfVLjpQOLd9ri1jqs78XwBv/YlW/ZfmtXW0nJU2NuugbqAIUngb8O/eeea1wzw+fpudBMUpe4d5j0UUw7pjCO8/QYF/sdwydbL3P+Z0iuIUz9VDSX/hqHi2ZrwDPkPgsGDk0/qgtT2ivzkdlE+/Fd1Uur+lJT2VVjjDOsz0r1Tp5U0dGWfcBLSj8LqZHx+8w+/xnq0U5W371bf9Y4w42EGe4KHyLlOJPTvSVZsYb1rf29gBKMr4d5t6wMw0JnAkcIo9rAqHBjy2qofg7AkrTKExvl9OY4fHNOyiX4JgR0Re8KCmGmbSYlSW5seLKEg0cZNp2fbpal5XywKvuwcYTaF/4C/Ag7Q0ldhaP4ts3ZL/0eI+QNH1sAVYS3Fyis9lFPjGFL5D6/wLvD/8hfOtsvip8AEf0FKsm9IaVkcLiqgS+F2MnzVN1UxNjTQBejF9Ko3qGMERjKJxG/5HgVVpPnHAcPKw6xt94octKv0MU02BPcD8G/b/2KHYp2iccDShVhQ15j1WPNSRpDvUWPuDYnYcW/WpIDgRkRcqQtHdtRT4SFm3VEHjoeT1tLzHUEAvobWZz+u0btfyHj3LUWXU3HJRGQX7xvJpkHPCIWA2BVYduWp+iB1NY2O+xsZJpo8WtufIogXNvNim5q2UJU7UA1I7jVVvEYAcCrSa+tlKP05waNKa4n0dR0Z91UPTAJxiHL3ist6My55KRg6CYCEiL/gnRv+tz0NbloUfA/MpWGreOPesdwU6qKxZ3hTPDsGD6hwmAL0dSxS3c7Swhla8m+LoetgwkIPGZzgUy5Yqguw87AZ+INZmGAMCxPUGuphO+PZb/kcBP/UR0/hPfWxguump2jAdm81podiO3nHuFK9PfMFOrNNNQAJPV/+V+fcb4C3VgbKDadPduKMi2824NWAGf2nFg8e2ryj0XzCNHLkIQjCIyAsemnQtn5P/AYX5h6mm+yElSNqCbemiKNOyv2wAMDLdnO6wWLfWFKaEoUAfXlf3DBtCEWUH4fUjJM3e1yhgefQjDuj3iHb0QZmalKfwtqN/Xa71EQ4F9I57zE7ImlsPis+BPPWEs5k5LaXIoZi7GZZrHJBKf5Xfg0exk/opD9WpUFx3qhHAhcCtU3jt58wH/o1vZHzdN0x/7xH0j3nRW/nJ/LtOzymVcGRhoPO3cQeGzXsu1tZ6NDuT2xiGynMX/UhnXG7liMrqlAShMkTkBQ/qx0/W6poEClM9Cs+2d4CPlWm8gJb7blqWFJ3eqiMYbD589JquoWhm0Not4ghArdnuy6N1E3YSahWKbWmmnZy3KMwn6C9Va7B6sOmDtStMUe9E/3pRACuEQ/GLo8gGCscf6z40LfMW11CEaXHnc4SSSYFVq1iupr/K7/hY0+9/M1xF5rO06nN5DzsD1YE1OAisyDav+UTFl98vZV4ooVadaCf6f4zhrOSIwYD5u5WibuQv7+nKDnf1TOY/3WJZLirPVQfRuJjlwDjKHLwQLLJOPkyozXXyVUH9cKcdzfJTFPj8AA9MQ/UqAjvx3YBv2eHY/auNcCwC+X0hxfgwOz2Lyx6ieDN+zt8aOKk0vnoayOvVBmq6R1n+x3BOV8/IOvnIQEQ+TDhfRF7Q76VpSsFdAmQtpWgPAG4YZCzsQfYvzB+ORQIi8pGBlJogVJEvVtEKLzOnj374CjCQf2P5Wf0qNlIEXogcxJIPE8SSP/8wpl7UyqMztTNdVNeIJR8ZSKkJQjXJp7Ab6+cjUOCFyEFEXhAEIYIRkRcEQYhgROQFQRAiGBH5MKVeJe9KEYSaIPUrchCRDxPU6gaFtRSqeZz1Al5BCD1W/bLqm1X/hPBDRD7MMBobj4uvOqNdBCH0GPWL9UzEPfwRkQ8j2OSMRlev3gW4It2NFh3EmhdCj6pXqn6peqbqm/onhC8i8uGEYVmx0OrV4wFcN+qUCL0QUlR9UvVK1S9VzwxD3vhPCFfkF69hgvq1q3WUlZ3FmTNn4HaXGX+3ftoQ+Zsb4tuDUThbJg1SqBr1or5Ds7ZliL+yBF1uLEH9+vURHR1l/I2KUkKvLXoR+7BERD6MUAJ/9qwS+rPG6w2UyLvLyij6PHiu3FVhqvsEIRjM6Rj1t57x+oKoqChEq0OdG68zUKNGEfhwRkQ+jLAseaXkZy2hp8CfPasOuvHc0HfdHkXsBX94RJtVRJ3Wo7CbUzSmyCuBr0eBV3VJrPjwRkQ+zHAKvbLs1cvLzEO5S3EKVYQCrqx181mPabmLwEcOIvJhiCX0pp6Xn1vu0iSFYFFVyBJypeWmoJefi8CHPyLyYYoS8/K/bIhK4I0mKwhVh3KuVJ1nNBK0sIvARwYi8mGOJfZO/LkLgoU/ERdxjyxE5AVBECKYevqvIAiCEIGIyAuCIEQwIvKCIAgRjIi8IAhCBCMiLwiCEMGIyAuCIEQwIvKCIAgRjIi8IAhCBCMiLwiCEIGoX72r/SYu+OCDJebbrbSjIAiCEH54XkdhvXuIRz3+u2D50pWi7YIgCBGC0nhD0vnX2MJxzZrP+fkCseIFQRDCHNOaN7XcsOSj6uH/A15O3y5GMZv8AAAAAElFTkSuQmCC;" parent="WIyWlLk6GJQsqaUBKTNV-1" vertex="1">
          <mxGeometry x="426.75" y="1008.22" width="290.5" height="141.78" as="geometry" />
        </mxCell>
        <mxCell id="23GlFV0wK0m30or0m1ka-54" value="" style="edgeStyle=orthogonalEdgeStyle;rounded=0;orthogonalLoop=1;jettySize=auto;html=1;" parent="WIyWlLk6GJQsqaUBKTNV-1" source="23GlFV0wK0m30or0m1ka-50" target="23GlFV0wK0m30or0m1ka-53" edge="1">
          <mxGeometry relative="1" as="geometry" />
        </mxCell>
        <mxCell id="23GlFV0wK0m30or0m1ka-50" value="&lt;h2&gt;Referral Points&lt;/h2&gt;After completing Step 1&lt;br&gt;The user and user profile created and added referredBy field in the user which is referrer email.&lt;div&gt;&lt;br&gt;&lt;/div&gt;&lt;div&gt;The user Network Level (NWL) will be = referrer NWL + 1&lt;/div&gt;&lt;div&gt;&lt;br&gt;&lt;/div&gt;&lt;div&gt;&lt;div style=&quot;text-align: left;&quot;&gt;&lt;span style=&quot;background-color: initial;&quot;&gt;1. The referrer will get 500 referral points&lt;/span&gt;&lt;/div&gt;&lt;div style=&quot;text-align: left;&quot;&gt;&lt;span style=&quot;background-color: initial;&quot;&gt;2. Referrer of that referrer will get 250 points ( 500/2 )&lt;/span&gt;&lt;/div&gt;&lt;/div&gt;&lt;div style=&quot;text-align: left;&quot;&gt;3. 125 (500/4)&lt;/div&gt;&lt;div style=&quot;text-align: left;&quot;&gt;4. 62.5 (500/8)&lt;/div&gt;" style="whiteSpace=wrap;html=1;rounded=1;" parent="WIyWlLk6GJQsqaUBKTNV-1" vertex="1">
          <mxGeometry x="78.75" y="1270" width="222.5" height="270" as="geometry" />
        </mxCell>
        <mxCell id="23GlFV0wK0m30or0m1ka-53" value="All steps in Signup &lt;b&gt;except Step 4: Referral Info Step&lt;/b&gt;" style="whiteSpace=wrap;html=1;rounded=1;" parent="WIyWlLk6GJQsqaUBKTNV-1" vertex="1">
          <mxGeometry x="130" y="1570" width="120" height="60" as="geometry" />
        </mxCell>
        <mxCell id="23GlFV0wK0m30or0m1ka-55" value="" style="shape=image;verticalLabelPosition=bottom;labelBackgroundColor=default;verticalAlign=top;aspect=fixed;imageAspect=0;image=data:image/png,iVBORw0KGgoAAAANSUhEUgAAAtcAAAB7CAYAAAC/z6zhAAAAAXNSR0IArs4c6QAAAARnQU1BAACxjwv8YQUAAAAJcEhZcwAADsMAAA7DAcdvqGQAAFxHSURBVHhe7Z0HYBRF+8Yf0kN6SAgh9NA7Ir1KUQQUO6KIgqLY/T7sn+WzoYgFRCmioIgCVlQQ6b333jsBEkJ6IBX+88zdhcux15IL6vd/f7jmbnZvZnZ2dueZd9+ZKZeQkHAJgiAIgiAIgiCUGi/zX0EQBEEQBEEQSomIa0EQBEEQBEHwECKuBUEQBEEQBMFDiLgWBEEQBEEQBA8h4loQBEEQBEEQPISIa0EQBEEQBEHwECKuBUEQBEEQBMFD2J3nOicnFxfOX9CfA8sHIiDAX38W/npOnjiFubMX4fjRE2jZujn63Hw9fH19zHv/maSlpmPBn0vRpHlD1G9QxxwqCIIgCILwz+IKy/XpU4l47cV3MfjeJ/DIkOF6G3zvkxg9aoIWQBYovt987QM8NexFpKakmUP/vjC/zGd+foE55J93DuTokeN445X3sWDeUuzbdwinEs7Ax8fbvPev5/ChYxg88EmM+2SyOeRKjMp9+dLV+GHmb/h++q96vzv8E6+jIAiCIAj/mxQT14mJSXj3jY9x4MBh1GtQGw8+fC8GDLwNlWKjsXrVBryj9mWkZ5qP/mcxf+5i3VHYvnWXOeSfyZpVG5GursE9992Omb98gUcevx/lypUz7/3n0rFzW9zU73rcdkcfeUsiCIIgCMI/lmLievGClTiTeBa33NYbr7/1PG7o3Q23KrEzavQbaN+hFY4dPfGPF6f/dCyW2arV4rSo9vb++1itS0NkhQjcN7g/GjdtYA4RBEEQBEH45+E9fPjw/5o/Y8XSNTh65ARuvrUXKsdVMocqBe7lpcVcoyb1UL1GVYSGhaCgoBCrVqzH+ezzaN+xNX7+YTY+en88Zv30B04cP4V69WsjIDDAHANw/vwF/cr/88++xjdffY/5c5fg7NlzqF23Jvz9TZbK3JxcjBszGXP/WKjTGfvxF5jw6VeoWauazk9h4UWsW70Rn3w0CVMmfYe5sxfi3LmUYnHYQkv7u2+Pxvq1W5CXl4ddO/ZgwdylqKLOp0JUhFvnQM4lp2Cayv+4T6Zgxre/YNOGrYiMDEel2BiHFuRvpszEd1N/RNXqcZjx3S8Y+9Hn2p2jXoM6uHTpEvbu3o/PxnyJLydOw68/z9UdGZ53cHCQ/v2CP5dgzKiJOHToqCr7gqLz8PH1Rnztmi7FQRzlY8e2PXjn9Q/h5e2FwweP4r23x2Drlp1o066lOsan6Nwnqmv43Tc/YemiVcjJyUPN+Op6P0lNTdcuHnFxsWjVpoUOs8W67lzXvSMCVRlb0racj3VdaNCoLn7+3v61MYqPHFLnwDcxS5esQi2Vx4iIcB0uCIIgCIJQVhSzXFesGKX/LlqwHFmZ2fqzhbiqsWjb/lr915q8vHxMmjAVy5asRlhoiA5buXyt9rm1+M5S4L6lhBMFn6+fD7pc10EJ20g9gG3k22ORmZmlj+PIyrT0DCScOI0JY6fgwN6DqFAhAt5K/FFQTvniO3zy8edIS03Twi08IkzH8frL7+Ns0jkdR0lw5RwIxdrLz7+NJUpUVqpcES1bNdM+z6Pe/RS/z/pTC1x7ZKryTFR5nKrE7arl6xESFgo/P3/9mzm/LcCbr32II4ePo9k1TZTwr4x1azbjlRdG4OD+I+YY7ONOHPbyQdj54JuL1Ss3aBHOzkJoaLDex2vyyovvqnNfqa8dryGv5Yxvf9bXitenNFjSvnAhR3+31IUzp5Lw+Tjn18YWnvN7b41GWlo6hjx0r+pkVDfvEQRBEARBKDuKiesu3Tpoi/HG9Vvx6IPDMeKNj7U1Oz0tw3zElaSkpKFSTEVMnPIhPpn4HkaNeQOxlWOwZ88BPfiOnDp1Bl5e5XD9jddpF5NhTzyAt957CW3atlSC9QgOHSguIOlTXKt2DXw5bSw+/XwkmrdojN0792OZEnaNmtTH6HEj8O/nH8UHKi36hJ9W8f/+q7G4pZX9v2+/gH639dLfH3n8AZ3PJs0uux+4cg4U4D99/zvOZ53H088+gndG/gfPvvi4ysOb6thKSlzPw4njCfpYe9CySqvqpK8+xrhJ76NXn2565g/mnekxLsbJuJlGjhKaP8z4Vafds9d1Om+0IhPLeTDc1TgsGOXDmlMJSki/+Rw+V/ufeXaY9oE+fvwkgoPK456Bt2PEqFf0NXzz3ZdQt148dm7fo8T3KfOvPYsr18aWxDNJGDd2MgoKC/Hok4P1mw1BEARBEISrQTFxHV2xAt4YQSF6o37lTpeAsaO/wDAltDmDCGcSsSUouDy639ClyC2A1u+Gjerq1/rZSogSTq1GsffQIwOLjqOvcHRMlHb1SDh5WodZYJwUjX5+vuYQaPeLwosX0e/W3ghSIo/QskoLalyVytijxHdWlskC7i6unMPZxGRtuW7crCFaXttMhxGW2fUqr+wQ7N970BxqjLe3F3r36YHgkMtuGvuUSExNSUfvvt11XBauadkUDRvXx9GjJ3TajnA3DqN8WNNC/a5uvVrmbybadWilhe1Nt/Yqcn+hQI+IDEP2+fPaHaQscOXaWENXo5HvjFXne1Z3QK6xulaCIAiCIAhlTTFxTcqXD8S9g+7QVktajTljSKXYitirhONrL717hbUwJDgIERFh5m8maFm0hT7XixeuwJgPJuLpx17GQ4Oe0W4ipLCwUP+1YBsnhVRCwmltmf5szBd46pEXi7ZXXngHiacTkZubi4L84vG4iivncPZsMjLSM7B75z4Mf+KVYnn4+Yff9TE8R0ewwxJRIcL8zQQFO6E/unWczz75KvYq0Ux3iVy1OcLdOIzyYU2VqrGG/uMcTDn71/n44L3PdPwP3ve0dj1hB4lbWeBq/SIZGVkYreoXLfmdurZDq9bGPt+CIAiCIAhlxRXi2gLFFa2EnDHkgzFv4dY7emvr7JKFK81HuA7F37+e+I8enLhr5149OLKXirfn9V3MRziGzh4XL17SeapTrxaaNGtYtDVt1gidu7bXFsr8Uvr9OsIiIMPDQ4ulz40ijucSHGLyT3YHiyitUbPaFfF27NQG7du30i41jvBEHM6giH7m8f/g26k/4Ojh44ivUxN33t1Pu+z8XWDnpiA/H2GhwdqdacP6LeY9giAIgiAIV4cicU0/3O+++VFv/GwN3Qjq1qutP1sGnLkKrc3z/liMzIwsPD38YUyc8pH2Cb5zQD/ExEabj3KMv7+fdj/w9vHRqxEOfWzQFdsDDw3QnYGygqK6fFB51KhVHUMeudcwD916dDIf7ToWK2znru0M4+RG0ewIT8ThCA4cnDd3sZ5F5PW3n9dvNOjP3bff9XpQ6d8FupA899KTePDRQfr79G9+QlKSY5caQRAEQRAET1Ikrr28vXHwwFH92n/L5h3FBgdyMNz6NZv0Z3cFLKdJ42wgfv7+qFSpYpG7AePctWOf/uwM/oZ+zrRKLl6wotjMFJwlZPwnk7F8yRqXZqxgfkpCJSVgq1aJxfZtu3D44DFzqKnzwGkFv/piOhJOnjGHug4HaNIVhzO0ZFt1avj5y8+n4Y/ZC4uFG+GJOByRn5+HzPRMPaDR+vpzoCtXZPy7QBeSqOhItGl7DW7vf7MeI/D5uK9Lde6CIAiCIAjuUCSuOSMEZ/Pw9vLCp6O/wMvPvY1J46bqKc+4rPSSxatQpWplPaOIO/j6+iA+voa2hn8xcRpWLlurt5HvjMGO7bvNRzmnWYvGWkSuWLYG778zVsfx55zFeOu1UViuwtLS0hwuqBIVXUFb4L+fPkufl72ZJuzBQZR9brkBBapT8L7K+08/zMaaVRt0+UxRwnr7tt3FBmC6Cudf7tCxNXbt3Ie3X/9Q+6Vz4+d5fyxBwvFT2nLvCE/E4Yjy5cujavUqSExMxqQJ3+jzZvwj3vhIzyzyd4OdsZ69uqJp84bYvnU3Zs+aZziTjCAIgiAIgqcp5nNNi98LrzytZ9+gn/SC+cuwVIlq+lpzhcb/vP6vYrNRuEpfJUq79+ykBO0JfPLxJHz2yZcICw3VbgWuQnH7zPBhepGQHdv36HgmT/oWGZnZuHfQneh9U88iq7gRFOftO7XW81LzvLZs2mHe4zosn+EvPo7A8oGY+e0v+HjUBD3ncp06NfHcS0+UqGw4C8b9Dw3Anf1v1nmjXzq3k8cT0Eed031D+hfNlGEPT8ThCHZaBg2+S/tXb928Q5/3pPHfoKn63rbdteaj/l6wvjz82P3aZWb2r/Owbu1m8x5BEARBEISyo1xCQoKhSY9+thfOX9CrM9KXtTTizIIlTopTWspLCt0/OA0bxXRQcJC2SLsKf5tzIVefkyMx7gxa4nNz80p9LtZwYGJ2Vra2spa0zD0RhyMs583Bm3wrIQiCIAiCIFzGrrgWBEEQBEEQBME9XDf5CoIgCIIgCILgEBHXgiAIgiAIguAhRFwLgiAIgiAIgocQcS0IgiAIgiAIHkLEtSAIgiAIgiB4CBHXgiAIgiAIguAhRFwLgiAIgiAIgocQcS0IgiAIgiAIHkLEtSAIgiAIgiB4CBHXgiAIgiAIguAhRFwLgiAIgiAIgocQcS0IgiAIgiAIHkLEtSAIgiAIgiB4CBHXgiAIgiAIguAhRFwLgiAIgiAIgocQcS0IgiAIgiAIHkLEtSAIgiAIgiB4CBHXgiAIgiAIguAhRFwLgiAIgiAIgocQcS0IgiAIgiAIHkLEtSAIgiAIgiB4CBHXgiAIgiAIguAhRFwLgiAIgiAIgocQcS0IgiAIgiAIHkLEtSAIgiAIgiB4CBHXgiAIgiAIguAhRFwLgiAIgiAIgocQcS0IgiAIgiAIHkLEtSAIgiAIgiB4CBHXgiAIguAGBWlZyFi8FWl/rEP+ybPmUEEQBBPlEhISLpk/C4LgIgUFBWorRECAvzlEsEdhYSFyc/MQGBiAcuXKmUOFq8X/Uvn/1edSmJmNjGXbkXMsETnbDusw74gQVBs5VH8WBEEgRZbrHdv2YMSbo3HsyHFzyGVSzqVi1HufYuH8Zbh06f+XFs/MzMTH74/H3j0HzCGCp2CZsmxZxn83Vixdg8mTvkV+Xr455DJs4L+fPgsTPv0KWaqx5T1xPvu84bF/BX+3Orvgz2UY/cFEnDmdpL/n5OTqTbg62Ja/M/5O9Yf3FO9D3o/E3XPxFJdURzp98Vakr9+L8t1bIPKhGxHYso7e5xUcoP8KgiBYKBLXDRvXRXzt6li4YHmxhu9i4UWsWrFOWwratW8llifh/z3e3t7o1bs7br2zD4KCy6MgvwAzvvsFa1dvNB8hWNOhcysMGHgrKsZE6e9zfl+gN+HqYFv+/2T+inMpSM3E2RlL4NusBrxaxuNMUqJ+cxVxf08ENK6BkDYNzEcKgiCYKBLXFAzX9eiIc+dSsWnDVnMocOTwcWzfuhs9enbWQoJYLHW0cNhaoOxZ8VyxVjmK1wIfatzPjZ+tYZr8/cWLl+OxPcYI63T5l9+dwfw5Op554f7sLFN+XMFybrSG0jpqi6Pysexjuvwt47CNh78xyi9/4yyflvO1Pc4oXXtxMYz7GI8r14U4OmcL9sranbzZKzN7hIQEIzoqUseVpeIsLChEbl6e0987Oh/r/LJ8jh09ob/bw1l9IZZjGA/jt8Wyn5v1NXGWF1fSthAYGIiKFaPVp3LmOPP0ZpumEfauLeE+xsdw/nUWH/cZ5ZffGW79W0fnx322+eExDLMcW5S3wotISkpG4hn7llZHdYI4208cHWMp/3LlLg+xsT6ef/ndVYrOX51bWmo6jh07WXTe3HfyxCl9zkb3GcP4W6bLMjLCcs2Zr4sXL5pDTXj6XJxxfutBpMxeg7A7OyGn3EWsO56F7QVx2Lz/uKrO5eBbKxYh7RqajxYEQTBxhc81X7+tXrUBg4cOQHBwML6Z8j2iY6LQ79ZeWoDzwf3bL3Oxc/se+Pj6aKtd46YNcPOtN2r/Uz4Yv/n6e9SpUwudurYzxwr89MNs/ff2O/vqv7Y4i5cPzPVrt2Den4vh4+Wtf1NwsVDH16hxff2deeerzIiIcOzes189/AvhpfJsfYwtGemZmDnjV5xQDUSw6jxQKDHvdw7op9PlA/uL8dNw4009UL9BnaJ87tqxD0Eh5fXDPD6+ZtHx1vlk48PGoUKFCNw14BbEVo4xp3ol+/cdwk/f/46cC6aGMSDQH7ffdRPq1ovX310t9woVInHiRAJSVaPHMOu02UmaO2ehurb3qAbKZPlhfmlFTElOxT2DboePj48Ot2B9vuWDAnHhwgVERVfAwEF3Ijwi7Ip02djm5eahYqXoomNIUTkrkebn7wdfX1+0vLapdkd66NGBSqyG6OOssfwmQcVbPqg8sjPP49rWzdD7pp66LlqXta/Kd25uLiJVPu6+91Z9fq7m7fSpRO3mwY6lr5+vqj9hqFo1Tn1PwX3336XDbGFdO3DgsLovbsTUyTP1bwnf8Dzw0D2Iq1JJf7fG1WtIAXFc1cfMjCwMfOBOXe+ssT5vP1WOrGfePt4YeP+dKt3YojrbpFkDbN60HXkqXtarevVrG9ZTo/vJUV4sdfWSEkr8jb+fH+68ux9qxVfX8djCe3Lu7wsxaEh//KrO//DBY+Y9MDw/4sp95O79npqSjsmTpqFz1/Zo1aaFOdR07836+Q88oPJXMaai03vRcj7W9Tbh5BnM/PZn9L/3Nn3tmbedO9R1VmVz7PBxtFB13ejZ56yOO6szxNkxtvl195lnC+Ob89t8db1rYN/egyr9HMSocruuZyedD3XxroiTWJ+rv7+/epbkoFuPTujUpe0V9/Mls6hu1Ki+epal6XywPXH3XEpD7sFTSFuzE+F3ddHfz507hy0ZISj0D0Fg2kF0ql0J2X9sQIX+1+n9giAIFryHDx/+X/NnTbQSJfv3HtJ+1hSOhw4ewa2390aQevCzkfvzj0XaMvHwY/ejV5/uaNaiMVav3KCP50OND8jt23bphrB6jarmWIE9u/frvw0b1dV/rXEUb7p6eNauU1P72P35x2L0uL6Lbsg7dW0Lr3Je+lV8kyYNtAA6fvQktqm023Vohf6qEeZDOyUlTZ3PQTRqUv8K4UgryqIFy3Hh/AU89MhAdOvZGS2uaYI1qzaqh7+fFip5eXnYvHE76tSrpUXl7p37sWXzdgx9dBCu79UVzVs00fsjIkL1/n3mhueW23orIdBPNeTtkHjmLNaofDZoWBf+Bg98irsZqmHu0KkNBg3uj67dOujwhQuW6XQDAwJdLndaGPv2u0Ffsw4dW+P06UQlqnfp8w8LC1UN/l7diFepWlmnkZaagUXzlqG9SttI/G9YtwUH9h/GAw/ejRt6d0Pb9q30tUxV5UqxwWvHdHmOdw+8DTf26YGmzRth6+aduHjpImrWqq6P+X3WPCVWcvDwo/ejpyq3OnVrYvHClbohvqZVU93Y2rJq5XqcO5uCR58YjOu6d1S/qYX16zbrvIeGhuiynj9vCfrffYsWEh07t9X1ZIu6Hjxfr3LlnOaNwuRH1ThXiIrEw8MG6XQiIyOwbMlq1VgHoZk6ng2/LaxrKSmpaN3mGrRue40W7/w88IG7VN6CzUddxp17J+VcGu5TovNm1aFlnbKF14wi5oYbr8Md/W9W9aa17jhQ4NWtG4/8/HxdJ3NUZ+OBBweg5w1dEV+nBlauWK87GjGqc+HsfuI5G+VFd0RmzMINva7Tv+vcpb3O92J1H9VX9ZudC1uSk1NwUNWhVm1boG27a5Galq7r2hNPP2h4fsSV+8jd+51ii/tPHEsw1Q8vL31dlqh6GBEehmtbtcCZM0mG9+L8P5cgvnZN/cbCcj7W9Zadj11KTFPU8vozbzvU967XdcA9992hxH49fZwtjup4cFCQS3XG2bPznFV+fX393H7m2cLz36ieCy1bNUf/e25Bm3Yt1TNhH7Zt2Yl7Bt6OG/v20OdBd8JKqq4xDnbWflD3GctmqLrPuqhyrVW7Bv6cswjhquxZJ08cP4VffzbV67vvvV1fz8TEs/r5Fa+OZXtiXfaunEtJuZidi9R56xHev6s5BPpaZ506qPalola4D7y3HEPINXXhHRZkPkIQBMHE5XdrZsqXD9QN7q6de/UAxk6q8YxUQpmkpWdgr2q4KCotYfzL7wzn/pJgL94HHx6ow+jnzcb4mWcfUQ/0ZqpRLKfD+MAtyCvQjYiFKlXjtNWK+9m4slHjq938/DzzEZdhPH1u7qktuaFhITosLDxUxRGrGysjaB319vbRvyW0fj765GAtLNhQb92yCw1Umo2bXs5D9+s7a2vS4SOXLXbWsFGmD2G79tfqeLlRMD32xBBER0e5Ve5169fWDRvTpgDprEQTxUyCOp/gkCDEx1fH/j0Hi16BnzieoK19NWpd7ghZQ+Hy5DNDVeNXUX+nQImvXUu/9qVF1EJz1ahZrOEUqlWrx2nrOWH+jh47oRtLSzkzPlquHcFGkxbZcuaypuB4/KkHdaNpKevmzRvrRpqwrDt0aoWMjMxir+Ed5Y3HsXw6dm6ny4vlRkFSz8BiVxrcuYbMr6W8jcgvyEeh6hywHhIK4Ztu6YV+t92oruXlW7qtqk8Ug6Ry5UqoFBuNdHWuxNX7yTYvrKtV1XVgJ4W/4W+vadkUPqpze+z4CfNRpcOd+8id+53HNFDX9UxikhKnKTqM58p7gFZ+lp3RvcjPDOM+d2DemiixzTjs4aiOu1Jn7B1j/ey0hnlx95lnBN8WNGxcR8fPNiNcfefbHtYzEhMTrcvsbNI5/f3UqTO6Y8MOhOVNULVqcbozsnvXPn3N9+89oOtoc9U5YD55PfmGgXEb4alzsSb3aCLOfb8Up96fjtBb2ptDTfA+a964ATo3rYXKFdQ9kZUDv2r271NBEP7/coW4JjVrVVMCo5YWdmx0LFw4nwPvcl4ICQ01h5jgd4Zzf0mwFy99vPmAtcBXgEsWrcSk8VP17CUTx32N86pxsvbt4wPXtkFxRGFhoX7V+OPM3/Qo9HffHG22bBr77dVvWFuL1DEffY6Jn32trTPMF2Fc58+f17641nkIDAhQDUQoMtOMZ8VIz8hSjUJYMfcDPsiZDuNxp9yvSFs1fL5KhGVmZ+vvTZo1QmLSWSUqk3WDxoatdl2TRc4Ili19KmlR+uSjSXjv7TFYOG+ptphZl7K3WRwYYS//dDdyxLWtmyM7Kxvvj/gEU76Yjk0btunrTSxlvXH9Vj2zwUcjx+nt6ynfa8HEV84WHOZNHcfyCbWyPrH8WI6exJ1r6Ci/JKpCJFooAfLj97/hw/fHabceCkRbH1cji7s1rtxPtnlhXT1w4AjGqHvFUuYTx32lxaq9+u0u7txH7t7vcUq80kq9b88h/Z0dAnYMKISJ0b3IzwzjPndwJW+O6rgrdcbeMbbPTmvcfea5CsvJunNnDe8zundM/uK7onrD+3a76kTxWjNPRmVvueb28OS55B5IwKkR3yJj4Wb41a2CctkX4LViO7wnzQaSTJ1SC5mz1yLyFtNbDUEQBFsMn4R8QPIB5+vnAx8nDfTVgq+jx42drF+30jVh8IMD8ODD9xq+hnYViss/lDD55cc5+tVlv9t6aWte85ZNzEdcCf38hgy9F08885C2ktGP+ZOPP9cP+L8z9EkmsbEVtcvOvr0HkKwE0emEM9q6Zk8ErFm1Ht9Mmakaam/07tsDjz89RLt1XA1oMWU58zVy1aqxWLl8LcZ+PEnXBQt168drdxXL1rtPD+0iUDnuSp/n/xV4f/a4oSuef+lJ/ZaJIpnTlf0xe4Gu065QmvspTpWtdZlz5pQ7+/dDvYaetfaXBXzzQv9d3q+0cO9Q929DlW92ZP8KXKnjnqQkzzxPwbp1XbeOxeoO37bQmu2sI2iEp8/Fv04cwvu2RVCgLyJOnYX3+F9RbtlWIDEF5S6aBmxeystHxs+rENm3Hcr5GndeBEEQjM0MdggJDVINu7f24bOG3xnO/RYKraxffAjS584e9uKlNS757DltJaWfHR+gAwbepq3p/MzFBPLySz63cPb5bBXvEe1PSt9K+uBysN35LPszNNBSQp9Euhl07NIWDz82SL9O37Vznx5MxFeY9Ge1FjkcZJOWko7oisb+pRXVuaSoc6f/rwV+Zt5Ybu6Ue4ISy9Zpp6Zk6DKi/zBhp6lh4/o4dOAI9u4+oEWFPRcEps0BS3SZ6HPz9drCzUGumZnuWfD42viS+nc2OdkcYuKUyqsj6LrCc+ErcorJocPu077WrAtsjENUXgJUg91QdXLoQ8utvhJKderF6+NcoXz58rp86FtsgWl6eh5dd66hM3g/0BJI33m+Quc9cfMtvXBg7yFdp12hpPcTB3v6+viiXoPaRWXeoFE97Ypkcb0pLSW9j1ylXoN4LawpsOm2ULf+5U6BvXuRYdxngT776r8iCgry9eBOd3FUx12pM/aOsX52WlOSZ54n4H0W4O+PatUrF9Ubbqw31WtUU+fgpetWsroe1m+deM05vsOIsjiXiJvbIyc2AuWs31JEheNSpUjkn0lF+ndLUOGm9vAJN37TJwiCQNwT1yHB2lK4eOEKbVnh62P+5XeGcz/FW+XKsdiwfrMeXEe/XM5YwAFf9rAX70/fz8bWLTv1MXxdyAFkHNBCOPJ/1fJ1V7wKdwcOiKG4PHb0pG7kKJy3bdml/YPtwYFun4/7WjVcpnwkJSbjzKkk3TDQ+tusWSM92wDPmfHxFe+iBcvgF+CHqtWq6N/YUq9hbe33S6sVBS03fv71lz+0kHWl3C0cPHAYWzbv0MfQorlg3hJUUuLZ4gtJOBCRg904KKlJ80Z2R9VbBOyJ4yeRqwQG4+Tgxt0795qPcA2+1qUAW7pwlfZxZoPPeDau32I+4kooOH75YQ6mTf1RT93F35w8eVr7SrMusDG+5tpm2LZ5p36VzrJmudHN4dOPJ+n64QqV42K0qwDHF7C8eI4sv337DpqPcA7LieIhSYkZ5sFaEFpw5xo6gwO/Rn8wQc8OwXh4bVjnWJdZp12hpPcTfaDps7x08Sp9riz3zRu3afeU48fs3+PWhIUGa8HEAdP8vS0lvY9cJSoqCrFxlbB+7Wb1OVLXAQv27kWGcR+JiqqAwosXsWLZGi0EObhwhSo7zp7iDs7quCt1xt4x1s9Oa0ryzPMELOPoStH4/df5uq7xXJnPcWOnqLq0Uh/DupWekYHVK9frvLFe85pnpBt35l05F4Zz8C83fnbKnrXYHwnsLne5aSysWxXpM5fiwuKtiBnaVxaNEQTBKVfMFmKBM0Lw4WY9WwIbvRo1qiItNQ2zfp6LxQtWYJNqWJs2a4jrb+iqB+aQmNhoPSJ/kRIsy1UDxJlG6MdNC5DRbCH24m3RsqmeqonpR0aGayEw+9d56oG7Qk9zxUFVSWfO6kExlhH6FAzWeeZvLKPLbWekoE9ihIqXgmz+3CVYroQzfZTDwkLUufjovNqOnI9VIjVBNYC/z/pT54P55OwFPa/votOMiAxTW4QewT9/7lLVAK9VjYAv7rq7nxKZpqnfbAkKCtKWKx77x+yFWsBnK+HBacc4it6VcmdDzdkdmJejh49rH8RVK9YjTKV5x1036Wn0LHDqNF4fTh/H8uX1MYKDrOgXTb/muSpfLKesrGzUrFlN54/lTJiuo9lhmP+q1eJwKuG0ngGC+U9UAq1th1Y4qYSi0bVh2vwNZ1zgNeeMDhxkywG2nKqMMz3YlrWl3G69o48esGcpE0d5Yzws25079+GP3xboc6RI4rR1HBjpbLYQ7qellfWIgpMinS4prCvWuHMNbfNrCwdv+fn5Y87s+Vg4T91jS9fo39+mrjNnhDGa7cE2bmf3E+uEUV5s6+rSRat0x7nvzTeAM8DwPG2xvQc54I6iee7sRbouGp2rK/eRu/e7BdYtitD1azehQ+c2up5ZsHcvchq9uCqmGXYCywfoN0HLl67W9XLPngNo36G16mgn6YGw9p5FtrhSx53VGXv1yvrZaV0mvK7uPvNsMSpj29mgbOsbz4VtwJHDx/Sz0/pcunU35ZNlz9mqWKcX/LkUK1esU53yukqIcxrGSB2P++eSr8U6Oy9NVFr2/NA1R1RnZPda1AzOwe4CLySd90Kc6gSc2X5UD3SMGtgDPpEh5oMFQRDsc8U8165CKwDnPOY8uI4GzhB7jYsRzuKlJYmvr9nAuROvI9jQWkbtuzo3KvORk5tjN58liZPWHP6GsJEwEir2yof54bzEnJ6L7iqMh6+LjdJmOhwEdyH7gp6/194gJAuu5MtVmE82eIyHA75cgZ0yzhJh75p7Kn9Mh3MllzQO5iNf5dPPakCWEa7cO67A+4sD2ijuXa1jtpTmfmJ5cfEcd66lNawHvirvjsq6JPeRK9Aq/sfvC3H/kLu1kLfFlTrl6vV2BWd13JU64069KqtydQVn+bTkjeVqPbjRHh47lzVzgKTLM9Fsr9gBETtPomDDPnhHh6HaOw+a9wiCIDimxOJa+HthLa6tF++xhQ0b/bJnfveLnkPYsjCGIPx/gB0SvpGbOf1X7bvd56aepeosCv9DUFxT7CcdB5p2AarWZQ8KKT8uh29MOEI6NzMfKAiC4BgR1/8juCKuLcfQbYTzx1pWgROE/y9w5cR5c5egUuWKxVbpFARBEARPIeL6/xkU2PT1LI07giD8U6Hlmq4cV9sVQhAEQfj/g1uzhQj/fOjDKMJa+P8K39SIsBYEQRDKEhHXgiAIgiAIguAhRFwLgiAIgiAIgocQcS0IgiAIgiAIHkLEtSAIgiAIgiB4CBHXgiAIgiAIguAhRFwLgiAIgiAIgocQcS0IgiAIgiAIHkLEtSAIgiAIgiB4CBHXgiAIgiAIguAhDJc/P5ecgoz0TOTm5uLSJVkdXRAEQRDKknLlysHf3x+hYSGoEBVpDr36ZGZm4uzZs0hPT0dOTo4OCwgIQFhYGKKjoxESEqLDrhbJaedx9GQqEpMzkX0hX4cFBfoiJioENapEICq8vA67WiQVpONgzmmcyk9B1sULOizYKxCVfSNROyAWFX3CdNjVIjmnEIczCpB0oQBZBRd1WLCPFyoG+qBWqA+iArx12NXi9OnT2LVrF44fP46MjAwdFhoaimrVqqFRo0aIjY3VYVeL05k52HU2E8fTLyAjp0CHhQb4oFpYIBpFhyA2JECHeZpi4jovLx8JJ07Bz98P4RFhCAwMgJeXGLcFQRAEoSy5ePEiLlzIQVpqOvJy8xBXtTL8/HzNe8sWCuqdO3fiwIEDWlg7ggK7Tp06aNy4cZkJ7XNKUC9cfRCrtx7HsYQ0c6gx1ePC0b55NfRoXxsVykhoU1DPSduApVk7cCjnjDnUmPiASuga3AR9wluVmdCmoF5w8jxWn7mAI5kmwWiPmiE+aF8pED2rlC8zoU1BPWPGDMyZMwd79uwxhxrToEED9OnTB3fffXeZCe3TmbmYsfMk5hxIwh4lrB3RQAnsPnUq4u7GVZTQ9jeHlp5i4vrIoWMIDQ9FhQoR5hBBEARBEK4m586lIiMtAzXjq5tDyob8/HysWrUKmzZtMoe4R8uWLdGhQwf4+nqmE5CTW4DvZm/Db4sdCzR73NytAe7p2wwB/j7mkNJx4WIevkiej5kpK8wh7tE/shMeiroegV5+5pDSkVNwCdMOZmLWkSxziHvcUjMYA2uHIMCnnDmkdGRnZ2PUqFGYNGmSOcQ9hg4diueeew5BQUHmkNKRnV+AUasOYdKmY+YQ9xjasjqe6xCPIN/S158icU1XkJycXMRVubome0EQBEEQipNw8jQCAvzLzEXk0KFDWLRokbZalwZar7t37474+HhzSMnYsOMkJs5ch+RUk6tFSYmKCMQj/dugVZMq5pCSsSpzDz5K+gWJ+enmkJIR4xuGf1e8FR1CGphDSsb6pByM35WOszmF5pCSER3gjUcbhaF1xdK5QyxYsAAvv/wyTp06ZQ4pGZUrV8aIESPQs2dPc0jJWHAoCS8v2otTmSZXppJSOSQAI7rXR8/4iuaQkuE9fPjw//JD4ukkVIiOvGqvoQRBEARBMMbb2xsp51IRERluDvEcW7Zswdy5c5GXl2cOKTmMY+/evQgMDCzxa/45S/di9NTVOG/2iS0NjGPFxqMICfJD3RpR5lD3+DF1Nd4+PRPZF3PNIcUJ8PJD08DquDaoNtoE1UOcXwUV5ouUwkxcRPFxaoxjYeZWhHoHoWFgVXOoe8w+lo0Pt6fhfEHpx8AxjmWnLyDUzwt1w0tmUZ88eTKefvrpUnfMCOOYNWsWIiIi0KJFC3Ooe0zechxPz92JzLzS1x/GMWvvGUQE+qJFbMndei6L6zNJqBRbUQ+qEARBEAThr8PHxxtJiWcRFV3BHOIZKKwXL15s/uY5jhw5UiKBTWE96YeN5m+eY/PuUyUS2BTWoxN/NX8rTuPAanil8l14NuY27VPdMbihFtidQxqhb3hrDIjsqgc17stNQGZhcQv82ux9JRLYFNYTdpfOem7ExrO5JRLYFNavvvqq+ZvnWLJkSYkENoX1q4v3mr95jiVHkkslsIvE9dmkZFSMidaBgiAIgiD8ddDQxXY5umLJrK9G0BWEFuuyggI7JiYGkZGuubLQFYQW67KCAju+WiTiYkLNIY6hKwgt1rZ4q2vxfOxtGB5zK2J9I7WF+o/0jfg9fQN+SV2DHTlHVVgWqvhVQP2AKrgtvL26gMDW80fMMZigwK7nXwXV/F3TWnQFocW6rKDArh3mi7gg13yM6QpCi3VZQYHdtGlTl12M6ApCi3VZQYHdNCYE8ZHu+4QX+Vzv2bUPDRrV04GCIAiCIPy1eLJd5uDFKVOmeORVviPogz148GCngxw5ePGJt34ttY+1M+iD/emr/ZwOcuTgxYFHPrjCx5ouIB9XfQhNAqvjeN5ZTDo7D0syd5j3FocivHfYtXgo6gZU8AnBisxdeOXUNyi0mtKYPtjTaj7rdJAjBy8+uiKp1D7WFuqG+yKv8BKO2swuQh/s8Z0qOh3kyMGLXbt2LbWPtTPog7106VKngxw5eLHrlNWl9rF2Bn2wlw5u7/YgxyLLdfLZcx7tIQuCIAiCUHI82S6vWLECR48eNX8rO+iDXVBQgBo1aphDjJn66xZs2XPa/M11mtarhA7XVEez+rGIjgzC0YRU8x5j6IOdl1+IFg0rm0OMmXB2LtZl7zd/M8GJiN+Ou0+7flBQP3vySxzMtZ9nSuj9OacwN30jGgRWRdvgeohWYnpl1m7TAQr6YOddKkCboLrmEGO+2p+JzcnGPt+uQrePXtWC8FrLCPSrEYze6vO2c7nFBDt9sPNUxq+JcjwNHQcdLlu2zPyt7GDnj/OrU8g7YsSKA1h29Jz5W9lBH+ycgovo6qZ7kUxiLQiCIAj/w1CwlHS6vZLAtBxZyDmPtbvT7Xl7l8PLj3TBm0/1wKBbWuDuPk3Rra1r7gNMi2nag/NYG0231ye8NToEN8CG7AN4PWEaci6aFrFxRnrheTx3cjL25pxE37BWOg5rmBbTtAfnsS7pdHu+XuXQJTYQI1pH4bvulTC0fihyCi9h/gnT+dc38LFmWkzTHpzH2mi6PR8fH4wbNw4//vhjsa1ePeO3LVw35d1339XH/Oc//zGHXgnTYpr24DzWzqbbe659bSQMvx4je5RulhbCtJimO4i4FgRBEIT/YbhAzNXGUZpcIMZd+napj9ZNSzbbBnGUJheIscWvnLeeo5ruIm+cng6ufVjVPwpz6ryG6fHP0aXaIbkXC/TvLql/j0T3ModexihNC1wgxh2Yl8rlffQ81l93i8FzzSPQMMIXixPOY8SWFDyy/Ky2WJOUXGMR7ShNLhBjBN9QfP3112jbti2aNWuGNWvW6NUYOejRyK3jnXfewaBBg7Trx/jx482hxthLk3CBGGc81LKa/juwWVX4epde6rqSpjUirgVBEAThfxiuvGiP9u3bY/jw4SXa+Ft7OEqTKy+6S/34y6/lXxj1J255fBpeHbPAHOIcR2ly5UVbWgfV037TP6WuRFpBtg57MKonwryDUNU3Ch1DGuowR5zITcbCjG2o5V9JzyJijVGaFrjyoiuE+Xuhf3wIvukeg8+7VMRD9UORnX8R43alY8CiM/j5SBbWJeag4OIlNIgwWayPZBpb3x2lyZUX7bFu3TptjS5fvjxyc3O1eOaAVlvx/Mwzz+h9XFb/nnvuQUpKinmPMY7S5MqLzpiy5YT+O3XrCeQXmpaFLw2upGnN/5S4LiwsxK6de9VFKz669sC+w0g44b5vl/DXk5WZje1bd+ul+T1NWcZdUq5WXc3PL8D5bPesI/8EuBDWtq27/nbX9e8IrU4cMLdpwzacP1+2g8qEvw66Zzhb0txCVlaWtj462niMKzBNI9eQ5LTzTpc0NyI0KND8CTh22v3fM02mbQvdM4yWNG8fXF///SPjsjtNlPflWUe6hDQxf3LMgowt+m9bGx9rpmnkGkL3DGdLmjer4I/hzSLwddcY3Fc3BKG+3npmkZFbU/HI8iSsVYL66SbhaouAn7fJxl47zA+5hZdwPMs4bqZp5BpC9wxnS5p/9tln2h/7hRdeQFxcHB577DG9sNBTTz2l9w8YMECvxMhnzsCBA13y/WeaRq4hpzNznC5pTt5beQBxH87HS4tKttqnLUyTabtKqcU1G7M3X/sAv/1if3qfS5cumZ3UL/usGIWVluTkc/hq0nSkpV6usNlZ5/H15Bk4czrRpbyWBalK7D817EXdiBH+5XeGlyUUUBnpmarT4bjXlpSUjPdHjMWA2x/GXbc8iGeffh27d+4z7zXB67Vm1QYMGzJcH/PAvU9i9q/z9c1iDct+9KgJOq4Btw/Fay++i9OnEs17TfA6fP3lDNx31zC76VnYunkHZv38By5eLH3P0xZPx21Up22vvSOs62pZwms25sOJeOm5t5GelmEOtY+n71Vea15zXnvWk4mffeWRuM8mncPL6pw++fBzfV1zc90bRX7owBE89ciLGDzwSRw+5Pryuby/Fs1fXnRvsF6zfpfmnFjmjIPxuVJ33CVbdazee3uM2j7B99NnFXtmCv9buCqsKWaCg4MRHR2NjRs3YvXq1cU2hlWsWFEf40xsWTBK++hJxwMQ7eLMD8MFjNI+mGNszKjqF61dO47nJptDoGcLsTA7bb35k2N2XTBZzKv7x+i/1hilfTjDWPyG+HnhxmpBmNSlIt5pXQHXVQ7EeSWWfzycicFLE/HmphQ9AHJQvVBM7loRPl7l8NK6ZFwouKQ/1w71UXHn46KDdWiM0t61a5f5k2OGDRuGhIQEfPnll/o3EydO1GKbqzhyiXTCafw2b96sP7uCUdq7XBDWZGTPhvjxrlb4/KZm+vvN9Svp79waVQzBT/1baZ/sE//uiY9uaARvVUbOcDVtclUs17m5efh41ETMn3t54nqjsNJy8tgp+Af4I8Zqvu7ExLPIVY1cleqORwr/L7J96y688sI7SmDbF1AU36NGfKob8/c+eAWfff4+GjSqg08+noQTxxPMRwGbVQP/+fip6NWnOyZ8+QEGPzQAv/w4B0sWXh4EQjEx7pPJuszfef8/+GD0mwgJC8FH74/X6RC+XZj29Q/YtH4rhr/0hN30CPO0fdtu1KlbSy8D7EnKIu7S1umrVVc5COW+B+7EY089iFB1fZzhyXuVi2KMHzsZ9erX1tf+zREvYveu/Zj57S/6mpSG48dOoiA/H6PGvIHX3nxWTwnmCuxssMP99hsfIaqi+wt2LF6wDN998xPuvLufvjdYr1m/S3NO+/YcwNIlq+DtAV9BIxLPnEXS6bN4/e3nMfKj11E5rpJ5j+e4pPqsx3YAy781badU/5lhtmSmqI7ufGDBJPXMWgRcsGm/kk8Ae1df3vavVc8t8xtaxndctb+HNqnraLPY4Hn12OOxKQYzhzEvzNtFA/dTpr9/ncqXeSICHst4GJ813M/jeDzTZh6YV2uSjqpruQZIu9IwetXga3hX+OOPP/Q8w7Vq1dKv7ymyLfAzw2rWrKmP4bGuYJR2YrLrAoXM+myg3hrVvrwc9YyP7tZhzwyy75ZihFHap/KN3RPo/pF9sfgbnRmpy1FwqVBvjgYkWpNReB6FqqJaW70tGKWddKG4wG0Q7ou3lZj+tlslPN4oTPcxfjmShf+sP4dBixPx1b5MpOUWol/NYHyhhPcd6u+c49l4R4ltDmQktZSwpsDem+Z4RU7btMnx46658GRkZOgpGLkQzBdffKFdRbZu3YrHH39cz9k+cuRIvRKjOxilfTzdtbdsTWNC0a5qBFrGmlY4rRzsr79zm3JLC7StEqHDvVTe+jeOw1NtaunvjnA1beLRJzcbKVrCrK2l/EtxV5CXjwvnc/R+vq61DeNvTcdmaosrN1r9XLG8WqBYiq9dA0HB5c0hqid28IhuMB1Nam9Jl+nZszY5O4aNKK173M+/rjaqfDXvKF2GOyoH63StX/Pzd1lZ2biouqksa3suAMeVoA3w98OQofeies1qiFZlddeAfggJDtINPOH1mv/nUnTq0hb9brsRkRUi0OW69upzLyW4lur0yV51PON79MnBqBVfHXFVY1W896CgsADr15perSWcPI2NSngMGTYQzVs01undO+hO3bgvnFd8mh++fqTgbtyk+GhfS92w1BtreN7MD8vKUi483hZ7cVuuh215W8rZ9jrxeG6m+nFlnbbGkm/GY1Q/rOuqdXr8HcuW3y04qxem/Fw+f+aFv7ccGxYepsr8cmNFLPevdZk5Oy/LOTm+FoXa1eWYEr+JZ5JV/YnEHf1v0te+Tr1a6N6zE/bvP6TK8UJRvhkvrat0W7CUub26bvkN63u4Oq/8vDx9nFEZG5GZkYWtm3fiuRefQJ+brzeHFsfeeeapjsfevQf1vdD9+s763mC9vll937l9zxWv0J1dN8LznvndLHTs3AZRUcbPLcs5My5L+dhilGdLGWZkZGpDBK013J+mNk+Smw389hEwbwJwdJtpm/2JKYz7LFB4znxDdd7nAmcOAhtnA9++Ygq3QNFKcb5etcsbfgVW/6BEjvrNht+50Ioqi3xgydfFf0PRvHKmim8O4GswnfCOJaZ9toKcpCUCK6ar/BwyfeexjH+NStdajHM/j+PxF9Rl5n7m1cKp/cCcseoZuxMI+QtnueW0Zq5Cq+IPP/yg56imX2z9+vX1xs8M4z53LI9GaWdf8Jy71plk92bUMEo7y0ZAW1CKRAtszl1tgVbs6SnL4FPOG29VHohg7wDzHvv4lfNRcXjhgsFS6kZpZxVcfi5E+qt0WkeheQV/bD6bixfXJeOhZUn4cm+GHqBIX+qmFfzwWaeKelaQEF8vTNydjkl7Mootwl4vzHQTOBPX1mlboGh2Fb7R4OqNLVu21D75Q4cO1c+b/fv345NP1APATYzSznBziXyry1dETHk/fLfjJNZavcnoU6d4e2iEO2m7Nyu2AxJPn8VLz76Ns2fPIVfdUFWqxuH5l5/US7i+/fqHOHPmrG6E/py7GE8PfxiTJ35bLOzVN55VPZ4wvP7ye2jXsTWWLl6J3Nx8HVfderX1b9hwUeh9Pdm0gtL9Q/rDz880Uf2FCzlaLPW5qaf+TtiQ7FGipEHDOurB4KMbeVtSzqVizIefY/++g9qiV1BQiL79rkf/e27R31055vL+QwgLC1G99Uw0a94IT/57KIKCLgt9a5i332fNw6IFy7VbAuO8d9AdqnHvqSpDOb1//twl2iJWqBrGQnUTVYqNVuXwCGooEUws6VKUBYeqdNPS0a1nZzzw4N3ayjjt6x/1cc/96w107dZBi95ffvwDB1Q+H3t6CEJCgpW4rI/GI1/Wx1nIzy9UZZ+LgADTg+NsYjJOnDilzvkGnTcLjZs2xAIlupOUYKKVcMvG7ahZqxpiK1+2gvGa1alTS1+H7td3wX51vSnc42tXNx8BbTlu3qIRNm/arq9jYKApXcbLcqBIt0BXjs9Gf6FfbVEwBAT648lnhqq8mEQyz3vD2i2IrhStrYcX1TX38vbWVto27a7RxxDbuClovpwwDWvXbERIaDDOZ51HJXUerMMUgRbrLfN586036t+Qr740jWgeMPC2K+q5pU4T1o1J46ciR8VDYXhNy6bF6odtXaVgYnrB7OTsPaBEUjpe+M9TuObapkX1gnU/R5VXTGwM/vXssKJzsa6v/uoa+vv74rY7+mLJopU6jojIcF1OW7fs0ufH8rcuV1pLeb4ss7pK/BqdFztPrlyL1Ss3qPT9sWf3fl0HH3tqCJo0u9yh4XlnZmbra85nBYU8nwH1G9bFujWb1LXz0unFqOtpuT4sEwrpjp3bYsjD9yrRf0H/hnkkTw57SefBcm7O4PV+XpULjzVywbCcZ7bZLzmofCAef+YhNL+mCfxUx5TnbAt9mP0C/OClGmFifT/bu26Exy2avwwFShj3vKErtinRb4v1fR+gyi1L1dU77r4Z/W7tVfTMspdnlivrFYU/4bOhYsUoVU/D8dbIl3RYqVH1YfVPQHoS0PcpoLJ5Vq6Te03W6U1K1La/Sz1XjgFrfwZqqduy8wDVGKn2n2J3sRKyDI+sDESbHxPlQ4B+z6trpfoatFZTOO9dCdRpDVRvAtRsZrJ+V1VVK1S1kbRKn1BF1/5Ozwhbb5W3o9tN8dZsbg50AM+dgjxSXdrO96jfe6ylLXtOnjyJb775Brfccgv69OmjwxITE7XV0VV/a0+yyzyQrFrlcL2cOdlzKEm1m+q5euyyy4anScxLQ13/yqjsG4kTeZfnU+YiMnQZ6RrSBF/WeAovJUzF4ZwzuCm8NToHN8KYpN9w0ur4yn6mDnJigftuoNpd2qySKwd547rK5RHo46WEdg5C/bzxUINQPe0e4WEfb0/TM4TYUs88/d7u1LIfhzJ16lR07NgRTz75pPbRf/TRRzFt2jTtdz19uuqN/g14b9VBjN9wVFutNz/SBdGqXsWFXvbp9wQes1zv3LkXzyjh99W3Y/Hxp+8oEZyHZYtX6Yb8/dFv6MZu4P13YMq0sUqgNLkijI21BVo5X371GR3XpxNHwsurnBaKFMdcZer4keN642cLKcmpukGzfqXOBwFFf936tc0hxaGAmfDpV/Dx9cakr0bjm5nj8d93XtD5/nOO6RW4o2PoEkELEv07vZUw+HTie5gw+UOMGT8Cp08nYs1K+z5ZyckpKK8avC+/GYOvvvtMN47z/likl7sldMOY8d0vGPbEA/jm+wn4evpnqN+gDj4d/aVuXMniBSu0VfizL0ZhvNreHPESDigBdOzoSS0AKaQqKVEyUeWJooYi/qQSySdPJGhBYo3FEnZMlStFYJAS3k1VB4HQ+kALl/UbAULhSLFNqxdFQVZ2thbsFIcWuL+KEg8UhxRsFFJ0FfG1MSfFVamsryFFh4Ujh48pUVVRd1jIUZW3ieOm4p4H7sIXU0djsqo3N/bpgc8/+1q7G1jgcU2aNVTl+im+VMe0bdcSs2f9qQW0Bdu4ly1ZrTtn7374miqvjzBhykdKxJXH7F/n6f3OMKrn1nWanYr3VNys02+++yIO7j+MbVsuCyd7dfXY0RN4+fV/4/tZX6Jlq2a6Xsz6eS6effEJTPp6tD6/OnVrqjo6RZ+fye3mR92p4L3D9F574znMU8LO2tprDX/308zf0e36zvj8q48xUZ37HXfdpDu4tG4anZer1yJB1bcu3dpj+k+TdB20hnWOgp+is137VjotC7wPPhr7lk6veo0qmD7tZ6SmpmHcpFE6jx9/+jYOHjiirus8XfafTHhP13fmc+qMcdothGKZnXEKzbWrN16xcfAooSC1J8J5nnR16qM6lt/MnKA3fp6gztPWjYnPCt6b9L/+/Zc/0a17p6J7xtl1s8DrvfDPZbhXlTXvJVssz6PomAqYNHWMjovPo3lzFqnnpsmi6CjPLFeWDesiryOfDZ9+PtJzwlqRprTQyV2q8931srAmVeoDLXur8lZFTRF9YB3gq/rRrfuZhDXhXwpihh82jQO7gnKq1aoUz7cGJpcML9V/admXHRMl3P8EclVxblZ/o2uYxLcniKikhHtDJfp/UfeLE41EYT17jOoQhAK9HgX83V852aNYjCTuwOcRhdDu3bv1xs8lEdZGaQcFOl650Zb/jJ6vt31HLj9X3vhssQ7bvMu91QKN0g72MhZVB3JNcbc1D2y0QNvu66e+xZ8ZmxHnWwFfVn8SH1YdgmdjbkU7deyMWs/jmRhVqc10UoKbbLFZCp0YpR2sxLMFLvYydHkSPt+TgZTci7i+anm83jIS3/aohM87VywS1jRwcDCjkbAmDSJ8ceZ8AVLtTMNnwTptC5xaz10sM31MmDBBzxrDAY+chq9x48Y63FWM0g4NKH1PdVuiySJ+UT00LK4eIX7O43UnbY+Ja1qlLBaYSrEVQZ9KDpQrCdd176hdFEiFqEj0u723fi1+5lSStvS9NfJlvVlbhSmW2Mhau38knDQ5usVVMfYnZCNENwa6JQSHmJ6A9erHa6v0mtUb9AAze8fQT/G6Hp20lY8uFWywmFcSHV0BtVXDeeig/RGxfN3brWcn3bAzjhbXNEE59Y9WKAqk5cvWolXrFmjb/lotUGntunPALapByS0a/JeZmaWFrBdbGwXTHPnxf7VrjBHe3t546t9DMVaJropWfumEFkP6Z9OSdfTICS2kaNEjFM/Mg8UKawSFMwU0hbQjOLiR5+7Mosgy2LF9L5o0ra/zTdas2ojadWqgU+c2Oj8sN9YVPxXX/r3md7iKeFUOFNSWcmutPqer8+MrfGIUd+++PbSvbvXqVfR31i12LhISTms/6NLSSwnPcHP58c1DtZpV9eprFuzVVd5XljxZ6gXdBRqrvBOe340q72lp6VrscVAv75Vb1D1jqY+8L6/vdZ3+bMTFi4VatPn5m64Jy+2mW3tpscoOoBHuXIt2HVrp/dbQ0j154jRMn/qjrpO8F6xheVnyz3PatWMPbu9/c1EZsmPEc9qyZYe+T+3Bzho7v9+pDofttlbd487geVapFqfHGvAcuPH5MFKJ0ypVL3fkCS31wx58VnU6vkYbdc7tOrbS4a5cN8KOwPfTf0XL1s1RT3WkjeDzKPFMkur83Fx0D/HtQtsO12Ldms06LXfyXBbQF5lWxVgDm0bT7iYxTUGcqqp8hHpcBNs8VmilDlOPJ0d+ypmqaaE12Nf8GAmPMYn5Y9uBdUoAZyod1vrmy6K91JQDmt+grmW+EklKuBd7524Fhf3iKWq30jDX3f/XC2sSFmb/ue0I1qW5c+fqjZ9LglHaMVEmg8ZfgVHatEwbsSzLZPy4I6LDFWMpuZz526dm4s3TM5BSmIU2QfW064eFxHyTAYxzZd8W0V6vyLjBZvVHYpR2xcDiAo6C+LejWdolhD7WdPnIzLuIQKvlykdtS8XK01e6mBC6lsSoOA+kO7da26ZNqlUzaTFXueaaa/DRRx9pgxv1DQc4fvzxx9i2bZv2xXZHrBulXS3MNQsz2yX9V/+/OOyIW8gzu+eZD3eIq2kTj4lr28azNNCKaU1oaIi2umba6TnzItLfupoSIdZWU1oL2UBz/kUj2Cj7qeNtRSPTz0zP1NZ3e8dQyFtewVIo8HXy2NGT8PRjL+OhQc9gxdK16oFkumhG8MJbLr4t9JWkcKZQtT6GQieqYhRSUkw3Li2N9Jd89MHheOv1D7B44Qr9u5Jgsf599+NE3DPwNnw0cjwWzluq99H6VqAt2/Z9r1jutLTZzgxiC9Nh/p0JVrrWnDp5WosEC/Qf5RRr/378FT2rAzd2CBJPJxaVCfFSLbe9siVGcfNa0e1h0vhvMPyp1/DwA//S1lL6rNtpR92CLg+OsFdXre8rS73gG4unh71UVAac8SE5OVXX1eysC/Dx8kJEBdNgDQt0bbEHXXpu6H0dfvt5LoYN+TfGfzJZT2dn8dM1orTXglb6LVt24vF/DUXLVs2vOMa6vHhOmelZ+PTjSUVpcfv5h9+L7lN7cMDmf99+AZ9MfO+K7b7B/c1H2YfnadsZ5H0fFh56RZ75tohvGPgGi797/eWR+m2QK9eNrFu9Ubtg3XRLcfcra3hsUtI5cNYjSzyMc9Xy9ToNi5+1q3kuC3LUI6iA7biDJoGW6xx12qqqXtH6UXhrFxEVh2UAZK7SDStnmNxK5nwCbJ5ncgGh64iFhqp/FlYR2LMSqN8RqOR8fJJbUMC3UAKbgxjpT23EvtUmyzXPjW4kfwesByY6gnNWu7O5glHaNcwDyf4KjNK2nX/awqGc01iXvU9bp1sFGXd256dvwV2H3sO/TkzCtHOLsSn7oBbcM1OW6/0DIrsgyicU36es0IvR2GKUNgcf2oNC+1cltKcfLN7OD6gdgspBxr+j1Zrsd0FcG6XdqJHJ8u4K1atXx7fffqvfWHDqPc4gQms1V2N8+OGH9UwztGa7+hwySrtR9F/XOXMnbc8p4jLGVzW2vmYxawtfV9H6Yz04jY3Mnt0HilknywL26Ol3O2HsZFSOi8XDjw3C6HFv6wF/ZQ0tmqNGv4H/jngRtevUwu+z/sSzT7+mXTtKChvhTl3boccNXbBu7WYtgkPUDUEyMqxGIik4AI1QfLOMw1XjTSs3y96ac0pAWNxFoqMjkZ6agbz84g+aVCXI6C7i52cyNXEAnI863taSy1fZ99x/R9F27/13al/Slte64AhpxijuubMXYuRbY7SoGzSkv34zQT/qq4G7dbV5y8bFymDQ4Lv0mISaVm4o7tLjhq4Y98UoDHtisP7+8agJ+PC9cdqibY/SXIuCi4WoGFNBd7ZcwcfPF71v6lEsPfpbcwsKtm8etLg7UXDabvbcZEoL3woNGnKXdvc4fOjy2ytH1+1ccgp+/mkO4uvU1P75dFvZvNE0BoFvIjh/v8V6SHel2+/sWyyuoY/eh9vv6lvMuPBXERzJTqESxA76+X6B6jh16Tm40XZQYZ56rGSlmVxDrIyBRQSox1HX+4BuqqpSiFtgnBTYdDuhH7ahyaqU1GsHRFVTHaFf1X1rME6wfBhwy/NK3KvH/xbVAbAMivwrYefZFYHdrl07tzZnME2jGXuiwsujepxr970nYZpM25aKPmGIDzB+u322wGRQonXaHrRib1CiesLZeXhaiWwKbvYJO4U0wtDoG/SsIt+cW2I62AqmybRtiQrwRs0Qx/fxprOXKx+n16sW7IOxHaLR2ewmYk0ds7/1fieDGZkm07YlNjYWDRpc1lb24PXmgFdapjl4ka5EixYt0ovJDB48GK1bt9YCu3Pnztof2xlMk2nbEhsSgAZ/gcBmmkzbVf6W4pqNizWc95cD+oJDjRtRvlLnACDrgUFc/Sc56Rxq1a5pDrkSNuy0yHIQpjVHDh3TFuLA8oGGx9BSvnPHXt0gsuHevmUnHnr0ft3gNWpcH/7+ATq8pPj7+2nL09EjJ4saVELLcXJiMuKUiCcUZRwISTcQCkH68nImBlodXWXBn0v0HNfWfp+2VFCCmK4+u1UDz3O3sGP7Hu1KEBtrmr+zabOGOKk6OSnnLk8vRMv6rp370KBhXS0ceT04yMp6oRS+Dt+wbqs+j/LmhQJ27tiDqtXidE/XAgdeUXxfc20z7S7DrVWba9CsReNi194ZtnFTQHIw5c239sLgoffowah0P6CPry3WbyN4begOU1pcqauEwomzYdBlpU27lkVlcG3r5tqtKFLVVe02oUSFtWsGrxkFmiN4/Vnv6Nf96FND8OyLj+OI6qSdSjB+N1/aa8GOIS3KFpcXR1BMMm/ValQtSosbz5k+1nSxsIfF3emRIcOv2CyDUR3Bt0enVRlY3x/8zHuM9Yb3+X9fGaldMuzhynXLUnH6qY7tbvVcsbit/PTDbO0mxvEdi+Yt1884umpx8CdnWbEuC5Z7/Qame8xZnssaDuILijBZeAut+tkU0bNGmSzPnHWjWiMg+SSQZOOKeuYwkKYeD1WtXF391WOh491Az6FA9yFA7WuNhbe12C4LaFGnu0l6orFPeO1WJgt3q5uA0ChgzY+mDsRfTZ06xpZXwjmsP/zwwxJt/K09HKXZvrl7rgaewFGaXYONF4Shu0eyEtj25sI2wkdVzAeiumNE3H3IuZiH505OQbbBTCH20iTtK10pkq1Jz7uIg0pUkxmHMnE4swD+3uXwfPMIPNYoDL5WczbXD/PTb18PmY+3h6M0LQNb7cE3rlyunAvI/PTTT3raPQsjRozA2rVrMWbMGJw6dQpjx47VVm1nHTRHaboys4encTfNqyKuLS4DFFR8uFOUGIVZYGOyVQlWigJO38VpqThLQlRUBS3EJk2Ypjd+JnylXrlKbNHgNGI057Ut9D+sUbMqpn/zkx6EReHEwU/zleBs176lfq1qdAwHon3y4UTt+8zZAsLCQrF3936dH75KX7l8rVMx4wi+MuFMCFs2b8fSRat0nHzlO3P6LNXIsGGN1+U1fuwUjHp3rG7gWVaHDh7D2TNnERVtcgGgRTlPNcicP5lCnMf8/MMcjHz7Ex0focjkPMOcRYRCmNeCg/s4LR4HnrIMWQ7XdeuA2b8v0K+2GRfLia/l6RPM182kboPaeoo3DrhiWTGNqV+ZZnZp3baF/lutehzq1q2F8eoY+o8yvV+UiKDPfLcenfS5M+zA/sNarFu/PmqjrgnrA4/nMSyXpYtW6kVabDtk9jCK2yJ+GAcHxVqu8XorwcQyqFWrGhaocuG1pUWf14ZxWXBUpx3hSl0lFE4s7xXL1poGs6rzZzocjPjc06/rMqf7Et86zPzuF+3Wwus049ufsXaVff9i/u6lf7+pZ69hnKzHO7fv1m+LKGyNzqu014Jl+OLwN126T6KVkOfsKlMmfafrDOsx88xFUMZ9MsVhOVvcneiuYbvZDrA0ooVK96zqRHPgJM+TGz9/MX6qnp2HncHwsDB8982P+nnAe4OuUVMnf6/duOiq5sp1YyeD4yWs3VbeGfmyftPzyOMP4KnhD+s6Qn99ujOxLPg7lgXLhGXJa+FKnssa+hk36Q49/zT9j1MSTBtdOjgPdMPOJhHMWUI4UHDRZNM0epzvmn+XTVUCPQ6IVwK6LLmkhD8HJzJdbrSWW3cG7EF3E7qdJOw1BxjAMmh3u2lw55b5KsATvmWlwN2BZJ7AUZo92htPMlCWOEqzT7hpfIQ1Nf1jEO0TipN5yRhU4TqMqjIYc+q8hidj+upl0W2p5BuO/pGd9IDGh6KuR0pBFp44MUG7lxhhlKaFnlWMXVmt2Zpssl4PrheKWiE+WJRwXoXlone1IHzQLgqVAn30y5s6Yb44mJ5fNOe1PRyleffdqmdrB77t/uqrr/SUjYsXL8a//vUv8x4TdOnllHyc8/znn39GmzZt4OXlhc8//9zQMm3BUZp3N3ZulOn1zRq9QmOLiaYpfidsPKa/c1tz4rIB8I7vNxSFO8KVNK25KuKajQutglu37sTge5/A1k07DMMscADjt1//iP63PoQX//0G4uNNlln+xna2EDasFJW2r9T3K9FjO+e1LbR4PfzoIC0c6CvNFQX5OvymfjfowYqOjrntzpvQvlMbbY3qf++tWL1qPQbeNQz39X9UCe0DaNq8of59SeF0ZUx3xrSfcM8dj+DB+57Wfqr/fv5R7UfKc+Wgw4L8Qjx0/zO6rD5891P0vvl6JWRNU87VrlNTW8feeOV9vPvWaC0cbWcL4cCpZ1TDvX7NRgx94F8YdPdjmPLFdNx6Rx/06tNNH0N4rvfedwemTpmJe+98BB++95kqo47FjmEZUQTQT/mJR17UeT525CSeeOZBPSUf4Y340LD7UFOJhJeefUunxxkjKHQsUwzyJuQr+5q1irs5sCPw1L+G6unY+DuWC8uHrgFcDMYVjOJmWfKtA1f4e+CeJ/Q1nv3bfG1ltIZTEVZRnTiWJ1eoPHTwCLp1V62sGUd12hGu1FULtvWC5cDyGPbkYO2OwA5Dn5tv0Mewg8ApL/PzCnC3AxcX/m7II/fiD3XOjJP1eOWydVrUcZ/ReZX2WtAizkVfUs85mXpBwXPiPcb5ozndJ+s670XWN7pWWN/3nsb2PC3l/cyzw/SgSkt9btS4Ht56/UN9b/z7yVe0L/jwFx4rqvfOrpur2D6PWBYsE5ZN31tu0Mc4y/PVoH5boMt9Jt/kH942bRzA2PPhy1PZUYD2egyooG77ZdOA7/5j+ltJaSDOskE3j7LknBL8379pSpfbzP+qjqbzVZn1m6EW15vcQxxRuQ7QSHUkdi01TeH3V0L3DM49fLVgWkYuIRYqhJfHzd2cuxpYs3zjEcyYs11vBS4aLiwwLaZpD7pnUBhbQ6s1aV6+Fh6O7oXWQXVxTgnm/hGd8HP8y/i02jC1PYLx1R/Db7VfwY/xL+HJin2VyI7AvIwtGHJ0NPZeKD6jkAWmZeQSYoHuGbfUvPzW1ogdKaa3prHlffQqjWN2pOGVDefwxd4M1AjxxZiOUbi5RrC2aB9Md/yGlWkZuYRYoAimQDaif//+WixzYSG6fRgZO/h2lr8/fPiwFtucom/fvn24//77zUcUh8c6Et6xIf4Y2rLkbpDuwrSYpjuUS0hI0N0ZLtbQoJHVvEllAK0snLGBFhgL1mH0g+R8tfc/OEDPIZudla0tw9YDc2xJUb8ZNWIshqoGhz6ghJYaujr06dtDj7x3Bf6G1kgKHDaYRjg6htZO5pc+u+WtZjEpLa7ES7FIi5m9vNNSRuydlwWeX35+nnaXsLYYW8P8nD/PeYkDHcbHuDgdnKOyYJ5zci5ckR7np54ze6HDeYp5znSJob+tO4NpHcXNumiZbspRGTgrT6N6bo+S1FXiKK/cxw6OdblwwO3XX07HGyNe1NZcIyx1ja/bjc7f3nmV9FqUBJY9B/UxD46eC57GlbphKT+6k9Hab4Qr8bgK75+szCwEK6FtlJ4n0yoN9KEmjsQyBy5yIZZApSeM3D3+v+LJdpnGqClTpoCLepQlFNX0seWiM47IyS3AE2/9iuRUcwUpI6IiAvHpq/0Q4O+4/eOAw4FHPkBivuntzpiqQxHtG4aN5w9iXdY+bDp/SLt51PCviLsiOqJhYDVU8A5BiHcgkgszcCI3GdsvHMXyrF12rdUkRsU5reazCPRyPJVNTsElPLoiSU/HZwQ9P3rEldcLv6w+U3wAQHyoD15oHqkHOVLgcWn0DUkGgwQU0UpUj+9UEQFWs48YkZ2dja5du2rXjrKkcuXKWLp0KYKC7I+lIdnq+dd1ymqcyjQ+L09ROSQASwe3R5CdZ7o9vIcPH67669DTgvH1a1nCh7utILEO47RZfLVMYR1XJVY3oM4EIQV5fl6+dhvxNftesvHNSMtA02saa8uyKzAdNtbsgdnD0TGci5v5teTBU7gSL/c5yjvDHZ2XBZ4fF/xw1Ajr/KhjnMXHuJyVBYWYUXqc65crNjqygDJulgvz4w6O4mY+mB/nZeC4PK3rtDNKUleJvbxSfE6eNB1r12zQ/shs4LIys/HNVzO1+1KXbh3sWnotdc3e+ds7r5Jei5LAcmddd7V8PYW98rbGUn6OOhiuxOMqTIf+1/bS82RapcFbPQa4OYLZ47R6f2E2/5Z4sl3mfR8eHo69ex34s3iA3r17IyrKeZ59fLwQGx2KFRtdeV1Qcv71QEdUr+x8AKVvOW9U8Y3Cwsyt+vumCwf1QMQ1WXtxIi9ZL3lO0gqzsSprD2alrcX0lOX46twifJ+yEvMyNmPr+cNILTB1aO3xWuwA1LIzgNIaLldOcbzMzhR7Fj/qE1lX+jKl5l7EgpPn9dzYU/ZmYE+qfcv1s80iUD3EuW7hGBsuf+/uEubuQp9supg4w08992qGB2LWXgdzdnqAsb0bo34Jpo+8quLaGdbimgLIFTjAp1GT+sWEHBtfhrkjVoS/D3ytbesS4inKMu6S4Om6SvFZKSYaC+Yu0QP2fpjxG379Za72KedMNpzRRRCEfwaebpe5DgTfOh45cuWCJp6gW7duaNjQdZfIuJhQveri5t1lYw0deue16NrGNZdBUs0/GqHeQVibvQ/nDQYhlhYuLtMr7PJKwc6IU+I61M8LG8+6n5cCpb45/R4HP9pjWMMwXBfnetsTHx+PiIgILFly5ewnnuCtt97CHXfcYf7mnPjIIEQE+mLJkbJZqfOtbvVxR8OSrQ1wVd1CBEG4OlhcAuiTz5k2POmqJAjC1aGs2uUtW7bowWeehMK6RQvTwHV3mbN0Lyb9sNH8zTNQWPfp6twCasSPqasxOvFX8zfPQGF9R0TJpuidfSwbE3Z7djAyhXXf6o5dL+wxefJkvPrqq+ZvnoHCesgQ54PMjZi85TheXezZNzIU1kNalHxWm7+V5VoQBM9gcQmg24Az9xxBEP6elFW7zMFiMTExSEhIgKNFmFyBPtZ0BXHHYm1L3RpRiK8WiT2HEnE+x4UpWxxAH2u6grhjsbalYWBV1POvgh05Rwyn0XMH+ljTFcQdi7UtdcP9UDvMF7tT83CeJulSQB9ruoK4Y7G2hZ2opk2bYv16Ll5VOh9++ljTFcQdi7UtLWLD0DQmBOsT0pCZV7r6Qx9ruoKU1GJtQSzXgiAIgvA3pKzbZQ5yXLVqFTZt2mQOcQ/OCtKhQwengxddhYMcv5u9Db8t3mMOcQ/OCnJP32ZOBy+6Cgc5fpE8HzNTVphD3IOzgnBaPmeDF12FgxynHczErCOO/brtwVlBBtYOcTp40VU4yHHUqFGYNGmSOcQ9OCsI57x2NnjRVTjIcdSqQ5i06Zg5xD04K8hzHeLdHrxohIhrQRAEQfgbcrXaZVofd+7ciQMHDuDs2bPmUGO4Eh8XiOE81o6m2ysN59LOY+Hqg1i99TiOJTierpMrL3KBGM5j7Wi6vdLAVRbnpG3A0qwdOJTjeAAdV17kAjGcx9rRdHulITmnUA9YXH3mAo5kOrbUcuVFLhDDeawdTbdXGk6fPq0XkZkzZw727HHcMeLKi1wghvNYO5purzSczszFjJ0nMedAEvacdWxZ58qLXCCG81i7O92eI0RcC4IgCMLfkL+iXabQpsDmmgA5OaZpzgICAhAWFmZ3SfOyJFkJ7aMnU5GYnInsC6aF44ICfRETFYIaVSIMlzQvSyi0uWLjqfwUZF00zeQR7BWIyr6RqB0QW2aC2h4U2oczCpB0oUBPy0eCfbxQMdAHtUKNlzQvSyi0d+3ahePHjyMjw7R8PJdEr1atGho1alRmgtoepzNzsEsJ7OPpF5BhdjkKDfBBtbBANHJzSXN3KBLXXGGwbv3aerYBQRAEQRD+OrjYBlcfrt+wrjlEEIR/CkVKmoOfLlwo28m4BUEQBEFwDttjtsuCIPzzKBLXXFI7LdWzU70IgiAIguA+bI/ZLguC8M+jSFxXiIrUSxufO5dqDhEEQRAE4WrDdpjtMdtlQRD+eRT5XJO8vHwknDgFP38/hEeE6TlyxQdbEARBEMoW+ljTFYQWawrruKqV4Sdz1AvCP5Ji4trCueQUZKRnIjc3V6/0JgiCIAhC2WFZ+ImuIGKxFoR/NobiWhAEQRAEQRAE9xGfD0EQBEEQBEHwECKuBUEQBEEQBMFDiLgWBEEQBEEQBA8h4loQBEEQBEEQPALwf8NTVyrRxALcAAAAAElFTkSuQmCC;" parent="WIyWlLk6GJQsqaUBKTNV-1" vertex="1">
          <mxGeometry x="960" y="78.92" width="627" height="106.08" as="geometry" />
        </mxCell>
        <mxCell id="23GlFV0wK0m30or0m1ka-56" value="2" style="ellipse;whiteSpace=wrap;html=1;aspect=fixed;" parent="WIyWlLk6GJQsqaUBKTNV-1" vertex="1">
          <mxGeometry x="750" y="140" width="30" height="30" as="geometry" />
        </mxCell>
        <mxCell id="23GlFV0wK0m30or0m1ka-59" value="" style="edgeStyle=orthogonalEdgeStyle;rounded=0;orthogonalLoop=1;jettySize=auto;html=1;" parent="WIyWlLk6GJQsqaUBKTNV-1" source="23GlFV0wK0m30or0m1ka-57" target="23GlFV0wK0m30or0m1ka-58" edge="1">
          <mxGeometry relative="1" as="geometry" />
        </mxCell>
        <mxCell id="23GlFV0wK0m30or0m1ka-57" value="&lt;h3&gt;Share referral Link&lt;/h3&gt;" style="rounded=1;whiteSpace=wrap;html=1;" parent="WIyWlLk6GJQsqaUBKTNV-1" vertex="1">
          <mxGeometry x="800" y="125" width="140" height="60" as="geometry" />
        </mxCell>
        <mxCell id="23GlFV0wK0m30or0m1ka-60" style="edgeStyle=orthogonalEdgeStyle;rounded=0;orthogonalLoop=1;jettySize=auto;html=1;entryX=0.5;entryY=0;entryDx=0;entryDy=0;" parent="WIyWlLk6GJQsqaUBKTNV-1" source="23GlFV0wK0m30or0m1ka-58" target="23GlFV0wK0m30or0m1ka-39" edge="1">
          <mxGeometry relative="1" as="geometry">
            <Array as="points">
              <mxPoint x="870" y="990" />
              <mxPoint x="360" y="990" />
              <mxPoint x="360" y="1044" />
            </Array>
          </mxGeometry>
        </mxCell>
        <mxCell id="23GlFV0wK0m30or0m1ka-58" value="User will open the referral link" style="whiteSpace=wrap;html=1;rounded=1;" parent="WIyWlLk6GJQsqaUBKTNV-1" vertex="1">
          <mxGeometry x="810" y="265" width="120" height="60" as="geometry" />
        </mxCell>
        <mxCell id="M4ZOtgITxWGcaUq0QgcI-0" value="&lt;div style=&quot;color: #cccccc;background-color: #1f1f1f;font-family: Consolas, &#39;Courier New&#39;, monospace;font-weight: normal;font-size: 14px;line-height: 19px;white-space: pre;&quot;&gt;&lt;div&gt;&lt;span style=&quot;color: #c586c0;&quot;&gt;await&lt;/span&gt;&lt;span style=&quot;color: #cccccc;&quot;&gt; &lt;/span&gt;&lt;span style=&quot;color: #9cdcfe;&quot;&gt;RestApi&lt;/span&gt;&lt;span style=&quot;color: #cccccc;&quot;&gt;.&lt;/span&gt;&lt;span style=&quot;color: #dcdcaa;&quot;&gt;post&lt;/span&gt;&lt;span style=&quot;color: #cccccc;&quot;&gt;(&lt;/span&gt;&lt;span style=&quot;color: #ce9178;&quot;&gt;`&lt;/span&gt;&lt;span style=&quot;color: #569cd6;&quot;&gt;${&lt;/span&gt;&lt;span style=&quot;color: #4fc1ff;&quot;&gt;API_URLS&lt;/span&gt;&lt;span style=&quot;color: #d4d4d4;&quot;&gt;.&lt;/span&gt;&lt;span style=&quot;color: #9cdcfe;&quot;&gt;v0&lt;/span&gt;&lt;span style=&quot;color: #d4d4d4;&quot;&gt;.&lt;/span&gt;&lt;span style=&quot;color: #4fc1ff;&quot;&gt;REFER_EARN&lt;/span&gt;&lt;span style=&quot;color: #569cd6;&quot;&gt;}&lt;/span&gt;&lt;span style=&quot;color: #ce9178;&quot;&gt;`&lt;/span&gt;&lt;span style=&quot;color: #cccccc;&quot;&gt;, {&lt;/span&gt;&lt;span style=&quot;color: #9cdcfe;&quot;&gt;fromEmail&lt;/span&gt;&lt;span style=&quot;color: #cccccc;&quot;&gt;, &lt;/span&gt;&lt;span style=&quot;color: #9cdcfe;&quot;&gt;toEmail&lt;/span&gt;&lt;span style=&quot;color: #cccccc;&quot;&gt;})&lt;/span&gt;&lt;/div&gt;&lt;/div&gt;" style="text;whiteSpace=wrap;html=1;" vertex="1" parent="WIyWlLk6GJQsqaUBKTNV-1">
          <mxGeometry x="-440" y="720" width="560" height="40" as="geometry" />
        </mxCell>
        <mxCell id="M4ZOtgITxWGcaUq0QgcI-1" value="&lt;div style=&quot;color: #cccccc;background-color: #1f1f1f;font-family: Consolas, &#39;Courier New&#39;, monospace;font-weight: normal;font-size: 14px;line-height: 19px;white-space: pre;&quot;&gt;&lt;div&gt;&lt;span style=&quot;color: #c586c0;&quot;&gt;await&lt;/span&gt;&lt;span style=&quot;color: #cccccc;&quot;&gt; &lt;/span&gt;&lt;span style=&quot;color: #9cdcfe;&quot;&gt;RestApi&lt;/span&gt;&lt;span style=&quot;color: #cccccc;&quot;&gt;.&lt;/span&gt;&lt;span style=&quot;color: #dcdcaa;&quot;&gt;get&lt;/span&gt;&lt;span style=&quot;color: #cccccc;&quot;&gt;(&lt;/span&gt;&lt;span style=&quot;color: #ce9178;&quot;&gt;`&lt;/span&gt;&lt;span style=&quot;color: #569cd6;&quot;&gt;${&lt;/span&gt;&lt;span style=&quot;color: #4fc1ff;&quot;&gt;API_URLS&lt;/span&gt;&lt;span style=&quot;color: #d4d4d4;&quot;&gt;.&lt;/span&gt;&lt;span style=&quot;color: #9cdcfe;&quot;&gt;v0&lt;/span&gt;&lt;span style=&quot;color: #d4d4d4;&quot;&gt;.&lt;/span&gt;&lt;span style=&quot;color: #4fc1ff;&quot;&gt;USER&lt;/span&gt;&lt;span style=&quot;color: #569cd6;&quot;&gt;}&lt;/span&gt;&lt;span style=&quot;color: #ce9178;&quot;&gt;?referralToken=&lt;/span&gt;&lt;span style=&quot;color: #569cd6;&quot;&gt;${&lt;/span&gt;&lt;span style=&quot;color: #4fc1ff;&quot;&gt;ref&lt;/span&gt;&lt;span style=&quot;color: #569cd6;&quot;&gt;}&lt;/span&gt;&lt;span style=&quot;color: #ce9178;&quot;&gt;`&lt;/span&gt;&lt;span style=&quot;color: #cccccc;&quot;&gt;)&lt;/span&gt;&lt;/div&gt;&lt;/div&gt;" style="text;whiteSpace=wrap;html=1;" vertex="1" parent="WIyWlLk6GJQsqaUBKTNV-1">
          <mxGeometry x="-350" y="1064" width="500" height="40" as="geometry" />
        </mxCell>
        <mxCell id="M4ZOtgITxWGcaUq0QgcI-2" value="&lt;div style=&quot;color: #cccccc;background-color: #1f1f1f;font-family: Consolas, &#39;Courier New&#39;, monospace;font-weight: normal;font-size: 14px;line-height: 19px;white-space: pre;&quot;&gt;&lt;div&gt;&lt;span style=&quot;color: #c586c0;&quot;&gt;await&lt;/span&gt;&lt;span style=&quot;color: #cccccc;&quot;&gt; &lt;/span&gt;&lt;span style=&quot;color: #9cdcfe;&quot;&gt;RestApi&lt;/span&gt;&lt;span style=&quot;color: #cccccc;&quot;&gt;.&lt;/span&gt;&lt;span style=&quot;color: #dcdcaa;&quot;&gt;put&lt;/span&gt;&lt;span style=&quot;color: #cccccc;&quot;&gt;(&lt;/span&gt;&lt;span style=&quot;color: #ce9178;&quot;&gt;`&lt;/span&gt;&lt;span style=&quot;color: #569cd6;&quot;&gt;${&lt;/span&gt;&lt;span style=&quot;color: #9cdcfe;&quot;&gt;ApiUrls&lt;/span&gt;&lt;span style=&quot;color: #d4d4d4;&quot;&gt;.&lt;/span&gt;&lt;span style=&quot;color: #9cdcfe;&quot;&gt;v0&lt;/span&gt;&lt;span style=&quot;color: #d4d4d4;&quot;&gt;.&lt;/span&gt;&lt;span style=&quot;color: #4fc1ff;&quot;&gt;USERS_REFERRER_PROFILE&lt;/span&gt;&lt;span style=&quot;color: #569cd6;&quot;&gt;}&lt;/span&gt;&lt;span style=&quot;color: #ce9178;&quot;&gt;`&lt;/span&gt;&lt;span style=&quot;color: #cccccc;&quot;&gt;, { &lt;/span&gt;&lt;span style=&quot;color: #9cdcfe;&quot;&gt;email&lt;/span&gt;&lt;span style=&quot;color: #cccccc;&quot;&gt;, &lt;/span&gt;&lt;span style=&quot;color: #9cdcfe;&quot;&gt;referredBy&lt;/span&gt;&lt;span style=&quot;color: #9cdcfe;&quot;&gt;:&lt;/span&gt;&lt;span style=&quot;color: #cccccc;&quot;&gt; &lt;/span&gt;&lt;span style=&quot;color: #4fc1ff;&quot;&gt;referrer&lt;/span&gt;&lt;span style=&quot;color: #cccccc;&quot;&gt;.&lt;/span&gt;&lt;span style=&quot;color: #9cdcfe;&quot;&gt;email&lt;/span&gt;&lt;span style=&quot;color: #cccccc;&quot;&gt; })&lt;/span&gt;&lt;/div&gt;&lt;/div&gt;" style="text;whiteSpace=wrap;html=1;" vertex="1" parent="WIyWlLk6GJQsqaUBKTNV-1">
          <mxGeometry x="-700" y="1300" width="560" height="40" as="geometry" />
        </mxCell>
      </root>
    </mxGraphModel>
  </diagram>
</mxfile>
